<?xml version="1.0" encoding="utf-8" standalone="no"?>
<!DOCTYPE svg PUBLIC "-//W3C//DTD SVG 1.1//EN"
  "http://www.w3.org/Graphics/SVG/1.1/DTD/svg11.dtd">
<svg xmlns:xlink="http://www.w3.org/1999/xlink" width="460.8pt" height="345.6pt" viewBox="0 0 460.8 345.6" xmlns="http://www.w3.org/2000/svg" version="1.1">
 <metadata>
  <rdf:RDF xmlns:dc="http://purl.org/dc/elements/1.1/" xmlns:cc="http://creativecommons.org/ns#" xmlns:rdf="http://www.w3.org/1999/02/22-rdf-syntax-ns#">
   <cc:Work>
    <dc:type rdf:resource="http://purl.org/dc/dcmitype/StillImage"/>
    <dc:date>2024-06-07T19:22:31.014935</dc:date>
    <dc:format>image/svg+xml</dc:format>
    <dc:creator>
     <cc:Agent>
      <dc:title>Matplotlib v3.8.4, https://matplotlib.org/</dc:title>
     </cc:Agent>
    </dc:creator>
   </cc:Work>
  </rdf:RDF>
 </metadata>
 <defs>
  <style type="text/css">*{stroke-linejoin: round; stroke-linecap: butt}</style>
 </defs>
 <g id="figure_1">
  <g id="patch_1">
   <path d="M 0 345.6 
L 460.8 345.6 
L 460.8 0 
L 0 0 
z
" style="fill: #ffffff"/>
  </g>
  <g id="axes_1">
   <g id="patch_2">
    <path d="M 53.4 101.044714 
L 150 101.044714 
L 150 29.04 
L 53.4 29.04 
z
" style="fill: #eeeeee"/>
   </g>
   <g id="matplotlib.axis_1">
    <g id="xtick_1">
     <g id="line2d_1">
      <path d="M 57.790909 101.044714 
L 57.790909 29.04 
" clip-path="url(#p213e1ee4bd)" style="fill: none; stroke-dasharray: 1.85,0.8; stroke-dashoffset: 0; stroke: #b2b2b2; stroke-width: 0.5"/>
     </g>
     <g id="line2d_2">
      <defs>
       <path id="m1e4b587a92" d="M 0 0 
L 0 -3.5 
" style="stroke: #000000; stroke-width: 0.8"/>
      </defs>
      <g>
       <use xlink:href="#m1e4b587a92" x="57.790909" y="101.044714" style="stroke: #000000; stroke-width: 0.8"/>
      </g>
     </g>
    </g>
    <g id="xtick_2">
     <g id="line2d_3">
      <path d="M 93.635065 101.044714 
L 93.635065 29.04 
" clip-path="url(#p213e1ee4bd)" style="fill: none; stroke-dasharray: 1.85,0.8; stroke-dashoffset: 0; stroke: #b2b2b2; stroke-width: 0.5"/>
     </g>
     <g id="line2d_4">
      <g>
       <use xlink:href="#m1e4b587a92" x="93.635065" y="101.044714" style="stroke: #000000; stroke-width: 0.8"/>
      </g>
     </g>
    </g>
    <g id="xtick_3">
     <g id="line2d_5">
      <path d="M 129.479221 101.044714 
L 129.479221 29.04 
" clip-path="url(#p213e1ee4bd)" style="fill: none; stroke-dasharray: 1.85,0.8; stroke-dashoffset: 0; stroke: #b2b2b2; stroke-width: 0.5"/>
     </g>
     <g id="line2d_6">
      <g>
       <use xlink:href="#m1e4b587a92" x="129.479221" y="101.044714" style="stroke: #000000; stroke-width: 0.8"/>
      </g>
     </g>
    </g>
   </g>
   <g id="matplotlib.axis_2">
    <g id="ytick_1">
     <g id="line2d_7">
      <path d="M 53.4 80.88738 
L 150 80.88738 
" clip-path="url(#p213e1ee4bd)" style="fill: none; stroke-dasharray: 1.85,0.8; stroke-dashoffset: 0; stroke: #b2b2b2; stroke-width: 0.5"/>
     </g>
     <g id="line2d_8">
      <defs>
       <path id="m48970b393b" d="M 0 0 
L 3.5 0 
" style="stroke: #000000; stroke-width: 0.8"/>
      </defs>
      <g>
       <use xlink:href="#m48970b393b" x="53.4" y="80.88738" style="stroke: #000000; stroke-width: 0.8"/>
      </g>
     </g>
     <g id="text_1">
      <!-- −0.4 -->
      <g transform="translate(25.617188 84.686599) scale(0.1 -0.1)">
       <defs>
        <path id="DejaVuSans-2212" d="M 678 2272 
L 4684 2272 
L 4684 1741 
L 678 1741 
L 678 2272 
z
" transform="scale(0.015625)"/>
        <path id="DejaVuSans-30" d="M 2034 4250 
Q 1547 4250 1301 3770 
Q 1056 3291 1056 2328 
Q 1056 1369 1301 889 
Q 1547 409 2034 409 
Q 2525 409 2770 889 
Q 3016 1369 3016 2328 
Q 3016 3291 2770 3770 
Q 2525 4250 2034 4250 
z
M 2034 4750 
Q 2819 4750 3233 4129 
Q 3647 3509 3647 2328 
Q 3647 1150 3233 529 
Q 2819 -91 2034 -91 
Q 1250 -91 836 529 
Q 422 1150 422 2328 
Q 422 3509 836 4129 
Q 1250 4750 2034 4750 
z
" transform="scale(0.015625)"/>
        <path id="DejaVuSans-2e" d="M 684 794 
L 1344 794 
L 1344 0 
L 684 0 
L 684 794 
z
" transform="scale(0.015625)"/>
        <path id="DejaVuSans-34" d="M 2419 4116 
L 825 1625 
L 2419 1625 
L 2419 4116 
z
M 2253 4666 
L 3047 4666 
L 3047 1625 
L 3713 1625 
L 3713 1100 
L 3047 1100 
L 3047 0 
L 2419 0 
L 2419 1100 
L 313 1100 
L 313 1709 
L 2253 4666 
z
" transform="scale(0.015625)"/>
       </defs>
       <use xlink:href="#DejaVuSans-2212"/>
       <use xlink:href="#DejaVuSans-30" x="83.789062"/>
       <use xlink:href="#DejaVuSans-2e" x="147.412109"/>
       <use xlink:href="#DejaVuSans-34" x="179.199219"/>
      </g>
     </g>
    </g>
    <g id="ytick_2">
     <g id="line2d_9">
      <path d="M 53.4 43.886802 
L 150 43.886802 
" clip-path="url(#p213e1ee4bd)" style="fill: none; stroke-dasharray: 1.85,0.8; stroke-dashoffset: 0; stroke: #b2b2b2; stroke-width: 0.5"/>
     </g>
     <g id="line2d_10">
      <g>
       <use xlink:href="#m48970b393b" x="53.4" y="43.886802" style="stroke: #000000; stroke-width: 0.8"/>
      </g>
     </g>
     <g id="text_2">
      <!-- −0.2 -->
      <g transform="translate(25.617188 47.686021) scale(0.1 -0.1)">
       <defs>
        <path id="DejaVuSans-32" d="M 1228 531 
L 3431 531 
L 3431 0 
L 469 0 
L 469 531 
Q 828 903 1448 1529 
Q 2069 2156 2228 2338 
Q 2531 2678 2651 2914 
Q 2772 3150 2772 3378 
Q 2772 3750 2511 3984 
Q 2250 4219 1831 4219 
Q 1534 4219 1204 4116 
Q 875 4013 500 3803 
L 500 4441 
Q 881 4594 1212 4672 
Q 1544 4750 1819 4750 
Q 2544 4750 2975 4387 
Q 3406 4025 3406 3419 
Q 3406 3131 3298 2873 
Q 3191 2616 2906 2266 
Q 2828 2175 2409 1742 
Q 1991 1309 1228 531 
z
" transform="scale(0.015625)"/>
       </defs>
       <use xlink:href="#DejaVuSans-2212"/>
       <use xlink:href="#DejaVuSans-30" x="83.789062"/>
       <use xlink:href="#DejaVuSans-2e" x="147.412109"/>
       <use xlink:href="#DejaVuSans-32" x="179.199219"/>
      </g>
     </g>
    </g>
    <g id="text_3">
     <!-- Position -->
     <g transform="translate(19.121563 88.399232) rotate(-90) scale(0.12 -0.12)">
      <defs>
       <path id="DejaVuSans-50" d="M 1259 4147 
L 1259 2394 
L 2053 2394 
Q 2494 2394 2734 2622 
Q 2975 2850 2975 3272 
Q 2975 3691 2734 3919 
Q 2494 4147 2053 4147 
L 1259 4147 
z
M 628 4666 
L 2053 4666 
Q 2838 4666 3239 4311 
Q 3641 3956 3641 3272 
Q 3641 2581 3239 2228 
Q 2838 1875 2053 1875 
L 1259 1875 
L 1259 0 
L 628 0 
L 628 4666 
z
" transform="scale(0.015625)"/>
       <path id="DejaVuSans-6f" d="M 1959 3097 
Q 1497 3097 1228 2736 
Q 959 2375 959 1747 
Q 959 1119 1226 758 
Q 1494 397 1959 397 
Q 2419 397 2687 759 
Q 2956 1122 2956 1747 
Q 2956 2369 2687 2733 
Q 2419 3097 1959 3097 
z
M 1959 3584 
Q 2709 3584 3137 3096 
Q 3566 2609 3566 1747 
Q 3566 888 3137 398 
Q 2709 -91 1959 -91 
Q 1206 -91 779 398 
Q 353 888 353 1747 
Q 353 2609 779 3096 
Q 1206 3584 1959 3584 
z
" transform="scale(0.015625)"/>
       <path id="DejaVuSans-73" d="M 2834 3397 
L 2834 2853 
Q 2591 2978 2328 3040 
Q 2066 3103 1784 3103 
Q 1356 3103 1142 2972 
Q 928 2841 928 2578 
Q 928 2378 1081 2264 
Q 1234 2150 1697 2047 
L 1894 2003 
Q 2506 1872 2764 1633 
Q 3022 1394 3022 966 
Q 3022 478 2636 193 
Q 2250 -91 1575 -91 
Q 1294 -91 989 -36 
Q 684 19 347 128 
L 347 722 
Q 666 556 975 473 
Q 1284 391 1588 391 
Q 1994 391 2212 530 
Q 2431 669 2431 922 
Q 2431 1156 2273 1281 
Q 2116 1406 1581 1522 
L 1381 1569 
Q 847 1681 609 1914 
Q 372 2147 372 2553 
Q 372 3047 722 3315 
Q 1072 3584 1716 3584 
Q 2034 3584 2315 3537 
Q 2597 3491 2834 3397 
z
" transform="scale(0.015625)"/>
       <path id="DejaVuSans-69" d="M 603 3500 
L 1178 3500 
L 1178 0 
L 603 0 
L 603 3500 
z
M 603 4863 
L 1178 4863 
L 1178 4134 
L 603 4134 
L 603 4863 
z
" transform="scale(0.015625)"/>
       <path id="DejaVuSans-74" d="M 1172 4494 
L 1172 3500 
L 2356 3500 
L 2356 3053 
L 1172 3053 
L 1172 1153 
Q 1172 725 1289 603 
Q 1406 481 1766 481 
L 2356 481 
L 2356 0 
L 1766 0 
Q 1100 0 847 248 
Q 594 497 594 1153 
L 594 3053 
L 172 3053 
L 172 3500 
L 594 3500 
L 594 4494 
L 1172 4494 
z
" transform="scale(0.015625)"/>
       <path id="DejaVuSans-6e" d="M 3513 2113 
L 3513 0 
L 2938 0 
L 2938 2094 
Q 2938 2591 2744 2837 
Q 2550 3084 2163 3084 
Q 1697 3084 1428 2787 
Q 1159 2491 1159 1978 
L 1159 0 
L 581 0 
L 581 3500 
L 1159 3500 
L 1159 2956 
Q 1366 3272 1645 3428 
Q 1925 3584 2291 3584 
Q 2894 3584 3203 3211 
Q 3513 2838 3513 2113 
z
" transform="scale(0.015625)"/>
      </defs>
      <use xlink:href="#DejaVuSans-50"/>
      <use xlink:href="#DejaVuSans-6f" x="56.677734"/>
      <use xlink:href="#DejaVuSans-73" x="117.859375"/>
      <use xlink:href="#DejaVuSans-69" x="169.958984"/>
      <use xlink:href="#DejaVuSans-74" x="197.742188"/>
      <use xlink:href="#DejaVuSans-69" x="236.951172"/>
      <use xlink:href="#DejaVuSans-6f" x="264.734375"/>
      <use xlink:href="#DejaVuSans-6e" x="325.916016"/>
     </g>
    </g>
   </g>
   <g id="line2d_11">
    <path d="M 57.790909 82.589663 
L 59.583117 86.793165 
L 61.375325 90.195094 
L 63.167532 92.796833 
L 64.95974 94.642601 
L 66.751948 96.768009 
L 68.544156 97.44807 
L 70.336364 96.684317 
L 72.128571 94.59835 
L 73.920779 91.372569 
L 75.712987 87.492883 
L 77.505195 84.128184 
L 79.297403 81.269839 
L 81.08961 78.83693 
L 82.881818 76.708182 
L 84.674026 75.798649 
L 86.466234 74.677335 
L 88.258442 73.556363 
L 90.050649 72.593079 
L 91.842857 71.856435 
L 93.635065 70.946777 
L 95.427273 69.256275 
L 97.219481 66.91451 
L 99.011688 64.127537 
L 100.803896 61.132135 
L 102.596104 57.053139 
L 104.388312 53.445779 
L 106.180519 50.455397 
L 107.972727 48.171839 
L 109.764935 46.632053 
L 111.557143 45.873439 
L 113.349351 44.976889 
L 115.141558 43.973967 
L 116.933766 42.888387 
L 118.725974 41.736987 
L 120.518182 39.876779 
L 122.31039 38.272818 
L 124.102597 36.972246 
L 125.894805 36.007427 
L 127.687013 35.39558 
L 129.479221 35.084628 
L 131.271429 34.793579 
L 133.063636 34.494318 
L 134.855844 34.156277 
L 136.648052 33.748233 
L 138.44026 33.640048 
L 140.232468 33.489536 
L 142.024675 33.27081 
L 143.816883 32.967422 
L 145.609091 32.575801 
" clip-path="url(#p213e1ee4bd)" style="fill: none; stroke: #348abd; stroke-width: 4; stroke-linecap: square"/>
   </g>
   <g id="line2d_12">
    <path d="M 57.790909 79.937349 
L 59.583117 88.095665 
L 61.375325 90.655644 
L 63.167532 92.980734 
L 64.95974 94.928925 
L 66.751948 96.740518 
L 68.544156 97.771772 
L 70.336364 97.382898 
L 72.128571 95.783627 
L 73.920779 92.548692 
L 75.712987 88.959878 
L 77.505195 85.945511 
L 79.297403 82.723379 
L 81.08961 79.901712 
L 82.881818 77.661254 
L 84.674026 76.460054 
L 86.466234 75.144541 
L 88.258442 74.279343 
L 90.050649 73.351843 
L 91.842857 72.620532 
L 93.635065 70.96128 
L 95.427273 69.667099 
L 97.219481 67.17295 
L 99.011688 65.27313 
L 100.803896 61.463913 
L 102.596104 58.070182 
L 104.388312 55.810583 
L 106.180519 52.699191 
L 107.972727 49.385053 
L 109.764935 47.07555 
L 111.557143 45.677942 
L 113.349351 44.290393 
L 115.141558 44.270238 
L 116.933766 43.079846 
L 118.725974 42.017719 
L 120.518182 40.438488 
L 122.31039 38.05114 
L 124.102597 36.804193 
L 125.894805 35.587617 
L 127.687013 35.08238 
L 129.479221 35.062205 
L 131.271429 34.534794 
L 133.063636 34.265881 
L 134.855844 34.048839 
L 136.648052 33.523311 
L 138.44026 33.150562 
L 140.232468 33.027075 
L 142.024675 33.186086 
L 143.816883 32.431857 
L 145.609091 32.312942 
" clip-path="url(#p213e1ee4bd)" style="fill: none; stroke-dasharray: 7.4,3.2; stroke-dashoffset: 0; stroke: #a60628; stroke-width: 2"/>
   </g>
   <g id="patch_3">
    <path d="M 53.4 101.044714 
L 53.4 29.04 
" style="fill: none; stroke: #bcbcbc; stroke-width: 0.8; stroke-linejoin: miter; stroke-linecap: square"/>
   </g>
   <g id="patch_4">
    <path d="M 150 101.044714 
L 150 29.04 
" style="fill: none; stroke: #bcbcbc; stroke-width: 0.8; stroke-linejoin: miter; stroke-linecap: square"/>
   </g>
   <g id="patch_5">
    <path d="M 53.4 101.044714 
L 150 101.044714 
" style="fill: none; stroke: #bcbcbc; stroke-width: 0.8; stroke-linejoin: miter; stroke-linecap: square"/>
   </g>
   <g id="patch_6">
    <path d="M 53.4 29.04 
L 150 29.04 
" style="fill: none; stroke: #bcbcbc; stroke-width: 0.8; stroke-linejoin: miter; stroke-linecap: square"/>
   </g>
   <g id="text_4">
    <!-- Robot 1 $x$ -->
    <g transform="translate(67.212 23.04) scale(0.144 -0.144)">
     <defs>
      <path id="DejaVuSans-52" d="M 2841 2188 
Q 3044 2119 3236 1894 
Q 3428 1669 3622 1275 
L 4263 0 
L 3584 0 
L 2988 1197 
Q 2756 1666 2539 1819 
Q 2322 1972 1947 1972 
L 1259 1972 
L 1259 0 
L 628 0 
L 628 4666 
L 2053 4666 
Q 2853 4666 3247 4331 
Q 3641 3997 3641 3322 
Q 3641 2881 3436 2590 
Q 3231 2300 2841 2188 
z
M 1259 4147 
L 1259 2491 
L 2053 2491 
Q 2509 2491 2742 2702 
Q 2975 2913 2975 3322 
Q 2975 3731 2742 3939 
Q 2509 4147 2053 4147 
L 1259 4147 
z
" transform="scale(0.015625)"/>
      <path id="DejaVuSans-62" d="M 3116 1747 
Q 3116 2381 2855 2742 
Q 2594 3103 2138 3103 
Q 1681 3103 1420 2742 
Q 1159 2381 1159 1747 
Q 1159 1113 1420 752 
Q 1681 391 2138 391 
Q 2594 391 2855 752 
Q 3116 1113 3116 1747 
z
M 1159 2969 
Q 1341 3281 1617 3432 
Q 1894 3584 2278 3584 
Q 2916 3584 3314 3078 
Q 3713 2572 3713 1747 
Q 3713 922 3314 415 
Q 2916 -91 2278 -91 
Q 1894 -91 1617 61 
Q 1341 213 1159 525 
L 1159 0 
L 581 0 
L 581 4863 
L 1159 4863 
L 1159 2969 
z
" transform="scale(0.015625)"/>
      <path id="DejaVuSans-20" transform="scale(0.015625)"/>
      <path id="DejaVuSans-31" d="M 794 531 
L 1825 531 
L 1825 4091 
L 703 3866 
L 703 4441 
L 1819 4666 
L 2450 4666 
L 2450 531 
L 3481 531 
L 3481 0 
L 794 0 
L 794 531 
z
" transform="scale(0.015625)"/>
      <path id="Cmmi10-78" d="M 500 184 
Q 613 97 819 97 
Q 1019 97 1172 289 
Q 1325 481 1381 709 
L 1672 1844 
Q 1741 2153 1741 2266 
Q 1741 2425 1652 2544 
Q 1563 2663 1403 2663 
Q 1200 2663 1022 2536 
Q 844 2409 722 2214 
Q 600 2019 550 1819 
Q 538 1778 500 1778 
L 422 1778 
Q 372 1778 372 1838 
L 372 1856 
Q 434 2094 584 2320 
Q 734 2547 951 2687 
Q 1169 2828 1416 2828 
Q 1650 2828 1839 2703 
Q 2028 2578 2106 2363 
Q 2216 2559 2386 2693 
Q 2556 2828 2759 2828 
Q 2897 2828 3040 2779 
Q 3184 2731 3275 2631 
Q 3366 2531 3366 2381 
Q 3366 2219 3261 2101 
Q 3156 1984 2994 1984 
Q 2891 1984 2822 2050 
Q 2753 2116 2753 2216 
Q 2753 2350 2845 2451 
Q 2938 2553 3066 2572 
Q 2950 2663 2747 2663 
Q 2541 2663 2389 2472 
Q 2238 2281 2175 2047 
L 1894 916 
Q 1825 659 1825 494 
Q 1825 331 1917 214 
Q 2009 97 2163 97 
Q 2463 97 2698 361 
Q 2934 625 3009 941 
Q 3022 978 3059 978 
L 3138 978 
Q 3163 978 3178 961 
Q 3194 944 3194 922 
Q 3194 916 3188 903 
Q 3097 522 2806 225 
Q 2516 -72 2150 -72 
Q 1916 -72 1727 54 
Q 1538 181 1459 397 
Q 1359 209 1182 68 
Q 1006 -72 806 -72 
Q 669 -72 523 -23 
Q 378 25 287 125 
Q 197 225 197 378 
Q 197 528 301 651 
Q 406 775 563 775 
Q 669 775 741 711 
Q 813 647 813 544 
Q 813 409 723 309 
Q 634 209 500 184 
z
" transform="scale(0.015625)"/>
     </defs>
     <use xlink:href="#DejaVuSans-52" transform="translate(0 0.015625)"/>
     <use xlink:href="#DejaVuSans-6f" transform="translate(69.482422 0.015625)"/>
     <use xlink:href="#DejaVuSans-62" transform="translate(130.664062 0.015625)"/>
     <use xlink:href="#DejaVuSans-6f" transform="translate(194.140625 0.015625)"/>
     <use xlink:href="#DejaVuSans-74" transform="translate(255.322266 0.015625)"/>
     <use xlink:href="#DejaVuSans-20" transform="translate(294.53125 0.015625)"/>
     <use xlink:href="#DejaVuSans-31" transform="translate(326.318359 0.015625)"/>
     <use xlink:href="#DejaVuSans-20" transform="translate(389.941406 0.015625)"/>
     <use xlink:href="#Cmmi10-78" transform="translate(421.728516 0.015625)"/>
    </g>
   </g>
  </g>
  <g id="axes_2">
   <g id="patch_7">
    <path d="M 203.4 101.044714 
L 300 101.044714 
L 300 29.04 
L 203.4 29.04 
z
" style="fill: #eeeeee"/>
   </g>
   <g id="matplotlib.axis_3">
    <g id="xtick_4">
     <g id="line2d_13">
      <path d="M 207.790909 101.044714 
L 207.790909 29.04 
" clip-path="url(#pced6ddfd77)" style="fill: none; stroke-dasharray: 1.85,0.8; stroke-dashoffset: 0; stroke: #b2b2b2; stroke-width: 0.5"/>
     </g>
     <g id="line2d_14">
      <g>
       <use xlink:href="#m1e4b587a92" x="207.790909" y="101.044714" style="stroke: #000000; stroke-width: 0.8"/>
      </g>
     </g>
    </g>
    <g id="xtick_5">
     <g id="line2d_15">
      <path d="M 243.635065 101.044714 
L 243.635065 29.04 
" clip-path="url(#pced6ddfd77)" style="fill: none; stroke-dasharray: 1.85,0.8; stroke-dashoffset: 0; stroke: #b2b2b2; stroke-width: 0.5"/>
     </g>
     <g id="line2d_16">
      <g>
       <use xlink:href="#m1e4b587a92" x="243.635065" y="101.044714" style="stroke: #000000; stroke-width: 0.8"/>
      </g>
     </g>
    </g>
    <g id="xtick_6">
     <g id="line2d_17">
      <path d="M 279.479221 101.044714 
L 279.479221 29.04 
" clip-path="url(#pced6ddfd77)" style="fill: none; stroke-dasharray: 1.85,0.8; stroke-dashoffset: 0; stroke: #b2b2b2; stroke-width: 0.5"/>
     </g>
     <g id="line2d_18">
      <g>
       <use xlink:href="#m1e4b587a92" x="279.479221" y="101.044714" style="stroke: #000000; stroke-width: 0.8"/>
      </g>
     </g>
    </g>
   </g>
   <g id="matplotlib.axis_4">
    <g id="ytick_3">
     <g id="line2d_19">
      <path d="M 203.4 76.085771 
L 300 76.085771 
" clip-path="url(#pced6ddfd77)" style="fill: none; stroke-dasharray: 1.85,0.8; stroke-dashoffset: 0; stroke: #b2b2b2; stroke-width: 0.5"/>
     </g>
     <g id="line2d_20">
      <g>
       <use xlink:href="#m48970b393b" x="203.4" y="76.085771" style="stroke: #000000; stroke-width: 0.8"/>
      </g>
     </g>
     <g id="text_5">
      <!-- 0.0 -->
      <g transform="translate(183.996875 79.88499) scale(0.1 -0.1)">
       <use xlink:href="#DejaVuSans-30"/>
       <use xlink:href="#DejaVuSans-2e" x="63.623047"/>
       <use xlink:href="#DejaVuSans-30" x="95.410156"/>
      </g>
     </g>
    </g>
    <g id="ytick_4">
     <g id="line2d_21">
      <path d="M 203.4 45.112294 
L 300 45.112294 
" clip-path="url(#pced6ddfd77)" style="fill: none; stroke-dasharray: 1.85,0.8; stroke-dashoffset: 0; stroke: #b2b2b2; stroke-width: 0.5"/>
     </g>
     <g id="line2d_22">
      <g>
       <use xlink:href="#m48970b393b" x="203.4" y="45.112294" style="stroke: #000000; stroke-width: 0.8"/>
      </g>
     </g>
     <g id="text_6">
      <!-- 0.2 -->
      <g transform="translate(183.996875 48.911513) scale(0.1 -0.1)">
       <use xlink:href="#DejaVuSans-30"/>
       <use xlink:href="#DejaVuSans-2e" x="63.623047"/>
       <use xlink:href="#DejaVuSans-32" x="95.410156"/>
      </g>
     </g>
    </g>
    <g id="text_7">
     <!-- Position -->
     <g transform="translate(177.50125 88.399232) rotate(-90) scale(0.12 -0.12)">
      <use xlink:href="#DejaVuSans-50"/>
      <use xlink:href="#DejaVuSans-6f" x="56.677734"/>
      <use xlink:href="#DejaVuSans-73" x="117.859375"/>
      <use xlink:href="#DejaVuSans-69" x="169.958984"/>
      <use xlink:href="#DejaVuSans-74" x="197.742188"/>
      <use xlink:href="#DejaVuSans-69" x="236.951172"/>
      <use xlink:href="#DejaVuSans-6f" x="264.734375"/>
      <use xlink:href="#DejaVuSans-6e" x="325.916016"/>
     </g>
    </g>
   </g>
   <g id="line2d_23">
    <path d="M 207.790909 97.771772 
L 209.583117 96.26669 
L 211.375325 94.662803 
L 213.167532 92.954963 
L 214.95974 91.147059 
L 216.751948 89.288637 
L 218.544156 86.487461 
L 220.336364 83.12626 
L 222.128571 79.593742 
L 223.920779 76.238312 
L 225.712987 73.835936 
L 227.505195 71.616004 
L 229.297403 69.486941 
L 231.08961 67.373756 
L 232.881818 65.227082 
L 234.674026 64.187466 
L 236.466234 63.229 
L 238.258442 62.384491 
L 240.050649 61.650721 
L 241.842857 60.996863 
L 243.635065 60.025569 
L 245.427273 59.223066 
L 247.219481 58.490686 
L 249.011688 57.744611 
L 250.803896 56.933014 
L 252.596104 55.372664 
L 254.388312 53.552853 
L 256.180519 51.587418 
L 257.972727 49.587978 
L 259.764935 47.656589 
L 261.557143 47.466194 
L 263.349351 47.302457 
L 265.141558 47.172819 
L 266.933766 47.087188 
L 268.725974 47.057831 
L 270.518182 46.12833 
L 272.31039 45.208203 
L 274.102597 44.284192 
L 275.894805 43.336996 
L 277.687013 42.344706 
L 279.479221 40.989127 
L 281.271429 39.633392 
L 283.063636 38.256241 
L 284.855844 36.841781 
L 286.648052 35.379647 
L 288.44026 34.79139 
L 290.232468 34.211193 
L 292.024675 33.645257 
L 293.816883 33.102341 
L 295.609091 32.5925 
" clip-path="url(#pced6ddfd77)" style="fill: none; stroke: #348abd; stroke-width: 4; stroke-linecap: square"/>
   </g>
   <g id="line2d_24">
    <path d="M 207.790909 96.761902 
L 209.583117 95.322108 
L 211.375325 95.152421 
L 213.167532 94.35489 
L 214.95974 92.134404 
L 216.751948 90.462548 
L 218.544156 88.150134 
L 220.336364 83.532969 
L 222.128571 80.121212 
L 223.920779 77.254426 
L 225.712987 74.002557 
L 227.505195 71.29707 
L 229.297403 69.31393 
L 231.08961 65.851497 
L 232.881818 64.183337 
L 234.674026 64.02332 
L 236.466234 63.235139 
L 238.258442 61.545031 
L 240.050649 60.770579 
L 241.842857 60.537193 
L 243.635065 59.953887 
L 245.427273 59.277818 
L 247.219481 59.2152 
L 249.011688 58.413568 
L 250.803896 58.205593 
L 252.596104 56.884006 
L 254.388312 55.752999 
L 256.180519 52.550691 
L 257.972727 49.030937 
L 259.764935 47.4396 
L 261.557143 46.898001 
L 263.349351 46.649615 
L 265.141558 47.05733 
L 266.933766 46.867648 
L 268.725974 46.838265 
L 270.518182 46.370945 
L 272.31039 45.081208 
L 274.102597 43.499439 
L 275.894805 43.031638 
L 277.687013 42.307512 
L 279.479221 41.21112 
L 281.271429 39.605755 
L 283.063636 38.092264 
L 284.855844 37.122969 
L 286.648052 35.378841 
L 288.44026 34.666535 
L 290.232468 34.177928 
L 292.024675 33.725146 
L 293.816883 33.05132 
L 295.609091 32.312942 
" clip-path="url(#pced6ddfd77)" style="fill: none; stroke-dasharray: 7.4,3.2; stroke-dashoffset: 0; stroke: #a60628; stroke-width: 2"/>
   </g>
   <g id="patch_8">
    <path d="M 203.4 101.044714 
L 203.4 29.04 
" style="fill: none; stroke: #bcbcbc; stroke-width: 0.8; stroke-linejoin: miter; stroke-linecap: square"/>
   </g>
   <g id="patch_9">
    <path d="M 300 101.044714 
L 300 29.04 
" style="fill: none; stroke: #bcbcbc; stroke-width: 0.8; stroke-linejoin: miter; stroke-linecap: square"/>
   </g>
   <g id="patch_10">
    <path d="M 203.4 101.044714 
L 300 101.044714 
" style="fill: none; stroke: #bcbcbc; stroke-width: 0.8; stroke-linejoin: miter; stroke-linecap: square"/>
   </g>
   <g id="patch_11">
    <path d="M 203.4 29.04 
L 300 29.04 
" style="fill: none; stroke: #bcbcbc; stroke-width: 0.8; stroke-linejoin: miter; stroke-linecap: square"/>
   </g>
   <g id="text_8">
    <!-- Robot 1 $y$ -->
    <g transform="translate(217.788 23.04) scale(0.144 -0.144)">
     <defs>
      <path id="Cmmi10-79" d="M 538 -916 
Q 672 -1147 1006 -1147 
Q 1309 -1147 1531 -934 
Q 1753 -722 1889 -420 
Q 2025 -119 2100 197 
Q 1816 -72 1484 -72 
Q 1231 -72 1053 15 
Q 875 103 776 276 
Q 678 450 678 697 
Q 678 906 734 1126 
Q 791 1347 892 1617 
Q 994 1888 1069 2088 
Q 1153 2322 1153 2472 
Q 1153 2663 1013 2663 
Q 759 2663 595 2402 
Q 431 2141 353 1819 
Q 341 1778 300 1778 
L 225 1778 
Q 172 1778 172 1838 
L 172 1856 
Q 275 2238 487 2533 
Q 700 2828 1025 2828 
Q 1253 2828 1411 2678 
Q 1569 2528 1569 2297 
Q 1569 2178 1516 2047 
Q 1488 1969 1388 1706 
Q 1288 1444 1234 1272 
Q 1181 1100 1147 934 
Q 1113 769 1113 603 
Q 1113 391 1203 244 
Q 1294 97 1491 97 
Q 1888 97 2203 581 
L 2688 2553 
Q 2709 2638 2787 2698 
Q 2866 2759 2956 2759 
Q 3034 2759 3092 2709 
Q 3150 2659 3150 2578 
Q 3150 2541 3144 2528 
L 2509 -19 
Q 2425 -347 2200 -647 
Q 1975 -947 1658 -1130 
Q 1341 -1313 997 -1313 
Q 831 -1313 668 -1248 
Q 506 -1184 406 -1056 
Q 306 -928 306 -756 
Q 306 -581 409 -453 
Q 513 -325 684 -325 
Q 788 -325 858 -389 
Q 928 -453 928 -556 
Q 928 -703 818 -812 
Q 709 -922 563 -922 
Q 556 -919 550 -917 
Q 544 -916 538 -916 
z
" transform="scale(0.015625)"/>
     </defs>
     <use xlink:href="#DejaVuSans-52" transform="translate(0 0.015625)"/>
     <use xlink:href="#DejaVuSans-6f" transform="translate(69.482422 0.015625)"/>
     <use xlink:href="#DejaVuSans-62" transform="translate(130.664062 0.015625)"/>
     <use xlink:href="#DejaVuSans-6f" transform="translate(194.140625 0.015625)"/>
     <use xlink:href="#DejaVuSans-74" transform="translate(255.322266 0.015625)"/>
     <use xlink:href="#DejaVuSans-20" transform="translate(294.53125 0.015625)"/>
     <use xlink:href="#DejaVuSans-31" transform="translate(326.318359 0.015625)"/>
     <use xlink:href="#DejaVuSans-20" transform="translate(389.941406 0.015625)"/>
     <use xlink:href="#Cmmi10-79" transform="translate(421.728516 0.015625)"/>
    </g>
   </g>
  </g>
  <g id="axes_3">
   <g id="patch_12">
    <path d="M 353.4 101.044714 
L 450 101.044714 
L 450 29.04 
L 353.4 29.04 
z
" style="fill: #eeeeee"/>
   </g>
   <g id="matplotlib.axis_5">
    <g id="xtick_7">
     <g id="line2d_25">
      <path d="M 357.790909 101.044714 
L 357.790909 29.04 
" clip-path="url(#pf60d5cc651)" style="fill: none; stroke-dasharray: 1.85,0.8; stroke-dashoffset: 0; stroke: #b2b2b2; stroke-width: 0.5"/>
     </g>
     <g id="line2d_26">
      <g>
       <use xlink:href="#m1e4b587a92" x="357.790909" y="101.044714" style="stroke: #000000; stroke-width: 0.8"/>
      </g>
     </g>
    </g>
    <g id="xtick_8">
     <g id="line2d_27">
      <path d="M 393.635065 101.044714 
L 393.635065 29.04 
" clip-path="url(#pf60d5cc651)" style="fill: none; stroke-dasharray: 1.85,0.8; stroke-dashoffset: 0; stroke: #b2b2b2; stroke-width: 0.5"/>
     </g>
     <g id="line2d_28">
      <g>
       <use xlink:href="#m1e4b587a92" x="393.635065" y="101.044714" style="stroke: #000000; stroke-width: 0.8"/>
      </g>
     </g>
    </g>
    <g id="xtick_9">
     <g id="line2d_29">
      <path d="M 429.479221 101.044714 
L 429.479221 29.04 
" clip-path="url(#pf60d5cc651)" style="fill: none; stroke-dasharray: 1.85,0.8; stroke-dashoffset: 0; stroke: #b2b2b2; stroke-width: 0.5"/>
     </g>
     <g id="line2d_30">
      <g>
       <use xlink:href="#m1e4b587a92" x="429.479221" y="101.044714" style="stroke: #000000; stroke-width: 0.8"/>
      </g>
     </g>
    </g>
   </g>
   <g id="matplotlib.axis_6">
    <g id="ytick_5">
     <g id="line2d_31">
      <path d="M 353.4 76.072258 
L 450 76.072258 
" clip-path="url(#pf60d5cc651)" style="fill: none; stroke-dasharray: 1.85,0.8; stroke-dashoffset: 0; stroke: #b2b2b2; stroke-width: 0.5"/>
     </g>
     <g id="line2d_32">
      <g>
       <use xlink:href="#m48970b393b" x="353.4" y="76.072258" style="stroke: #000000; stroke-width: 0.8"/>
      </g>
     </g>
     <g id="text_9">
      <!-- 2 -->
      <g transform="translate(343.5375 79.871476) scale(0.1 -0.1)">
       <use xlink:href="#DejaVuSans-32"/>
      </g>
     </g>
    </g>
    <g id="ytick_6">
     <g id="line2d_33">
      <path d="M 353.4 45.664311 
L 450 45.664311 
" clip-path="url(#pf60d5cc651)" style="fill: none; stroke-dasharray: 1.85,0.8; stroke-dashoffset: 0; stroke: #b2b2b2; stroke-width: 0.5"/>
     </g>
     <g id="line2d_34">
      <g>
       <use xlink:href="#m48970b393b" x="353.4" y="45.664311" style="stroke: #000000; stroke-width: 0.8"/>
      </g>
     </g>
     <g id="text_10">
      <!-- 4 -->
      <g transform="translate(343.5375 49.46353) scale(0.1 -0.1)">
       <use xlink:href="#DejaVuSans-34"/>
      </g>
     </g>
    </g>
    <g id="text_11">
     <!-- Angle [rad] -->
     <g transform="translate(337.041875 98.658294) rotate(-90) scale(0.12 -0.12)">
      <defs>
       <path id="DejaVuSans-41" d="M 2188 4044 
L 1331 1722 
L 3047 1722 
L 2188 4044 
z
M 1831 4666 
L 2547 4666 
L 4325 0 
L 3669 0 
L 3244 1197 
L 1141 1197 
L 716 0 
L 50 0 
L 1831 4666 
z
" transform="scale(0.015625)"/>
       <path id="DejaVuSans-67" d="M 2906 1791 
Q 2906 2416 2648 2759 
Q 2391 3103 1925 3103 
Q 1463 3103 1205 2759 
Q 947 2416 947 1791 
Q 947 1169 1205 825 
Q 1463 481 1925 481 
Q 2391 481 2648 825 
Q 2906 1169 2906 1791 
z
M 3481 434 
Q 3481 -459 3084 -895 
Q 2688 -1331 1869 -1331 
Q 1566 -1331 1297 -1286 
Q 1028 -1241 775 -1147 
L 775 -588 
Q 1028 -725 1275 -790 
Q 1522 -856 1778 -856 
Q 2344 -856 2625 -561 
Q 2906 -266 2906 331 
L 2906 616 
Q 2728 306 2450 153 
Q 2172 0 1784 0 
Q 1141 0 747 490 
Q 353 981 353 1791 
Q 353 2603 747 3093 
Q 1141 3584 1784 3584 
Q 2172 3584 2450 3431 
Q 2728 3278 2906 2969 
L 2906 3500 
L 3481 3500 
L 3481 434 
z
" transform="scale(0.015625)"/>
       <path id="DejaVuSans-6c" d="M 603 4863 
L 1178 4863 
L 1178 0 
L 603 0 
L 603 4863 
z
" transform="scale(0.015625)"/>
       <path id="DejaVuSans-65" d="M 3597 1894 
L 3597 1613 
L 953 1613 
Q 991 1019 1311 708 
Q 1631 397 2203 397 
Q 2534 397 2845 478 
Q 3156 559 3463 722 
L 3463 178 
Q 3153 47 2828 -22 
Q 2503 -91 2169 -91 
Q 1331 -91 842 396 
Q 353 884 353 1716 
Q 353 2575 817 3079 
Q 1281 3584 2069 3584 
Q 2775 3584 3186 3129 
Q 3597 2675 3597 1894 
z
M 3022 2063 
Q 3016 2534 2758 2815 
Q 2500 3097 2075 3097 
Q 1594 3097 1305 2825 
Q 1016 2553 972 2059 
L 3022 2063 
z
" transform="scale(0.015625)"/>
       <path id="DejaVuSans-5b" d="M 550 4863 
L 1875 4863 
L 1875 4416 
L 1125 4416 
L 1125 -397 
L 1875 -397 
L 1875 -844 
L 550 -844 
L 550 4863 
z
" transform="scale(0.015625)"/>
       <path id="DejaVuSans-72" d="M 2631 2963 
Q 2534 3019 2420 3045 
Q 2306 3072 2169 3072 
Q 1681 3072 1420 2755 
Q 1159 2438 1159 1844 
L 1159 0 
L 581 0 
L 581 3500 
L 1159 3500 
L 1159 2956 
Q 1341 3275 1631 3429 
Q 1922 3584 2338 3584 
Q 2397 3584 2469 3576 
Q 2541 3569 2628 3553 
L 2631 2963 
z
" transform="scale(0.015625)"/>
       <path id="DejaVuSans-61" d="M 2194 1759 
Q 1497 1759 1228 1600 
Q 959 1441 959 1056 
Q 959 750 1161 570 
Q 1363 391 1709 391 
Q 2188 391 2477 730 
Q 2766 1069 2766 1631 
L 2766 1759 
L 2194 1759 
z
M 3341 1997 
L 3341 0 
L 2766 0 
L 2766 531 
Q 2569 213 2275 61 
Q 1981 -91 1556 -91 
Q 1019 -91 701 211 
Q 384 513 384 1019 
Q 384 1609 779 1909 
Q 1175 2209 1959 2209 
L 2766 2209 
L 2766 2266 
Q 2766 2663 2505 2880 
Q 2244 3097 1772 3097 
Q 1472 3097 1187 3025 
Q 903 2953 641 2809 
L 641 3341 
Q 956 3463 1253 3523 
Q 1550 3584 1831 3584 
Q 2591 3584 2966 3190 
Q 3341 2797 3341 1997 
z
" transform="scale(0.015625)"/>
       <path id="DejaVuSans-64" d="M 2906 2969 
L 2906 4863 
L 3481 4863 
L 3481 0 
L 2906 0 
L 2906 525 
Q 2725 213 2448 61 
Q 2172 -91 1784 -91 
Q 1150 -91 751 415 
Q 353 922 353 1747 
Q 353 2572 751 3078 
Q 1150 3584 1784 3584 
Q 2172 3584 2448 3432 
Q 2725 3281 2906 2969 
z
M 947 1747 
Q 947 1113 1208 752 
Q 1469 391 1925 391 
Q 2381 391 2643 752 
Q 2906 1113 2906 1747 
Q 2906 2381 2643 2742 
Q 2381 3103 1925 3103 
Q 1469 3103 1208 2742 
Q 947 2381 947 1747 
z
" transform="scale(0.015625)"/>
       <path id="DejaVuSans-5d" d="M 1947 4863 
L 1947 -844 
L 622 -844 
L 622 -397 
L 1369 -397 
L 1369 4416 
L 622 4416 
L 622 4863 
L 1947 4863 
z
" transform="scale(0.015625)"/>
      </defs>
      <use xlink:href="#DejaVuSans-41"/>
      <use xlink:href="#DejaVuSans-6e" x="68.408203"/>
      <use xlink:href="#DejaVuSans-67" x="131.787109"/>
      <use xlink:href="#DejaVuSans-6c" x="195.263672"/>
      <use xlink:href="#DejaVuSans-65" x="223.046875"/>
      <use xlink:href="#DejaVuSans-20" x="284.570312"/>
      <use xlink:href="#DejaVuSans-5b" x="316.357422"/>
      <use xlink:href="#DejaVuSans-72" x="355.371094"/>
      <use xlink:href="#DejaVuSans-61" x="396.484375"/>
      <use xlink:href="#DejaVuSans-64" x="457.763672"/>
      <use xlink:href="#DejaVuSans-5d" x="521.240234"/>
     </g>
    </g>
   </g>
   <g id="line2d_35">
    <path d="M 357.790909 63.099261 
L 359.583117 63.286401 
L 361.375325 63.473542 
L 363.167532 63.660682 
L 364.95974 63.847823 
L 366.751948 68.624891 
L 368.544156 73.401959 
L 370.336364 78.179027 
L 372.128571 82.956096 
L 373.920779 87.733164 
L 375.712987 87.780759 
L 377.505195 87.828353 
L 379.297403 87.875948 
L 381.08961 87.923543 
L 382.881818 87.971137 
L 384.674026 88.277462 
L 386.466234 88.583786 
L 388.258442 88.89011 
L 390.050649 89.196435 
L 391.842857 89.502759 
L 393.635065 91.156562 
L 395.427273 92.810364 
L 397.219481 94.464167 
L 399.011688 96.11797 
L 400.803896 97.771772 
L 402.596104 94.622776 
L 404.388312 91.47378 
L 406.180519 88.324784 
L 407.972727 85.175788 
L 409.764935 82.026792 
L 411.557143 84.415882 
L 413.349351 86.804972 
L 415.141558 89.194063 
L 416.933766 91.583153 
L 418.725974 93.972243 
L 420.518182 92.586801 
L 422.31039 91.201358 
L 424.102597 89.815915 
L 425.894805 88.430473 
L 427.687013 87.04503 
L 429.479221 87.494633 
L 431.271429 87.944236 
L 433.063636 88.393838 
L 434.855844 88.843441 
L 436.648052 89.293044 
L 438.44026 88.965565 
L 440.232468 88.638087 
L 442.024675 88.310609 
L 443.816883 87.98313 
L 445.609091 87.655652 
" clip-path="url(#pf60d5cc651)" style="fill: none; stroke: #348abd; stroke-width: 4; stroke-linecap: square"/>
   </g>
   <g id="line2d_36">
    <path d="M 357.790909 90.639032 
L 359.583117 67.468329 
L 361.375325 68.664578 
L 363.167532 67.496304 
L 364.95974 69.148824 
L 366.751948 65.631993 
L 368.544156 63.032722 
L 370.336364 65.576955 
L 372.128571 62.824123 
L 373.920779 57.941519 
L 375.712987 62.633009 
L 377.505195 66.231942 
L 379.297403 68.871656 
L 381.08961 76.056293 
L 382.881818 74.149411 
L 384.674026 66.943488 
L 386.466234 66.404051 
L 388.258442 72.009604 
L 390.050649 63.102204 
L 391.842857 53.150139 
L 393.635065 43.785708 
L 395.427273 45.248482 
L 397.219481 39.639584 
L 399.011688 40.767719 
L 400.803896 32.312942 
L 402.596104 35.817457 
L 404.388312 42.518305 
L 406.180519 58.397334 
L 407.972727 81.959388 
L 409.764935 86.150059 
L 411.557143 80.350047 
L 413.349351 78.77674 
L 415.141558 64.978222 
L 416.933766 68.741662 
L 418.725974 64.320042 
L 420.518182 69.212529 
L 422.31039 79.146501 
L 424.102597 73.465688 
L 425.894805 71.608067 
L 427.687013 67.279952 
L 429.479221 62.832485 
L 431.271429 66.584066 
L 433.063636 63.33224 
L 434.855844 59.288287 
L 436.648052 62.977683 
L 438.44026 57.451343 
L 440.232468 54.31522 
L 442.024675 57.205039 
L 443.816883 71.004317 
L 445.609091 67.636789 
" clip-path="url(#pf60d5cc651)" style="fill: none; stroke-dasharray: 7.4,3.2; stroke-dashoffset: 0; stroke: #a60628; stroke-width: 2"/>
   </g>
   <g id="patch_13">
    <path d="M 353.4 101.044714 
L 353.4 29.04 
" style="fill: none; stroke: #bcbcbc; stroke-width: 0.8; stroke-linejoin: miter; stroke-linecap: square"/>
   </g>
   <g id="patch_14">
    <path d="M 450 101.044714 
L 450 29.04 
" style="fill: none; stroke: #bcbcbc; stroke-width: 0.8; stroke-linejoin: miter; stroke-linecap: square"/>
   </g>
   <g id="patch_15">
    <path d="M 353.4 101.044714 
L 450 101.044714 
" style="fill: none; stroke: #bcbcbc; stroke-width: 0.8; stroke-linejoin: miter; stroke-linecap: square"/>
   </g>
   <g id="patch_16">
    <path d="M 353.4 29.04 
L 450 29.04 
" style="fill: none; stroke: #bcbcbc; stroke-width: 0.8; stroke-linejoin: miter; stroke-linecap: square"/>
   </g>
   <g id="text_12">
    <!-- Robot 1 $\theta$ -->
    <g transform="translate(367.932 23.04) scale(0.144 -0.144)">
     <defs>
      <path id="Cmmi10-b5" d="M 1031 -72 
Q 741 -72 566 140 
Q 391 353 323 653 
Q 256 953 256 1247 
L 256 1253 
Q 256 1572 317 1915 
Q 378 2259 493 2601 
Q 609 2944 744 3213 
Q 838 3400 986 3631 
Q 1134 3863 1317 4064 
Q 1500 4266 1711 4389 
Q 1922 4513 2138 4513 
L 2144 4513 
Q 2375 4513 2529 4384 
Q 2684 4256 2770 4056 
Q 2856 3856 2890 3628 
Q 2925 3400 2925 3194 
Q 2925 2709 2794 2204 
Q 2663 1700 2431 1228 
Q 2344 1050 2189 809 
Q 2034 569 1861 378 
Q 1688 188 1472 58 
Q 1256 -72 1038 -72 
L 1031 -72 
z
M 1044 97 
Q 1256 97 1451 323 
Q 1647 550 1794 873 
Q 1941 1197 2052 1536 
Q 2163 1875 2216 2113 
L 909 2113 
Q 809 1709 753 1417 
Q 697 1125 697 844 
Q 697 97 1044 97 
z
M 959 2338 
L 2272 2338 
Q 2341 2619 2381 2808 
Q 2422 2997 2450 3206 
Q 2478 3416 2478 3597 
Q 2478 4347 2138 4347 
Q 1731 4347 1436 3692 
Q 1141 3038 959 2338 
z
" transform="scale(0.015625)"/>
     </defs>
     <use xlink:href="#DejaVuSans-52" transform="translate(0 0.015625)"/>
     <use xlink:href="#DejaVuSans-6f" transform="translate(69.482422 0.015625)"/>
     <use xlink:href="#DejaVuSans-62" transform="translate(130.664062 0.015625)"/>
     <use xlink:href="#DejaVuSans-6f" transform="translate(194.140625 0.015625)"/>
     <use xlink:href="#DejaVuSans-74" transform="translate(255.322266 0.015625)"/>
     <use xlink:href="#DejaVuSans-20" transform="translate(294.53125 0.015625)"/>
     <use xlink:href="#DejaVuSans-31" transform="translate(326.318359 0.015625)"/>
     <use xlink:href="#DejaVuSans-20" transform="translate(389.941406 0.015625)"/>
     <use xlink:href="#Cmmi10-b5" transform="translate(421.728516 0.015625)"/>
    </g>
   </g>
  </g>
  <g id="axes_4">
   <g id="patch_17">
    <path d="M 53.4 203.732357 
L 150 203.732357 
L 150 131.727643 
L 53.4 131.727643 
z
" style="fill: #eeeeee"/>
   </g>
   <g id="matplotlib.axis_7">
    <g id="xtick_10">
     <g id="line2d_37">
      <path d="M 57.790909 203.732357 
L 57.790909 131.727643 
" clip-path="url(#p825cb8c91f)" style="fill: none; stroke-dasharray: 1.85,0.8; stroke-dashoffset: 0; stroke: #b2b2b2; stroke-width: 0.5"/>
     </g>
     <g id="line2d_38">
      <g>
       <use xlink:href="#m1e4b587a92" x="57.790909" y="203.732357" style="stroke: #000000; stroke-width: 0.8"/>
      </g>
     </g>
    </g>
    <g id="xtick_11">
     <g id="line2d_39">
      <path d="M 93.635065 203.732357 
L 93.635065 131.727643 
" clip-path="url(#p825cb8c91f)" style="fill: none; stroke-dasharray: 1.85,0.8; stroke-dashoffset: 0; stroke: #b2b2b2; stroke-width: 0.5"/>
     </g>
     <g id="line2d_40">
      <g>
       <use xlink:href="#m1e4b587a92" x="93.635065" y="203.732357" style="stroke: #000000; stroke-width: 0.8"/>
      </g>
     </g>
    </g>
    <g id="xtick_12">
     <g id="line2d_41">
      <path d="M 129.479221 203.732357 
L 129.479221 131.727643 
" clip-path="url(#p825cb8c91f)" style="fill: none; stroke-dasharray: 1.85,0.8; stroke-dashoffset: 0; stroke: #b2b2b2; stroke-width: 0.5"/>
     </g>
     <g id="line2d_42">
      <g>
       <use xlink:href="#m1e4b587a92" x="129.479221" y="203.732357" style="stroke: #000000; stroke-width: 0.8"/>
      </g>
     </g>
    </g>
   </g>
   <g id="matplotlib.axis_8">
    <g id="ytick_7">
     <g id="line2d_43">
      <path d="M 53.4 183.308228 
L 150 183.308228 
" clip-path="url(#p825cb8c91f)" style="fill: none; stroke-dasharray: 1.85,0.8; stroke-dashoffset: 0; stroke: #b2b2b2; stroke-width: 0.5"/>
     </g>
     <g id="line2d_44">
      <g>
       <use xlink:href="#m48970b393b" x="53.4" y="183.308228" style="stroke: #000000; stroke-width: 0.8"/>
      </g>
     </g>
     <g id="text_13">
      <!-- −0.1 -->
      <g transform="translate(25.617188 187.107447) scale(0.1 -0.1)">
       <use xlink:href="#DejaVuSans-2212"/>
       <use xlink:href="#DejaVuSans-30" x="83.789062"/>
       <use xlink:href="#DejaVuSans-2e" x="147.412109"/>
       <use xlink:href="#DejaVuSans-31" x="179.199219"/>
      </g>
     </g>
    </g>
    <g id="ytick_8">
     <g id="line2d_45">
      <path d="M 53.4 150.300818 
L 150 150.300818 
" clip-path="url(#p825cb8c91f)" style="fill: none; stroke-dasharray: 1.85,0.8; stroke-dashoffset: 0; stroke: #b2b2b2; stroke-width: 0.5"/>
     </g>
     <g id="line2d_46">
      <g>
       <use xlink:href="#m48970b393b" x="53.4" y="150.300818" style="stroke: #000000; stroke-width: 0.8"/>
      </g>
     </g>
     <g id="text_14">
      <!-- 0.0 -->
      <g transform="translate(33.996875 154.100037) scale(0.1 -0.1)">
       <use xlink:href="#DejaVuSans-30"/>
       <use xlink:href="#DejaVuSans-2e" x="63.623047"/>
       <use xlink:href="#DejaVuSans-30" x="95.410156"/>
      </g>
     </g>
    </g>
    <g id="text_15">
     <!-- Position -->
     <g transform="translate(19.121563 191.086875) rotate(-90) scale(0.12 -0.12)">
      <use xlink:href="#DejaVuSans-50"/>
      <use xlink:href="#DejaVuSans-6f" x="56.677734"/>
      <use xlink:href="#DejaVuSans-73" x="117.859375"/>
      <use xlink:href="#DejaVuSans-69" x="169.958984"/>
      <use xlink:href="#DejaVuSans-74" x="197.742188"/>
      <use xlink:href="#DejaVuSans-69" x="236.951172"/>
      <use xlink:href="#DejaVuSans-6f" x="264.734375"/>
      <use xlink:href="#DejaVuSans-6e" x="325.916016"/>
     </g>
    </g>
   </g>
   <g id="line2d_47">
    <path d="M 57.790909 200.063403 
L 59.583117 196.480927 
L 61.375325 191.837408 
L 63.167532 186.177087 
L 64.95974 179.571791 
L 66.751948 173.370549 
L 68.544156 169.423844 
L 70.336364 167.841144 
L 72.128571 168.457338 
L 73.920779 170.932711 
L 75.712987 175.888914 
L 77.505195 180.626562 
L 79.297403 185.150293 
L 81.08961 189.421997 
L 82.881818 193.367635 
L 84.674026 195.698081 
L 86.466234 196.369211 
L 88.258442 195.642181 
L 90.050649 194.00755 
L 91.842857 192.050386 
L 93.635065 190.641036 
L 95.427273 188.520214 
L 97.219481 186.038935 
L 99.011688 183.609867 
L 100.803896 181.63554 
L 102.596104 179.819855 
L 104.388312 178.070551 
L 106.180519 176.424159 
L 107.972727 174.903271 
L 109.764935 173.515963 
L 111.557143 172.409901 
L 113.349351 170.398129 
L 115.141558 167.647121 
L 116.933766 164.339658 
L 118.725974 160.664726 
L 120.518182 157.034245 
L 122.31039 153.553293 
L 124.102597 150.285252 
L 125.894805 147.273788 
L 127.687013 144.542333 
L 129.479221 143.038857 
L 131.271429 141.711142 
L 133.063636 140.526841 
L 134.855844 139.453579 
L 136.648052 138.462828 
L 138.44026 138.073625 
L 140.232468 137.204174 
L 142.024675 136.189077 
L 143.816883 135.366042 
L 145.609091 135.000585 
" clip-path="url(#p825cb8c91f)" style="fill: none; stroke: #348abd; stroke-width: 4; stroke-linecap: square"/>
   </g>
   <g id="line2d_48">
    <path d="M 57.790909 200.459415 
L 59.583117 194.46364 
L 61.375325 188.864683 
L 63.167532 184.24395 
L 64.95974 178.897063 
L 66.751948 173.634231 
L 68.544156 170.078272 
L 70.336364 167.144285 
L 72.128571 169.164152 
L 73.920779 171.020376 
L 75.712987 172.872551 
L 77.505195 180.307709 
L 79.297403 185.069003 
L 81.08961 188.244694 
L 82.881818 192.940562 
L 84.674026 195.687583 
L 86.466234 196.505678 
L 88.258442 196.948466 
L 90.050649 196.698125 
L 91.842857 195.396407 
L 93.635065 190.802014 
L 95.427273 187.441955 
L 97.219481 185.834436 
L 99.011688 183.298021 
L 100.803896 182.307036 
L 102.596104 178.677929 
L 104.388312 178.033758 
L 106.180519 177.741256 
L 107.972727 176.74516 
L 109.764935 173.878672 
L 111.557143 173.845865 
L 113.349351 170.984938 
L 115.141558 167.47673 
L 116.933766 165.859264 
L 118.725974 161.513556 
L 120.518182 156.843053 
L 122.31039 153.527574 
L 124.102597 150.894975 
L 125.894805 148.06873 
L 127.687013 145.653738 
L 129.479221 144.272609 
L 131.271429 142.511495 
L 133.063636 141.347574 
L 134.855844 140.299499 
L 136.648052 139.116237 
L 138.44026 138.337377 
L 140.232468 136.790188 
L 142.024675 136.659463 
L 143.816883 136.136605 
L 145.609091 136.232955 
" clip-path="url(#p825cb8c91f)" style="fill: none; stroke-dasharray: 7.4,3.2; stroke-dashoffset: 0; stroke: #a60628; stroke-width: 2"/>
   </g>
   <g id="patch_18">
    <path d="M 53.4 203.732357 
L 53.4 131.727643 
" style="fill: none; stroke: #bcbcbc; stroke-width: 0.8; stroke-linejoin: miter; stroke-linecap: square"/>
   </g>
   <g id="patch_19">
    <path d="M 150 203.732357 
L 150 131.727643 
" style="fill: none; stroke: #bcbcbc; stroke-width: 0.8; stroke-linejoin: miter; stroke-linecap: square"/>
   </g>
   <g id="patch_20">
    <path d="M 53.4 203.732357 
L 150 203.732357 
" style="fill: none; stroke: #bcbcbc; stroke-width: 0.8; stroke-linejoin: miter; stroke-linecap: square"/>
   </g>
   <g id="patch_21">
    <path d="M 53.4 131.727643 
L 150 131.727643 
" style="fill: none; stroke: #bcbcbc; stroke-width: 0.8; stroke-linejoin: miter; stroke-linecap: square"/>
   </g>
   <g id="text_16">
    <!-- Robot 2 $x$ -->
    <g transform="translate(67.212 125.727643) scale(0.144 -0.144)">
     <use xlink:href="#DejaVuSans-52" transform="translate(0 0.015625)"/>
     <use xlink:href="#DejaVuSans-6f" transform="translate(69.482422 0.015625)"/>
     <use xlink:href="#DejaVuSans-62" transform="translate(130.664062 0.015625)"/>
     <use xlink:href="#DejaVuSans-6f" transform="translate(194.140625 0.015625)"/>
     <use xlink:href="#DejaVuSans-74" transform="translate(255.322266 0.015625)"/>
     <use xlink:href="#DejaVuSans-20" transform="translate(294.53125 0.015625)"/>
     <use xlink:href="#DejaVuSans-32" transform="translate(326.318359 0.015625)"/>
     <use xlink:href="#DejaVuSans-20" transform="translate(389.941406 0.015625)"/>
     <use xlink:href="#Cmmi10-78" transform="translate(421.728516 0.015625)"/>
    </g>
   </g>
  </g>
  <g id="axes_5">
   <g id="patch_22">
    <path d="M 203.4 203.732357 
L 300 203.732357 
L 300 131.727643 
L 203.4 131.727643 
z
" style="fill: #eeeeee"/>
   </g>
   <g id="matplotlib.axis_9">
    <g id="xtick_13">
     <g id="line2d_49">
      <path d="M 207.790909 203.732357 
L 207.790909 131.727643 
" clip-path="url(#p9003d44677)" style="fill: none; stroke-dasharray: 1.85,0.8; stroke-dashoffset: 0; stroke: #b2b2b2; stroke-width: 0.5"/>
     </g>
     <g id="line2d_50">
      <g>
       <use xlink:href="#m1e4b587a92" x="207.790909" y="203.732357" style="stroke: #000000; stroke-width: 0.8"/>
      </g>
     </g>
    </g>
    <g id="xtick_14">
     <g id="line2d_51">
      <path d="M 243.635065 203.732357 
L 243.635065 131.727643 
" clip-path="url(#p9003d44677)" style="fill: none; stroke-dasharray: 1.85,0.8; stroke-dashoffset: 0; stroke: #b2b2b2; stroke-width: 0.5"/>
     </g>
     <g id="line2d_52">
      <g>
       <use xlink:href="#m1e4b587a92" x="243.635065" y="203.732357" style="stroke: #000000; stroke-width: 0.8"/>
      </g>
     </g>
    </g>
    <g id="xtick_15">
     <g id="line2d_53">
      <path d="M 279.479221 203.732357 
L 279.479221 131.727643 
" clip-path="url(#p9003d44677)" style="fill: none; stroke-dasharray: 1.85,0.8; stroke-dashoffset: 0; stroke: #b2b2b2; stroke-width: 0.5"/>
     </g>
     <g id="line2d_54">
      <g>
       <use xlink:href="#m1e4b587a92" x="279.479221" y="203.732357" style="stroke: #000000; stroke-width: 0.8"/>
      </g>
     </g>
    </g>
   </g>
   <g id="matplotlib.axis_10">
    <g id="ytick_9">
     <g id="line2d_55">
      <path d="M 203.4 187.863826 
L 300 187.863826 
" clip-path="url(#p9003d44677)" style="fill: none; stroke-dasharray: 1.85,0.8; stroke-dashoffset: 0; stroke: #b2b2b2; stroke-width: 0.5"/>
     </g>
     <g id="line2d_56">
      <g>
       <use xlink:href="#m48970b393b" x="203.4" y="187.863826" style="stroke: #000000; stroke-width: 0.8"/>
      </g>
     </g>
     <g id="text_17">
      <!-- −0.3 -->
      <g transform="translate(175.617188 191.663045) scale(0.1 -0.1)">
       <defs>
        <path id="DejaVuSans-33" d="M 2597 2516 
Q 3050 2419 3304 2112 
Q 3559 1806 3559 1356 
Q 3559 666 3084 287 
Q 2609 -91 1734 -91 
Q 1441 -91 1130 -33 
Q 819 25 488 141 
L 488 750 
Q 750 597 1062 519 
Q 1375 441 1716 441 
Q 2309 441 2620 675 
Q 2931 909 2931 1356 
Q 2931 1769 2642 2001 
Q 2353 2234 1838 2234 
L 1294 2234 
L 1294 2753 
L 1863 2753 
Q 2328 2753 2575 2939 
Q 2822 3125 2822 3475 
Q 2822 3834 2567 4026 
Q 2313 4219 1838 4219 
Q 1578 4219 1281 4162 
Q 984 4106 628 3988 
L 628 4550 
Q 988 4650 1302 4700 
Q 1616 4750 1894 4750 
Q 2613 4750 3031 4423 
Q 3450 4097 3450 3541 
Q 3450 3153 3228 2886 
Q 3006 2619 2597 2516 
z
" transform="scale(0.015625)"/>
       </defs>
       <use xlink:href="#DejaVuSans-2212"/>
       <use xlink:href="#DejaVuSans-30" x="83.789062"/>
       <use xlink:href="#DejaVuSans-2e" x="147.412109"/>
       <use xlink:href="#DejaVuSans-33" x="179.199219"/>
      </g>
     </g>
    </g>
    <g id="ytick_10">
     <g id="line2d_57">
      <path d="M 203.4 167.142248 
L 300 167.142248 
" clip-path="url(#p9003d44677)" style="fill: none; stroke-dasharray: 1.85,0.8; stroke-dashoffset: 0; stroke: #b2b2b2; stroke-width: 0.5"/>
     </g>
     <g id="line2d_58">
      <g>
       <use xlink:href="#m48970b393b" x="203.4" y="167.142248" style="stroke: #000000; stroke-width: 0.8"/>
      </g>
     </g>
     <g id="text_18">
      <!-- −0.2 -->
      <g transform="translate(175.617188 170.941467) scale(0.1 -0.1)">
       <use xlink:href="#DejaVuSans-2212"/>
       <use xlink:href="#DejaVuSans-30" x="83.789062"/>
       <use xlink:href="#DejaVuSans-2e" x="147.412109"/>
       <use xlink:href="#DejaVuSans-32" x="179.199219"/>
      </g>
     </g>
    </g>
    <g id="ytick_11">
     <g id="line2d_59">
      <path d="M 203.4 146.42067 
L 300 146.42067 
" clip-path="url(#p9003d44677)" style="fill: none; stroke-dasharray: 1.85,0.8; stroke-dashoffset: 0; stroke: #b2b2b2; stroke-width: 0.5"/>
     </g>
     <g id="line2d_60">
      <g>
       <use xlink:href="#m48970b393b" x="203.4" y="146.42067" style="stroke: #000000; stroke-width: 0.8"/>
      </g>
     </g>
     <g id="text_19">
      <!-- −0.1 -->
      <g transform="translate(175.617188 150.219889) scale(0.1 -0.1)">
       <use xlink:href="#DejaVuSans-2212"/>
       <use xlink:href="#DejaVuSans-30" x="83.789062"/>
       <use xlink:href="#DejaVuSans-2e" x="147.412109"/>
       <use xlink:href="#DejaVuSans-31" x="179.199219"/>
      </g>
     </g>
    </g>
    <g id="text_20">
     <!-- Position -->
     <g transform="translate(169.121563 191.086875) rotate(-90) scale(0.12 -0.12)">
      <use xlink:href="#DejaVuSans-50"/>
      <use xlink:href="#DejaVuSans-6f" x="56.677734"/>
      <use xlink:href="#DejaVuSans-73" x="117.859375"/>
      <use xlink:href="#DejaVuSans-69" x="169.958984"/>
      <use xlink:href="#DejaVuSans-74" x="197.742188"/>
      <use xlink:href="#DejaVuSans-69" x="236.951172"/>
      <use xlink:href="#DejaVuSans-6f" x="264.734375"/>
      <use xlink:href="#DejaVuSans-6e" x="325.916016"/>
     </g>
    </g>
   </g>
   <g id="line2d_61">
    <path d="M 207.790909 139.942915 
L 209.583117 146.039692 
L 211.375325 151.625946 
L 213.167532 156.539086 
L 214.95974 160.701302 
L 216.751948 163.608993 
L 218.544156 166.960153 
L 220.336364 170.40105 
L 222.128571 173.624032 
L 223.920779 176.380513 
L 225.712987 179.212462 
L 227.505195 181.974556 
L 229.297403 184.665895 
L 231.08961 187.271895 
L 232.881818 189.771105 
L 234.674026 190.442067 
L 236.466234 191.165382 
L 238.258442 191.761269 
L 240.050649 192.039125 
L 241.842857 191.83208 
L 243.635065 191.617697 
L 245.427273 191.571719 
L 247.219481 191.585354 
L 249.011688 191.569219 
L 250.803896 191.467407 
L 252.596104 192.902001 
L 254.388312 194.132948 
L 256.180519 195.226468 
L 257.972727 196.254965 
L 259.764935 197.288707 
L 261.557143 198.733926 
L 263.349351 199.750212 
L 265.141558 200.294684 
L 266.933766 200.345494 
L 268.725974 199.898337 
L 270.518182 199.000528 
L 272.31039 198.031897 
L 274.102597 197.034474 
L 275.894805 196.028129 
L 277.687013 195.012336 
L 279.479221 193.886613 
L 281.271429 192.576167 
L 283.063636 191.127491 
L 284.855844 189.580228 
L 286.648052 187.967576 
L 288.44026 186.530104 
L 290.232468 185.543293 
L 292.024675 185.073439 
L 293.816883 185.085904 
L 295.609091 185.457263 
" clip-path="url(#p9003d44677)" style="fill: none; stroke: #348abd; stroke-width: 4; stroke-linecap: square"/>
   </g>
   <g id="line2d_62">
    <path d="M 207.790909 135.000585 
L 209.583117 142.325929 
L 211.375325 148.92699 
L 213.167532 153.311327 
L 214.95974 159.452585 
L 216.751948 163.257721 
L 218.544156 165.978206 
L 220.336364 170.145002 
L 222.128571 173.085158 
L 223.920779 176.531022 
L 225.712987 178.623945 
L 227.505195 180.889166 
L 229.297403 184.462112 
L 231.08961 187.80634 
L 232.881818 189.382954 
L 234.674026 189.26894 
L 236.466234 190.464794 
L 238.258442 191.64563 
L 240.050649 191.091366 
L 241.842857 190.49853 
L 243.635065 189.683172 
L 245.427273 190.639847 
L 247.219481 190.935566 
L 249.011688 191.529579 
L 250.803896 192.119241 
L 252.596104 192.821336 
L 254.388312 193.769769 
L 256.180519 195.29643 
L 257.972727 196.259113 
L 259.764935 197.201099 
L 261.557143 198.101382 
L 263.349351 199.127695 
L 265.141558 200.175247 
L 266.933766 200.459415 
L 268.725974 199.824669 
L 270.518182 199.309388 
L 272.31039 198.401776 
L 274.102597 197.787808 
L 275.894805 196.342406 
L 277.687013 194.856429 
L 279.479221 193.98871 
L 281.271429 192.285591 
L 283.063636 191.636544 
L 284.855844 189.350259 
L 286.648052 188.008346 
L 288.44026 186.840016 
L 290.232468 185.34475 
L 292.024675 184.679931 
L 293.816883 184.648951 
L 295.609091 184.878819 
" clip-path="url(#p9003d44677)" style="fill: none; stroke-dasharray: 7.4,3.2; stroke-dashoffset: 0; stroke: #a60628; stroke-width: 2"/>
   </g>
   <g id="patch_23">
    <path d="M 203.4 203.732357 
L 203.4 131.727643 
" style="fill: none; stroke: #bcbcbc; stroke-width: 0.8; stroke-linejoin: miter; stroke-linecap: square"/>
   </g>
   <g id="patch_24">
    <path d="M 300 203.732357 
L 300 131.727643 
" style="fill: none; stroke: #bcbcbc; stroke-width: 0.8; stroke-linejoin: miter; stroke-linecap: square"/>
   </g>
   <g id="patch_25">
    <path d="M 203.4 203.732357 
L 300 203.732357 
" style="fill: none; stroke: #bcbcbc; stroke-width: 0.8; stroke-linejoin: miter; stroke-linecap: square"/>
   </g>
   <g id="patch_26">
    <path d="M 203.4 131.727643 
L 300 131.727643 
" style="fill: none; stroke: #bcbcbc; stroke-width: 0.8; stroke-linejoin: miter; stroke-linecap: square"/>
   </g>
   <g id="text_21">
    <!-- Robot 2 $y$ -->
    <g transform="translate(217.788 125.727643) scale(0.144 -0.144)">
     <use xlink:href="#DejaVuSans-52" transform="translate(0 0.015625)"/>
     <use xlink:href="#DejaVuSans-6f" transform="translate(69.482422 0.015625)"/>
     <use xlink:href="#DejaVuSans-62" transform="translate(130.664062 0.015625)"/>
     <use xlink:href="#DejaVuSans-6f" transform="translate(194.140625 0.015625)"/>
     <use xlink:href="#DejaVuSans-74" transform="translate(255.322266 0.015625)"/>
     <use xlink:href="#DejaVuSans-20" transform="translate(294.53125 0.015625)"/>
     <use xlink:href="#DejaVuSans-32" transform="translate(326.318359 0.015625)"/>
     <use xlink:href="#DejaVuSans-20" transform="translate(389.941406 0.015625)"/>
     <use xlink:href="#Cmmi10-79" transform="translate(421.728516 0.015625)"/>
    </g>
   </g>
  </g>
  <g id="axes_6">
   <g id="patch_27">
    <path d="M 353.4 203.732357 
L 450 203.732357 
L 450 131.727643 
L 353.4 131.727643 
z
" style="fill: #eeeeee"/>
   </g>
   <g id="matplotlib.axis_11">
    <g id="xtick_16">
     <g id="line2d_63">
      <path d="M 357.790909 203.732357 
L 357.790909 131.727643 
" clip-path="url(#p9c89d3990f)" style="fill: none; stroke-dasharray: 1.85,0.8; stroke-dashoffset: 0; stroke: #b2b2b2; stroke-width: 0.5"/>
     </g>
     <g id="line2d_64">
      <g>
       <use xlink:href="#m1e4b587a92" x="357.790909" y="203.732357" style="stroke: #000000; stroke-width: 0.8"/>
      </g>
     </g>
    </g>
    <g id="xtick_17">
     <g id="line2d_65">
      <path d="M 393.635065 203.732357 
L 393.635065 131.727643 
" clip-path="url(#p9c89d3990f)" style="fill: none; stroke-dasharray: 1.85,0.8; stroke-dashoffset: 0; stroke: #b2b2b2; stroke-width: 0.5"/>
     </g>
     <g id="line2d_66">
      <g>
       <use xlink:href="#m1e4b587a92" x="393.635065" y="203.732357" style="stroke: #000000; stroke-width: 0.8"/>
      </g>
     </g>
    </g>
    <g id="xtick_18">
     <g id="line2d_67">
      <path d="M 429.479221 203.732357 
L 429.479221 131.727643 
" clip-path="url(#p9c89d3990f)" style="fill: none; stroke-dasharray: 1.85,0.8; stroke-dashoffset: 0; stroke: #b2b2b2; stroke-width: 0.5"/>
     </g>
     <g id="line2d_68">
      <g>
       <use xlink:href="#m1e4b587a92" x="429.479221" y="203.732357" style="stroke: #000000; stroke-width: 0.8"/>
      </g>
     </g>
    </g>
   </g>
   <g id="matplotlib.axis_12">
    <g id="ytick_12">
     <g id="line2d_69">
      <path d="M 353.4 200.938332 
L 450 200.938332 
" clip-path="url(#p9c89d3990f)" style="fill: none; stroke-dasharray: 1.85,0.8; stroke-dashoffset: 0; stroke: #b2b2b2; stroke-width: 0.5"/>
     </g>
     <g id="line2d_70">
      <g>
       <use xlink:href="#m48970b393b" x="353.4" y="200.938332" style="stroke: #000000; stroke-width: 0.8"/>
      </g>
     </g>
     <g id="text_22">
      <!-- 0.0 -->
      <g transform="translate(333.996875 204.73755) scale(0.1 -0.1)">
       <use xlink:href="#DejaVuSans-30"/>
       <use xlink:href="#DejaVuSans-2e" x="63.623047"/>
       <use xlink:href="#DejaVuSans-30" x="95.410156"/>
      </g>
     </g>
    </g>
    <g id="ytick_13">
     <g id="line2d_71">
      <path d="M 353.4 174.64061 
L 450 174.64061 
" clip-path="url(#p9c89d3990f)" style="fill: none; stroke-dasharray: 1.85,0.8; stroke-dashoffset: 0; stroke: #b2b2b2; stroke-width: 0.5"/>
     </g>
     <g id="line2d_72">
      <g>
       <use xlink:href="#m48970b393b" x="353.4" y="174.64061" style="stroke: #000000; stroke-width: 0.8"/>
      </g>
     </g>
     <g id="text_23">
      <!-- 2.5 -->
      <g transform="translate(333.996875 178.439829) scale(0.1 -0.1)">
       <defs>
        <path id="DejaVuSans-35" d="M 691 4666 
L 3169 4666 
L 3169 4134 
L 1269 4134 
L 1269 2991 
Q 1406 3038 1543 3061 
Q 1681 3084 1819 3084 
Q 2600 3084 3056 2656 
Q 3513 2228 3513 1497 
Q 3513 744 3044 326 
Q 2575 -91 1722 -91 
Q 1428 -91 1123 -41 
Q 819 9 494 109 
L 494 744 
Q 775 591 1075 516 
Q 1375 441 1709 441 
Q 2250 441 2565 725 
Q 2881 1009 2881 1497 
Q 2881 1984 2565 2268 
Q 2250 2553 1709 2553 
Q 1456 2553 1204 2497 
Q 953 2441 691 2322 
L 691 4666 
z
" transform="scale(0.015625)"/>
       </defs>
       <use xlink:href="#DejaVuSans-32"/>
       <use xlink:href="#DejaVuSans-2e" x="63.623047"/>
       <use xlink:href="#DejaVuSans-35" x="95.410156"/>
      </g>
     </g>
    </g>
    <g id="ytick_14">
     <g id="line2d_73">
      <path d="M 353.4 148.342889 
L 450 148.342889 
" clip-path="url(#p9c89d3990f)" style="fill: none; stroke-dasharray: 1.85,0.8; stroke-dashoffset: 0; stroke: #b2b2b2; stroke-width: 0.5"/>
     </g>
     <g id="line2d_74">
      <g>
       <use xlink:href="#m48970b393b" x="353.4" y="148.342889" style="stroke: #000000; stroke-width: 0.8"/>
      </g>
     </g>
     <g id="text_24">
      <!-- 5.0 -->
      <g transform="translate(333.996875 152.142108) scale(0.1 -0.1)">
       <use xlink:href="#DejaVuSans-35"/>
       <use xlink:href="#DejaVuSans-2e" x="63.623047"/>
       <use xlink:href="#DejaVuSans-30" x="95.410156"/>
      </g>
     </g>
    </g>
    <g id="text_25">
     <!-- Angle [rad] -->
     <g transform="translate(327.50125 201.345937) rotate(-90) scale(0.12 -0.12)">
      <use xlink:href="#DejaVuSans-41"/>
      <use xlink:href="#DejaVuSans-6e" x="68.408203"/>
      <use xlink:href="#DejaVuSans-67" x="131.787109"/>
      <use xlink:href="#DejaVuSans-6c" x="195.263672"/>
      <use xlink:href="#DejaVuSans-65" x="223.046875"/>
      <use xlink:href="#DejaVuSans-20" x="284.570312"/>
      <use xlink:href="#DejaVuSans-5b" x="316.357422"/>
      <use xlink:href="#DejaVuSans-72" x="355.371094"/>
      <use xlink:href="#DejaVuSans-61" x="396.484375"/>
      <use xlink:href="#DejaVuSans-64" x="457.763672"/>
      <use xlink:href="#DejaVuSans-5d" x="521.240234"/>
     </g>
    </g>
   </g>
   <g id="line2d_75">
    <path d="M 357.790909 148.177073 
L 359.583117 147.31075 
L 361.375325 146.444426 
L 363.167532 145.578103 
L 364.95974 144.71178 
L 366.751948 147.462678 
L 368.544156 150.213576 
L 370.336364 152.964474 
L 372.128571 155.715373 
L 373.920779 158.466271 
L 375.712987 158.063051 
L 377.505195 157.659832 
L 379.297403 157.256612 
L 381.08961 156.853392 
L 382.881818 156.450173 
L 384.674026 151.634644 
L 386.466234 146.819116 
L 388.258442 142.003588 
L 390.050649 137.18806 
L 391.842857 198.465914 
L 393.635065 135.647678 
L 395.427273 138.922824 
L 397.219481 142.19797 
L 399.011688 145.473117 
L 400.803896 148.748263 
L 402.596104 148.86946 
L 404.388312 148.990656 
L 406.180519 149.111853 
L 407.972727 149.23305 
L 409.764935 149.354246 
L 411.557143 146.991155 
L 413.349351 144.628065 
L 415.141558 142.264974 
L 416.933766 139.901883 
L 418.725974 137.538792 
L 420.518182 136.90424 
L 422.31039 136.269688 
L 424.102597 135.635136 
L 425.894805 135.000585 
L 427.687013 200.459415 
L 429.479221 199.012058 
L 431.271429 197.564701 
L 433.063636 196.117344 
L 434.855844 194.669987 
L 436.648052 193.22263 
L 438.44026 198.220598 
L 440.232468 137.125184 
L 442.024675 142.123152 
L 443.816883 147.12112 
L 445.609091 152.119089 
" clip-path="url(#p9c89d3990f)" style="fill: none; stroke: #348abd; stroke-width: 4; stroke-linecap: square"/>
   </g>
   <g id="line2d_76">
    <path d="M 357.790909 190.974125 
L 359.583117 200.308869 
L 361.375325 143.995609 
L 363.167532 147.059189 
L 364.95974 150.928951 
L 366.751948 145.821092 
L 368.544156 145.897145 
L 370.336364 150.467899 
L 372.128571 154.129804 
L 373.920779 154.872137 
L 375.712987 156.456942 
L 377.505195 163.411743 
L 379.297403 157.760257 
L 381.08961 157.016873 
L 382.881818 161.661367 
L 384.674026 167.923801 
L 386.466234 166.094952 
L 388.258442 166.629848 
L 390.050649 171.991743 
L 391.842857 183.642265 
L 393.635065 195.277849 
L 395.427273 141.919085 
L 397.219481 140.951855 
L 399.011688 140.46114 
L 400.803896 142.749462 
L 402.596104 140.999507 
L 404.388312 144.747353 
L 406.180519 146.975506 
L 407.972727 145.665038 
L 409.764935 141.401862 
L 411.557143 149.82113 
L 413.349351 146.346254 
L 415.141558 143.350418 
L 416.933766 144.950687 
L 418.725974 138.89369 
L 420.518182 197.552287 
L 422.31039 196.746314 
L 424.102597 197.45225 
L 425.894805 193.444056 
L 427.687013 192.215217 
L 429.479221 195.842409 
L 431.271429 187.397474 
L 433.063636 193.304784 
L 434.855844 183.47154 
L 436.648052 187.662765 
L 438.44026 179.960268 
L 440.232468 179.795749 
L 442.024675 170.548734 
L 443.816883 160.750519 
L 445.609091 148.689542 
" clip-path="url(#p9c89d3990f)" style="fill: none; stroke-dasharray: 7.4,3.2; stroke-dashoffset: 0; stroke: #a60628; stroke-width: 2"/>
   </g>
   <g id="patch_28">
    <path d="M 353.4 203.732357 
L 353.4 131.727643 
" style="fill: none; stroke: #bcbcbc; stroke-width: 0.8; stroke-linejoin: miter; stroke-linecap: square"/>
   </g>
   <g id="patch_29">
    <path d="M 450 203.732357 
L 450 131.727643 
" style="fill: none; stroke: #bcbcbc; stroke-width: 0.8; stroke-linejoin: miter; stroke-linecap: square"/>
   </g>
   <g id="patch_30">
    <path d="M 353.4 203.732357 
L 450 203.732357 
" style="fill: none; stroke: #bcbcbc; stroke-width: 0.8; stroke-linejoin: miter; stroke-linecap: square"/>
   </g>
   <g id="patch_31">
    <path d="M 353.4 131.727643 
L 450 131.727643 
" style="fill: none; stroke: #bcbcbc; stroke-width: 0.8; stroke-linejoin: miter; stroke-linecap: square"/>
   </g>
   <g id="text_26">
    <!-- Robot 2 $\theta$ -->
    <g transform="translate(367.932 125.727643) scale(0.144 -0.144)">
     <use xlink:href="#DejaVuSans-52" transform="translate(0 0.015625)"/>
     <use xlink:href="#DejaVuSans-6f" transform="translate(69.482422 0.015625)"/>
     <use xlink:href="#DejaVuSans-62" transform="translate(130.664062 0.015625)"/>
     <use xlink:href="#DejaVuSans-6f" transform="translate(194.140625 0.015625)"/>
     <use xlink:href="#DejaVuSans-74" transform="translate(255.322266 0.015625)"/>
     <use xlink:href="#DejaVuSans-20" transform="translate(294.53125 0.015625)"/>
     <use xlink:href="#DejaVuSans-32" transform="translate(326.318359 0.015625)"/>
     <use xlink:href="#DejaVuSans-20" transform="translate(389.941406 0.015625)"/>
     <use xlink:href="#Cmmi10-b5" transform="translate(421.728516 0.015625)"/>
    </g>
   </g>
  </g>
  <g id="axes_7">
   <g id="patch_32">
    <path d="M 53.4 306.42 
L 150 306.42 
L 150 234.415286 
L 53.4 234.415286 
z
" style="fill: #eeeeee"/>
   </g>
   <g id="matplotlib.axis_13">
    <g id="xtick_19">
     <g id="line2d_77">
      <path d="M 57.790909 306.42 
L 57.790909 234.415286 
" clip-path="url(#p6aa23d49c5)" style="fill: none; stroke-dasharray: 1.85,0.8; stroke-dashoffset: 0; stroke: #b2b2b2; stroke-width: 0.5"/>
     </g>
     <g id="line2d_78">
      <g>
       <use xlink:href="#m1e4b587a92" x="57.790909" y="306.42" style="stroke: #000000; stroke-width: 0.8"/>
      </g>
     </g>
     <g id="text_27">
      <!-- 0 -->
      <g transform="translate(54.609659 317.518437) scale(0.1 -0.1)">
       <use xlink:href="#DejaVuSans-30"/>
      </g>
     </g>
    </g>
    <g id="xtick_20">
     <g id="line2d_79">
      <path d="M 93.635065 306.42 
L 93.635065 234.415286 
" clip-path="url(#p6aa23d49c5)" style="fill: none; stroke-dasharray: 1.85,0.8; stroke-dashoffset: 0; stroke: #b2b2b2; stroke-width: 0.5"/>
     </g>
     <g id="line2d_80">
      <g>
       <use xlink:href="#m1e4b587a92" x="93.635065" y="306.42" style="stroke: #000000; stroke-width: 0.8"/>
      </g>
     </g>
     <g id="text_28">
      <!-- 20 -->
      <g transform="translate(87.272565 317.518437) scale(0.1 -0.1)">
       <use xlink:href="#DejaVuSans-32"/>
       <use xlink:href="#DejaVuSans-30" x="63.623047"/>
      </g>
     </g>
    </g>
    <g id="xtick_21">
     <g id="line2d_81">
      <path d="M 129.479221 306.42 
L 129.479221 234.415286 
" clip-path="url(#p6aa23d49c5)" style="fill: none; stroke-dasharray: 1.85,0.8; stroke-dashoffset: 0; stroke: #b2b2b2; stroke-width: 0.5"/>
     </g>
     <g id="line2d_82">
      <g>
       <use xlink:href="#m1e4b587a92" x="129.479221" y="306.42" style="stroke: #000000; stroke-width: 0.8"/>
      </g>
     </g>
     <g id="text_29">
      <!-- 40 -->
      <g transform="translate(123.116721 317.518437) scale(0.1 -0.1)">
       <use xlink:href="#DejaVuSans-34"/>
       <use xlink:href="#DejaVuSans-30" x="63.623047"/>
      </g>
     </g>
    </g>
    <g id="text_30">
     <!-- Iteration -->
     <g transform="translate(76.249688 332.71625) scale(0.12 -0.12)">
      <defs>
       <path id="DejaVuSans-49" d="M 628 4666 
L 1259 4666 
L 1259 0 
L 628 0 
L 628 4666 
z
" transform="scale(0.015625)"/>
      </defs>
      <use xlink:href="#DejaVuSans-49"/>
      <use xlink:href="#DejaVuSans-74" x="29.492188"/>
      <use xlink:href="#DejaVuSans-65" x="68.701172"/>
      <use xlink:href="#DejaVuSans-72" x="130.224609"/>
      <use xlink:href="#DejaVuSans-61" x="171.337891"/>
      <use xlink:href="#DejaVuSans-74" x="232.617188"/>
      <use xlink:href="#DejaVuSans-69" x="271.826172"/>
      <use xlink:href="#DejaVuSans-6f" x="299.609375"/>
      <use xlink:href="#DejaVuSans-6e" x="360.791016"/>
     </g>
    </g>
   </g>
   <g id="matplotlib.axis_14">
    <g id="ytick_15">
     <g id="line2d_83">
      <path d="M 53.4 286.695922 
L 150 286.695922 
" clip-path="url(#p6aa23d49c5)" style="fill: none; stroke-dasharray: 1.85,0.8; stroke-dashoffset: 0; stroke: #b2b2b2; stroke-width: 0.5"/>
     </g>
     <g id="line2d_84">
      <g>
       <use xlink:href="#m48970b393b" x="53.4" y="286.695922" style="stroke: #000000; stroke-width: 0.8"/>
      </g>
     </g>
     <g id="text_31">
      <!-- −0.2 -->
      <g transform="translate(25.617188 290.495141) scale(0.1 -0.1)">
       <use xlink:href="#DejaVuSans-2212"/>
       <use xlink:href="#DejaVuSans-30" x="83.789062"/>
       <use xlink:href="#DejaVuSans-2e" x="147.412109"/>
       <use xlink:href="#DejaVuSans-32" x="179.199219"/>
      </g>
     </g>
    </g>
    <g id="ytick_16">
     <g id="line2d_85">
      <path d="M 53.4 243.954335 
L 150 243.954335 
" clip-path="url(#p6aa23d49c5)" style="fill: none; stroke-dasharray: 1.85,0.8; stroke-dashoffset: 0; stroke: #b2b2b2; stroke-width: 0.5"/>
     </g>
     <g id="line2d_86">
      <g>
       <use xlink:href="#m48970b393b" x="53.4" y="243.954335" style="stroke: #000000; stroke-width: 0.8"/>
      </g>
     </g>
     <g id="text_32">
      <!-- 0.0 -->
      <g transform="translate(33.996875 247.753554) scale(0.1 -0.1)">
       <use xlink:href="#DejaVuSans-30"/>
       <use xlink:href="#DejaVuSans-2e" x="63.623047"/>
       <use xlink:href="#DejaVuSans-30" x="95.410156"/>
      </g>
     </g>
    </g>
    <g id="text_33">
     <!-- Position -->
     <g transform="translate(19.121563 293.774518) rotate(-90) scale(0.12 -0.12)">
      <use xlink:href="#DejaVuSans-50"/>
      <use xlink:href="#DejaVuSans-6f" x="56.677734"/>
      <use xlink:href="#DejaVuSans-73" x="117.859375"/>
      <use xlink:href="#DejaVuSans-69" x="169.958984"/>
      <use xlink:href="#DejaVuSans-74" x="197.742188"/>
      <use xlink:href="#DejaVuSans-69" x="236.951172"/>
      <use xlink:href="#DejaVuSans-6f" x="264.734375"/>
      <use xlink:href="#DejaVuSans-6e" x="325.916016"/>
     </g>
    </g>
   </g>
   <g id="line2d_87">
    <path d="M 57.790909 242.688262 
L 59.583117 241.606617 
L 61.375325 241.27643 
L 63.167532 241.52782 
L 64.95974 242.199325 
L 66.751948 242.68073 
L 68.544156 242.86727 
L 70.336364 242.798471 
L 72.128571 242.497535 
L 73.920779 241.968 
L 75.712987 240.374381 
L 77.505195 239.416381 
L 79.297403 238.985348 
L 81.08961 238.966605 
L 82.881818 239.250169 
L 84.674026 239.596583 
L 86.466234 239.850208 
L 88.258442 240.062684 
L 90.050649 240.277864 
L 91.842857 240.514076 
L 93.635065 240.898814 
L 95.427273 242.69511 
L 97.219481 245.623803 
L 99.011688 249.166838 
L 100.803896 252.702233 
L 102.596104 256.294735 
L 104.388312 259.46913 
L 106.180519 262.196507 
L 107.972727 264.468171 
L 109.764935 266.289925 
L 111.557143 266.681735 
L 113.349351 267.142197 
L 115.141558 267.662945 
L 116.933766 268.23185 
L 118.725974 268.834628 
L 120.518182 270.511747 
L 122.31039 272.726213 
L 124.102597 275.302967 
L 125.894805 278.046466 
L 127.687013 280.757285 
L 129.479221 282.617792 
L 131.271429 284.539382 
L 133.063636 286.499787 
L 134.855844 288.476758 
L 136.648052 290.448843 
L 138.44026 293.095931 
L 140.232468 295.784209 
L 142.024675 298.411113 
L 143.816883 300.888043 
L 145.609091 303.147058 
" clip-path="url(#p6aa23d49c5)" style="fill: none; stroke: #348abd; stroke-width: 4; stroke-linecap: square"/>
   </g>
   <g id="line2d_88">
    <path d="M 57.790909 245.279891 
L 59.583117 242.198208 
L 61.375325 240.896516 
L 63.167532 242.034513 
L 64.95974 243.05456 
L 66.751948 242.49102 
L 68.544156 242.303886 
L 70.336364 243.72082 
L 72.128571 242.971888 
L 73.920779 242.0349 
L 75.712987 240.315294 
L 77.505195 238.369086 
L 79.297403 238.153145 
L 81.08961 237.688228 
L 82.881818 238.6915 
L 84.674026 239.894998 
L 86.466234 240.085084 
L 88.258442 239.161121 
L 90.050649 239.666638 
L 91.842857 239.377751 
L 93.635065 240.968304 
L 95.427273 242.931607 
L 97.219481 245.646419 
L 99.011688 248.093464 
L 100.803896 252.212746 
L 102.596104 255.830221 
L 104.388312 258.313601 
L 106.180519 261.240082 
L 107.972727 264.293612 
L 109.764935 266.023838 
L 111.557143 266.487605 
L 113.349351 267.233212 
L 115.141558 267.802636 
L 116.933766 268.080415 
L 118.725974 268.320666 
L 120.518182 270.240377 
L 122.31039 272.565613 
L 124.102597 274.597745 
L 125.894805 277.903178 
L 127.687013 280.018358 
L 129.479221 281.9815 
L 131.271429 284.58632 
L 133.063636 286.099015 
L 134.855844 287.665474 
L 136.648052 289.803124 
L 138.44026 292.885173 
L 140.232468 295.361225 
L 142.024675 298.050025 
L 143.816883 300.770134 
L 145.609091 302.923086 
" clip-path="url(#p6aa23d49c5)" style="fill: none; stroke-dasharray: 7.4,3.2; stroke-dashoffset: 0; stroke: #a60628; stroke-width: 2"/>
   </g>
   <g id="patch_33">
    <path d="M 53.4 306.42 
L 53.4 234.415286 
" style="fill: none; stroke: #bcbcbc; stroke-width: 0.8; stroke-linejoin: miter; stroke-linecap: square"/>
   </g>
   <g id="patch_34">
    <path d="M 150 306.42 
L 150 234.415286 
" style="fill: none; stroke: #bcbcbc; stroke-width: 0.8; stroke-linejoin: miter; stroke-linecap: square"/>
   </g>
   <g id="patch_35">
    <path d="M 53.4 306.42 
L 150 306.42 
" style="fill: none; stroke: #bcbcbc; stroke-width: 0.8; stroke-linejoin: miter; stroke-linecap: square"/>
   </g>
   <g id="patch_36">
    <path d="M 53.4 234.415286 
L 150 234.415286 
" style="fill: none; stroke: #bcbcbc; stroke-width: 0.8; stroke-linejoin: miter; stroke-linecap: square"/>
   </g>
   <g id="text_34">
    <!-- Robot 3 $x$ -->
    <g transform="translate(67.212 228.415286) scale(0.144 -0.144)">
     <use xlink:href="#DejaVuSans-52" transform="translate(0 0.015625)"/>
     <use xlink:href="#DejaVuSans-6f" transform="translate(69.482422 0.015625)"/>
     <use xlink:href="#DejaVuSans-62" transform="translate(130.664062 0.015625)"/>
     <use xlink:href="#DejaVuSans-6f" transform="translate(194.140625 0.015625)"/>
     <use xlink:href="#DejaVuSans-74" transform="translate(255.322266 0.015625)"/>
     <use xlink:href="#DejaVuSans-20" transform="translate(294.53125 0.015625)"/>
     <use xlink:href="#DejaVuSans-33" transform="translate(326.318359 0.015625)"/>
     <use xlink:href="#DejaVuSans-20" transform="translate(389.941406 0.015625)"/>
     <use xlink:href="#Cmmi10-78" transform="translate(421.728516 0.015625)"/>
    </g>
   </g>
  </g>
  <g id="axes_8">
   <g id="patch_37">
    <path d="M 203.4 306.42 
L 300 306.42 
L 300 234.415286 
L 203.4 234.415286 
z
" style="fill: #eeeeee"/>
   </g>
   <g id="matplotlib.axis_15">
    <g id="xtick_22">
     <g id="line2d_89">
      <path d="M 207.790909 306.42 
L 207.790909 234.415286 
" clip-path="url(#pd71d5043fb)" style="fill: none; stroke-dasharray: 1.85,0.8; stroke-dashoffset: 0; stroke: #b2b2b2; stroke-width: 0.5"/>
     </g>
     <g id="line2d_90">
      <g>
       <use xlink:href="#m1e4b587a92" x="207.790909" y="306.42" style="stroke: #000000; stroke-width: 0.8"/>
      </g>
     </g>
     <g id="text_35">
      <!-- 0 -->
      <g transform="translate(204.609659 317.518437) scale(0.1 -0.1)">
       <use xlink:href="#DejaVuSans-30"/>
      </g>
     </g>
    </g>
    <g id="xtick_23">
     <g id="line2d_91">
      <path d="M 243.635065 306.42 
L 243.635065 234.415286 
" clip-path="url(#pd71d5043fb)" style="fill: none; stroke-dasharray: 1.85,0.8; stroke-dashoffset: 0; stroke: #b2b2b2; stroke-width: 0.5"/>
     </g>
     <g id="line2d_92">
      <g>
       <use xlink:href="#m1e4b587a92" x="243.635065" y="306.42" style="stroke: #000000; stroke-width: 0.8"/>
      </g>
     </g>
     <g id="text_36">
      <!-- 20 -->
      <g transform="translate(237.272565 317.518437) scale(0.1 -0.1)">
       <use xlink:href="#DejaVuSans-32"/>
       <use xlink:href="#DejaVuSans-30" x="63.623047"/>
      </g>
     </g>
    </g>
    <g id="xtick_24">
     <g id="line2d_93">
      <path d="M 279.479221 306.42 
L 279.479221 234.415286 
" clip-path="url(#pd71d5043fb)" style="fill: none; stroke-dasharray: 1.85,0.8; stroke-dashoffset: 0; stroke: #b2b2b2; stroke-width: 0.5"/>
     </g>
     <g id="line2d_94">
      <g>
       <use xlink:href="#m1e4b587a92" x="279.479221" y="306.42" style="stroke: #000000; stroke-width: 0.8"/>
      </g>
     </g>
     <g id="text_37">
      <!-- 40 -->
      <g transform="translate(273.116721 317.518437) scale(0.1 -0.1)">
       <use xlink:href="#DejaVuSans-34"/>
       <use xlink:href="#DejaVuSans-30" x="63.623047"/>
      </g>
     </g>
    </g>
    <g id="text_38">
     <!-- Iteration -->
     <g transform="translate(226.249688 332.71625) scale(0.12 -0.12)">
      <use xlink:href="#DejaVuSans-49"/>
      <use xlink:href="#DejaVuSans-74" x="29.492188"/>
      <use xlink:href="#DejaVuSans-65" x="68.701172"/>
      <use xlink:href="#DejaVuSans-72" x="130.224609"/>
      <use xlink:href="#DejaVuSans-61" x="171.337891"/>
      <use xlink:href="#DejaVuSans-74" x="232.617188"/>
      <use xlink:href="#DejaVuSans-69" x="271.826172"/>
      <use xlink:href="#DejaVuSans-6f" x="299.609375"/>
      <use xlink:href="#DejaVuSans-6e" x="360.791016"/>
     </g>
    </g>
   </g>
   <g id="matplotlib.axis_16">
    <g id="ytick_17">
     <g id="line2d_95">
      <path d="M 203.4 278.087938 
L 300 278.087938 
" clip-path="url(#pd71d5043fb)" style="fill: none; stroke-dasharray: 1.85,0.8; stroke-dashoffset: 0; stroke: #b2b2b2; stroke-width: 0.5"/>
     </g>
     <g id="line2d_96">
      <g>
       <use xlink:href="#m48970b393b" x="203.4" y="278.087938" style="stroke: #000000; stroke-width: 0.8"/>
      </g>
     </g>
     <g id="text_39">
      <!-- 0.0 -->
      <g transform="translate(183.996875 281.887157) scale(0.1 -0.1)">
       <use xlink:href="#DejaVuSans-30"/>
       <use xlink:href="#DejaVuSans-2e" x="63.623047"/>
       <use xlink:href="#DejaVuSans-30" x="95.410156"/>
      </g>
     </g>
    </g>
    <g id="ytick_18">
     <g id="line2d_97">
      <path d="M 203.4 244.06333 
L 300 244.06333 
" clip-path="url(#pd71d5043fb)" style="fill: none; stroke-dasharray: 1.85,0.8; stroke-dashoffset: 0; stroke: #b2b2b2; stroke-width: 0.5"/>
     </g>
     <g id="line2d_98">
      <g>
       <use xlink:href="#m48970b393b" x="203.4" y="244.06333" style="stroke: #000000; stroke-width: 0.8"/>
      </g>
     </g>
     <g id="text_40">
      <!-- 0.2 -->
      <g transform="translate(183.996875 247.862549) scale(0.1 -0.1)">
       <use xlink:href="#DejaVuSans-30"/>
       <use xlink:href="#DejaVuSans-2e" x="63.623047"/>
       <use xlink:href="#DejaVuSans-32" x="95.410156"/>
      </g>
     </g>
    </g>
    <g id="text_41">
     <!-- Position -->
     <g transform="translate(177.50125 293.774518) rotate(-90) scale(0.12 -0.12)">
      <use xlink:href="#DejaVuSans-50"/>
      <use xlink:href="#DejaVuSans-6f" x="56.677734"/>
      <use xlink:href="#DejaVuSans-73" x="117.859375"/>
      <use xlink:href="#DejaVuSans-69" x="169.958984"/>
      <use xlink:href="#DejaVuSans-74" x="197.742188"/>
      <use xlink:href="#DejaVuSans-69" x="236.951172"/>
      <use xlink:href="#DejaVuSans-6f" x="264.734375"/>
      <use xlink:href="#DejaVuSans-6e" x="325.916016"/>
     </g>
    </g>
   </g>
   <g id="line2d_99">
    <path d="M 207.790909 299.307289 
L 209.583117 293.975176 
L 211.375325 288.698609 
L 213.167532 283.58309 
L 214.95974 278.708716 
L 216.751948 276.02143 
L 218.544156 273.749206 
L 220.336364 271.883523 
L 222.128571 270.371386 
L 223.920779 269.144644 
L 225.712987 266.63506 
L 227.505195 264.187357 
L 229.297403 261.71954 
L 231.08961 259.169732 
L 232.881818 256.505316 
L 234.674026 253.25389 
L 236.466234 250.19184 
L 238.258442 247.32899 
L 240.050649 244.627064 
L 241.842857 242.021624 
L 243.635065 240.208454 
L 245.427273 238.613624 
L 247.219481 237.688228 
L 249.011688 237.714043 
L 250.803896 238.751188 
L 252.596104 240.850482 
L 254.388312 243.378352 
L 256.180519 246.241086 
L 257.972727 249.348929 
L 259.764935 252.622396 
L 261.557143 254.462535 
L 263.349351 256.187814 
L 265.141558 257.790471 
L 266.933766 259.273001 
L 268.725974 260.645343 
L 270.518182 262.723887 
L 272.31039 264.34729 
L 274.102597 265.411348 
L 275.894805 265.864827 
L 277.687013 265.708249 
L 279.479221 265.350296 
L 281.271429 264.992326 
L 283.063636 264.628026 
L 284.855844 264.254859 
L 286.648052 263.873749 
L 288.44026 262.846516 
L 290.232468 262.158903 
L 292.024675 261.827519 
L 293.816883 261.864943 
L 295.609091 262.278436 
" clip-path="url(#pd71d5043fb)" style="fill: none; stroke: #348abd; stroke-width: 4; stroke-linecap: square"/>
   </g>
   <g id="line2d_100">
    <path d="M 207.790909 303.147058 
L 209.583117 297.497477 
L 211.375325 290.871788 
L 213.167532 285.595069 
L 214.95974 278.940512 
L 216.751948 276.517145 
L 218.544156 274.452451 
L 220.336364 272.277661 
L 222.128571 270.072849 
L 223.920779 268.744042 
L 225.712987 266.037331 
L 227.505195 264.020491 
L 229.297403 261.627548 
L 231.08961 259.799969 
L 232.881818 257.526313 
L 234.674026 253.627752 
L 236.466234 251.159754 
L 238.258442 247.443325 
L 240.050649 245.203954 
L 241.842857 242.794081 
L 243.635065 239.824005 
L 245.427273 238.124107 
L 247.219481 237.749496 
L 249.011688 237.822495 
L 250.803896 238.236308 
L 252.596104 240.145352 
L 254.388312 242.935849 
L 256.180519 245.568618 
L 257.972727 249.163969 
L 259.764935 252.617707 
L 261.557143 254.238993 
L 263.349351 256.061892 
L 265.141558 257.317387 
L 266.933766 258.409461 
L 268.725974 260.186281 
L 270.518182 262.36028 
L 272.31039 264.047902 
L 274.102597 265.567853 
L 275.894805 265.75756 
L 277.687013 266.158586 
L 279.479221 265.129778 
L 281.271429 265.291375 
L 283.063636 265.092396 
L 284.855844 265.070164 
L 286.648052 263.583868 
L 288.44026 262.416672 
L 290.232468 262.250442 
L 292.024675 261.987517 
L 293.816883 261.93792 
L 295.609091 262.293423 
" clip-path="url(#pd71d5043fb)" style="fill: none; stroke-dasharray: 7.4,3.2; stroke-dashoffset: 0; stroke: #a60628; stroke-width: 2"/>
   </g>
   <g id="patch_38">
    <path d="M 203.4 306.42 
L 203.4 234.415286 
" style="fill: none; stroke: #bcbcbc; stroke-width: 0.8; stroke-linejoin: miter; stroke-linecap: square"/>
   </g>
   <g id="patch_39">
    <path d="M 300 306.42 
L 300 234.415286 
" style="fill: none; stroke: #bcbcbc; stroke-width: 0.8; stroke-linejoin: miter; stroke-linecap: square"/>
   </g>
   <g id="patch_40">
    <path d="M 203.4 306.42 
L 300 306.42 
" style="fill: none; stroke: #bcbcbc; stroke-width: 0.8; stroke-linejoin: miter; stroke-linecap: square"/>
   </g>
   <g id="patch_41">
    <path d="M 203.4 234.415286 
L 300 234.415286 
" style="fill: none; stroke: #bcbcbc; stroke-width: 0.8; stroke-linejoin: miter; stroke-linecap: square"/>
   </g>
   <g id="text_42">
    <!-- Robot 3 $y$ -->
    <g transform="translate(217.788 228.415286) scale(0.144 -0.144)">
     <use xlink:href="#DejaVuSans-52" transform="translate(0 0.015625)"/>
     <use xlink:href="#DejaVuSans-6f" transform="translate(69.482422 0.015625)"/>
     <use xlink:href="#DejaVuSans-62" transform="translate(130.664062 0.015625)"/>
     <use xlink:href="#DejaVuSans-6f" transform="translate(194.140625 0.015625)"/>
     <use xlink:href="#DejaVuSans-74" transform="translate(255.322266 0.015625)"/>
     <use xlink:href="#DejaVuSans-20" transform="translate(294.53125 0.015625)"/>
     <use xlink:href="#DejaVuSans-33" transform="translate(326.318359 0.015625)"/>
     <use xlink:href="#DejaVuSans-20" transform="translate(389.941406 0.015625)"/>
     <use xlink:href="#Cmmi10-79" transform="translate(421.728516 0.015625)"/>
    </g>
   </g>
  </g>
  <g id="axes_9">
   <g id="patch_42">
    <path d="M 353.4 306.42 
L 450 306.42 
L 450 234.415286 
L 353.4 234.415286 
z
" style="fill: #eeeeee"/>
   </g>
   <g id="matplotlib.axis_17">
    <g id="xtick_25">
     <g id="line2d_101">
      <path d="M 357.790909 306.42 
L 357.790909 234.415286 
" clip-path="url(#pcdaa34d296)" style="fill: none; stroke-dasharray: 1.85,0.8; stroke-dashoffset: 0; stroke: #b2b2b2; stroke-width: 0.5"/>
     </g>
     <g id="line2d_102">
      <g>
       <use xlink:href="#m1e4b587a92" x="357.790909" y="306.42" style="stroke: #000000; stroke-width: 0.8"/>
      </g>
     </g>
     <g id="text_43">
      <!-- 0 -->
      <g transform="translate(354.609659 317.518437) scale(0.1 -0.1)">
       <use xlink:href="#DejaVuSans-30"/>
      </g>
     </g>
    </g>
    <g id="xtick_26">
     <g id="line2d_103">
      <path d="M 393.635065 306.42 
L 393.635065 234.415286 
" clip-path="url(#pcdaa34d296)" style="fill: none; stroke-dasharray: 1.85,0.8; stroke-dashoffset: 0; stroke: #b2b2b2; stroke-width: 0.5"/>
     </g>
     <g id="line2d_104">
      <g>
       <use xlink:href="#m1e4b587a92" x="393.635065" y="306.42" style="stroke: #000000; stroke-width: 0.8"/>
      </g>
     </g>
     <g id="text_44">
      <!-- 20 -->
      <g transform="translate(387.272565 317.518437) scale(0.1 -0.1)">
       <use xlink:href="#DejaVuSans-32"/>
       <use xlink:href="#DejaVuSans-30" x="63.623047"/>
      </g>
     </g>
    </g>
    <g id="xtick_27">
     <g id="line2d_105">
      <path d="M 429.479221 306.42 
L 429.479221 234.415286 
" clip-path="url(#pcdaa34d296)" style="fill: none; stroke-dasharray: 1.85,0.8; stroke-dashoffset: 0; stroke: #b2b2b2; stroke-width: 0.5"/>
     </g>
     <g id="line2d_106">
      <g>
       <use xlink:href="#m1e4b587a92" x="429.479221" y="306.42" style="stroke: #000000; stroke-width: 0.8"/>
      </g>
     </g>
     <g id="text_45">
      <!-- 40 -->
      <g transform="translate(423.116721 317.518437) scale(0.1 -0.1)">
       <use xlink:href="#DejaVuSans-34"/>
       <use xlink:href="#DejaVuSans-30" x="63.623047"/>
      </g>
     </g>
    </g>
    <g id="text_46">
     <!-- Iteration -->
     <g transform="translate(376.249688 332.71625) scale(0.12 -0.12)">
      <use xlink:href="#DejaVuSans-49"/>
      <use xlink:href="#DejaVuSans-74" x="29.492188"/>
      <use xlink:href="#DejaVuSans-65" x="68.701172"/>
      <use xlink:href="#DejaVuSans-72" x="130.224609"/>
      <use xlink:href="#DejaVuSans-61" x="171.337891"/>
      <use xlink:href="#DejaVuSans-74" x="232.617188"/>
      <use xlink:href="#DejaVuSans-69" x="271.826172"/>
      <use xlink:href="#DejaVuSans-6f" x="299.609375"/>
      <use xlink:href="#DejaVuSans-6e" x="360.791016"/>
     </g>
    </g>
   </g>
   <g id="matplotlib.axis_18">
    <g id="ytick_19">
     <g id="line2d_107">
      <path d="M 353.4 282.033862 
L 450 282.033862 
" clip-path="url(#pcdaa34d296)" style="fill: none; stroke-dasharray: 1.85,0.8; stroke-dashoffset: 0; stroke: #b2b2b2; stroke-width: 0.5"/>
     </g>
     <g id="line2d_108">
      <g>
       <use xlink:href="#m48970b393b" x="353.4" y="282.033862" style="stroke: #000000; stroke-width: 0.8"/>
      </g>
     </g>
     <g id="text_47">
      <!-- 2 -->
      <g transform="translate(343.5375 285.833081) scale(0.1 -0.1)">
       <use xlink:href="#DejaVuSans-32"/>
      </g>
     </g>
    </g>
    <g id="ytick_20">
     <g id="line2d_109">
      <path d="M 353.4 247.134863 
L 450 247.134863 
" clip-path="url(#pcdaa34d296)" style="fill: none; stroke-dasharray: 1.85,0.8; stroke-dashoffset: 0; stroke: #b2b2b2; stroke-width: 0.5"/>
     </g>
     <g id="line2d_110">
      <g>
       <use xlink:href="#m48970b393b" x="353.4" y="247.134863" style="stroke: #000000; stroke-width: 0.8"/>
      </g>
     </g>
     <g id="text_48">
      <!-- 4 -->
      <g transform="translate(343.5375 250.934082) scale(0.1 -0.1)">
       <use xlink:href="#DejaVuSans-34"/>
      </g>
     </g>
    </g>
    <g id="text_49">
     <!-- Angle [rad] -->
     <g transform="translate(337.041875 304.033581) rotate(-90) scale(0.12 -0.12)">
      <use xlink:href="#DejaVuSans-41"/>
      <use xlink:href="#DejaVuSans-6e" x="68.408203"/>
      <use xlink:href="#DejaVuSans-67" x="131.787109"/>
      <use xlink:href="#DejaVuSans-6c" x="195.263672"/>
      <use xlink:href="#DejaVuSans-65" x="223.046875"/>
      <use xlink:href="#DejaVuSans-20" x="284.570312"/>
      <use xlink:href="#DejaVuSans-5b" x="316.357422"/>
      <use xlink:href="#DejaVuSans-72" x="355.371094"/>
      <use xlink:href="#DejaVuSans-61" x="396.484375"/>
      <use xlink:href="#DejaVuSans-64" x="457.763672"/>
      <use xlink:href="#DejaVuSans-5d" x="521.240234"/>
     </g>
    </g>
   </g>
   <g id="line2d_111">
    <path d="M 357.790909 292.953109 
L 359.583117 290.865278 
L 361.375325 288.777448 
L 363.167532 286.689618 
L 364.95974 284.601787 
L 366.751948 287.260003 
L 368.544156 289.918218 
L 370.336364 292.576434 
L 372.128571 295.23465 
L 373.920779 297.892865 
L 375.712987 296.811424 
L 377.505195 295.729984 
L 379.297403 294.648543 
L 381.08961 293.567102 
L 382.881818 292.485662 
L 384.674026 292.588386 
L 386.466234 292.69111 
L 388.258442 292.793834 
L 390.050649 292.896559 
L 391.842857 292.999283 
L 393.635065 285.048129 
L 395.427273 277.096975 
L 397.219481 269.14582 
L 399.011688 261.194666 
L 400.803896 253.243512 
L 402.596104 251.3356 
L 404.388312 249.427688 
L 406.180519 247.519776 
L 407.972727 245.611864 
L 409.764935 243.703952 
L 411.557143 244.096998 
L 413.349351 244.490044 
L 415.141558 244.88309 
L 416.933766 245.276136 
L 418.725974 245.669182 
L 420.518182 250.937858 
L 422.31039 256.206535 
L 424.102597 261.475211 
L 425.894805 266.743888 
L 427.687013 272.012565 
L 429.479221 271.589774 
L 431.271429 271.166983 
L 433.063636 270.744193 
L 434.855844 270.321402 
L 436.648052 269.898612 
L 438.44026 267.025625 
L 440.232468 264.152639 
L 442.024675 261.279653 
L 443.816883 258.406666 
L 445.609091 255.53368 
" clip-path="url(#pcdaa34d296)" style="fill: none; stroke: #348abd; stroke-width: 4; stroke-linecap: square"/>
   </g>
   <g id="line2d_112">
    <path d="M 357.790909 301.054689 
L 359.583117 303.147058 
L 361.375325 296.830165 
L 363.167532 293.793429 
L 364.95974 292.839465 
L 366.751948 293.020241 
L 368.544156 289.271565 
L 370.336364 281.724482 
L 372.128571 286.690959 
L 373.920779 286.631805 
L 375.712987 292.890766 
L 377.505195 294.897284 
L 379.297403 288.223723 
L 381.08961 285.836631 
L 382.881818 281.108166 
L 384.674026 284.399316 
L 386.466234 284.25274 
L 388.258442 289.056239 
L 390.050649 281.078676 
L 391.842857 282.215162 
L 393.635065 275.894256 
L 395.427273 271.92432 
L 397.219481 267.979861 
L 399.011688 268.466178 
L 400.803896 261.907435 
L 402.596104 251.880429 
L 404.388312 246.220858 
L 406.180519 249.201756 
L 407.972727 243.719298 
L 409.764935 241.290851 
L 411.557143 237.94997 
L 413.349351 239.877791 
L 415.141558 243.636587 
L 416.933766 246.571244 
L 418.725974 237.688228 
L 420.518182 243.161961 
L 422.31039 247.359264 
L 424.102597 244.334218 
L 425.894805 256.542586 
L 427.687013 247.478793 
L 429.479221 269.737374 
L 431.271429 240.16815 
L 433.063636 258.664969 
L 434.855844 245.196747 
L 436.648052 270.528186 
L 438.44026 251.408769 
L 440.232468 250.715849 
L 442.024675 252.898433 
L 443.816883 252.680314 
L 445.609091 251.358863 
" clip-path="url(#pcdaa34d296)" style="fill: none; stroke-dasharray: 7.4,3.2; stroke-dashoffset: 0; stroke: #a60628; stroke-width: 2"/>
   </g>
   <g id="patch_43">
    <path d="M 353.4 306.42 
L 353.4 234.415286 
" style="fill: none; stroke: #bcbcbc; stroke-width: 0.8; stroke-linejoin: miter; stroke-linecap: square"/>
   </g>
   <g id="patch_44">
    <path d="M 450 306.42 
L 450 234.415286 
" style="fill: none; stroke: #bcbcbc; stroke-width: 0.8; stroke-linejoin: miter; stroke-linecap: square"/>
   </g>
   <g id="patch_45">
    <path d="M 353.4 306.42 
L 450 306.42 
" style="fill: none; stroke: #bcbcbc; stroke-width: 0.8; stroke-linejoin: miter; stroke-linecap: square"/>
   </g>
   <g id="patch_46">
    <path d="M 353.4 234.415286 
L 450 234.415286 
" style="fill: none; stroke: #bcbcbc; stroke-width: 0.8; stroke-linejoin: miter; stroke-linecap: square"/>
   </g>
   <g id="text_50">
    <!-- Robot 3 $\theta$ -->
    <g transform="translate(367.932 228.415286) scale(0.144 -0.144)">
     <use xlink:href="#DejaVuSans-52" transform="translate(0 0.015625)"/>
     <use xlink:href="#DejaVuSans-6f" transform="translate(69.482422 0.015625)"/>
     <use xlink:href="#DejaVuSans-62" transform="translate(130.664062 0.015625)"/>
     <use xlink:href="#DejaVuSans-6f" transform="translate(194.140625 0.015625)"/>
     <use xlink:href="#DejaVuSans-74" transform="translate(255.322266 0.015625)"/>
     <use xlink:href="#DejaVuSans-20" transform="translate(294.53125 0.015625)"/>
     <use xlink:href="#DejaVuSans-33" transform="translate(326.318359 0.015625)"/>
     <use xlink:href="#DejaVuSans-20" transform="translate(389.941406 0.015625)"/>
     <use xlink:href="#Cmmi10-b5" transform="translate(421.728516 0.015625)"/>
    </g>
   </g>
  </g>
 </g>
 <defs>
  <clipPath id="p213e1ee4bd">
   <rect x="53.4" y="29.04" width="96.6" height="72.004714"/>
  </clipPath>
  <clipPath id="pced6ddfd77">
   <rect x="203.4" y="29.04" width="96.6" height="72.004714"/>
  </clipPath>
  <clipPath id="pf60d5cc651">
   <rect x="353.4" y="29.04" width="96.6" height="72.004714"/>
  </clipPath>
  <clipPath id="p825cb8c91f">
   <rect x="53.4" y="131.727643" width="96.6" height="72.004714"/>
  </clipPath>
  <clipPath id="p9003d44677">
   <rect x="203.4" y="131.727643" width="96.6" height="72.004714"/>
  </clipPath>
  <clipPath id="p9c89d3990f">
   <rect x="353.4" y="131.727643" width="96.6" height="72.004714"/>
  </clipPath>
  <clipPath id="p6aa23d49c5">
   <rect x="53.4" y="234.415286" width="96.6" height="72.004714"/>
  </clipPath>
  <clipPath id="pd71d5043fb">
   <rect x="203.4" y="234.415286" width="96.6" height="72.004714"/>
  </clipPath>
  <clipPath id="pcdaa34d296">
   <rect x="353.4" y="234.415286" width="96.6" height="72.004714"/>
  </clipPath>
 </defs>
</svg>
