<?xml version="1.0" encoding="utf-8" standalone="no"?>
<!DOCTYPE svg PUBLIC "-//W3C//DTD SVG 1.1//EN"
  "http://www.w3.org/Graphics/SVG/1.1/DTD/svg11.dtd">
<svg xmlns:xlink="http://www.w3.org/1999/xlink" width="460.8pt" height="345.6pt" viewBox="0 0 460.8 345.6" xmlns="http://www.w3.org/2000/svg" version="1.1">
 <metadata>
  <rdf:RDF xmlns:dc="http://purl.org/dc/elements/1.1/" xmlns:cc="http://creativecommons.org/ns#" xmlns:rdf="http://www.w3.org/1999/02/22-rdf-syntax-ns#">
   <cc:Work>
    <dc:type rdf:resource="http://purl.org/dc/dcmitype/StillImage"/>
    <dc:date>2024-06-07T19:15:23.438086</dc:date>
    <dc:format>image/svg+xml</dc:format>
    <dc:creator>
     <cc:Agent>
      <dc:title>Matplotlib v3.8.4, https://matplotlib.org/</dc:title>
     </cc:Agent>
    </dc:creator>
   </cc:Work>
  </rdf:RDF>
 </metadata>
 <defs>
  <style type="text/css">*{stroke-linejoin: round; stroke-linecap: butt}</style>
 </defs>
 <g id="figure_1">
  <g id="patch_1">
   <path d="M 0 345.6 
L 460.8 345.6 
L 460.8 0 
L 0 0 
z
" style="fill: #ffffff"/>
  </g>
  <g id="axes_1">
   <g id="patch_2">
    <path d="M 53.4 98.641671 
L 150 98.641671 
L 150 29.04 
L 53.4 29.04 
z
" style="fill: #eeeeee"/>
   </g>
   <g id="matplotlib.axis_1">
    <g id="xtick_1">
     <g id="line2d_1">
      <path d="M 57.790909 98.641671 
L 57.790909 29.04 
" clip-path="url(#pba9decf981)" style="fill: none; stroke-dasharray: 1.85,0.8; stroke-dashoffset: 0; stroke: #b2b2b2; stroke-width: 0.5"/>
     </g>
     <g id="line2d_2">
      <defs>
       <path id="m559ee877e1" d="M 0 0 
L 0 -3.5 
" style="stroke: #000000; stroke-width: 0.8"/>
      </defs>
      <g>
       <use xlink:href="#m559ee877e1" x="57.790909" y="98.641671" style="stroke: #000000; stroke-width: 0.8"/>
      </g>
     </g>
    </g>
    <g id="xtick_2">
     <g id="line2d_3">
      <path d="M 93.635065 98.641671 
L 93.635065 29.04 
" clip-path="url(#pba9decf981)" style="fill: none; stroke-dasharray: 1.85,0.8; stroke-dashoffset: 0; stroke: #b2b2b2; stroke-width: 0.5"/>
     </g>
     <g id="line2d_4">
      <g>
       <use xlink:href="#m559ee877e1" x="93.635065" y="98.641671" style="stroke: #000000; stroke-width: 0.8"/>
      </g>
     </g>
    </g>
    <g id="xtick_3">
     <g id="line2d_5">
      <path d="M 129.479221 98.641671 
L 129.479221 29.04 
" clip-path="url(#pba9decf981)" style="fill: none; stroke-dasharray: 1.85,0.8; stroke-dashoffset: 0; stroke: #b2b2b2; stroke-width: 0.5"/>
     </g>
     <g id="line2d_6">
      <g>
       <use xlink:href="#m559ee877e1" x="129.479221" y="98.641671" style="stroke: #000000; stroke-width: 0.8"/>
      </g>
     </g>
    </g>
   </g>
   <g id="matplotlib.axis_2">
    <g id="ytick_1">
     <g id="line2d_7">
      <path d="M 53.4 88.351679 
L 150 88.351679 
" clip-path="url(#pba9decf981)" style="fill: none; stroke-dasharray: 1.85,0.8; stroke-dashoffset: 0; stroke: #b2b2b2; stroke-width: 0.5"/>
     </g>
     <g id="line2d_8">
      <defs>
       <path id="m51445dc0f1" d="M 0 0 
L 3.5 0 
" style="stroke: #000000; stroke-width: 0.8"/>
      </defs>
      <g>
       <use xlink:href="#m51445dc0f1" x="53.4" y="88.351679" style="stroke: #000000; stroke-width: 0.8"/>
      </g>
     </g>
     <g id="text_1">
      <!-- −0.4 -->
      <g transform="translate(25.617188 92.150897) scale(0.1 -0.1)">
       <defs>
        <path id="DejaVuSans-2212" d="M 678 2272 
L 4684 2272 
L 4684 1741 
L 678 1741 
L 678 2272 
z
" transform="scale(0.015625)"/>
        <path id="DejaVuSans-30" d="M 2034 4250 
Q 1547 4250 1301 3770 
Q 1056 3291 1056 2328 
Q 1056 1369 1301 889 
Q 1547 409 2034 409 
Q 2525 409 2770 889 
Q 3016 1369 3016 2328 
Q 3016 3291 2770 3770 
Q 2525 4250 2034 4250 
z
M 2034 4750 
Q 2819 4750 3233 4129 
Q 3647 3509 3647 2328 
Q 3647 1150 3233 529 
Q 2819 -91 2034 -91 
Q 1250 -91 836 529 
Q 422 1150 422 2328 
Q 422 3509 836 4129 
Q 1250 4750 2034 4750 
z
" transform="scale(0.015625)"/>
        <path id="DejaVuSans-2e" d="M 684 794 
L 1344 794 
L 1344 0 
L 684 0 
L 684 794 
z
" transform="scale(0.015625)"/>
        <path id="DejaVuSans-34" d="M 2419 4116 
L 825 1625 
L 2419 1625 
L 2419 4116 
z
M 2253 4666 
L 3047 4666 
L 3047 1625 
L 3713 1625 
L 3713 1100 
L 3047 1100 
L 3047 0 
L 2419 0 
L 2419 1100 
L 313 1100 
L 313 1709 
L 2253 4666 
z
" transform="scale(0.015625)"/>
       </defs>
       <use xlink:href="#DejaVuSans-2212"/>
       <use xlink:href="#DejaVuSans-30" x="83.789062"/>
       <use xlink:href="#DejaVuSans-2e" x="147.412109"/>
       <use xlink:href="#DejaVuSans-34" x="179.199219"/>
      </g>
     </g>
    </g>
    <g id="ytick_2">
     <g id="line2d_9">
      <path d="M 53.4 53.187346 
L 150 53.187346 
" clip-path="url(#pba9decf981)" style="fill: none; stroke-dasharray: 1.85,0.8; stroke-dashoffset: 0; stroke: #b2b2b2; stroke-width: 0.5"/>
     </g>
     <g id="line2d_10">
      <g>
       <use xlink:href="#m51445dc0f1" x="53.4" y="53.187346" style="stroke: #000000; stroke-width: 0.8"/>
      </g>
     </g>
     <g id="text_2">
      <!-- −0.2 -->
      <g transform="translate(25.617188 56.986565) scale(0.1 -0.1)">
       <defs>
        <path id="DejaVuSans-32" d="M 1228 531 
L 3431 531 
L 3431 0 
L 469 0 
L 469 531 
Q 828 903 1448 1529 
Q 2069 2156 2228 2338 
Q 2531 2678 2651 2914 
Q 2772 3150 2772 3378 
Q 2772 3750 2511 3984 
Q 2250 4219 1831 4219 
Q 1534 4219 1204 4116 
Q 875 4013 500 3803 
L 500 4441 
Q 881 4594 1212 4672 
Q 1544 4750 1819 4750 
Q 2544 4750 2975 4387 
Q 3406 4025 3406 3419 
Q 3406 3131 3298 2873 
Q 3191 2616 2906 2266 
Q 2828 2175 2409 1742 
Q 1991 1309 1228 531 
z
" transform="scale(0.015625)"/>
       </defs>
       <use xlink:href="#DejaVuSans-2212"/>
       <use xlink:href="#DejaVuSans-30" x="83.789062"/>
       <use xlink:href="#DejaVuSans-2e" x="147.412109"/>
       <use xlink:href="#DejaVuSans-32" x="179.199219"/>
      </g>
     </g>
    </g>
    <g id="text_3">
     <!-- Position -->
     <g transform="translate(19.121563 87.197711) rotate(-90) scale(0.12 -0.12)">
      <defs>
       <path id="DejaVuSans-50" d="M 1259 4147 
L 1259 2394 
L 2053 2394 
Q 2494 2394 2734 2622 
Q 2975 2850 2975 3272 
Q 2975 3691 2734 3919 
Q 2494 4147 2053 4147 
L 1259 4147 
z
M 628 4666 
L 2053 4666 
Q 2838 4666 3239 4311 
Q 3641 3956 3641 3272 
Q 3641 2581 3239 2228 
Q 2838 1875 2053 1875 
L 1259 1875 
L 1259 0 
L 628 0 
L 628 4666 
z
" transform="scale(0.015625)"/>
       <path id="DejaVuSans-6f" d="M 1959 3097 
Q 1497 3097 1228 2736 
Q 959 2375 959 1747 
Q 959 1119 1226 758 
Q 1494 397 1959 397 
Q 2419 397 2687 759 
Q 2956 1122 2956 1747 
Q 2956 2369 2687 2733 
Q 2419 3097 1959 3097 
z
M 1959 3584 
Q 2709 3584 3137 3096 
Q 3566 2609 3566 1747 
Q 3566 888 3137 398 
Q 2709 -91 1959 -91 
Q 1206 -91 779 398 
Q 353 888 353 1747 
Q 353 2609 779 3096 
Q 1206 3584 1959 3584 
z
" transform="scale(0.015625)"/>
       <path id="DejaVuSans-73" d="M 2834 3397 
L 2834 2853 
Q 2591 2978 2328 3040 
Q 2066 3103 1784 3103 
Q 1356 3103 1142 2972 
Q 928 2841 928 2578 
Q 928 2378 1081 2264 
Q 1234 2150 1697 2047 
L 1894 2003 
Q 2506 1872 2764 1633 
Q 3022 1394 3022 966 
Q 3022 478 2636 193 
Q 2250 -91 1575 -91 
Q 1294 -91 989 -36 
Q 684 19 347 128 
L 347 722 
Q 666 556 975 473 
Q 1284 391 1588 391 
Q 1994 391 2212 530 
Q 2431 669 2431 922 
Q 2431 1156 2273 1281 
Q 2116 1406 1581 1522 
L 1381 1569 
Q 847 1681 609 1914 
Q 372 2147 372 2553 
Q 372 3047 722 3315 
Q 1072 3584 1716 3584 
Q 2034 3584 2315 3537 
Q 2597 3491 2834 3397 
z
" transform="scale(0.015625)"/>
       <path id="DejaVuSans-69" d="M 603 3500 
L 1178 3500 
L 1178 0 
L 603 0 
L 603 3500 
z
M 603 4863 
L 1178 4863 
L 1178 4134 
L 603 4134 
L 603 4863 
z
" transform="scale(0.015625)"/>
       <path id="DejaVuSans-74" d="M 1172 4494 
L 1172 3500 
L 2356 3500 
L 2356 3053 
L 1172 3053 
L 1172 1153 
Q 1172 725 1289 603 
Q 1406 481 1766 481 
L 2356 481 
L 2356 0 
L 1766 0 
Q 1100 0 847 248 
Q 594 497 594 1153 
L 594 3053 
L 172 3053 
L 172 3500 
L 594 3500 
L 594 4494 
L 1172 4494 
z
" transform="scale(0.015625)"/>
       <path id="DejaVuSans-6e" d="M 3513 2113 
L 3513 0 
L 2938 0 
L 2938 2094 
Q 2938 2591 2744 2837 
Q 2550 3084 2163 3084 
Q 1697 3084 1428 2787 
Q 1159 2491 1159 1978 
L 1159 0 
L 581 0 
L 581 3500 
L 1159 3500 
L 1159 2956 
Q 1366 3272 1645 3428 
Q 1925 3584 2291 3584 
Q 2894 3584 3203 3211 
Q 3513 2838 3513 2113 
z
" transform="scale(0.015625)"/>
      </defs>
      <use xlink:href="#DejaVuSans-50"/>
      <use xlink:href="#DejaVuSans-6f" x="56.677734"/>
      <use xlink:href="#DejaVuSans-73" x="117.859375"/>
      <use xlink:href="#DejaVuSans-69" x="169.958984"/>
      <use xlink:href="#DejaVuSans-74" x="197.742188"/>
      <use xlink:href="#DejaVuSans-69" x="236.951172"/>
      <use xlink:href="#DejaVuSans-6f" x="264.734375"/>
      <use xlink:href="#DejaVuSans-6e" x="325.916016"/>
     </g>
    </g>
   </g>
   <g id="line2d_11">
    <path d="M 57.790909 89.046197 
L 59.583117 92.018146 
L 61.375325 94.073733 
L 63.167532 95.203035 
L 64.95974 95.477959 
L 66.751948 95.203128 
L 68.544156 94.533077 
L 70.336364 93.575169 
L 72.128571 92.430564 
L 73.920779 91.186495 
L 75.712987 90.026624 
L 77.505195 89.02168 
L 79.297403 88.179209 
L 81.08961 87.496996 
L 82.881818 86.965364 
L 84.674026 85.890017 
L 86.466234 84.815601 
L 88.258442 83.757634 
L 90.050649 82.72336 
L 91.842857 81.714173 
L 93.635065 81.530995 
L 95.427273 81.521717 
L 97.219481 81.214975 
L 99.011688 80.231387 
L 100.803896 78.379048 
L 102.596104 76.33634 
L 104.388312 74.473362 
L 106.180519 72.884215 
L 107.972727 71.580471 
L 109.764935 70.505824 
L 111.557143 69.841132 
L 113.349351 68.958821 
L 115.141558 67.904971 
L 116.933766 66.721521 
L 118.725974 65.444818 
L 120.518182 63.196559 
L 122.31039 60.542069 
L 124.102597 57.599704 
L 125.894805 54.490948 
L 127.687013 51.326818 
L 129.479221 48.316813 
L 131.271429 45.491506 
L 133.063636 42.861333 
L 134.855844 40.42552 
L 136.648052 38.175986 
L 138.44026 36.983443 
L 140.232468 35.77329 
L 142.024675 34.582714 
L 143.816883 33.443781 
L 145.609091 32.380938 
" clip-path="url(#pba9decf981)" style="fill: none; stroke: #348abd; stroke-width: 4; stroke-linecap: square"/>
   </g>
   <g id="line2d_12">
    <path d="M 57.790909 87.102702 
L 59.583117 89.828729 
L 61.375325 91.827161 
L 63.167532 93.280124 
L 64.95974 94.507379 
L 66.751948 95.431208 
L 68.544156 94.987271 
L 70.336364 93.599465 
L 72.128571 92.358485 
L 73.920779 91.041471 
L 75.712987 89.908666 
L 77.505195 88.930106 
L 79.297403 88.070669 
L 81.08961 87.298773 
L 82.881818 86.886697 
L 84.674026 85.80315 
L 86.466234 84.736956 
L 88.258442 83.696426 
L 90.050649 82.591234 
L 91.842857 81.689949 
L 93.635065 81.518715 
L 95.427273 81.356836 
L 97.219481 80.798707 
L 99.011688 79.24604 
L 100.803896 77.396252 
L 102.596104 76.100452 
L 104.388312 74.390562 
L 106.180519 72.733541 
L 107.972727 71.559737 
L 109.764935 70.628139 
L 111.557143 70.061599 
L 113.349351 69.291838 
L 115.141558 68.291697 
L 116.933766 67.205211 
L 118.725974 66.04126 
L 120.518182 64.21178 
L 122.31039 61.459895 
L 124.102597 58.12876 
L 125.894805 54.160682 
L 127.687013 50.832879 
L 129.479221 47.969558 
L 131.271429 45.186309 
L 133.063636 42.53484 
L 134.855844 40.033296 
L 136.648052 37.836673 
L 138.44026 36.783283 
L 140.232468 35.572445 
L 142.024675 34.382989 
L 143.816883 33.26153 
L 145.609091 32.203712 
" clip-path="url(#pba9decf981)" style="fill: none; stroke-dasharray: 7.4,3.2; stroke-dashoffset: 0; stroke: #a60628; stroke-width: 2"/>
   </g>
   <g id="patch_3">
    <path d="M 53.4 98.641671 
L 53.4 29.04 
" style="fill: none; stroke: #bcbcbc; stroke-width: 0.8; stroke-linejoin: miter; stroke-linecap: square"/>
   </g>
   <g id="patch_4">
    <path d="M 150 98.641671 
L 150 29.04 
" style="fill: none; stroke: #bcbcbc; stroke-width: 0.8; stroke-linejoin: miter; stroke-linecap: square"/>
   </g>
   <g id="patch_5">
    <path d="M 53.4 98.641671 
L 150 98.641671 
" style="fill: none; stroke: #bcbcbc; stroke-width: 0.8; stroke-linejoin: miter; stroke-linecap: square"/>
   </g>
   <g id="patch_6">
    <path d="M 53.4 29.04 
L 150 29.04 
" style="fill: none; stroke: #bcbcbc; stroke-width: 0.8; stroke-linejoin: miter; stroke-linecap: square"/>
   </g>
   <g id="text_4">
    <!-- Robot 1 $x$ -->
    <g transform="translate(67.212 23.04) scale(0.144 -0.144)">
     <defs>
      <path id="DejaVuSans-52" d="M 2841 2188 
Q 3044 2119 3236 1894 
Q 3428 1669 3622 1275 
L 4263 0 
L 3584 0 
L 2988 1197 
Q 2756 1666 2539 1819 
Q 2322 1972 1947 1972 
L 1259 1972 
L 1259 0 
L 628 0 
L 628 4666 
L 2053 4666 
Q 2853 4666 3247 4331 
Q 3641 3997 3641 3322 
Q 3641 2881 3436 2590 
Q 3231 2300 2841 2188 
z
M 1259 4147 
L 1259 2491 
L 2053 2491 
Q 2509 2491 2742 2702 
Q 2975 2913 2975 3322 
Q 2975 3731 2742 3939 
Q 2509 4147 2053 4147 
L 1259 4147 
z
" transform="scale(0.015625)"/>
      <path id="DejaVuSans-62" d="M 3116 1747 
Q 3116 2381 2855 2742 
Q 2594 3103 2138 3103 
Q 1681 3103 1420 2742 
Q 1159 2381 1159 1747 
Q 1159 1113 1420 752 
Q 1681 391 2138 391 
Q 2594 391 2855 752 
Q 3116 1113 3116 1747 
z
M 1159 2969 
Q 1341 3281 1617 3432 
Q 1894 3584 2278 3584 
Q 2916 3584 3314 3078 
Q 3713 2572 3713 1747 
Q 3713 922 3314 415 
Q 2916 -91 2278 -91 
Q 1894 -91 1617 61 
Q 1341 213 1159 525 
L 1159 0 
L 581 0 
L 581 4863 
L 1159 4863 
L 1159 2969 
z
" transform="scale(0.015625)"/>
      <path id="DejaVuSans-20" transform="scale(0.015625)"/>
      <path id="DejaVuSans-31" d="M 794 531 
L 1825 531 
L 1825 4091 
L 703 3866 
L 703 4441 
L 1819 4666 
L 2450 4666 
L 2450 531 
L 3481 531 
L 3481 0 
L 794 0 
L 794 531 
z
" transform="scale(0.015625)"/>
      <path id="Cmmi10-78" d="M 500 184 
Q 613 97 819 97 
Q 1019 97 1172 289 
Q 1325 481 1381 709 
L 1672 1844 
Q 1741 2153 1741 2266 
Q 1741 2425 1652 2544 
Q 1563 2663 1403 2663 
Q 1200 2663 1022 2536 
Q 844 2409 722 2214 
Q 600 2019 550 1819 
Q 538 1778 500 1778 
L 422 1778 
Q 372 1778 372 1838 
L 372 1856 
Q 434 2094 584 2320 
Q 734 2547 951 2687 
Q 1169 2828 1416 2828 
Q 1650 2828 1839 2703 
Q 2028 2578 2106 2363 
Q 2216 2559 2386 2693 
Q 2556 2828 2759 2828 
Q 2897 2828 3040 2779 
Q 3184 2731 3275 2631 
Q 3366 2531 3366 2381 
Q 3366 2219 3261 2101 
Q 3156 1984 2994 1984 
Q 2891 1984 2822 2050 
Q 2753 2116 2753 2216 
Q 2753 2350 2845 2451 
Q 2938 2553 3066 2572 
Q 2950 2663 2747 2663 
Q 2541 2663 2389 2472 
Q 2238 2281 2175 2047 
L 1894 916 
Q 1825 659 1825 494 
Q 1825 331 1917 214 
Q 2009 97 2163 97 
Q 2463 97 2698 361 
Q 2934 625 3009 941 
Q 3022 978 3059 978 
L 3138 978 
Q 3163 978 3178 961 
Q 3194 944 3194 922 
Q 3194 916 3188 903 
Q 3097 522 2806 225 
Q 2516 -72 2150 -72 
Q 1916 -72 1727 54 
Q 1538 181 1459 397 
Q 1359 209 1182 68 
Q 1006 -72 806 -72 
Q 669 -72 523 -23 
Q 378 25 287 125 
Q 197 225 197 378 
Q 197 528 301 651 
Q 406 775 563 775 
Q 669 775 741 711 
Q 813 647 813 544 
Q 813 409 723 309 
Q 634 209 500 184 
z
" transform="scale(0.015625)"/>
     </defs>
     <use xlink:href="#DejaVuSans-52" transform="translate(0 0.015625)"/>
     <use xlink:href="#DejaVuSans-6f" transform="translate(69.482422 0.015625)"/>
     <use xlink:href="#DejaVuSans-62" transform="translate(130.664062 0.015625)"/>
     <use xlink:href="#DejaVuSans-6f" transform="translate(194.140625 0.015625)"/>
     <use xlink:href="#DejaVuSans-74" transform="translate(255.322266 0.015625)"/>
     <use xlink:href="#DejaVuSans-20" transform="translate(294.53125 0.015625)"/>
     <use xlink:href="#DejaVuSans-31" transform="translate(326.318359 0.015625)"/>
     <use xlink:href="#DejaVuSans-20" transform="translate(389.941406 0.015625)"/>
     <use xlink:href="#Cmmi10-78" transform="translate(421.728516 0.015625)"/>
    </g>
   </g>
  </g>
  <g id="axes_2">
   <g id="patch_7">
    <path d="M 203.4 98.641671 
L 300 98.641671 
L 300 29.04 
L 203.4 29.04 
z
" style="fill: #eeeeee"/>
   </g>
   <g id="matplotlib.axis_3">
    <g id="xtick_4">
     <g id="line2d_13">
      <path d="M 207.790909 98.641671 
L 207.790909 29.04 
" clip-path="url(#p35bd9c006f)" style="fill: none; stroke-dasharray: 1.85,0.8; stroke-dashoffset: 0; stroke: #b2b2b2; stroke-width: 0.5"/>
     </g>
     <g id="line2d_14">
      <g>
       <use xlink:href="#m559ee877e1" x="207.790909" y="98.641671" style="stroke: #000000; stroke-width: 0.8"/>
      </g>
     </g>
    </g>
    <g id="xtick_5">
     <g id="line2d_15">
      <path d="M 243.635065 98.641671 
L 243.635065 29.04 
" clip-path="url(#p35bd9c006f)" style="fill: none; stroke-dasharray: 1.85,0.8; stroke-dashoffset: 0; stroke: #b2b2b2; stroke-width: 0.5"/>
     </g>
     <g id="line2d_16">
      <g>
       <use xlink:href="#m559ee877e1" x="243.635065" y="98.641671" style="stroke: #000000; stroke-width: 0.8"/>
      </g>
     </g>
    </g>
    <g id="xtick_6">
     <g id="line2d_17">
      <path d="M 279.479221 98.641671 
L 279.479221 29.04 
" clip-path="url(#p35bd9c006f)" style="fill: none; stroke-dasharray: 1.85,0.8; stroke-dashoffset: 0; stroke: #b2b2b2; stroke-width: 0.5"/>
     </g>
     <g id="line2d_18">
      <g>
       <use xlink:href="#m559ee877e1" x="279.479221" y="98.641671" style="stroke: #000000; stroke-width: 0.8"/>
      </g>
     </g>
    </g>
   </g>
   <g id="matplotlib.axis_4">
    <g id="ytick_3">
     <g id="line2d_19">
      <path d="M 203.4 69.569402 
L 300 69.569402 
" clip-path="url(#p35bd9c006f)" style="fill: none; stroke-dasharray: 1.85,0.8; stroke-dashoffset: 0; stroke: #b2b2b2; stroke-width: 0.5"/>
     </g>
     <g id="line2d_20">
      <g>
       <use xlink:href="#m51445dc0f1" x="203.4" y="69.569402" style="stroke: #000000; stroke-width: 0.8"/>
      </g>
     </g>
     <g id="text_5">
      <!-- 0.0 -->
      <g transform="translate(183.996875 73.368621) scale(0.1 -0.1)">
       <use xlink:href="#DejaVuSans-30"/>
       <use xlink:href="#DejaVuSans-2e" x="63.623047"/>
       <use xlink:href="#DejaVuSans-30" x="95.410156"/>
      </g>
     </g>
    </g>
    <g id="ytick_4">
     <g id="line2d_21">
      <path d="M 203.4 32.942291 
L 300 32.942291 
" clip-path="url(#p35bd9c006f)" style="fill: none; stroke-dasharray: 1.85,0.8; stroke-dashoffset: 0; stroke: #b2b2b2; stroke-width: 0.5"/>
     </g>
     <g id="line2d_22">
      <g>
       <use xlink:href="#m51445dc0f1" x="203.4" y="32.942291" style="stroke: #000000; stroke-width: 0.8"/>
      </g>
     </g>
     <g id="text_6">
      <!-- 0.2 -->
      <g transform="translate(183.996875 36.74151) scale(0.1 -0.1)">
       <use xlink:href="#DejaVuSans-30"/>
       <use xlink:href="#DejaVuSans-2e" x="63.623047"/>
       <use xlink:href="#DejaVuSans-32" x="95.410156"/>
      </g>
     </g>
    </g>
    <g id="text_7">
     <!-- Position -->
     <g transform="translate(177.50125 87.197711) rotate(-90) scale(0.12 -0.12)">
      <use xlink:href="#DejaVuSans-50"/>
      <use xlink:href="#DejaVuSans-6f" x="56.677734"/>
      <use xlink:href="#DejaVuSans-73" x="117.859375"/>
      <use xlink:href="#DejaVuSans-69" x="169.958984"/>
      <use xlink:href="#DejaVuSans-74" x="197.742188"/>
      <use xlink:href="#DejaVuSans-69" x="236.951172"/>
      <use xlink:href="#DejaVuSans-6f" x="264.734375"/>
      <use xlink:href="#DejaVuSans-6e" x="325.916016"/>
     </g>
    </g>
   </g>
   <g id="line2d_23">
    <path d="M 207.790909 95.477959 
L 209.583117 92.915456 
L 211.375325 89.394228 
L 213.167532 85.171486 
L 214.95974 80.524861 
L 216.751948 76.004714 
L 218.544156 71.651701 
L 220.336364 67.519398 
L 222.128571 63.636706 
L 223.920779 60.012649 
L 225.712987 57.230162 
L 227.505195 54.844367 
L 229.297403 52.85921 
L 231.08961 51.267084 
L 232.881818 50.052634 
L 234.674026 49.569124 
L 236.466234 49.457089 
L 238.258442 49.733032 
L 240.050649 50.399579 
L 241.842857 51.44489 
L 243.635065 53.557743 
L 245.427273 54.433211 
L 247.219481 54.145629 
L 249.011688 53.051302 
L 250.803896 51.67305 
L 252.596104 51.312572 
L 254.388312 50.973927 
L 256.180519 50.547525 
L 257.972727 49.962401 
L 259.764935 49.212436 
L 261.557143 47.882613 
L 263.349351 46.646441 
L 265.141558 45.510841 
L 266.933766 44.480366 
L 268.725974 43.55887 
L 270.518182 42.160505 
L 272.31039 40.947525 
L 274.102597 39.937658 
L 275.894805 39.142553 
L 277.687013 38.568587 
L 279.479221 38.143807 
L 281.271429 37.524346 
L 283.063636 36.717661 
L 284.855844 35.731371 
L 286.648052 34.572999 
L 288.44026 33.823882 
L 290.232468 33.242492 
L 292.024675 32.823224 
L 293.816883 32.551967 
L 295.609091 32.40825 
" clip-path="url(#p35bd9c006f)" style="fill: none; stroke: #348abd; stroke-width: 4; stroke-linecap: square"/>
   </g>
   <g id="line2d_24">
    <path d="M 207.790909 95.048841 
L 209.583117 92.591543 
L 211.375325 89.009737 
L 213.167532 84.629977 
L 214.95974 79.970484 
L 216.751948 75.771169 
L 218.544156 71.85793 
L 220.336364 67.848181 
L 222.128571 63.823861 
L 223.920779 60.209863 
L 225.712987 57.460584 
L 227.505195 54.946604 
L 229.297403 52.857985 
L 231.08961 51.192821 
L 232.881818 50.031365 
L 234.674026 49.54603 
L 236.466234 49.257222 
L 238.258442 49.370547 
L 240.050649 49.832237 
L 241.842857 50.93302 
L 243.635065 53.448902 
L 245.427273 54.892117 
L 247.219481 55.314969 
L 249.011688 54.411444 
L 250.803896 51.835166 
L 252.596104 51.112666 
L 254.388312 50.559988 
L 256.180519 49.920313 
L 257.972727 49.209739 
L 259.764935 48.785396 
L 261.557143 47.835363 
L 263.349351 46.503652 
L 265.141558 45.268912 
L 266.933766 44.191225 
L 268.725974 43.365186 
L 270.518182 42.468435 
L 272.31039 41.911345 
L 274.102597 41.246865 
L 275.894805 40.185352 
L 277.687013 38.74728 
L 279.479221 37.93279 
L 281.271429 37.324183 
L 283.063636 36.639481 
L 284.855844 35.658208 
L 286.648052 34.536246 
L 288.44026 33.82003 
L 290.232468 33.184019 
L 292.024675 32.73616 
L 293.816883 32.377219 
L 295.609091 32.203712 
" clip-path="url(#p35bd9c006f)" style="fill: none; stroke-dasharray: 7.4,3.2; stroke-dashoffset: 0; stroke: #a60628; stroke-width: 2"/>
   </g>
   <g id="patch_8">
    <path d="M 203.4 98.641671 
L 203.4 29.04 
" style="fill: none; stroke: #bcbcbc; stroke-width: 0.8; stroke-linejoin: miter; stroke-linecap: square"/>
   </g>
   <g id="patch_9">
    <path d="M 300 98.641671 
L 300 29.04 
" style="fill: none; stroke: #bcbcbc; stroke-width: 0.8; stroke-linejoin: miter; stroke-linecap: square"/>
   </g>
   <g id="patch_10">
    <path d="M 203.4 98.641671 
L 300 98.641671 
" style="fill: none; stroke: #bcbcbc; stroke-width: 0.8; stroke-linejoin: miter; stroke-linecap: square"/>
   </g>
   <g id="patch_11">
    <path d="M 203.4 29.04 
L 300 29.04 
" style="fill: none; stroke: #bcbcbc; stroke-width: 0.8; stroke-linejoin: miter; stroke-linecap: square"/>
   </g>
   <g id="text_8">
    <!-- Robot 1 $y$ -->
    <g transform="translate(217.788 23.04) scale(0.144 -0.144)">
     <defs>
      <path id="Cmmi10-79" d="M 538 -916 
Q 672 -1147 1006 -1147 
Q 1309 -1147 1531 -934 
Q 1753 -722 1889 -420 
Q 2025 -119 2100 197 
Q 1816 -72 1484 -72 
Q 1231 -72 1053 15 
Q 875 103 776 276 
Q 678 450 678 697 
Q 678 906 734 1126 
Q 791 1347 892 1617 
Q 994 1888 1069 2088 
Q 1153 2322 1153 2472 
Q 1153 2663 1013 2663 
Q 759 2663 595 2402 
Q 431 2141 353 1819 
Q 341 1778 300 1778 
L 225 1778 
Q 172 1778 172 1838 
L 172 1856 
Q 275 2238 487 2533 
Q 700 2828 1025 2828 
Q 1253 2828 1411 2678 
Q 1569 2528 1569 2297 
Q 1569 2178 1516 2047 
Q 1488 1969 1388 1706 
Q 1288 1444 1234 1272 
Q 1181 1100 1147 934 
Q 1113 769 1113 603 
Q 1113 391 1203 244 
Q 1294 97 1491 97 
Q 1888 97 2203 581 
L 2688 2553 
Q 2709 2638 2787 2698 
Q 2866 2759 2956 2759 
Q 3034 2759 3092 2709 
Q 3150 2659 3150 2578 
Q 3150 2541 3144 2528 
L 2509 -19 
Q 2425 -347 2200 -647 
Q 1975 -947 1658 -1130 
Q 1341 -1313 997 -1313 
Q 831 -1313 668 -1248 
Q 506 -1184 406 -1056 
Q 306 -928 306 -756 
Q 306 -581 409 -453 
Q 513 -325 684 -325 
Q 788 -325 858 -389 
Q 928 -453 928 -556 
Q 928 -703 818 -812 
Q 709 -922 563 -922 
Q 556 -919 550 -917 
Q 544 -916 538 -916 
z
" transform="scale(0.015625)"/>
     </defs>
     <use xlink:href="#DejaVuSans-52" transform="translate(0 0.015625)"/>
     <use xlink:href="#DejaVuSans-6f" transform="translate(69.482422 0.015625)"/>
     <use xlink:href="#DejaVuSans-62" transform="translate(130.664062 0.015625)"/>
     <use xlink:href="#DejaVuSans-6f" transform="translate(194.140625 0.015625)"/>
     <use xlink:href="#DejaVuSans-74" transform="translate(255.322266 0.015625)"/>
     <use xlink:href="#DejaVuSans-20" transform="translate(294.53125 0.015625)"/>
     <use xlink:href="#DejaVuSans-31" transform="translate(326.318359 0.015625)"/>
     <use xlink:href="#DejaVuSans-20" transform="translate(389.941406 0.015625)"/>
     <use xlink:href="#Cmmi10-79" transform="translate(421.728516 0.015625)"/>
    </g>
   </g>
  </g>
  <g id="axes_3">
   <g id="patch_12">
    <path d="M 353.4 98.641671 
L 450 98.641671 
L 450 29.04 
L 353.4 29.04 
z
" style="fill: #eeeeee"/>
   </g>
   <g id="matplotlib.axis_5">
    <g id="xtick_7">
     <g id="line2d_25">
      <path d="M 357.790909 98.641671 
L 357.790909 29.04 
" clip-path="url(#pa17094b028)" style="fill: none; stroke-dasharray: 1.85,0.8; stroke-dashoffset: 0; stroke: #b2b2b2; stroke-width: 0.5"/>
     </g>
     <g id="line2d_26">
      <g>
       <use xlink:href="#m559ee877e1" x="357.790909" y="98.641671" style="stroke: #000000; stroke-width: 0.8"/>
      </g>
     </g>
    </g>
    <g id="xtick_8">
     <g id="line2d_27">
      <path d="M 393.635065 98.641671 
L 393.635065 29.04 
" clip-path="url(#pa17094b028)" style="fill: none; stroke-dasharray: 1.85,0.8; stroke-dashoffset: 0; stroke: #b2b2b2; stroke-width: 0.5"/>
     </g>
     <g id="line2d_28">
      <g>
       <use xlink:href="#m559ee877e1" x="393.635065" y="98.641671" style="stroke: #000000; stroke-width: 0.8"/>
      </g>
     </g>
    </g>
    <g id="xtick_9">
     <g id="line2d_29">
      <path d="M 429.479221 98.641671 
L 429.479221 29.04 
" clip-path="url(#pa17094b028)" style="fill: none; stroke-dasharray: 1.85,0.8; stroke-dashoffset: 0; stroke: #b2b2b2; stroke-width: 0.5"/>
     </g>
     <g id="line2d_30">
      <g>
       <use xlink:href="#m559ee877e1" x="429.479221" y="98.641671" style="stroke: #000000; stroke-width: 0.8"/>
      </g>
     </g>
    </g>
   </g>
   <g id="matplotlib.axis_6">
    <g id="ytick_5">
     <g id="line2d_31">
      <path d="M 353.4 96.759528 
L 450 96.759528 
" clip-path="url(#pa17094b028)" style="fill: none; stroke-dasharray: 1.85,0.8; stroke-dashoffset: 0; stroke: #b2b2b2; stroke-width: 0.5"/>
     </g>
     <g id="line2d_32">
      <g>
       <use xlink:href="#m51445dc0f1" x="353.4" y="96.759528" style="stroke: #000000; stroke-width: 0.8"/>
      </g>
     </g>
     <g id="text_9">
      <!-- 0.0 -->
      <g transform="translate(333.996875 100.558747) scale(0.1 -0.1)">
       <use xlink:href="#DejaVuSans-30"/>
       <use xlink:href="#DejaVuSans-2e" x="63.623047"/>
       <use xlink:href="#DejaVuSans-30" x="95.410156"/>
      </g>
     </g>
    </g>
    <g id="ytick_6">
     <g id="line2d_33">
      <path d="M 353.4 70.424383 
L 450 70.424383 
" clip-path="url(#pa17094b028)" style="fill: none; stroke-dasharray: 1.85,0.8; stroke-dashoffset: 0; stroke: #b2b2b2; stroke-width: 0.5"/>
     </g>
     <g id="line2d_34">
      <g>
       <use xlink:href="#m51445dc0f1" x="353.4" y="70.424383" style="stroke: #000000; stroke-width: 0.8"/>
      </g>
     </g>
     <g id="text_10">
      <!-- 2.5 -->
      <g transform="translate(333.996875 74.223601) scale(0.1 -0.1)">
       <defs>
        <path id="DejaVuSans-35" d="M 691 4666 
L 3169 4666 
L 3169 4134 
L 1269 4134 
L 1269 2991 
Q 1406 3038 1543 3061 
Q 1681 3084 1819 3084 
Q 2600 3084 3056 2656 
Q 3513 2228 3513 1497 
Q 3513 744 3044 326 
Q 2575 -91 1722 -91 
Q 1428 -91 1123 -41 
Q 819 9 494 109 
L 494 744 
Q 775 591 1075 516 
Q 1375 441 1709 441 
Q 2250 441 2565 725 
Q 2881 1009 2881 1497 
Q 2881 1984 2565 2268 
Q 2250 2553 1709 2553 
Q 1456 2553 1204 2497 
Q 953 2441 691 2322 
L 691 4666 
z
" transform="scale(0.015625)"/>
       </defs>
       <use xlink:href="#DejaVuSans-32"/>
       <use xlink:href="#DejaVuSans-2e" x="63.623047"/>
       <use xlink:href="#DejaVuSans-35" x="95.410156"/>
      </g>
     </g>
    </g>
    <g id="ytick_7">
     <g id="line2d_35">
      <path d="M 353.4 44.089237 
L 450 44.089237 
" clip-path="url(#pa17094b028)" style="fill: none; stroke-dasharray: 1.85,0.8; stroke-dashoffset: 0; stroke: #b2b2b2; stroke-width: 0.5"/>
     </g>
     <g id="line2d_36">
      <g>
       <use xlink:href="#m51445dc0f1" x="353.4" y="44.089237" style="stroke: #000000; stroke-width: 0.8"/>
      </g>
     </g>
     <g id="text_11">
      <!-- 5.0 -->
      <g transform="translate(333.996875 47.888456) scale(0.1 -0.1)">
       <use xlink:href="#DejaVuSans-35"/>
       <use xlink:href="#DejaVuSans-2e" x="63.623047"/>
       <use xlink:href="#DejaVuSans-30" x="95.410156"/>
      </g>
     </g>
    </g>
    <g id="text_12">
     <!-- Angle [rad] -->
     <g transform="translate(327.50125 97.456773) rotate(-90) scale(0.12 -0.12)">
      <defs>
       <path id="DejaVuSans-41" d="M 2188 4044 
L 1331 1722 
L 3047 1722 
L 2188 4044 
z
M 1831 4666 
L 2547 4666 
L 4325 0 
L 3669 0 
L 3244 1197 
L 1141 1197 
L 716 0 
L 50 0 
L 1831 4666 
z
" transform="scale(0.015625)"/>
       <path id="DejaVuSans-67" d="M 2906 1791 
Q 2906 2416 2648 2759 
Q 2391 3103 1925 3103 
Q 1463 3103 1205 2759 
Q 947 2416 947 1791 
Q 947 1169 1205 825 
Q 1463 481 1925 481 
Q 2391 481 2648 825 
Q 2906 1169 2906 1791 
z
M 3481 434 
Q 3481 -459 3084 -895 
Q 2688 -1331 1869 -1331 
Q 1566 -1331 1297 -1286 
Q 1028 -1241 775 -1147 
L 775 -588 
Q 1028 -725 1275 -790 
Q 1522 -856 1778 -856 
Q 2344 -856 2625 -561 
Q 2906 -266 2906 331 
L 2906 616 
Q 2728 306 2450 153 
Q 2172 0 1784 0 
Q 1141 0 747 490 
Q 353 981 353 1791 
Q 353 2603 747 3093 
Q 1141 3584 1784 3584 
Q 2172 3584 2450 3431 
Q 2728 3278 2906 2969 
L 2906 3500 
L 3481 3500 
L 3481 434 
z
" transform="scale(0.015625)"/>
       <path id="DejaVuSans-6c" d="M 603 4863 
L 1178 4863 
L 1178 0 
L 603 0 
L 603 4863 
z
" transform="scale(0.015625)"/>
       <path id="DejaVuSans-65" d="M 3597 1894 
L 3597 1613 
L 953 1613 
Q 991 1019 1311 708 
Q 1631 397 2203 397 
Q 2534 397 2845 478 
Q 3156 559 3463 722 
L 3463 178 
Q 3153 47 2828 -22 
Q 2503 -91 2169 -91 
Q 1331 -91 842 396 
Q 353 884 353 1716 
Q 353 2575 817 3079 
Q 1281 3584 2069 3584 
Q 2775 3584 3186 3129 
Q 3597 2675 3597 1894 
z
M 3022 2063 
Q 3016 2534 2758 2815 
Q 2500 3097 2075 3097 
Q 1594 3097 1305 2825 
Q 1016 2553 972 2059 
L 3022 2063 
z
" transform="scale(0.015625)"/>
       <path id="DejaVuSans-5b" d="M 550 4863 
L 1875 4863 
L 1875 4416 
L 1125 4416 
L 1125 -397 
L 1875 -397 
L 1875 -844 
L 550 -844 
L 550 4863 
z
" transform="scale(0.015625)"/>
       <path id="DejaVuSans-72" d="M 2631 2963 
Q 2534 3019 2420 3045 
Q 2306 3072 2169 3072 
Q 1681 3072 1420 2755 
Q 1159 2438 1159 1844 
L 1159 0 
L 581 0 
L 581 3500 
L 1159 3500 
L 1159 2956 
Q 1341 3275 1631 3429 
Q 1922 3584 2338 3584 
Q 2397 3584 2469 3576 
Q 2541 3569 2628 3553 
L 2631 2963 
z
" transform="scale(0.015625)"/>
       <path id="DejaVuSans-61" d="M 2194 1759 
Q 1497 1759 1228 1600 
Q 959 1441 959 1056 
Q 959 750 1161 570 
Q 1363 391 1709 391 
Q 2188 391 2477 730 
Q 2766 1069 2766 1631 
L 2766 1759 
L 2194 1759 
z
M 3341 1997 
L 3341 0 
L 2766 0 
L 2766 531 
Q 2569 213 2275 61 
Q 1981 -91 1556 -91 
Q 1019 -91 701 211 
Q 384 513 384 1019 
Q 384 1609 779 1909 
Q 1175 2209 1959 2209 
L 2766 2209 
L 2766 2266 
Q 2766 2663 2505 2880 
Q 2244 3097 1772 3097 
Q 1472 3097 1187 3025 
Q 903 2953 641 2809 
L 641 3341 
Q 956 3463 1253 3523 
Q 1550 3584 1831 3584 
Q 2591 3584 2966 3190 
Q 3341 2797 3341 1997 
z
" transform="scale(0.015625)"/>
       <path id="DejaVuSans-64" d="M 2906 2969 
L 2906 4863 
L 3481 4863 
L 3481 0 
L 2906 0 
L 2906 525 
Q 2725 213 2448 61 
Q 2172 -91 1784 -91 
Q 1150 -91 751 415 
Q 353 922 353 1747 
Q 353 2572 751 3078 
Q 1150 3584 1784 3584 
Q 2172 3584 2448 3432 
Q 2725 3281 2906 2969 
z
M 947 1747 
Q 947 1113 1208 752 
Q 1469 391 1925 391 
Q 2381 391 2643 752 
Q 2906 1113 2906 1747 
Q 2906 2381 2643 2742 
Q 2381 3103 1925 3103 
Q 1469 3103 1208 2742 
Q 947 2381 947 1747 
z
" transform="scale(0.015625)"/>
       <path id="DejaVuSans-5d" d="M 1947 4863 
L 1947 -844 
L 622 -844 
L 622 -397 
L 1369 -397 
L 1369 4416 
L 622 4416 
L 622 4863 
L 1947 4863 
z
" transform="scale(0.015625)"/>
      </defs>
      <use xlink:href="#DejaVuSans-41"/>
      <use xlink:href="#DejaVuSans-6e" x="68.408203"/>
      <use xlink:href="#DejaVuSans-67" x="131.787109"/>
      <use xlink:href="#DejaVuSans-6c" x="195.263672"/>
      <use xlink:href="#DejaVuSans-65" x="223.046875"/>
      <use xlink:href="#DejaVuSans-20" x="284.570312"/>
      <use xlink:href="#DejaVuSans-5b" x="316.357422"/>
      <use xlink:href="#DejaVuSans-72" x="355.371094"/>
      <use xlink:href="#DejaVuSans-61" x="396.484375"/>
      <use xlink:href="#DejaVuSans-64" x="457.763672"/>
      <use xlink:href="#DejaVuSans-5d" x="521.240234"/>
     </g>
    </g>
   </g>
   <g id="line2d_37">
    <path d="M 357.790909 68.425654 
L 359.583117 70.277885 
L 361.375325 72.130116 
L 363.167532 73.982347 
L 364.95974 75.834578 
L 366.751948 75.510276 
L 368.544156 75.185974 
L 370.336364 74.861672 
L 372.128571 74.53737 
L 373.920779 74.213068 
L 375.712987 73.119557 
L 377.505195 72.026046 
L 379.297403 70.932535 
L 381.08961 69.839023 
L 382.881818 68.745512 
L 384.674026 66.600336 
L 386.466234 64.45516 
L 388.258442 62.309985 
L 390.050649 60.164809 
L 391.842857 58.019633 
L 393.635065 63.538003 
L 395.427273 69.056372 
L 397.219481 74.574742 
L 399.011688 80.093111 
L 400.803896 85.611481 
L 402.596104 84.274113 
L 404.388312 82.936746 
L 406.180519 81.599378 
L 407.972727 80.262011 
L 409.764935 78.924643 
L 411.557143 80.52798 
L 413.349351 82.131317 
L 415.141558 83.734654 
L 416.933766 85.33799 
L 418.725974 86.941327 
L 420.518182 88.267086 
L 422.31039 89.592846 
L 424.102597 90.918605 
L 425.894805 92.244364 
L 427.687013 93.570123 
L 429.479221 92.648517 
L 431.271429 91.726911 
L 433.063636 90.805305 
L 434.855844 89.8837 
L 436.648052 88.962094 
L 438.44026 89.726952 
L 440.232468 90.491811 
L 442.024675 91.256669 
L 443.816883 92.021528 
L 445.609091 92.786386 
" clip-path="url(#pa17094b028)" style="fill: none; stroke: #348abd; stroke-width: 4; stroke-linecap: square"/>
   </g>
   <g id="line2d_38">
    <path d="M 357.790909 32.203712 
L 359.583117 32.402806 
L 361.375325 95.477959 
L 363.167532 89.442786 
L 364.95974 80.313234 
L 366.751948 78.818662 
L 368.544156 80.227908 
L 370.336364 80.715003 
L 372.128571 79.666232 
L 373.920779 79.303544 
L 375.712987 79.816342 
L 377.505195 78.162811 
L 379.297403 76.913682 
L 381.08961 75.91084 
L 382.881818 74.121841 
L 384.674026 75.37729 
L 386.466234 74.995641 
L 388.258442 74.003017 
L 390.050649 73.411319 
L 391.842857 70.731981 
L 393.635065 55.993359 
L 395.427273 51.885076 
L 397.219481 46.861384 
L 399.011688 35.325431 
L 400.803896 81.236389 
L 402.596104 79.742765 
L 404.388312 80.299911 
L 406.180519 79.899828 
L 407.972727 76.065536 
L 409.764935 72.238197 
L 411.557143 71.329634 
L 413.349351 71.916908 
L 415.141558 70.51177 
L 416.933766 67.024259 
L 418.725974 61.488085 
L 420.518182 55.982249 
L 422.31039 50.03809 
L 424.102597 42.970053 
L 425.894805 32.785199 
L 427.687013 90.262132 
L 429.479221 90.301424 
L 431.271429 91.751753 
L 433.063636 92.708667 
L 434.855844 92.603853 
L 436.648052 92.27972 
L 438.44026 90.420774 
L 440.232468 89.266979 
L 442.024675 88.623243 
L 443.816883 87.852992 
L 445.609091 87.764717 
" clip-path="url(#pa17094b028)" style="fill: none; stroke-dasharray: 7.4,3.2; stroke-dashoffset: 0; stroke: #a60628; stroke-width: 2"/>
   </g>
   <g id="patch_13">
    <path d="M 353.4 98.641671 
L 353.4 29.04 
" style="fill: none; stroke: #bcbcbc; stroke-width: 0.8; stroke-linejoin: miter; stroke-linecap: square"/>
   </g>
   <g id="patch_14">
    <path d="M 450 98.641671 
L 450 29.04 
" style="fill: none; stroke: #bcbcbc; stroke-width: 0.8; stroke-linejoin: miter; stroke-linecap: square"/>
   </g>
   <g id="patch_15">
    <path d="M 353.4 98.641671 
L 450 98.641671 
" style="fill: none; stroke: #bcbcbc; stroke-width: 0.8; stroke-linejoin: miter; stroke-linecap: square"/>
   </g>
   <g id="patch_16">
    <path d="M 353.4 29.04 
L 450 29.04 
" style="fill: none; stroke: #bcbcbc; stroke-width: 0.8; stroke-linejoin: miter; stroke-linecap: square"/>
   </g>
   <g id="text_13">
    <!-- Robot 1 $\theta$ -->
    <g transform="translate(367.932 23.04) scale(0.144 -0.144)">
     <defs>
      <path id="Cmmi10-b5" d="M 1031 -72 
Q 741 -72 566 140 
Q 391 353 323 653 
Q 256 953 256 1247 
L 256 1253 
Q 256 1572 317 1915 
Q 378 2259 493 2601 
Q 609 2944 744 3213 
Q 838 3400 986 3631 
Q 1134 3863 1317 4064 
Q 1500 4266 1711 4389 
Q 1922 4513 2138 4513 
L 2144 4513 
Q 2375 4513 2529 4384 
Q 2684 4256 2770 4056 
Q 2856 3856 2890 3628 
Q 2925 3400 2925 3194 
Q 2925 2709 2794 2204 
Q 2663 1700 2431 1228 
Q 2344 1050 2189 809 
Q 2034 569 1861 378 
Q 1688 188 1472 58 
Q 1256 -72 1038 -72 
L 1031 -72 
z
M 1044 97 
Q 1256 97 1451 323 
Q 1647 550 1794 873 
Q 1941 1197 2052 1536 
Q 2163 1875 2216 2113 
L 909 2113 
Q 809 1709 753 1417 
Q 697 1125 697 844 
Q 697 97 1044 97 
z
M 959 2338 
L 2272 2338 
Q 2341 2619 2381 2808 
Q 2422 2997 2450 3206 
Q 2478 3416 2478 3597 
Q 2478 4347 2138 4347 
Q 1731 4347 1436 3692 
Q 1141 3038 959 2338 
z
" transform="scale(0.015625)"/>
     </defs>
     <use xlink:href="#DejaVuSans-52" transform="translate(0 0.015625)"/>
     <use xlink:href="#DejaVuSans-6f" transform="translate(69.482422 0.015625)"/>
     <use xlink:href="#DejaVuSans-62" transform="translate(130.664062 0.015625)"/>
     <use xlink:href="#DejaVuSans-6f" transform="translate(194.140625 0.015625)"/>
     <use xlink:href="#DejaVuSans-74" transform="translate(255.322266 0.015625)"/>
     <use xlink:href="#DejaVuSans-20" transform="translate(294.53125 0.015625)"/>
     <use xlink:href="#DejaVuSans-31" transform="translate(326.318359 0.015625)"/>
     <use xlink:href="#DejaVuSans-20" transform="translate(389.941406 0.015625)"/>
     <use xlink:href="#Cmmi10-b5" transform="translate(421.728516 0.015625)"/>
    </g>
   </g>
  </g>
  <g id="axes_4">
   <g id="patch_17">
    <path d="M 53.4 202.530836 
L 150 202.530836 
L 150 132.929164 
L 53.4 132.929164 
z
" style="fill: #eeeeee"/>
   </g>
   <g id="matplotlib.axis_7">
    <g id="xtick_10">
     <g id="line2d_39">
      <path d="M 57.790909 202.530836 
L 57.790909 132.929164 
" clip-path="url(#p7a64cd4ebf)" style="fill: none; stroke-dasharray: 1.85,0.8; stroke-dashoffset: 0; stroke: #b2b2b2; stroke-width: 0.5"/>
     </g>
     <g id="line2d_40">
      <g>
       <use xlink:href="#m559ee877e1" x="57.790909" y="202.530836" style="stroke: #000000; stroke-width: 0.8"/>
      </g>
     </g>
    </g>
    <g id="xtick_11">
     <g id="line2d_41">
      <path d="M 93.635065 202.530836 
L 93.635065 132.929164 
" clip-path="url(#p7a64cd4ebf)" style="fill: none; stroke-dasharray: 1.85,0.8; stroke-dashoffset: 0; stroke: #b2b2b2; stroke-width: 0.5"/>
     </g>
     <g id="line2d_42">
      <g>
       <use xlink:href="#m559ee877e1" x="93.635065" y="202.530836" style="stroke: #000000; stroke-width: 0.8"/>
      </g>
     </g>
    </g>
    <g id="xtick_12">
     <g id="line2d_43">
      <path d="M 129.479221 202.530836 
L 129.479221 132.929164 
" clip-path="url(#p7a64cd4ebf)" style="fill: none; stroke-dasharray: 1.85,0.8; stroke-dashoffset: 0; stroke: #b2b2b2; stroke-width: 0.5"/>
     </g>
     <g id="line2d_44">
      <g>
       <use xlink:href="#m559ee877e1" x="129.479221" y="202.530836" style="stroke: #000000; stroke-width: 0.8"/>
      </g>
     </g>
    </g>
   </g>
   <g id="matplotlib.axis_8">
    <g id="ytick_8">
     <g id="line2d_45">
      <path d="M 53.4 187.566711 
L 150 187.566711 
" clip-path="url(#p7a64cd4ebf)" style="fill: none; stroke-dasharray: 1.85,0.8; stroke-dashoffset: 0; stroke: #b2b2b2; stroke-width: 0.5"/>
     </g>
     <g id="line2d_46">
      <g>
       <use xlink:href="#m51445dc0f1" x="53.4" y="187.566711" style="stroke: #000000; stroke-width: 0.8"/>
      </g>
     </g>
     <g id="text_14">
      <!-- −0.1 -->
      <g transform="translate(25.617188 191.36593) scale(0.1 -0.1)">
       <use xlink:href="#DejaVuSans-2212"/>
       <use xlink:href="#DejaVuSans-30" x="83.789062"/>
       <use xlink:href="#DejaVuSans-2e" x="147.412109"/>
       <use xlink:href="#DejaVuSans-31" x="179.199219"/>
      </g>
     </g>
    </g>
    <g id="ytick_9">
     <g id="line2d_47">
      <path d="M 53.4 165.536706 
L 150 165.536706 
" clip-path="url(#p7a64cd4ebf)" style="fill: none; stroke-dasharray: 1.85,0.8; stroke-dashoffset: 0; stroke: #b2b2b2; stroke-width: 0.5"/>
     </g>
     <g id="line2d_48">
      <g>
       <use xlink:href="#m51445dc0f1" x="53.4" y="165.536706" style="stroke: #000000; stroke-width: 0.8"/>
      </g>
     </g>
     <g id="text_15">
      <!-- 0.0 -->
      <g transform="translate(33.996875 169.335925) scale(0.1 -0.1)">
       <use xlink:href="#DejaVuSans-30"/>
       <use xlink:href="#DejaVuSans-2e" x="63.623047"/>
       <use xlink:href="#DejaVuSans-30" x="95.410156"/>
      </g>
     </g>
    </g>
    <g id="ytick_10">
     <g id="line2d_49">
      <path d="M 53.4 143.506701 
L 150 143.506701 
" clip-path="url(#p7a64cd4ebf)" style="fill: none; stroke-dasharray: 1.85,0.8; stroke-dashoffset: 0; stroke: #b2b2b2; stroke-width: 0.5"/>
     </g>
     <g id="line2d_50">
      <g>
       <use xlink:href="#m51445dc0f1" x="53.4" y="143.506701" style="stroke: #000000; stroke-width: 0.8"/>
      </g>
     </g>
     <g id="text_16">
      <!-- 0.1 -->
      <g transform="translate(33.996875 147.30592) scale(0.1 -0.1)">
       <use xlink:href="#DejaVuSans-30"/>
       <use xlink:href="#DejaVuSans-2e" x="63.623047"/>
       <use xlink:href="#DejaVuSans-31" x="95.410156"/>
      </g>
     </g>
    </g>
    <g id="text_17">
     <!-- Position -->
     <g transform="translate(19.121563 191.086875) rotate(-90) scale(0.12 -0.12)">
      <use xlink:href="#DejaVuSans-50"/>
      <use xlink:href="#DejaVuSans-6f" x="56.677734"/>
      <use xlink:href="#DejaVuSans-73" x="117.859375"/>
      <use xlink:href="#DejaVuSans-69" x="169.958984"/>
      <use xlink:href="#DejaVuSans-74" x="197.742188"/>
      <use xlink:href="#DejaVuSans-69" x="236.951172"/>
      <use xlink:href="#DejaVuSans-6f" x="264.734375"/>
      <use xlink:href="#DejaVuSans-6e" x="325.916016"/>
     </g>
    </g>
   </g>
   <g id="line2d_51">
    <path d="M 57.790909 198.607404 
L 59.583117 195.89201 
L 61.375325 192.410543 
L 63.167532 188.340201 
L 64.95974 183.868207 
L 66.751948 179.53912 
L 68.544156 175.269333 
L 70.336364 171.128559 
L 72.128571 167.162596 
L 73.920779 163.396251 
L 75.712987 159.032544 
L 77.505195 154.930151 
L 79.297403 151.088709 
L 81.08961 147.496304 
L 82.881818 144.133455 
L 84.674026 142.496958 
L 86.466234 140.901125 
L 88.258442 139.378683 
L 90.050649 137.974017 
L 91.842857 136.739326 
L 93.635065 136.306275 
L 95.427273 136.092877 
L 97.219481 136.19613 
L 99.011688 136.683622 
L 100.803896 137.568646 
L 102.596104 138.781673 
L 104.388312 140.328481 
L 106.180519 142.082028 
L 107.972727 143.877504 
L 109.764935 145.552923 
L 111.557143 147.699243 
L 113.349351 149.884916 
L 115.141558 152.093821 
L 116.933766 154.313847 
L 118.725974 156.537149 
L 120.518182 158.124687 
L 122.31039 159.471463 
L 124.102597 160.381388 
L 125.894805 160.728604 
L 127.687013 160.472436 
L 129.479221 159.481226 
L 131.271429 157.790326 
L 133.063636 155.564208 
L 134.855844 152.996461 
L 136.648052 150.295194 
L 138.44026 147.679602 
L 140.232468 145.163023 
L 142.024675 142.82403 
L 143.816883 140.725451 
L 145.609091 138.911342 
" clip-path="url(#p7a64cd4ebf)" style="fill: none; stroke: #348abd; stroke-width: 4; stroke-linecap: square"/>
   </g>
   <g id="line2d_52">
    <path d="M 57.790909 199.367123 
L 59.583117 198.08196 
L 61.375325 192.879133 
L 63.167532 189.383523 
L 64.95974 184.321873 
L 66.751948 180.212061 
L 68.544156 175.902328 
L 70.336364 171.407743 
L 72.128571 167.235636 
L 73.920779 163.4667 
L 75.712987 158.988206 
L 77.505195 154.860657 
L 79.297403 151.050447 
L 81.08961 147.546315 
L 82.881818 144.186505 
L 84.674026 142.482764 
L 86.466234 140.937105 
L 88.258442 139.431619 
L 90.050649 137.95677 
L 91.842857 136.720717 
L 93.635065 136.190969 
L 95.427273 136.223767 
L 97.219481 136.507507 
L 99.011688 136.989278 
L 100.803896 137.480458 
L 102.596104 138.27703 
L 104.388312 139.81807 
L 106.180519 141.812936 
L 107.972727 143.670628 
L 109.764935 145.549818 
L 111.557143 147.867634 
L 113.349351 150.058535 
L 115.141558 152.280295 
L 116.933766 154.461982 
L 118.725974 156.721725 
L 120.518182 158.348666 
L 122.31039 159.716805 
L 124.102597 160.74478 
L 125.894805 161.152261 
L 127.687013 160.851274 
L 129.479221 159.982608 
L 131.271429 158.266271 
L 133.063636 155.859727 
L 134.855844 153.028854 
L 136.648052 150.253712 
L 138.44026 147.670079 
L 140.232468 145.093668 
L 142.024675 142.659701 
L 143.816883 140.50819 
L 145.609091 138.679441 
" clip-path="url(#p7a64cd4ebf)" style="fill: none; stroke-dasharray: 7.4,3.2; stroke-dashoffset: 0; stroke: #a60628; stroke-width: 2"/>
   </g>
   <g id="patch_18">
    <path d="M 53.4 202.530836 
L 53.4 132.929164 
" style="fill: none; stroke: #bcbcbc; stroke-width: 0.8; stroke-linejoin: miter; stroke-linecap: square"/>
   </g>
   <g id="patch_19">
    <path d="M 150 202.530836 
L 150 132.929164 
" style="fill: none; stroke: #bcbcbc; stroke-width: 0.8; stroke-linejoin: miter; stroke-linecap: square"/>
   </g>
   <g id="patch_20">
    <path d="M 53.4 202.530836 
L 150 202.530836 
" style="fill: none; stroke: #bcbcbc; stroke-width: 0.8; stroke-linejoin: miter; stroke-linecap: square"/>
   </g>
   <g id="patch_21">
    <path d="M 53.4 132.929164 
L 150 132.929164 
" style="fill: none; stroke: #bcbcbc; stroke-width: 0.8; stroke-linejoin: miter; stroke-linecap: square"/>
   </g>
   <g id="text_18">
    <!-- Robot 2 $x$ -->
    <g transform="translate(67.212 126.929164) scale(0.144 -0.144)">
     <use xlink:href="#DejaVuSans-52" transform="translate(0 0.015625)"/>
     <use xlink:href="#DejaVuSans-6f" transform="translate(69.482422 0.015625)"/>
     <use xlink:href="#DejaVuSans-62" transform="translate(130.664062 0.015625)"/>
     <use xlink:href="#DejaVuSans-6f" transform="translate(194.140625 0.015625)"/>
     <use xlink:href="#DejaVuSans-74" transform="translate(255.322266 0.015625)"/>
     <use xlink:href="#DejaVuSans-20" transform="translate(294.53125 0.015625)"/>
     <use xlink:href="#DejaVuSans-32" transform="translate(326.318359 0.015625)"/>
     <use xlink:href="#DejaVuSans-20" transform="translate(389.941406 0.015625)"/>
     <use xlink:href="#Cmmi10-78" transform="translate(421.728516 0.015625)"/>
    </g>
   </g>
  </g>
  <g id="axes_5">
   <g id="patch_22">
    <path d="M 203.4 202.530836 
L 300 202.530836 
L 300 132.929164 
L 203.4 132.929164 
z
" style="fill: #eeeeee"/>
   </g>
   <g id="matplotlib.axis_9">
    <g id="xtick_13">
     <g id="line2d_53">
      <path d="M 207.790909 202.530836 
L 207.790909 132.929164 
" clip-path="url(#pea3073d9e0)" style="fill: none; stroke-dasharray: 1.85,0.8; stroke-dashoffset: 0; stroke: #b2b2b2; stroke-width: 0.5"/>
     </g>
     <g id="line2d_54">
      <g>
       <use xlink:href="#m559ee877e1" x="207.790909" y="202.530836" style="stroke: #000000; stroke-width: 0.8"/>
      </g>
     </g>
    </g>
    <g id="xtick_14">
     <g id="line2d_55">
      <path d="M 243.635065 202.530836 
L 243.635065 132.929164 
" clip-path="url(#pea3073d9e0)" style="fill: none; stroke-dasharray: 1.85,0.8; stroke-dashoffset: 0; stroke: #b2b2b2; stroke-width: 0.5"/>
     </g>
     <g id="line2d_56">
      <g>
       <use xlink:href="#m559ee877e1" x="243.635065" y="202.530836" style="stroke: #000000; stroke-width: 0.8"/>
      </g>
     </g>
    </g>
    <g id="xtick_15">
     <g id="line2d_57">
      <path d="M 279.479221 202.530836 
L 279.479221 132.929164 
" clip-path="url(#pea3073d9e0)" style="fill: none; stroke-dasharray: 1.85,0.8; stroke-dashoffset: 0; stroke: #b2b2b2; stroke-width: 0.5"/>
     </g>
     <g id="line2d_58">
      <g>
       <use xlink:href="#m559ee877e1" x="279.479221" y="202.530836" style="stroke: #000000; stroke-width: 0.8"/>
      </g>
     </g>
    </g>
   </g>
   <g id="matplotlib.axis_10">
    <g id="ytick_11">
     <g id="line2d_59">
      <path d="M 203.4 201.754941 
L 300 201.754941 
" clip-path="url(#pea3073d9e0)" style="fill: none; stroke-dasharray: 1.85,0.8; stroke-dashoffset: 0; stroke: #b2b2b2; stroke-width: 0.5"/>
     </g>
     <g id="line2d_60">
      <g>
       <use xlink:href="#m51445dc0f1" x="203.4" y="201.754941" style="stroke: #000000; stroke-width: 0.8"/>
      </g>
     </g>
     <g id="text_19">
      <!-- −0.3 -->
      <g transform="translate(175.617188 205.554159) scale(0.1 -0.1)">
       <defs>
        <path id="DejaVuSans-33" d="M 2597 2516 
Q 3050 2419 3304 2112 
Q 3559 1806 3559 1356 
Q 3559 666 3084 287 
Q 2609 -91 1734 -91 
Q 1441 -91 1130 -33 
Q 819 25 488 141 
L 488 750 
Q 750 597 1062 519 
Q 1375 441 1716 441 
Q 2309 441 2620 675 
Q 2931 909 2931 1356 
Q 2931 1769 2642 2001 
Q 2353 2234 1838 2234 
L 1294 2234 
L 1294 2753 
L 1863 2753 
Q 2328 2753 2575 2939 
Q 2822 3125 2822 3475 
Q 2822 3834 2567 4026 
Q 2313 4219 1838 4219 
Q 1578 4219 1281 4162 
Q 984 4106 628 3988 
L 628 4550 
Q 988 4650 1302 4700 
Q 1616 4750 1894 4750 
Q 2613 4750 3031 4423 
Q 3450 4097 3450 3541 
Q 3450 3153 3228 2886 
Q 3006 2619 2597 2516 
z
" transform="scale(0.015625)"/>
       </defs>
       <use xlink:href="#DejaVuSans-2212"/>
       <use xlink:href="#DejaVuSans-30" x="83.789062"/>
       <use xlink:href="#DejaVuSans-2e" x="147.412109"/>
       <use xlink:href="#DejaVuSans-33" x="179.199219"/>
      </g>
     </g>
    </g>
    <g id="ytick_12">
     <g id="line2d_61">
      <path d="M 203.4 175.432452 
L 300 175.432452 
" clip-path="url(#pea3073d9e0)" style="fill: none; stroke-dasharray: 1.85,0.8; stroke-dashoffset: 0; stroke: #b2b2b2; stroke-width: 0.5"/>
     </g>
     <g id="line2d_62">
      <g>
       <use xlink:href="#m51445dc0f1" x="203.4" y="175.432452" style="stroke: #000000; stroke-width: 0.8"/>
      </g>
     </g>
     <g id="text_20">
      <!-- −0.2 -->
      <g transform="translate(175.617188 179.231671) scale(0.1 -0.1)">
       <use xlink:href="#DejaVuSans-2212"/>
       <use xlink:href="#DejaVuSans-30" x="83.789062"/>
       <use xlink:href="#DejaVuSans-2e" x="147.412109"/>
       <use xlink:href="#DejaVuSans-32" x="179.199219"/>
      </g>
     </g>
    </g>
    <g id="ytick_13">
     <g id="line2d_63">
      <path d="M 203.4 149.109963 
L 300 149.109963 
" clip-path="url(#pea3073d9e0)" style="fill: none; stroke-dasharray: 1.85,0.8; stroke-dashoffset: 0; stroke: #b2b2b2; stroke-width: 0.5"/>
     </g>
     <g id="line2d_64">
      <g>
       <use xlink:href="#m51445dc0f1" x="203.4" y="149.109963" style="stroke: #000000; stroke-width: 0.8"/>
      </g>
     </g>
     <g id="text_21">
      <!-- −0.1 -->
      <g transform="translate(175.617188 152.909182) scale(0.1 -0.1)">
       <use xlink:href="#DejaVuSans-2212"/>
       <use xlink:href="#DejaVuSans-30" x="83.789062"/>
       <use xlink:href="#DejaVuSans-2e" x="147.412109"/>
       <use xlink:href="#DejaVuSans-31" x="179.199219"/>
      </g>
     </g>
    </g>
    <g id="text_22">
     <!-- Position -->
     <g transform="translate(169.121563 191.086875) rotate(-90) scale(0.12 -0.12)">
      <use xlink:href="#DejaVuSans-50"/>
      <use xlink:href="#DejaVuSans-6f" x="56.677734"/>
      <use xlink:href="#DejaVuSans-73" x="117.859375"/>
      <use xlink:href="#DejaVuSans-69" x="169.958984"/>
      <use xlink:href="#DejaVuSans-74" x="197.742188"/>
      <use xlink:href="#DejaVuSans-69" x="236.951172"/>
      <use xlink:href="#DejaVuSans-6f" x="264.734375"/>
      <use xlink:href="#DejaVuSans-6e" x="325.916016"/>
     </g>
    </g>
   </g>
   <g id="line2d_65">
    <path d="M 207.790909 140.422408 
L 209.583117 147.177728 
L 211.375325 152.917429 
L 213.167532 157.592506 
L 214.95974 161.249025 
L 216.751948 164.136295 
L 218.544156 166.556312 
L 220.336364 168.540829 
L 222.128571 170.138879 
L 223.920779 171.407379 
L 225.712987 173.807755 
L 227.505195 175.762842 
L 229.297403 177.340485 
L 231.08961 178.605766 
L 232.881818 179.617961 
L 234.674026 179.027177 
L 236.466234 178.743133 
L 238.258442 178.828754 
L 240.050649 179.319852 
L 241.842857 180.226321 
L 243.635065 180.282773 
L 245.427273 180.730724 
L 247.219481 181.549995 
L 249.011688 182.6054 
L 250.803896 183.68512 
L 252.596104 185.075881 
L 254.388312 186.123081 
L 256.180519 186.793946 
L 257.972727 187.09691 
L 259.764935 187.078565 
L 261.557143 187.272908 
L 263.349351 187.482654 
L 265.141558 187.729002 
L 266.933766 188.031356 
L 268.725974 188.406724 
L 270.518182 189.319702 
L 272.31039 190.566091 
L 274.102597 192.00987 
L 275.894805 193.465001 
L 277.687013 194.726484 
L 279.479221 196.55842 
L 281.271429 197.932424 
L 283.063636 198.705975 
L 284.855844 198.787549 
L 286.648052 198.140032 
L 288.44026 197.121911 
L 290.232468 196.291056 
L 292.024675 195.66737 
L 293.816883 195.268563 
L 295.609091 195.109457 
" clip-path="url(#pea3073d9e0)" style="fill: none; stroke: #348abd; stroke-width: 4; stroke-linecap: square"/>
   </g>
   <g id="line2d_66">
    <path d="M 207.790909 136.092877 
L 209.583117 145.512958 
L 211.375325 152.080986 
L 213.167532 156.397918 
L 214.95974 160.246612 
L 216.751948 163.445014 
L 218.544156 166.367676 
L 220.336364 168.353145 
L 222.128571 170.002432 
L 223.920779 171.338007 
L 225.712987 173.743409 
L 227.505195 175.719167 
L 229.297403 177.377174 
L 231.08961 178.684752 
L 232.881818 179.694389 
L 234.674026 179.139396 
L 236.466234 178.648979 
L 238.258442 178.491486 
L 240.050649 178.842132 
L 241.842857 179.692535 
L 243.635065 179.719745 
L 245.427273 180.358821 
L 247.219481 181.118404 
L 249.011688 182.453395 
L 250.803896 183.721848 
L 252.596104 185.410745 
L 254.388312 186.717704 
L 256.180519 187.544367 
L 257.972727 187.545078 
L 259.764935 187.204062 
L 261.557143 187.288986 
L 263.349351 187.417978 
L 265.141558 187.725344 
L 266.933766 188.012059 
L 268.725974 188.399151 
L 270.518182 189.072533 
L 272.31039 190.262545 
L 274.102597 191.848963 
L 275.894805 193.489967 
L 277.687013 194.969581 
L 279.479221 197.125437 
L 281.271429 198.634442 
L 283.063636 199.367123 
L 284.855844 199.296409 
L 286.648052 198.487216 
L 288.44026 197.155633 
L 290.232468 196.177538 
L 292.024675 195.599878 
L 293.816883 195.276848 
L 295.609091 195.095262 
" clip-path="url(#pea3073d9e0)" style="fill: none; stroke-dasharray: 7.4,3.2; stroke-dashoffset: 0; stroke: #a60628; stroke-width: 2"/>
   </g>
   <g id="patch_23">
    <path d="M 203.4 202.530836 
L 203.4 132.929164 
" style="fill: none; stroke: #bcbcbc; stroke-width: 0.8; stroke-linejoin: miter; stroke-linecap: square"/>
   </g>
   <g id="patch_24">
    <path d="M 300 202.530836 
L 300 132.929164 
" style="fill: none; stroke: #bcbcbc; stroke-width: 0.8; stroke-linejoin: miter; stroke-linecap: square"/>
   </g>
   <g id="patch_25">
    <path d="M 203.4 202.530836 
L 300 202.530836 
" style="fill: none; stroke: #bcbcbc; stroke-width: 0.8; stroke-linejoin: miter; stroke-linecap: square"/>
   </g>
   <g id="patch_26">
    <path d="M 203.4 132.929164 
L 300 132.929164 
" style="fill: none; stroke: #bcbcbc; stroke-width: 0.8; stroke-linejoin: miter; stroke-linecap: square"/>
   </g>
   <g id="text_23">
    <!-- Robot 2 $y$ -->
    <g transform="translate(217.788 126.929164) scale(0.144 -0.144)">
     <use xlink:href="#DejaVuSans-52" transform="translate(0 0.015625)"/>
     <use xlink:href="#DejaVuSans-6f" transform="translate(69.482422 0.015625)"/>
     <use xlink:href="#DejaVuSans-62" transform="translate(130.664062 0.015625)"/>
     <use xlink:href="#DejaVuSans-6f" transform="translate(194.140625 0.015625)"/>
     <use xlink:href="#DejaVuSans-74" transform="translate(255.322266 0.015625)"/>
     <use xlink:href="#DejaVuSans-20" transform="translate(294.53125 0.015625)"/>
     <use xlink:href="#DejaVuSans-32" transform="translate(326.318359 0.015625)"/>
     <use xlink:href="#DejaVuSans-20" transform="translate(389.941406 0.015625)"/>
     <use xlink:href="#Cmmi10-79" transform="translate(421.728516 0.015625)"/>
    </g>
   </g>
  </g>
  <g id="axes_6">
   <g id="patch_27">
    <path d="M 353.4 202.530836 
L 450 202.530836 
L 450 132.929164 
L 353.4 132.929164 
z
" style="fill: #eeeeee"/>
   </g>
   <g id="matplotlib.axis_11">
    <g id="xtick_16">
     <g id="line2d_67">
      <path d="M 357.790909 202.530836 
L 357.790909 132.929164 
" clip-path="url(#p4790a8446c)" style="fill: none; stroke-dasharray: 1.85,0.8; stroke-dashoffset: 0; stroke: #b2b2b2; stroke-width: 0.5"/>
     </g>
     <g id="line2d_68">
      <g>
       <use xlink:href="#m559ee877e1" x="357.790909" y="202.530836" style="stroke: #000000; stroke-width: 0.8"/>
      </g>
     </g>
    </g>
    <g id="xtick_17">
     <g id="line2d_69">
      <path d="M 393.635065 202.530836 
L 393.635065 132.929164 
" clip-path="url(#p4790a8446c)" style="fill: none; stroke-dasharray: 1.85,0.8; stroke-dashoffset: 0; stroke: #b2b2b2; stroke-width: 0.5"/>
     </g>
     <g id="line2d_70">
      <g>
       <use xlink:href="#m559ee877e1" x="393.635065" y="202.530836" style="stroke: #000000; stroke-width: 0.8"/>
      </g>
     </g>
    </g>
    <g id="xtick_18">
     <g id="line2d_71">
      <path d="M 429.479221 202.530836 
L 429.479221 132.929164 
" clip-path="url(#p4790a8446c)" style="fill: none; stroke-dasharray: 1.85,0.8; stroke-dashoffset: 0; stroke: #b2b2b2; stroke-width: 0.5"/>
     </g>
     <g id="line2d_72">
      <g>
       <use xlink:href="#m559ee877e1" x="429.479221" y="202.530836" style="stroke: #000000; stroke-width: 0.8"/>
      </g>
     </g>
    </g>
   </g>
   <g id="matplotlib.axis_12">
    <g id="ytick_14">
     <g id="line2d_73">
      <path d="M 353.4 199.586176 
L 450 199.586176 
" clip-path="url(#p4790a8446c)" style="fill: none; stroke-dasharray: 1.85,0.8; stroke-dashoffset: 0; stroke: #b2b2b2; stroke-width: 0.5"/>
     </g>
     <g id="line2d_74">
      <g>
       <use xlink:href="#m51445dc0f1" x="353.4" y="199.586176" style="stroke: #000000; stroke-width: 0.8"/>
      </g>
     </g>
     <g id="text_24">
      <!-- 0.0 -->
      <g transform="translate(333.996875 203.385395) scale(0.1 -0.1)">
       <use xlink:href="#DejaVuSans-30"/>
       <use xlink:href="#DejaVuSans-2e" x="63.623047"/>
       <use xlink:href="#DejaVuSans-30" x="95.410156"/>
      </g>
     </g>
    </g>
    <g id="ytick_15">
     <g id="line2d_75">
      <path d="M 353.4 174.276974 
L 450 174.276974 
" clip-path="url(#p4790a8446c)" style="fill: none; stroke-dasharray: 1.85,0.8; stroke-dashoffset: 0; stroke: #b2b2b2; stroke-width: 0.5"/>
     </g>
     <g id="line2d_76">
      <g>
       <use xlink:href="#m51445dc0f1" x="353.4" y="174.276974" style="stroke: #000000; stroke-width: 0.8"/>
      </g>
     </g>
     <g id="text_25">
      <!-- 2.5 -->
      <g transform="translate(333.996875 178.076192) scale(0.1 -0.1)">
       <use xlink:href="#DejaVuSans-32"/>
       <use xlink:href="#DejaVuSans-2e" x="63.623047"/>
       <use xlink:href="#DejaVuSans-35" x="95.410156"/>
      </g>
     </g>
    </g>
    <g id="ytick_16">
     <g id="line2d_77">
      <path d="M 353.4 148.967771 
L 450 148.967771 
" clip-path="url(#p4790a8446c)" style="fill: none; stroke-dasharray: 1.85,0.8; stroke-dashoffset: 0; stroke: #b2b2b2; stroke-width: 0.5"/>
     </g>
     <g id="line2d_78">
      <g>
       <use xlink:href="#m51445dc0f1" x="353.4" y="148.967771" style="stroke: #000000; stroke-width: 0.8"/>
      </g>
     </g>
     <g id="text_26">
      <!-- 5.0 -->
      <g transform="translate(333.996875 152.766989) scale(0.1 -0.1)">
       <use xlink:href="#DejaVuSans-35"/>
       <use xlink:href="#DejaVuSans-2e" x="63.623047"/>
       <use xlink:href="#DejaVuSans-30" x="95.410156"/>
      </g>
     </g>
    </g>
    <g id="text_27">
     <!-- Angle [rad] -->
     <g transform="translate(327.50125 201.345937) rotate(-90) scale(0.12 -0.12)">
      <use xlink:href="#DejaVuSans-41"/>
      <use xlink:href="#DejaVuSans-6e" x="68.408203"/>
      <use xlink:href="#DejaVuSans-67" x="131.787109"/>
      <use xlink:href="#DejaVuSans-6c" x="195.263672"/>
      <use xlink:href="#DejaVuSans-65" x="223.046875"/>
      <use xlink:href="#DejaVuSans-20" x="284.570312"/>
      <use xlink:href="#DejaVuSans-5b" x="316.357422"/>
      <use xlink:href="#DejaVuSans-72" x="355.371094"/>
      <use xlink:href="#DejaVuSans-61" x="396.484375"/>
      <use xlink:href="#DejaVuSans-64" x="457.763672"/>
      <use xlink:href="#DejaVuSans-5d" x="521.240234"/>
     </g>
    </g>
   </g>
   <g id="line2d_79">
    <path d="M 357.790909 148.438198 
L 359.583117 147.23445 
L 361.375325 146.030701 
L 363.167532 144.826953 
L 364.95974 143.623205 
L 366.751948 143.705901 
L 368.544156 143.788597 
L 370.336364 143.871293 
L 372.128571 143.95399 
L 373.920779 144.036686 
L 375.712987 143.696107 
L 377.505195 143.355528 
L 379.297403 143.014949 
L 381.08961 142.67437 
L 382.881818 142.333791 
L 384.674026 143.326361 
L 386.466234 144.31893 
L 388.258442 145.3115 
L 390.050649 146.304069 
L 391.842857 147.296639 
L 393.635065 149.452848 
L 395.427273 151.609057 
L 397.219481 153.765266 
L 399.011688 155.921475 
L 400.803896 158.077684 
L 402.596104 159.576631 
L 404.388312 161.075579 
L 406.180519 162.574527 
L 407.972727 164.073475 
L 409.764935 165.572423 
L 411.557143 165.780614 
L 413.349351 165.988806 
L 415.141558 166.196998 
L 416.933766 166.40519 
L 418.725974 166.613381 
L 420.518182 162.893458 
L 422.31039 159.173535 
L 424.102597 155.453612 
L 425.894805 151.733689 
L 427.687013 148.013766 
L 429.479221 145.033543 
L 431.271429 142.053321 
L 433.063636 139.073099 
L 434.855844 136.092877 
L 436.648052 196.721619 
L 438.44026 198.044371 
L 440.232468 199.367123 
L 442.024675 137.080911 
L 443.816883 138.403663 
L 445.609091 139.726415 
" clip-path="url(#p4790a8446c)" style="fill: none; stroke: #348abd; stroke-width: 4; stroke-linecap: square"/>
   </g>
   <g id="line2d_80">
    <path d="M 357.790909 140.529025 
L 359.583117 153.066293 
L 361.375325 141.457164 
L 363.167532 146.12084 
L 364.95974 143.132937 
L 366.751948 143.813451 
L 368.544156 143.491113 
L 370.336364 142.655605 
L 372.128571 143.114309 
L 373.920779 143.522395 
L 375.712987 144.45428 
L 377.505195 145.06494 
L 379.297403 145.497019 
L 381.08961 145.781798 
L 382.881818 145.728244 
L 384.674026 144.412469 
L 386.466234 143.498807 
L 388.258442 143.260799 
L 390.050649 144.028174 
L 391.842857 146.047646 
L 393.635065 148.400288 
L 395.427273 149.668381 
L 397.219481 147.971247 
L 399.011688 147.532689 
L 400.803896 146.694853 
L 402.596104 149.910033 
L 404.388312 153.830631 
L 406.180519 158.484791 
L 407.972727 162.127089 
L 409.764935 163.254867 
L 411.557143 166.128778 
L 413.349351 166.30746 
L 415.141558 165.349963 
L 416.933766 164.773419 
L 418.725974 163.861782 
L 420.518182 164.958075 
L 422.31039 163.41968 
L 424.102597 160.50811 
L 425.894805 157.007645 
L 427.687013 154.50588 
L 429.479221 152.463428 
L 431.271429 149.17394 
L 433.063636 145.246559 
L 434.855844 141.412519 
L 436.648052 138.894455 
L 438.44026 195.08995 
L 440.232468 196.023454 
L 442.024675 197.276867 
L 443.816883 198.28387 
L 445.609091 199.113505 
" clip-path="url(#p4790a8446c)" style="fill: none; stroke-dasharray: 7.4,3.2; stroke-dashoffset: 0; stroke: #a60628; stroke-width: 2"/>
   </g>
   <g id="patch_28">
    <path d="M 353.4 202.530836 
L 353.4 132.929164 
" style="fill: none; stroke: #bcbcbc; stroke-width: 0.8; stroke-linejoin: miter; stroke-linecap: square"/>
   </g>
   <g id="patch_29">
    <path d="M 450 202.530836 
L 450 132.929164 
" style="fill: none; stroke: #bcbcbc; stroke-width: 0.8; stroke-linejoin: miter; stroke-linecap: square"/>
   </g>
   <g id="patch_30">
    <path d="M 353.4 202.530836 
L 450 202.530836 
" style="fill: none; stroke: #bcbcbc; stroke-width: 0.8; stroke-linejoin: miter; stroke-linecap: square"/>
   </g>
   <g id="patch_31">
    <path d="M 353.4 132.929164 
L 450 132.929164 
" style="fill: none; stroke: #bcbcbc; stroke-width: 0.8; stroke-linejoin: miter; stroke-linecap: square"/>
   </g>
   <g id="text_28">
    <!-- Robot 2 $\theta$ -->
    <g transform="translate(367.932 126.929164) scale(0.144 -0.144)">
     <use xlink:href="#DejaVuSans-52" transform="translate(0 0.015625)"/>
     <use xlink:href="#DejaVuSans-6f" transform="translate(69.482422 0.015625)"/>
     <use xlink:href="#DejaVuSans-62" transform="translate(130.664062 0.015625)"/>
     <use xlink:href="#DejaVuSans-6f" transform="translate(194.140625 0.015625)"/>
     <use xlink:href="#DejaVuSans-74" transform="translate(255.322266 0.015625)"/>
     <use xlink:href="#DejaVuSans-20" transform="translate(294.53125 0.015625)"/>
     <use xlink:href="#DejaVuSans-32" transform="translate(326.318359 0.015625)"/>
     <use xlink:href="#DejaVuSans-20" transform="translate(389.941406 0.015625)"/>
     <use xlink:href="#Cmmi10-b5" transform="translate(421.728516 0.015625)"/>
    </g>
   </g>
  </g>
  <g id="axes_7">
   <g id="patch_32">
    <path d="M 53.4 306.42 
L 150 306.42 
L 150 236.818329 
L 53.4 236.818329 
z
" style="fill: #eeeeee"/>
   </g>
   <g id="matplotlib.axis_13">
    <g id="xtick_19">
     <g id="line2d_81">
      <path d="M 57.790909 306.42 
L 57.790909 236.818329 
" clip-path="url(#p5f78b6bab0)" style="fill: none; stroke-dasharray: 1.85,0.8; stroke-dashoffset: 0; stroke: #b2b2b2; stroke-width: 0.5"/>
     </g>
     <g id="line2d_82">
      <g>
       <use xlink:href="#m559ee877e1" x="57.790909" y="306.42" style="stroke: #000000; stroke-width: 0.8"/>
      </g>
     </g>
     <g id="text_29">
      <!-- 0 -->
      <g transform="translate(54.609659 317.518438) scale(0.1 -0.1)">
       <use xlink:href="#DejaVuSans-30"/>
      </g>
     </g>
    </g>
    <g id="xtick_20">
     <g id="line2d_83">
      <path d="M 93.635065 306.42 
L 93.635065 236.818329 
" clip-path="url(#p5f78b6bab0)" style="fill: none; stroke-dasharray: 1.85,0.8; stroke-dashoffset: 0; stroke: #b2b2b2; stroke-width: 0.5"/>
     </g>
     <g id="line2d_84">
      <g>
       <use xlink:href="#m559ee877e1" x="93.635065" y="306.42" style="stroke: #000000; stroke-width: 0.8"/>
      </g>
     </g>
     <g id="text_30">
      <!-- 20 -->
      <g transform="translate(87.272565 317.518438) scale(0.1 -0.1)">
       <use xlink:href="#DejaVuSans-32"/>
       <use xlink:href="#DejaVuSans-30" x="63.623047"/>
      </g>
     </g>
    </g>
    <g id="xtick_21">
     <g id="line2d_85">
      <path d="M 129.479221 306.42 
L 129.479221 236.818329 
" clip-path="url(#p5f78b6bab0)" style="fill: none; stroke-dasharray: 1.85,0.8; stroke-dashoffset: 0; stroke: #b2b2b2; stroke-width: 0.5"/>
     </g>
     <g id="line2d_86">
      <g>
       <use xlink:href="#m559ee877e1" x="129.479221" y="306.42" style="stroke: #000000; stroke-width: 0.8"/>
      </g>
     </g>
     <g id="text_31">
      <!-- 40 -->
      <g transform="translate(123.116721 317.518438) scale(0.1 -0.1)">
       <use xlink:href="#DejaVuSans-34"/>
       <use xlink:href="#DejaVuSans-30" x="63.623047"/>
      </g>
     </g>
    </g>
    <g id="text_32">
     <!-- Iteration -->
     <g transform="translate(76.249688 332.71625) scale(0.12 -0.12)">
      <defs>
       <path id="DejaVuSans-49" d="M 628 4666 
L 1259 4666 
L 1259 0 
L 628 0 
L 628 4666 
z
" transform="scale(0.015625)"/>
      </defs>
      <use xlink:href="#DejaVuSans-49"/>
      <use xlink:href="#DejaVuSans-74" x="29.492188"/>
      <use xlink:href="#DejaVuSans-65" x="68.701172"/>
      <use xlink:href="#DejaVuSans-72" x="130.224609"/>
      <use xlink:href="#DejaVuSans-61" x="171.337891"/>
      <use xlink:href="#DejaVuSans-74" x="232.617188"/>
      <use xlink:href="#DejaVuSans-69" x="271.826172"/>
      <use xlink:href="#DejaVuSans-6f" x="299.609375"/>
      <use xlink:href="#DejaVuSans-6e" x="360.791016"/>
     </g>
    </g>
   </g>
   <g id="matplotlib.axis_14">
    <g id="ytick_17">
     <g id="line2d_87">
      <path d="M 53.4 301.549079 
L 150 301.549079 
" clip-path="url(#p5f78b6bab0)" style="fill: none; stroke-dasharray: 1.85,0.8; stroke-dashoffset: 0; stroke: #b2b2b2; stroke-width: 0.5"/>
     </g>
     <g id="line2d_88">
      <g>
       <use xlink:href="#m51445dc0f1" x="53.4" y="301.549079" style="stroke: #000000; stroke-width: 0.8"/>
      </g>
     </g>
     <g id="text_33">
      <!-- 0.0 -->
      <g transform="translate(33.996875 305.348298) scale(0.1 -0.1)">
       <use xlink:href="#DejaVuSans-30"/>
       <use xlink:href="#DejaVuSans-2e" x="63.623047"/>
       <use xlink:href="#DejaVuSans-30" x="95.410156"/>
      </g>
     </g>
    </g>
    <g id="ytick_18">
     <g id="line2d_89">
      <path d="M 53.4 271.847919 
L 150 271.847919 
" clip-path="url(#p5f78b6bab0)" style="fill: none; stroke-dasharray: 1.85,0.8; stroke-dashoffset: 0; stroke: #b2b2b2; stroke-width: 0.5"/>
     </g>
     <g id="line2d_90">
      <g>
       <use xlink:href="#m51445dc0f1" x="53.4" y="271.847919" style="stroke: #000000; stroke-width: 0.8"/>
      </g>
     </g>
     <g id="text_34">
      <!-- 0.1 -->
      <g transform="translate(33.996875 275.647137) scale(0.1 -0.1)">
       <use xlink:href="#DejaVuSans-30"/>
       <use xlink:href="#DejaVuSans-2e" x="63.623047"/>
       <use xlink:href="#DejaVuSans-31" x="95.410156"/>
      </g>
     </g>
    </g>
    <g id="ytick_19">
     <g id="line2d_91">
      <path d="M 53.4 242.146758 
L 150 242.146758 
" clip-path="url(#p5f78b6bab0)" style="fill: none; stroke-dasharray: 1.85,0.8; stroke-dashoffset: 0; stroke: #b2b2b2; stroke-width: 0.5"/>
     </g>
     <g id="line2d_92">
      <g>
       <use xlink:href="#m51445dc0f1" x="53.4" y="242.146758" style="stroke: #000000; stroke-width: 0.8"/>
      </g>
     </g>
     <g id="text_35">
      <!-- 0.2 -->
      <g transform="translate(33.996875 245.945977) scale(0.1 -0.1)">
       <use xlink:href="#DejaVuSans-30"/>
       <use xlink:href="#DejaVuSans-2e" x="63.623047"/>
       <use xlink:href="#DejaVuSans-32" x="95.410156"/>
      </g>
     </g>
    </g>
    <g id="text_36">
     <!-- Position -->
     <g transform="translate(27.50125 294.976039) rotate(-90) scale(0.12 -0.12)">
      <use xlink:href="#DejaVuSans-50"/>
      <use xlink:href="#DejaVuSans-6f" x="56.677734"/>
      <use xlink:href="#DejaVuSans-73" x="117.859375"/>
      <use xlink:href="#DejaVuSans-69" x="169.958984"/>
      <use xlink:href="#DejaVuSans-74" x="197.742188"/>
      <use xlink:href="#DejaVuSans-69" x="236.951172"/>
      <use xlink:href="#DejaVuSans-6f" x="264.734375"/>
      <use xlink:href="#DejaVuSans-6e" x="325.916016"/>
     </g>
    </g>
   </g>
   <g id="line2d_93">
    <path d="M 57.790909 300.301224 
L 59.583117 298.250214 
L 61.375325 296.416775 
L 63.167532 294.82891 
L 64.95974 293.502121 
L 66.751948 291.766971 
L 68.544156 289.656122 
L 70.336364 287.229784 
L 72.128571 284.545039 
L 73.920779 281.652421 
L 75.712987 280.272338 
L 77.505195 279.245331 
L 79.297403 278.52706 
L 81.08961 278.072344 
L 82.881818 277.837766 
L 84.674026 275.757376 
L 86.466234 273.817755 
L 88.258442 272.038838 
L 90.050649 270.460549 
L 91.842857 269.137036 
L 93.635065 268.349427 
L 95.427273 268.06825 
L 97.219481 268.397166 
L 99.011688 269.4132 
L 100.803896 271.132135 
L 102.596104 273.222772 
L 104.388312 272.376188 
L 106.180519 269.03315 
L 107.972727 264.371399 
L 109.764935 259.883967 
L 111.557143 257.482058 
L 113.349351 255.005224 
L 115.141558 252.436015 
L 116.933766 249.748845 
L 118.725974 246.912666 
L 120.518182 244.912806 
L 122.31039 243.192837 
L 124.102597 241.793656 
L 125.894805 240.727916 
L 127.687013 239.982041 
L 129.479221 240.083174 
L 131.271429 240.322638 
L 133.063636 240.662924 
L 134.855844 241.071616 
L 136.648052 241.523163 
L 138.44026 241.715455 
L 140.232468 241.7133 
L 142.024675 241.542584 
L 143.816883 241.226181 
L 145.609091 240.782066 
" clip-path="url(#p5f78b6bab0)" style="fill: none; stroke: #348abd; stroke-width: 4; stroke-linecap: square"/>
   </g>
   <g id="line2d_94">
    <path d="M 57.790909 303.256288 
L 59.583117 300.832503 
L 61.375325 297.880353 
L 63.167532 295.965982 
L 64.95974 294.095302 
L 66.751948 291.967459 
L 68.544156 289.87285 
L 70.336364 287.473963 
L 72.128571 284.74707 
L 73.920779 281.906813 
L 75.712987 280.470468 
L 77.505195 279.519675 
L 79.297403 278.621751 
L 81.08961 277.991016 
L 82.881818 277.704563 
L 84.674026 275.514838 
L 86.466234 273.727788 
L 88.258442 272.018413 
L 90.050649 270.465721 
L 91.842857 269.147823 
L 93.635065 268.234406 
L 95.427273 267.74034 
L 97.219481 267.800612 
L 99.011688 268.871555 
L 100.803896 270.857473 
L 102.596104 272.912617 
L 104.388312 273.717092 
L 106.180519 271.783677 
L 107.972727 267.226977 
L 109.764935 260.111166 
L 111.557143 256.557621 
L 113.349351 254.313859 
L 115.141558 252.19127 
L 116.933766 249.648472 
L 118.725974 246.910069 
L 120.518182 244.75985 
L 122.31039 243.121818 
L 124.102597 241.839696 
L 125.894805 240.904231 
L 127.687013 240.211625 
L 129.479221 240.189221 
L 131.271429 240.416827 
L 133.063636 240.734393 
L 134.855844 241.082693 
L 136.648052 241.621408 
L 138.44026 241.638617 
L 140.232468 241.650056 
L 142.024675 241.530214 
L 143.816883 241.333888 
L 145.609091 240.918297 
" clip-path="url(#p5f78b6bab0)" style="fill: none; stroke-dasharray: 7.4,3.2; stroke-dashoffset: 0; stroke: #a60628; stroke-width: 2"/>
   </g>
   <g id="patch_33">
    <path d="M 53.4 306.42 
L 53.4 236.818329 
" style="fill: none; stroke: #bcbcbc; stroke-width: 0.8; stroke-linejoin: miter; stroke-linecap: square"/>
   </g>
   <g id="patch_34">
    <path d="M 150 306.42 
L 150 236.818329 
" style="fill: none; stroke: #bcbcbc; stroke-width: 0.8; stroke-linejoin: miter; stroke-linecap: square"/>
   </g>
   <g id="patch_35">
    <path d="M 53.4 306.42 
L 150 306.42 
" style="fill: none; stroke: #bcbcbc; stroke-width: 0.8; stroke-linejoin: miter; stroke-linecap: square"/>
   </g>
   <g id="patch_36">
    <path d="M 53.4 236.818329 
L 150 236.818329 
" style="fill: none; stroke: #bcbcbc; stroke-width: 0.8; stroke-linejoin: miter; stroke-linecap: square"/>
   </g>
   <g id="text_37">
    <!-- Robot 3 $x$ -->
    <g transform="translate(67.212 230.818329) scale(0.144 -0.144)">
     <use xlink:href="#DejaVuSans-52" transform="translate(0 0.015625)"/>
     <use xlink:href="#DejaVuSans-6f" transform="translate(69.482422 0.015625)"/>
     <use xlink:href="#DejaVuSans-62" transform="translate(130.664062 0.015625)"/>
     <use xlink:href="#DejaVuSans-6f" transform="translate(194.140625 0.015625)"/>
     <use xlink:href="#DejaVuSans-74" transform="translate(255.322266 0.015625)"/>
     <use xlink:href="#DejaVuSans-20" transform="translate(294.53125 0.015625)"/>
     <use xlink:href="#DejaVuSans-33" transform="translate(326.318359 0.015625)"/>
     <use xlink:href="#DejaVuSans-20" transform="translate(389.941406 0.015625)"/>
     <use xlink:href="#Cmmi10-78" transform="translate(421.728516 0.015625)"/>
    </g>
   </g>
  </g>
  <g id="axes_8">
   <g id="patch_37">
    <path d="M 203.4 306.42 
L 300 306.42 
L 300 236.818329 
L 203.4 236.818329 
z
" style="fill: #eeeeee"/>
   </g>
   <g id="matplotlib.axis_15">
    <g id="xtick_22">
     <g id="line2d_95">
      <path d="M 207.790909 306.42 
L 207.790909 236.818329 
" clip-path="url(#p1aabf59dec)" style="fill: none; stroke-dasharray: 1.85,0.8; stroke-dashoffset: 0; stroke: #b2b2b2; stroke-width: 0.5"/>
     </g>
     <g id="line2d_96">
      <g>
       <use xlink:href="#m559ee877e1" x="207.790909" y="306.42" style="stroke: #000000; stroke-width: 0.8"/>
      </g>
     </g>
     <g id="text_38">
      <!-- 0 -->
      <g transform="translate(204.609659 317.518438) scale(0.1 -0.1)">
       <use xlink:href="#DejaVuSans-30"/>
      </g>
     </g>
    </g>
    <g id="xtick_23">
     <g id="line2d_97">
      <path d="M 243.635065 306.42 
L 243.635065 236.818329 
" clip-path="url(#p1aabf59dec)" style="fill: none; stroke-dasharray: 1.85,0.8; stroke-dashoffset: 0; stroke: #b2b2b2; stroke-width: 0.5"/>
     </g>
     <g id="line2d_98">
      <g>
       <use xlink:href="#m559ee877e1" x="243.635065" y="306.42" style="stroke: #000000; stroke-width: 0.8"/>
      </g>
     </g>
     <g id="text_39">
      <!-- 20 -->
      <g transform="translate(237.272565 317.518438) scale(0.1 -0.1)">
       <use xlink:href="#DejaVuSans-32"/>
       <use xlink:href="#DejaVuSans-30" x="63.623047"/>
      </g>
     </g>
    </g>
    <g id="xtick_24">
     <g id="line2d_99">
      <path d="M 279.479221 306.42 
L 279.479221 236.818329 
" clip-path="url(#p1aabf59dec)" style="fill: none; stroke-dasharray: 1.85,0.8; stroke-dashoffset: 0; stroke: #b2b2b2; stroke-width: 0.5"/>
     </g>
     <g id="line2d_100">
      <g>
       <use xlink:href="#m559ee877e1" x="279.479221" y="306.42" style="stroke: #000000; stroke-width: 0.8"/>
      </g>
     </g>
     <g id="text_40">
      <!-- 40 -->
      <g transform="translate(273.116721 317.518438) scale(0.1 -0.1)">
       <use xlink:href="#DejaVuSans-34"/>
       <use xlink:href="#DejaVuSans-30" x="63.623047"/>
      </g>
     </g>
    </g>
    <g id="text_41">
     <!-- Iteration -->
     <g transform="translate(226.249688 332.71625) scale(0.12 -0.12)">
      <use xlink:href="#DejaVuSans-49"/>
      <use xlink:href="#DejaVuSans-74" x="29.492188"/>
      <use xlink:href="#DejaVuSans-65" x="68.701172"/>
      <use xlink:href="#DejaVuSans-72" x="130.224609"/>
      <use xlink:href="#DejaVuSans-61" x="171.337891"/>
      <use xlink:href="#DejaVuSans-74" x="232.617188"/>
      <use xlink:href="#DejaVuSans-69" x="271.826172"/>
      <use xlink:href="#DejaVuSans-6f" x="299.609375"/>
      <use xlink:href="#DejaVuSans-6e" x="360.791016"/>
     </g>
    </g>
   </g>
   <g id="matplotlib.axis_16">
    <g id="ytick_20">
     <g id="line2d_101">
      <path d="M 203.4 281.908645 
L 300 281.908645 
" clip-path="url(#p1aabf59dec)" style="fill: none; stroke-dasharray: 1.85,0.8; stroke-dashoffset: 0; stroke: #b2b2b2; stroke-width: 0.5"/>
     </g>
     <g id="line2d_102">
      <g>
       <use xlink:href="#m51445dc0f1" x="203.4" y="281.908645" style="stroke: #000000; stroke-width: 0.8"/>
      </g>
     </g>
     <g id="text_42">
      <!-- 0.0 -->
      <g transform="translate(183.996875 285.707864) scale(0.1 -0.1)">
       <use xlink:href="#DejaVuSans-30"/>
       <use xlink:href="#DejaVuSans-2e" x="63.623047"/>
       <use xlink:href="#DejaVuSans-30" x="95.410156"/>
      </g>
     </g>
    </g>
    <g id="ytick_21">
     <g id="line2d_103">
      <path d="M 203.4 252.167862 
L 300 252.167862 
" clip-path="url(#p1aabf59dec)" style="fill: none; stroke-dasharray: 1.85,0.8; stroke-dashoffset: 0; stroke: #b2b2b2; stroke-width: 0.5"/>
     </g>
     <g id="line2d_104">
      <g>
       <use xlink:href="#m51445dc0f1" x="203.4" y="252.167862" style="stroke: #000000; stroke-width: 0.8"/>
      </g>
     </g>
     <g id="text_43">
      <!-- 0.2 -->
      <g transform="translate(183.996875 255.967081) scale(0.1 -0.1)">
       <use xlink:href="#DejaVuSans-30"/>
       <use xlink:href="#DejaVuSans-2e" x="63.623047"/>
       <use xlink:href="#DejaVuSans-32" x="95.410156"/>
      </g>
     </g>
    </g>
    <g id="text_44">
     <!-- Position -->
     <g transform="translate(177.50125 294.976039) rotate(-90) scale(0.12 -0.12)">
      <use xlink:href="#DejaVuSans-50"/>
      <use xlink:href="#DejaVuSans-6f" x="56.677734"/>
      <use xlink:href="#DejaVuSans-73" x="117.859375"/>
      <use xlink:href="#DejaVuSans-69" x="169.958984"/>
      <use xlink:href="#DejaVuSans-74" x="197.742188"/>
      <use xlink:href="#DejaVuSans-69" x="236.951172"/>
      <use xlink:href="#DejaVuSans-6f" x="264.734375"/>
      <use xlink:href="#DejaVuSans-6e" x="325.916016"/>
     </g>
    </g>
   </g>
   <g id="line2d_105">
    <path d="M 207.790909 301.909921 
L 209.583117 298.477846 
L 211.375325 294.860923 
L 213.167532 291.183171 
L 214.95974 287.558828 
L 216.751948 283.888906 
L 218.544156 280.382351 
L 220.336364 277.084465 
L 222.128571 274.019507 
L 223.920779 271.195041 
L 225.712987 269.31937 
L 227.505195 267.598431 
L 229.297403 266.033437 
L 231.08961 264.620438 
L 232.881818 263.352109 
L 234.674026 260.517862 
L 236.466234 257.827187 
L 238.258442 255.29499 
L 240.050649 252.930106 
L 241.842857 250.736136 
L 243.635065 248.773548 
L 245.427273 247.134378 
L 247.219481 245.764893 
L 249.011688 244.575367 
L 250.803896 243.468416 
L 252.596104 242.02127 
L 254.388312 240.627173 
L 256.180519 239.982041 
L 257.972727 240.519494 
L 259.764935 242.294766 
L 261.557143 245.040944 
L 263.349351 247.673537 
L 265.141558 250.147892 
L 266.933766 252.43114 
L 268.725974 254.501073 
L 270.518182 255.870214 
L 272.31039 257.246218 
L 274.102597 258.59404 
L 275.894805 259.887041 
L 277.687013 261.108562 
L 279.479221 262.030144 
L 281.271429 262.990595 
L 283.063636 263.97457 
L 284.855844 264.969149 
L 286.648052 265.962769 
L 288.44026 267.553387 
L 290.232468 269.176245 
L 292.024675 270.774481 
L 293.816883 272.293177 
L 295.609091 273.682831 
" clip-path="url(#p1aabf59dec)" style="fill: none; stroke: #348abd; stroke-width: 4; stroke-linecap: square"/>
   </g>
   <g id="line2d_106">
    <path d="M 207.790909 303.256288 
L 209.583117 298.478993 
L 211.375325 295.049124 
L 213.167532 291.436219 
L 214.95974 287.774327 
L 216.751948 284.069371 
L 218.544156 280.523274 
L 220.336364 277.406733 
L 222.128571 274.321937 
L 223.920779 271.47125 
L 225.712987 269.609587 
L 227.505195 267.830906 
L 229.297403 266.14145 
L 231.08961 264.658818 
L 232.881818 263.365789 
L 234.674026 260.489773 
L 236.466234 257.80714 
L 238.258442 255.399556 
L 240.050649 253.029385 
L 241.842857 250.810611 
L 243.635065 248.680735 
L 245.427273 247.014165 
L 247.219481 245.542504 
L 249.011688 244.263634 
L 250.803896 243.315642 
L 252.596104 242.2883 
L 254.388312 240.752144 
L 256.180519 240.196815 
L 257.972727 241.310345 
L 259.764935 242.612978 
L 261.557143 244.95764 
L 263.349351 247.886627 
L 265.141558 250.525949 
L 266.933766 252.90747 
L 268.725974 255.10302 
L 270.518182 256.261457 
L 272.31039 257.484649 
L 274.102597 258.617274 
L 275.894805 259.847439 
L 277.687013 261.179184 
L 279.479221 262.28241 
L 281.271429 263.184752 
L 283.063636 264.026512 
L 284.855844 264.960453 
L 286.648052 265.888361 
L 288.44026 267.456465 
L 290.232468 269.087909 
L 292.024675 270.739857 
L 293.816883 272.318896 
L 295.609091 273.792356 
" clip-path="url(#p1aabf59dec)" style="fill: none; stroke-dasharray: 7.4,3.2; stroke-dashoffset: 0; stroke: #a60628; stroke-width: 2"/>
   </g>
   <g id="patch_38">
    <path d="M 203.4 306.42 
L 203.4 236.818329 
" style="fill: none; stroke: #bcbcbc; stroke-width: 0.8; stroke-linejoin: miter; stroke-linecap: square"/>
   </g>
   <g id="patch_39">
    <path d="M 300 306.42 
L 300 236.818329 
" style="fill: none; stroke: #bcbcbc; stroke-width: 0.8; stroke-linejoin: miter; stroke-linecap: square"/>
   </g>
   <g id="patch_40">
    <path d="M 203.4 306.42 
L 300 306.42 
" style="fill: none; stroke: #bcbcbc; stroke-width: 0.8; stroke-linejoin: miter; stroke-linecap: square"/>
   </g>
   <g id="patch_41">
    <path d="M 203.4 236.818329 
L 300 236.818329 
" style="fill: none; stroke: #bcbcbc; stroke-width: 0.8; stroke-linejoin: miter; stroke-linecap: square"/>
   </g>
   <g id="text_45">
    <!-- Robot 3 $y$ -->
    <g transform="translate(217.788 230.818329) scale(0.144 -0.144)">
     <use xlink:href="#DejaVuSans-52" transform="translate(0 0.015625)"/>
     <use xlink:href="#DejaVuSans-6f" transform="translate(69.482422 0.015625)"/>
     <use xlink:href="#DejaVuSans-62" transform="translate(130.664062 0.015625)"/>
     <use xlink:href="#DejaVuSans-6f" transform="translate(194.140625 0.015625)"/>
     <use xlink:href="#DejaVuSans-74" transform="translate(255.322266 0.015625)"/>
     <use xlink:href="#DejaVuSans-20" transform="translate(294.53125 0.015625)"/>
     <use xlink:href="#DejaVuSans-33" transform="translate(326.318359 0.015625)"/>
     <use xlink:href="#DejaVuSans-20" transform="translate(389.941406 0.015625)"/>
     <use xlink:href="#Cmmi10-79" transform="translate(421.728516 0.015625)"/>
    </g>
   </g>
  </g>
  <g id="axes_9">
   <g id="patch_42">
    <path d="M 353.4 306.42 
L 450 306.42 
L 450 236.818329 
L 353.4 236.818329 
z
" style="fill: #eeeeee"/>
   </g>
   <g id="matplotlib.axis_17">
    <g id="xtick_25">
     <g id="line2d_107">
      <path d="M 357.790909 306.42 
L 357.790909 236.818329 
" clip-path="url(#pfc86f392df)" style="fill: none; stroke-dasharray: 1.85,0.8; stroke-dashoffset: 0; stroke: #b2b2b2; stroke-width: 0.5"/>
     </g>
     <g id="line2d_108">
      <g>
       <use xlink:href="#m559ee877e1" x="357.790909" y="306.42" style="stroke: #000000; stroke-width: 0.8"/>
      </g>
     </g>
     <g id="text_46">
      <!-- 0 -->
      <g transform="translate(354.609659 317.518438) scale(0.1 -0.1)">
       <use xlink:href="#DejaVuSans-30"/>
      </g>
     </g>
    </g>
    <g id="xtick_26">
     <g id="line2d_109">
      <path d="M 393.635065 306.42 
L 393.635065 236.818329 
" clip-path="url(#pfc86f392df)" style="fill: none; stroke-dasharray: 1.85,0.8; stroke-dashoffset: 0; stroke: #b2b2b2; stroke-width: 0.5"/>
     </g>
     <g id="line2d_110">
      <g>
       <use xlink:href="#m559ee877e1" x="393.635065" y="306.42" style="stroke: #000000; stroke-width: 0.8"/>
      </g>
     </g>
     <g id="text_47">
      <!-- 20 -->
      <g transform="translate(387.272565 317.518438) scale(0.1 -0.1)">
       <use xlink:href="#DejaVuSans-32"/>
       <use xlink:href="#DejaVuSans-30" x="63.623047"/>
      </g>
     </g>
    </g>
    <g id="xtick_27">
     <g id="line2d_111">
      <path d="M 429.479221 306.42 
L 429.479221 236.818329 
" clip-path="url(#pfc86f392df)" style="fill: none; stroke-dasharray: 1.85,0.8; stroke-dashoffset: 0; stroke: #b2b2b2; stroke-width: 0.5"/>
     </g>
     <g id="line2d_112">
      <g>
       <use xlink:href="#m559ee877e1" x="429.479221" y="306.42" style="stroke: #000000; stroke-width: 0.8"/>
      </g>
     </g>
     <g id="text_48">
      <!-- 40 -->
      <g transform="translate(423.116721 317.518438) scale(0.1 -0.1)">
       <use xlink:href="#DejaVuSans-34"/>
       <use xlink:href="#DejaVuSans-30" x="63.623047"/>
      </g>
     </g>
    </g>
    <g id="text_49">
     <!-- Iteration -->
     <g transform="translate(376.249688 332.71625) scale(0.12 -0.12)">
      <use xlink:href="#DejaVuSans-49"/>
      <use xlink:href="#DejaVuSans-74" x="29.492188"/>
      <use xlink:href="#DejaVuSans-65" x="68.701172"/>
      <use xlink:href="#DejaVuSans-72" x="130.224609"/>
      <use xlink:href="#DejaVuSans-61" x="171.337891"/>
      <use xlink:href="#DejaVuSans-74" x="232.617188"/>
      <use xlink:href="#DejaVuSans-69" x="271.826172"/>
      <use xlink:href="#DejaVuSans-6f" x="299.609375"/>
      <use xlink:href="#DejaVuSans-6e" x="360.791016"/>
     </g>
    </g>
   </g>
   <g id="matplotlib.axis_18">
    <g id="ytick_22">
     <g id="line2d_113">
      <path d="M 353.4 305.214663 
L 450 305.214663 
" clip-path="url(#pfc86f392df)" style="fill: none; stroke-dasharray: 1.85,0.8; stroke-dashoffset: 0; stroke: #b2b2b2; stroke-width: 0.5"/>
     </g>
     <g id="line2d_114">
      <g>
       <use xlink:href="#m51445dc0f1" x="353.4" y="305.214663" style="stroke: #000000; stroke-width: 0.8"/>
      </g>
     </g>
     <g id="text_50">
      <!-- 0.0 -->
      <g transform="translate(333.996875 309.013882) scale(0.1 -0.1)">
       <use xlink:href="#DejaVuSans-30"/>
       <use xlink:href="#DejaVuSans-2e" x="63.623047"/>
       <use xlink:href="#DejaVuSans-30" x="95.410156"/>
      </g>
     </g>
    </g>
    <g id="ytick_23">
     <g id="line2d_115">
      <path d="M 353.4 277.761774 
L 450 277.761774 
" clip-path="url(#pfc86f392df)" style="fill: none; stroke-dasharray: 1.85,0.8; stroke-dashoffset: 0; stroke: #b2b2b2; stroke-width: 0.5"/>
     </g>
     <g id="line2d_116">
      <g>
       <use xlink:href="#m51445dc0f1" x="353.4" y="277.761774" style="stroke: #000000; stroke-width: 0.8"/>
      </g>
     </g>
     <g id="text_51">
      <!-- 2.5 -->
      <g transform="translate(333.996875 281.560992) scale(0.1 -0.1)">
       <use xlink:href="#DejaVuSans-32"/>
       <use xlink:href="#DejaVuSans-2e" x="63.623047"/>
       <use xlink:href="#DejaVuSans-35" x="95.410156"/>
      </g>
     </g>
    </g>
    <g id="ytick_24">
     <g id="line2d_117">
      <path d="M 353.4 250.308884 
L 450 250.308884 
" clip-path="url(#pfc86f392df)" style="fill: none; stroke-dasharray: 1.85,0.8; stroke-dashoffset: 0; stroke: #b2b2b2; stroke-width: 0.5"/>
     </g>
     <g id="line2d_118">
      <g>
       <use xlink:href="#m51445dc0f1" x="353.4" y="250.308884" style="stroke: #000000; stroke-width: 0.8"/>
      </g>
     </g>
     <g id="text_52">
      <!-- 5.0 -->
      <g transform="translate(333.996875 254.108103) scale(0.1 -0.1)">
       <use xlink:href="#DejaVuSans-35"/>
       <use xlink:href="#DejaVuSans-2e" x="63.623047"/>
       <use xlink:href="#DejaVuSans-30" x="95.410156"/>
      </g>
     </g>
    </g>
    <g id="text_53">
     <!-- Angle [rad] -->
     <g transform="translate(327.50125 305.235102) rotate(-90) scale(0.12 -0.12)">
      <use xlink:href="#DejaVuSans-41"/>
      <use xlink:href="#DejaVuSans-6e" x="68.408203"/>
      <use xlink:href="#DejaVuSans-67" x="131.787109"/>
      <use xlink:href="#DejaVuSans-6c" x="195.263672"/>
      <use xlink:href="#DejaVuSans-65" x="223.046875"/>
      <use xlink:href="#DejaVuSans-20" x="284.570312"/>
      <use xlink:href="#DejaVuSans-5b" x="316.357422"/>
      <use xlink:href="#DejaVuSans-72" x="355.371094"/>
      <use xlink:href="#DejaVuSans-61" x="396.484375"/>
      <use xlink:href="#DejaVuSans-64" x="457.763672"/>
      <use xlink:href="#DejaVuSans-5d" x="521.240234"/>
     </g>
    </g>
   </g>
   <g id="line2d_119">
    <path d="M 357.790909 291.305504 
L 359.583117 291.173164 
L 361.375325 291.040824 
L 363.167532 290.908484 
L 364.95974 290.776145 
L 366.751948 291.408051 
L 368.544156 292.039957 
L 370.336364 292.671863 
L 372.128571 293.303769 
L 373.920779 293.935675 
L 375.712987 293.64958 
L 377.505195 293.363484 
L 379.297403 293.077389 
L 381.08961 292.791293 
L 382.881818 292.505197 
L 384.674026 291.936565 
L 386.466234 291.367933 
L 388.258442 290.799301 
L 390.050649 290.230668 
L 391.842857 289.662036 
L 393.635065 288.503491 
L 395.427273 287.344946 
L 397.219481 286.186401 
L 399.011688 285.027857 
L 400.803896 283.869312 
L 402.596104 290.240883 
L 404.388312 296.612454 
L 406.180519 302.984026 
L 407.972727 240.358961 
L 409.764935 246.730532 
L 411.557143 245.925616 
L 413.349351 245.1207 
L 415.141558 244.315785 
L 416.933766 243.510869 
L 418.725974 242.705953 
L 420.518182 243.582076 
L 422.31039 244.458199 
L 424.102597 245.334321 
L 425.894805 246.210444 
L 427.687013 247.086567 
L 429.479221 248.634774 
L 431.271429 250.18298 
L 433.063636 251.731187 
L 434.855844 253.279393 
L 436.648052 254.8276 
L 438.44026 253.083229 
L 440.232468 251.338858 
L 442.024675 249.594486 
L 443.816883 247.850115 
L 445.609091 246.105744 
" clip-path="url(#pfc86f392df)" style="fill: none; stroke: #348abd; stroke-width: 4; stroke-linecap: square"/>
   </g>
   <g id="line2d_120">
    <path d="M 357.790909 239.982041 
L 359.583117 295.360947 
L 361.375325 303.256288 
L 363.167532 298.416563 
L 364.95974 297.472293 
L 366.751948 296.182117 
L 368.544156 295.805134 
L 370.336364 295.752315 
L 372.128571 295.661501 
L 373.920779 295.851255 
L 375.712987 297.367643 
L 377.505195 296.368577 
L 379.297403 296.080102 
L 381.08961 296.06407 
L 382.881818 295.898694 
L 384.674026 295.540049 
L 386.466234 295.231149 
L 388.258442 295.128915 
L 390.050649 294.654309 
L 391.842857 294.396362 
L 393.635065 295.252343 
L 395.427273 294.821442 
L 397.219481 293.231042 
L 399.011688 290.362654 
L 400.803896 287.364798 
L 402.596104 277.50987 
L 404.388312 276.516405 
L 406.180519 271.301564 
L 407.972727 255.767401 
L 409.764935 303.075926 
L 411.557143 241.924117 
L 413.349351 249.541086 
L 415.141558 252.165143 
L 416.933766 252.845755 
L 418.725974 253.343201 
L 420.518182 256.546734 
L 422.31039 260.032262 
L 424.102597 261.065589 
L 425.894805 258.331391 
L 427.687013 254.022605 
L 429.479221 251.791125 
L 431.271429 249.950683 
L 433.063636 249.22988 
L 434.855844 250.479975 
L 436.648052 251.655507 
L 438.44026 253.362967 
L 440.232468 253.634421 
L 442.024675 253.094807 
L 443.816883 252.449555 
L 445.609091 251.053191 
" clip-path="url(#pfc86f392df)" style="fill: none; stroke-dasharray: 7.4,3.2; stroke-dashoffset: 0; stroke: #a60628; stroke-width: 2"/>
   </g>
   <g id="patch_43">
    <path d="M 353.4 306.42 
L 353.4 236.818329 
" style="fill: none; stroke: #bcbcbc; stroke-width: 0.8; stroke-linejoin: miter; stroke-linecap: square"/>
   </g>
   <g id="patch_44">
    <path d="M 450 306.42 
L 450 236.818329 
" style="fill: none; stroke: #bcbcbc; stroke-width: 0.8; stroke-linejoin: miter; stroke-linecap: square"/>
   </g>
   <g id="patch_45">
    <path d="M 353.4 306.42 
L 450 306.42 
" style="fill: none; stroke: #bcbcbc; stroke-width: 0.8; stroke-linejoin: miter; stroke-linecap: square"/>
   </g>
   <g id="patch_46">
    <path d="M 353.4 236.818329 
L 450 236.818329 
" style="fill: none; stroke: #bcbcbc; stroke-width: 0.8; stroke-linejoin: miter; stroke-linecap: square"/>
   </g>
   <g id="text_54">
    <!-- Robot 3 $\theta$ -->
    <g transform="translate(367.932 230.818329) scale(0.144 -0.144)">
     <use xlink:href="#DejaVuSans-52" transform="translate(0 0.015625)"/>
     <use xlink:href="#DejaVuSans-6f" transform="translate(69.482422 0.015625)"/>
     <use xlink:href="#DejaVuSans-62" transform="translate(130.664062 0.015625)"/>
     <use xlink:href="#DejaVuSans-6f" transform="translate(194.140625 0.015625)"/>
     <use xlink:href="#DejaVuSans-74" transform="translate(255.322266 0.015625)"/>
     <use xlink:href="#DejaVuSans-20" transform="translate(294.53125 0.015625)"/>
     <use xlink:href="#DejaVuSans-33" transform="translate(326.318359 0.015625)"/>
     <use xlink:href="#DejaVuSans-20" transform="translate(389.941406 0.015625)"/>
     <use xlink:href="#Cmmi10-b5" transform="translate(421.728516 0.015625)"/>
    </g>
   </g>
  </g>
 </g>
 <defs>
  <clipPath id="pba9decf981">
   <rect x="53.4" y="29.04" width="96.6" height="69.601671"/>
  </clipPath>
  <clipPath id="p35bd9c006f">
   <rect x="203.4" y="29.04" width="96.6" height="69.601671"/>
  </clipPath>
  <clipPath id="pa17094b028">
   <rect x="353.4" y="29.04" width="96.6" height="69.601671"/>
  </clipPath>
  <clipPath id="p7a64cd4ebf">
   <rect x="53.4" y="132.929164" width="96.6" height="69.601671"/>
  </clipPath>
  <clipPath id="pea3073d9e0">
   <rect x="203.4" y="132.929164" width="96.6" height="69.601671"/>
  </clipPath>
  <clipPath id="p4790a8446c">
   <rect x="353.4" y="132.929164" width="96.6" height="69.601671"/>
  </clipPath>
  <clipPath id="p5f78b6bab0">
   <rect x="53.4" y="236.818329" width="96.6" height="69.601671"/>
  </clipPath>
  <clipPath id="p1aabf59dec">
   <rect x="203.4" y="236.818329" width="96.6" height="69.601671"/>
  </clipPath>
  <clipPath id="pfc86f392df">
   <rect x="353.4" y="236.818329" width="96.6" height="69.601671"/>
  </clipPath>
 </defs>
</svg>
