<?xml version="1.0" encoding="utf-8" standalone="no"?>
<!DOCTYPE svg PUBLIC "-//W3C//DTD SVG 1.1//EN"
  "http://www.w3.org/Graphics/SVG/1.1/DTD/svg11.dtd">
<svg xmlns:xlink="http://www.w3.org/1999/xlink" width="460.8pt" height="345.6pt" viewBox="0 0 460.8 345.6" xmlns="http://www.w3.org/2000/svg" version="1.1">
 <metadata>
  <rdf:RDF xmlns:dc="http://purl.org/dc/elements/1.1/" xmlns:cc="http://creativecommons.org/ns#" xmlns:rdf="http://www.w3.org/1999/02/22-rdf-syntax-ns#">
   <cc:Work>
    <dc:type rdf:resource="http://purl.org/dc/dcmitype/StillImage"/>
    <dc:date>2024-06-07T19:21:03.086907</dc:date>
    <dc:format>image/svg+xml</dc:format>
    <dc:creator>
     <cc:Agent>
      <dc:title>Matplotlib v3.8.4, https://matplotlib.org/</dc:title>
     </cc:Agent>
    </dc:creator>
   </cc:Work>
  </rdf:RDF>
 </metadata>
 <defs>
  <style type="text/css">*{stroke-linejoin: round; stroke-linecap: butt}</style>
 </defs>
 <g id="figure_1">
  <g id="patch_1">
   <path d="M 0 345.6 
L 460.8 345.6 
L 460.8 0 
L 0 0 
z
" style="fill: #ffffff"/>
  </g>
  <g id="axes_1">
   <g id="patch_2">
    <path d="M 59.79 100.77148 
L 145.74 100.77148 
L 145.74 29.04 
L 59.79 29.04 
z
" style="fill: #eeeeee"/>
   </g>
   <g id="matplotlib.axis_1">
    <g id="xtick_1">
     <g id="line2d_1">
      <path d="M 63.696818 100.77148 
L 63.696818 29.04 
" clip-path="url(#p9e460f0bb9)" style="fill: none; stroke-dasharray: 1.85,0.8; stroke-dashoffset: 0; stroke: #b2b2b2; stroke-width: 0.5"/>
     </g>
     <g id="line2d_2">
      <defs>
       <path id="mbfcee3609f" d="M 0 0 
L 0 -3.5 
" style="stroke: #000000; stroke-width: 0.8"/>
      </defs>
      <g>
       <use xlink:href="#mbfcee3609f" x="63.696818" y="100.77148" style="stroke: #000000; stroke-width: 0.8"/>
      </g>
     </g>
    </g>
    <g id="xtick_2">
     <g id="line2d_3">
      <path d="M 143.427801 100.77148 
L 143.427801 29.04 
" clip-path="url(#p9e460f0bb9)" style="fill: none; stroke-dasharray: 1.85,0.8; stroke-dashoffset: 0; stroke: #b2b2b2; stroke-width: 0.5"/>
     </g>
     <g id="line2d_4">
      <g>
       <use xlink:href="#mbfcee3609f" x="143.427801" y="100.77148" style="stroke: #000000; stroke-width: 0.8"/>
      </g>
     </g>
    </g>
   </g>
   <g id="matplotlib.axis_2">
    <g id="ytick_1">
     <g id="line2d_5">
      <path d="M 59.79 73.524951 
L 145.74 73.524951 
" clip-path="url(#p9e460f0bb9)" style="fill: none; stroke-dasharray: 1.85,0.8; stroke-dashoffset: 0; stroke: #b2b2b2; stroke-width: 0.5"/>
     </g>
     <g id="line2d_6">
      <defs>
       <path id="mf8234cb66f" d="M 0 0 
L 3.5 0 
" style="stroke: #000000; stroke-width: 0.8"/>
      </defs>
      <g>
       <use xlink:href="#mf8234cb66f" x="59.79" y="73.524951" style="stroke: #000000; stroke-width: 0.8"/>
      </g>
     </g>
     <g id="text_1">
      <!-- −0.5 -->
      <g transform="translate(32.007188 77.324169) scale(0.1 -0.1)">
       <defs>
        <path id="DejaVuSans-2212" d="M 678 2272 
L 4684 2272 
L 4684 1741 
L 678 1741 
L 678 2272 
z
" transform="scale(0.015625)"/>
        <path id="DejaVuSans-30" d="M 2034 4250 
Q 1547 4250 1301 3770 
Q 1056 3291 1056 2328 
Q 1056 1369 1301 889 
Q 1547 409 2034 409 
Q 2525 409 2770 889 
Q 3016 1369 3016 2328 
Q 3016 3291 2770 3770 
Q 2525 4250 2034 4250 
z
M 2034 4750 
Q 2819 4750 3233 4129 
Q 3647 3509 3647 2328 
Q 3647 1150 3233 529 
Q 2819 -91 2034 -91 
Q 1250 -91 836 529 
Q 422 1150 422 2328 
Q 422 3509 836 4129 
Q 1250 4750 2034 4750 
z
" transform="scale(0.015625)"/>
        <path id="DejaVuSans-2e" d="M 684 794 
L 1344 794 
L 1344 0 
L 684 0 
L 684 794 
z
" transform="scale(0.015625)"/>
        <path id="DejaVuSans-35" d="M 691 4666 
L 3169 4666 
L 3169 4134 
L 1269 4134 
L 1269 2991 
Q 1406 3038 1543 3061 
Q 1681 3084 1819 3084 
Q 2600 3084 3056 2656 
Q 3513 2228 3513 1497 
Q 3513 744 3044 326 
Q 2575 -91 1722 -91 
Q 1428 -91 1123 -41 
Q 819 9 494 109 
L 494 744 
Q 775 591 1075 516 
Q 1375 441 1709 441 
Q 2250 441 2565 725 
Q 2881 1009 2881 1497 
Q 2881 1984 2565 2268 
Q 2250 2553 1709 2553 
Q 1456 2553 1204 2497 
Q 953 2441 691 2322 
L 691 4666 
z
" transform="scale(0.015625)"/>
       </defs>
       <use xlink:href="#DejaVuSans-2212"/>
       <use xlink:href="#DejaVuSans-30" x="83.789062"/>
       <use xlink:href="#DejaVuSans-2e" x="147.412109"/>
       <use xlink:href="#DejaVuSans-35" x="179.199219"/>
      </g>
     </g>
    </g>
    <g id="ytick_2">
     <g id="line2d_7">
      <path d="M 59.79 32.354476 
L 145.74 32.354476 
" clip-path="url(#p9e460f0bb9)" style="fill: none; stroke-dasharray: 1.85,0.8; stroke-dashoffset: 0; stroke: #b2b2b2; stroke-width: 0.5"/>
     </g>
     <g id="line2d_8">
      <g>
       <use xlink:href="#mf8234cb66f" x="59.79" y="32.354476" style="stroke: #000000; stroke-width: 0.8"/>
      </g>
     </g>
     <g id="text_2">
      <!-- −0.4 -->
      <g transform="translate(32.007188 36.153694) scale(0.1 -0.1)">
       <defs>
        <path id="DejaVuSans-34" d="M 2419 4116 
L 825 1625 
L 2419 1625 
L 2419 4116 
z
M 2253 4666 
L 3047 4666 
L 3047 1625 
L 3713 1625 
L 3713 1100 
L 3047 1100 
L 3047 0 
L 2419 0 
L 2419 1100 
L 313 1100 
L 313 1709 
L 2253 4666 
z
" transform="scale(0.015625)"/>
       </defs>
       <use xlink:href="#DejaVuSans-2212"/>
       <use xlink:href="#DejaVuSans-30" x="83.789062"/>
       <use xlink:href="#DejaVuSans-2e" x="147.412109"/>
       <use xlink:href="#DejaVuSans-34" x="179.199219"/>
      </g>
     </g>
    </g>
    <g id="text_3">
     <!-- Position -->
     <g transform="translate(25.511562 88.262615) rotate(-90) scale(0.12 -0.12)">
      <defs>
       <path id="DejaVuSans-50" d="M 1259 4147 
L 1259 2394 
L 2053 2394 
Q 2494 2394 2734 2622 
Q 2975 2850 2975 3272 
Q 2975 3691 2734 3919 
Q 2494 4147 2053 4147 
L 1259 4147 
z
M 628 4666 
L 2053 4666 
Q 2838 4666 3239 4311 
Q 3641 3956 3641 3272 
Q 3641 2581 3239 2228 
Q 2838 1875 2053 1875 
L 1259 1875 
L 1259 0 
L 628 0 
L 628 4666 
z
" transform="scale(0.015625)"/>
       <path id="DejaVuSans-6f" d="M 1959 3097 
Q 1497 3097 1228 2736 
Q 959 2375 959 1747 
Q 959 1119 1226 758 
Q 1494 397 1959 397 
Q 2419 397 2687 759 
Q 2956 1122 2956 1747 
Q 2956 2369 2687 2733 
Q 2419 3097 1959 3097 
z
M 1959 3584 
Q 2709 3584 3137 3096 
Q 3566 2609 3566 1747 
Q 3566 888 3137 398 
Q 2709 -91 1959 -91 
Q 1206 -91 779 398 
Q 353 888 353 1747 
Q 353 2609 779 3096 
Q 1206 3584 1959 3584 
z
" transform="scale(0.015625)"/>
       <path id="DejaVuSans-73" d="M 2834 3397 
L 2834 2853 
Q 2591 2978 2328 3040 
Q 2066 3103 1784 3103 
Q 1356 3103 1142 2972 
Q 928 2841 928 2578 
Q 928 2378 1081 2264 
Q 1234 2150 1697 2047 
L 1894 2003 
Q 2506 1872 2764 1633 
Q 3022 1394 3022 966 
Q 3022 478 2636 193 
Q 2250 -91 1575 -91 
Q 1294 -91 989 -36 
Q 684 19 347 128 
L 347 722 
Q 666 556 975 473 
Q 1284 391 1588 391 
Q 1994 391 2212 530 
Q 2431 669 2431 922 
Q 2431 1156 2273 1281 
Q 2116 1406 1581 1522 
L 1381 1569 
Q 847 1681 609 1914 
Q 372 2147 372 2553 
Q 372 3047 722 3315 
Q 1072 3584 1716 3584 
Q 2034 3584 2315 3537 
Q 2597 3491 2834 3397 
z
" transform="scale(0.015625)"/>
       <path id="DejaVuSans-69" d="M 603 3500 
L 1178 3500 
L 1178 0 
L 603 0 
L 603 3500 
z
M 603 4863 
L 1178 4863 
L 1178 4134 
L 603 4134 
L 603 4863 
z
" transform="scale(0.015625)"/>
       <path id="DejaVuSans-74" d="M 1172 4494 
L 1172 3500 
L 2356 3500 
L 2356 3053 
L 1172 3053 
L 1172 1153 
Q 1172 725 1289 603 
Q 1406 481 1766 481 
L 2356 481 
L 2356 0 
L 1766 0 
Q 1100 0 847 248 
Q 594 497 594 1153 
L 594 3053 
L 172 3053 
L 172 3500 
L 594 3500 
L 594 4494 
L 1172 4494 
z
" transform="scale(0.015625)"/>
       <path id="DejaVuSans-6e" d="M 3513 2113 
L 3513 0 
L 2938 0 
L 2938 2094 
Q 2938 2591 2744 2837 
Q 2550 3084 2163 3084 
Q 1697 3084 1428 2787 
Q 1159 2491 1159 1978 
L 1159 0 
L 581 0 
L 581 3500 
L 1159 3500 
L 1159 2956 
Q 1366 3272 1645 3428 
Q 1925 3584 2291 3584 
Q 2894 3584 3203 3211 
Q 3513 2838 3513 2113 
z
" transform="scale(0.015625)"/>
      </defs>
      <use xlink:href="#DejaVuSans-50"/>
      <use xlink:href="#DejaVuSans-6f" x="56.677734"/>
      <use xlink:href="#DejaVuSans-73" x="117.859375"/>
      <use xlink:href="#DejaVuSans-69" x="169.958984"/>
      <use xlink:href="#DejaVuSans-74" x="197.742188"/>
      <use xlink:href="#DejaVuSans-69" x="236.951172"/>
      <use xlink:href="#DejaVuSans-6f" x="264.734375"/>
      <use xlink:href="#DejaVuSans-6e" x="325.916016"/>
     </g>
    </g>
   </g>
   <g id="line2d_9">
    <path d="M 63.696818 35.992177 
L 65.291438 45.697686 
L 66.886058 53.945704 
L 68.480677 60.565004 
L 70.075297 65.505504 
L 71.669917 70.314433 
L 73.264536 75.906648 
L 74.859156 82.133707 
L 76.453776 88.796597 
L 78.048395 95.721834 
L 79.643015 97.34766 
L 81.237635 97.014302 
L 82.832254 94.98004 
L 84.426874 91.594587 
L 86.021494 87.226125 
L 87.616113 84.092614 
L 89.210733 81.501457 
L 90.805353 79.462354 
L 92.399972 77.793941 
L 93.994592 76.222111 
L 95.589212 73.582491 
L 97.183831 70.961833 
L 98.778451 68.472932 
L 100.373071 66.13571 
L 101.96769 63.895333 
L 103.56231 60.850112 
L 105.156929 58.283084 
L 106.751549 56.157784 
L 108.346169 54.343818 
L 109.940788 52.686774 
L 111.535408 52.035547 
L 113.130028 51.489977 
L 114.724647 51.138698 
L 116.319267 51.059853 
L 117.913887 51.3155 
L 119.508506 51.142224 
L 121.103126 50.955904 
L 122.697746 50.9429 
L 124.292365 51.220946 
L 125.886985 51.831224 
L 127.481605 52.890507 
L 129.076224 53.204308 
L 130.670844 52.758091 
L 132.265464 51.569708 
L 133.860083 49.683083 
L 135.454703 47.092042 
L 137.049323 44.950135 
L 138.643942 43.375841 
L 140.238562 42.433454 
L 141.833182 42.130462 
" clip-path="url(#p9e460f0bb9)" style="fill: none; stroke: #348abd; stroke-width: 4; stroke-linecap: square"/>
   </g>
   <g id="line2d_10">
    <path d="M 63.696818 32.300522 
L 65.291438 44.14573 
L 66.886058 54.734116 
L 68.480677 60.315915 
L 70.075297 63.784913 
L 71.669917 69.944479 
L 73.264536 75.902627 
L 74.859156 81.854509 
L 76.453776 89.167794 
L 78.048395 96.383365 
L 79.643015 97.510958 
L 81.237635 96.706595 
L 82.832254 94.617802 
L 84.426874 91.188828 
L 86.021494 86.505882 
L 87.616113 83.328315 
L 89.210733 81.134714 
L 90.805353 79.21246 
L 92.399972 77.675012 
L 93.994592 76.335516 
L 95.589212 73.32187 
L 97.183831 70.641258 
L 98.778451 68.24331 
L 100.373071 66.194198 
L 101.96769 64.371672 
L 103.56231 61.101371 
L 105.156929 58.509903 
L 106.751549 56.033588 
L 108.346169 54.741037 
L 109.940788 52.698892 
L 111.535408 51.71629 
L 113.130028 51.937274 
L 114.724647 51.864329 
L 116.319267 50.646826 
L 117.913887 51.278398 
L 119.508506 50.874322 
L 121.103126 51.380721 
L 122.697746 51.20945 
L 124.292365 51.268005 
L 125.886985 51.784897 
L 127.481605 52.569492 
L 129.076224 53.04987 
L 130.670844 52.517654 
L 132.265464 51.347998 
L 133.860083 49.31571 
L 135.454703 46.775183 
L 137.049323 45.015026 
L 138.643942 43.439667 
L 140.238562 42.425675 
L 141.833182 42.13741 
" clip-path="url(#p9e460f0bb9)" style="fill: none; stroke-dasharray: 7.4,3.2; stroke-dashoffset: 0; stroke: #a60628; stroke-width: 2"/>
   </g>
   <g id="patch_3">
    <path d="M 59.79 100.77148 
L 59.79 29.04 
" style="fill: none; stroke: #bcbcbc; stroke-width: 0.8; stroke-linejoin: miter; stroke-linecap: square"/>
   </g>
   <g id="patch_4">
    <path d="M 145.74 100.77148 
L 145.74 29.04 
" style="fill: none; stroke: #bcbcbc; stroke-width: 0.8; stroke-linejoin: miter; stroke-linecap: square"/>
   </g>
   <g id="patch_5">
    <path d="M 59.79 100.77148 
L 145.74 100.77148 
" style="fill: none; stroke: #bcbcbc; stroke-width: 0.8; stroke-linejoin: miter; stroke-linecap: square"/>
   </g>
   <g id="patch_6">
    <path d="M 59.79 29.04 
L 145.74 29.04 
" style="fill: none; stroke: #bcbcbc; stroke-width: 0.8; stroke-linejoin: miter; stroke-linecap: square"/>
   </g>
   <g id="text_4">
    <!-- Robot 1 $x$ -->
    <g transform="translate(68.277 23.04) scale(0.144 -0.144)">
     <defs>
      <path id="DejaVuSans-52" d="M 2841 2188 
Q 3044 2119 3236 1894 
Q 3428 1669 3622 1275 
L 4263 0 
L 3584 0 
L 2988 1197 
Q 2756 1666 2539 1819 
Q 2322 1972 1947 1972 
L 1259 1972 
L 1259 0 
L 628 0 
L 628 4666 
L 2053 4666 
Q 2853 4666 3247 4331 
Q 3641 3997 3641 3322 
Q 3641 2881 3436 2590 
Q 3231 2300 2841 2188 
z
M 1259 4147 
L 1259 2491 
L 2053 2491 
Q 2509 2491 2742 2702 
Q 2975 2913 2975 3322 
Q 2975 3731 2742 3939 
Q 2509 4147 2053 4147 
L 1259 4147 
z
" transform="scale(0.015625)"/>
      <path id="DejaVuSans-62" d="M 3116 1747 
Q 3116 2381 2855 2742 
Q 2594 3103 2138 3103 
Q 1681 3103 1420 2742 
Q 1159 2381 1159 1747 
Q 1159 1113 1420 752 
Q 1681 391 2138 391 
Q 2594 391 2855 752 
Q 3116 1113 3116 1747 
z
M 1159 2969 
Q 1341 3281 1617 3432 
Q 1894 3584 2278 3584 
Q 2916 3584 3314 3078 
Q 3713 2572 3713 1747 
Q 3713 922 3314 415 
Q 2916 -91 2278 -91 
Q 1894 -91 1617 61 
Q 1341 213 1159 525 
L 1159 0 
L 581 0 
L 581 4863 
L 1159 4863 
L 1159 2969 
z
" transform="scale(0.015625)"/>
      <path id="DejaVuSans-20" transform="scale(0.015625)"/>
      <path id="DejaVuSans-31" d="M 794 531 
L 1825 531 
L 1825 4091 
L 703 3866 
L 703 4441 
L 1819 4666 
L 2450 4666 
L 2450 531 
L 3481 531 
L 3481 0 
L 794 0 
L 794 531 
z
" transform="scale(0.015625)"/>
      <path id="Cmmi10-78" d="M 500 184 
Q 613 97 819 97 
Q 1019 97 1172 289 
Q 1325 481 1381 709 
L 1672 1844 
Q 1741 2153 1741 2266 
Q 1741 2425 1652 2544 
Q 1563 2663 1403 2663 
Q 1200 2663 1022 2536 
Q 844 2409 722 2214 
Q 600 2019 550 1819 
Q 538 1778 500 1778 
L 422 1778 
Q 372 1778 372 1838 
L 372 1856 
Q 434 2094 584 2320 
Q 734 2547 951 2687 
Q 1169 2828 1416 2828 
Q 1650 2828 1839 2703 
Q 2028 2578 2106 2363 
Q 2216 2559 2386 2693 
Q 2556 2828 2759 2828 
Q 2897 2828 3040 2779 
Q 3184 2731 3275 2631 
Q 3366 2531 3366 2381 
Q 3366 2219 3261 2101 
Q 3156 1984 2994 1984 
Q 2891 1984 2822 2050 
Q 2753 2116 2753 2216 
Q 2753 2350 2845 2451 
Q 2938 2553 3066 2572 
Q 2950 2663 2747 2663 
Q 2541 2663 2389 2472 
Q 2238 2281 2175 2047 
L 1894 916 
Q 1825 659 1825 494 
Q 1825 331 1917 214 
Q 2009 97 2163 97 
Q 2463 97 2698 361 
Q 2934 625 3009 941 
Q 3022 978 3059 978 
L 3138 978 
Q 3163 978 3178 961 
Q 3194 944 3194 922 
Q 3194 916 3188 903 
Q 3097 522 2806 225 
Q 2516 -72 2150 -72 
Q 1916 -72 1727 54 
Q 1538 181 1459 397 
Q 1359 209 1182 68 
Q 1006 -72 806 -72 
Q 669 -72 523 -23 
Q 378 25 287 125 
Q 197 225 197 378 
Q 197 528 301 651 
Q 406 775 563 775 
Q 669 775 741 711 
Q 813 647 813 544 
Q 813 409 723 309 
Q 634 209 500 184 
z
" transform="scale(0.015625)"/>
     </defs>
     <use xlink:href="#DejaVuSans-52" transform="translate(0 0.015625)"/>
     <use xlink:href="#DejaVuSans-6f" transform="translate(69.482422 0.015625)"/>
     <use xlink:href="#DejaVuSans-62" transform="translate(130.664062 0.015625)"/>
     <use xlink:href="#DejaVuSans-6f" transform="translate(194.140625 0.015625)"/>
     <use xlink:href="#DejaVuSans-74" transform="translate(255.322266 0.015625)"/>
     <use xlink:href="#DejaVuSans-20" transform="translate(294.53125 0.015625)"/>
     <use xlink:href="#DejaVuSans-31" transform="translate(326.318359 0.015625)"/>
     <use xlink:href="#DejaVuSans-20" transform="translate(389.941406 0.015625)"/>
     <use xlink:href="#Cmmi10-78" transform="translate(421.728516 0.015625)"/>
    </g>
   </g>
  </g>
  <g id="axes_2">
   <g id="patch_7">
    <path d="M 211.92 100.77148 
L 297.87 100.77148 
L 297.87 29.04 
L 211.92 29.04 
z
" style="fill: #eeeeee"/>
   </g>
   <g id="matplotlib.axis_3">
    <g id="xtick_3">
     <g id="line2d_11">
      <path d="M 215.826818 100.77148 
L 215.826818 29.04 
" clip-path="url(#p0ac4cc4f9d)" style="fill: none; stroke-dasharray: 1.85,0.8; stroke-dashoffset: 0; stroke: #b2b2b2; stroke-width: 0.5"/>
     </g>
     <g id="line2d_12">
      <g>
       <use xlink:href="#mbfcee3609f" x="215.826818" y="100.77148" style="stroke: #000000; stroke-width: 0.8"/>
      </g>
     </g>
    </g>
    <g id="xtick_4">
     <g id="line2d_13">
      <path d="M 295.557801 100.77148 
L 295.557801 29.04 
" clip-path="url(#p0ac4cc4f9d)" style="fill: none; stroke-dasharray: 1.85,0.8; stroke-dashoffset: 0; stroke: #b2b2b2; stroke-width: 0.5"/>
     </g>
     <g id="line2d_14">
      <g>
       <use xlink:href="#mbfcee3609f" x="295.557801" y="100.77148" style="stroke: #000000; stroke-width: 0.8"/>
      </g>
     </g>
    </g>
   </g>
   <g id="matplotlib.axis_4">
    <g id="ytick_3">
     <g id="line2d_15">
      <path d="M 211.92 97.043944 
L 297.87 97.043944 
" clip-path="url(#p0ac4cc4f9d)" style="fill: none; stroke-dasharray: 1.85,0.8; stroke-dashoffset: 0; stroke: #b2b2b2; stroke-width: 0.5"/>
     </g>
     <g id="line2d_16">
      <g>
       <use xlink:href="#mf8234cb66f" x="211.92" y="97.043944" style="stroke: #000000; stroke-width: 0.8"/>
      </g>
     </g>
     <g id="text_5">
      <!-- −0.200 -->
      <g transform="translate(171.412188 100.843162) scale(0.1 -0.1)">
       <defs>
        <path id="DejaVuSans-32" d="M 1228 531 
L 3431 531 
L 3431 0 
L 469 0 
L 469 531 
Q 828 903 1448 1529 
Q 2069 2156 2228 2338 
Q 2531 2678 2651 2914 
Q 2772 3150 2772 3378 
Q 2772 3750 2511 3984 
Q 2250 4219 1831 4219 
Q 1534 4219 1204 4116 
Q 875 4013 500 3803 
L 500 4441 
Q 881 4594 1212 4672 
Q 1544 4750 1819 4750 
Q 2544 4750 2975 4387 
Q 3406 4025 3406 3419 
Q 3406 3131 3298 2873 
Q 3191 2616 2906 2266 
Q 2828 2175 2409 1742 
Q 1991 1309 1228 531 
z
" transform="scale(0.015625)"/>
       </defs>
       <use xlink:href="#DejaVuSans-2212"/>
       <use xlink:href="#DejaVuSans-30" x="83.789062"/>
       <use xlink:href="#DejaVuSans-2e" x="147.412109"/>
       <use xlink:href="#DejaVuSans-32" x="179.199219"/>
       <use xlink:href="#DejaVuSans-30" x="242.822266"/>
       <use xlink:href="#DejaVuSans-30" x="306.445312"/>
      </g>
     </g>
    </g>
    <g id="ytick_4">
     <g id="line2d_17">
      <path d="M 211.92 72.390827 
L 297.87 72.390827 
" clip-path="url(#p0ac4cc4f9d)" style="fill: none; stroke-dasharray: 1.85,0.8; stroke-dashoffset: 0; stroke: #b2b2b2; stroke-width: 0.5"/>
     </g>
     <g id="line2d_18">
      <g>
       <use xlink:href="#mf8234cb66f" x="211.92" y="72.390827" style="stroke: #000000; stroke-width: 0.8"/>
      </g>
     </g>
     <g id="text_6">
      <!-- −0.175 -->
      <g transform="translate(171.412188 76.190046) scale(0.1 -0.1)">
       <defs>
        <path id="DejaVuSans-37" d="M 525 4666 
L 3525 4666 
L 3525 4397 
L 1831 0 
L 1172 0 
L 2766 4134 
L 525 4134 
L 525 4666 
z
" transform="scale(0.015625)"/>
       </defs>
       <use xlink:href="#DejaVuSans-2212"/>
       <use xlink:href="#DejaVuSans-30" x="83.789062"/>
       <use xlink:href="#DejaVuSans-2e" x="147.412109"/>
       <use xlink:href="#DejaVuSans-31" x="179.199219"/>
       <use xlink:href="#DejaVuSans-37" x="242.822266"/>
       <use xlink:href="#DejaVuSans-35" x="306.445312"/>
      </g>
     </g>
    </g>
    <g id="ytick_5">
     <g id="line2d_19">
      <path d="M 211.92 47.737711 
L 297.87 47.737711 
" clip-path="url(#p0ac4cc4f9d)" style="fill: none; stroke-dasharray: 1.85,0.8; stroke-dashoffset: 0; stroke: #b2b2b2; stroke-width: 0.5"/>
     </g>
     <g id="line2d_20">
      <g>
       <use xlink:href="#mf8234cb66f" x="211.92" y="47.737711" style="stroke: #000000; stroke-width: 0.8"/>
      </g>
     </g>
     <g id="text_7">
      <!-- −0.150 -->
      <g transform="translate(171.412188 51.536929) scale(0.1 -0.1)">
       <use xlink:href="#DejaVuSans-2212"/>
       <use xlink:href="#DejaVuSans-30" x="83.789062"/>
       <use xlink:href="#DejaVuSans-2e" x="147.412109"/>
       <use xlink:href="#DejaVuSans-31" x="179.199219"/>
       <use xlink:href="#DejaVuSans-35" x="242.822266"/>
       <use xlink:href="#DejaVuSans-30" x="306.445312"/>
      </g>
     </g>
    </g>
    <g id="text_8">
     <!-- Position -->
     <g transform="translate(164.916563 88.262615) rotate(-90) scale(0.12 -0.12)">
      <use xlink:href="#DejaVuSans-50"/>
      <use xlink:href="#DejaVuSans-6f" x="56.677734"/>
      <use xlink:href="#DejaVuSans-73" x="117.859375"/>
      <use xlink:href="#DejaVuSans-69" x="169.958984"/>
      <use xlink:href="#DejaVuSans-74" x="197.742188"/>
      <use xlink:href="#DejaVuSans-69" x="236.951172"/>
      <use xlink:href="#DejaVuSans-6f" x="264.734375"/>
      <use xlink:href="#DejaVuSans-6e" x="325.916016"/>
     </g>
    </g>
   </g>
   <g id="line2d_21">
    <path d="M 215.826818 41.125093 
L 217.421438 38.489287 
L 219.016058 39.163876 
L 220.610677 43.067722 
L 222.205297 49.929544 
L 223.799917 60.013417 
L 225.394536 66.147341 
L 226.989156 68.780152 
L 228.583776 68.411549 
L 230.178395 65.494608 
L 231.773015 63.817738 
L 233.367635 63.795237 
L 234.962254 65.506541 
L 236.556874 68.892391 
L 238.151494 73.775867 
L 239.746113 87.775542 
L 241.340733 94.565161 
L 242.935353 94.310313 
L 244.529972 87.822606 
L 246.124592 76.339094 
L 247.719212 66.11021 
L 249.313831 58.994934 
L 250.908451 54.983004 
L 252.503071 53.694494 
L 254.09769 54.517787 
L 255.69231 53.675754 
L 257.286929 52.411825 
L 258.881549 50.744398 
L 260.476169 48.95054 
L 262.070788 47.496256 
L 263.665408 52.40849 
L 265.260028 56.003757 
L 266.854647 58.371082 
L 268.449267 59.606947 
L 270.043887 59.797713 
L 271.638506 58.898385 
L 273.233126 57.369688 
L 274.827746 55.457845 
L 276.422365 53.374173 
L 278.016985 51.28592 
L 279.611605 48.712413 
L 281.206224 47.913909 
L 282.800844 48.657346 
L 284.395464 50.653228 
L 285.990083 53.584066 
L 287.584703 55.84039 
L 289.179323 57.550271 
L 290.773942 58.751083 
L 292.368562 59.450418 
L 293.963182 59.636834 
" clip-path="url(#p0ac4cc4f9d)" style="fill: none; stroke: #348abd; stroke-width: 4; stroke-linecap: square"/>
   </g>
   <g id="line2d_22">
    <path d="M 215.826818 41.692266 
L 217.421438 32.300522 
L 219.016058 38.600575 
L 220.610677 41.25384 
L 222.205297 48.154657 
L 223.799917 55.51352 
L 225.394536 60.977819 
L 226.989156 61.279388 
L 228.583776 60.066896 
L 230.178395 57.533004 
L 231.773015 58.868143 
L 233.367635 61.038623 
L 234.962254 64.435695 
L 236.556874 70.648669 
L 238.151494 80.054998 
L 239.746113 92.3475 
L 241.340733 97.510958 
L 242.935353 97.050021 
L 244.529972 88.758764 
L 246.124592 75.907518 
L 247.719212 65.035062 
L 249.313831 59.065487 
L 250.908451 55.161922 
L 252.503071 54.234569 
L 254.09769 54.730395 
L 255.69231 54.529357 
L 257.286929 53.21016 
L 258.881549 50.007737 
L 260.476169 46.153175 
L 262.070788 45.662913 
L 263.665408 51.266838 
L 265.260028 54.684916 
L 266.854647 56.826873 
L 268.449267 58.846051 
L 270.043887 59.570645 
L 271.638506 60.055367 
L 273.233126 56.27655 
L 274.827746 55.449102 
L 276.422365 53.798853 
L 278.016985 50.690922 
L 279.611605 47.756986 
L 281.206224 48.262988 
L 282.800844 49.150522 
L 284.395464 49.813751 
L 285.990083 52.881015 
L 287.584703 55.247239 
L 289.179323 56.598393 
L 290.773942 58.504757 
L 292.368562 59.497596 
L 293.963182 60.070685 
" clip-path="url(#p0ac4cc4f9d)" style="fill: none; stroke-dasharray: 7.4,3.2; stroke-dashoffset: 0; stroke: #a60628; stroke-width: 2"/>
   </g>
   <g id="patch_8">
    <path d="M 211.92 100.77148 
L 211.92 29.04 
" style="fill: none; stroke: #bcbcbc; stroke-width: 0.8; stroke-linejoin: miter; stroke-linecap: square"/>
   </g>
   <g id="patch_9">
    <path d="M 297.87 100.77148 
L 297.87 29.04 
" style="fill: none; stroke: #bcbcbc; stroke-width: 0.8; stroke-linejoin: miter; stroke-linecap: square"/>
   </g>
   <g id="patch_10">
    <path d="M 211.92 100.77148 
L 297.87 100.77148 
" style="fill: none; stroke: #bcbcbc; stroke-width: 0.8; stroke-linejoin: miter; stroke-linecap: square"/>
   </g>
   <g id="patch_11">
    <path d="M 211.92 29.04 
L 297.87 29.04 
" style="fill: none; stroke: #bcbcbc; stroke-width: 0.8; stroke-linejoin: miter; stroke-linecap: square"/>
   </g>
   <g id="text_9">
    <!-- Robot 1 $y$ -->
    <g transform="translate(220.983 23.04) scale(0.144 -0.144)">
     <defs>
      <path id="Cmmi10-79" d="M 538 -916 
Q 672 -1147 1006 -1147 
Q 1309 -1147 1531 -934 
Q 1753 -722 1889 -420 
Q 2025 -119 2100 197 
Q 1816 -72 1484 -72 
Q 1231 -72 1053 15 
Q 875 103 776 276 
Q 678 450 678 697 
Q 678 906 734 1126 
Q 791 1347 892 1617 
Q 994 1888 1069 2088 
Q 1153 2322 1153 2472 
Q 1153 2663 1013 2663 
Q 759 2663 595 2402 
Q 431 2141 353 1819 
Q 341 1778 300 1778 
L 225 1778 
Q 172 1778 172 1838 
L 172 1856 
Q 275 2238 487 2533 
Q 700 2828 1025 2828 
Q 1253 2828 1411 2678 
Q 1569 2528 1569 2297 
Q 1569 2178 1516 2047 
Q 1488 1969 1388 1706 
Q 1288 1444 1234 1272 
Q 1181 1100 1147 934 
Q 1113 769 1113 603 
Q 1113 391 1203 244 
Q 1294 97 1491 97 
Q 1888 97 2203 581 
L 2688 2553 
Q 2709 2638 2787 2698 
Q 2866 2759 2956 2759 
Q 3034 2759 3092 2709 
Q 3150 2659 3150 2578 
Q 3150 2541 3144 2528 
L 2509 -19 
Q 2425 -347 2200 -647 
Q 1975 -947 1658 -1130 
Q 1341 -1313 997 -1313 
Q 831 -1313 668 -1248 
Q 506 -1184 406 -1056 
Q 306 -928 306 -756 
Q 306 -581 409 -453 
Q 513 -325 684 -325 
Q 788 -325 858 -389 
Q 928 -453 928 -556 
Q 928 -703 818 -812 
Q 709 -922 563 -922 
Q 556 -919 550 -917 
Q 544 -916 538 -916 
z
" transform="scale(0.015625)"/>
     </defs>
     <use xlink:href="#DejaVuSans-52" transform="translate(0 0.015625)"/>
     <use xlink:href="#DejaVuSans-6f" transform="translate(69.482422 0.015625)"/>
     <use xlink:href="#DejaVuSans-62" transform="translate(130.664062 0.015625)"/>
     <use xlink:href="#DejaVuSans-6f" transform="translate(194.140625 0.015625)"/>
     <use xlink:href="#DejaVuSans-74" transform="translate(255.322266 0.015625)"/>
     <use xlink:href="#DejaVuSans-20" transform="translate(294.53125 0.015625)"/>
     <use xlink:href="#DejaVuSans-31" transform="translate(326.318359 0.015625)"/>
     <use xlink:href="#DejaVuSans-20" transform="translate(389.941406 0.015625)"/>
     <use xlink:href="#Cmmi10-79" transform="translate(421.728516 0.015625)"/>
    </g>
   </g>
  </g>
  <g id="axes_3">
   <g id="patch_12">
    <path d="M 364.05 100.77148 
L 450 100.77148 
L 450 29.04 
L 364.05 29.04 
z
" style="fill: #eeeeee"/>
   </g>
   <g id="matplotlib.axis_5">
    <g id="xtick_5">
     <g id="line2d_23">
      <path d="M 367.956818 100.77148 
L 367.956818 29.04 
" clip-path="url(#pc346999244)" style="fill: none; stroke-dasharray: 1.85,0.8; stroke-dashoffset: 0; stroke: #b2b2b2; stroke-width: 0.5"/>
     </g>
     <g id="line2d_24">
      <g>
       <use xlink:href="#mbfcee3609f" x="367.956818" y="100.77148" style="stroke: #000000; stroke-width: 0.8"/>
      </g>
     </g>
    </g>
    <g id="xtick_6">
     <g id="line2d_25">
      <path d="M 447.687801 100.77148 
L 447.687801 29.04 
" clip-path="url(#pc346999244)" style="fill: none; stroke-dasharray: 1.85,0.8; stroke-dashoffset: 0; stroke: #b2b2b2; stroke-width: 0.5"/>
     </g>
     <g id="line2d_26">
      <g>
       <use xlink:href="#mbfcee3609f" x="447.687801" y="100.77148" style="stroke: #000000; stroke-width: 0.8"/>
      </g>
     </g>
    </g>
   </g>
   <g id="matplotlib.axis_6">
    <g id="ytick_6">
     <g id="line2d_27">
      <path d="M 364.05 72.553224 
L 450 72.553224 
" clip-path="url(#pc346999244)" style="fill: none; stroke-dasharray: 1.85,0.8; stroke-dashoffset: 0; stroke: #b2b2b2; stroke-width: 0.5"/>
     </g>
     <g id="line2d_28">
      <g>
       <use xlink:href="#mf8234cb66f" x="364.05" y="72.553224" style="stroke: #000000; stroke-width: 0.8"/>
      </g>
     </g>
     <g id="text_10">
      <!-- 2 -->
      <g transform="translate(354.1875 76.352442) scale(0.1 -0.1)">
       <use xlink:href="#DejaVuSans-32"/>
      </g>
     </g>
    </g>
    <g id="ytick_7">
     <g id="line2d_29">
      <path d="M 364.05 35.562088 
L 450 35.562088 
" clip-path="url(#pc346999244)" style="fill: none; stroke-dasharray: 1.85,0.8; stroke-dashoffset: 0; stroke: #b2b2b2; stroke-width: 0.5"/>
     </g>
     <g id="line2d_30">
      <g>
       <use xlink:href="#mf8234cb66f" x="364.05" y="35.562088" style="stroke: #000000; stroke-width: 0.8"/>
      </g>
     </g>
     <g id="text_11">
      <!-- 4 -->
      <g transform="translate(354.1875 39.361307) scale(0.1 -0.1)">
       <use xlink:href="#DejaVuSans-34"/>
      </g>
     </g>
    </g>
    <g id="text_12">
     <!-- Angle [rad] -->
     <g transform="translate(347.691875 98.521677) rotate(-90) scale(0.12 -0.12)">
      <defs>
       <path id="DejaVuSans-41" d="M 2188 4044 
L 1331 1722 
L 3047 1722 
L 2188 4044 
z
M 1831 4666 
L 2547 4666 
L 4325 0 
L 3669 0 
L 3244 1197 
L 1141 1197 
L 716 0 
L 50 0 
L 1831 4666 
z
" transform="scale(0.015625)"/>
       <path id="DejaVuSans-67" d="M 2906 1791 
Q 2906 2416 2648 2759 
Q 2391 3103 1925 3103 
Q 1463 3103 1205 2759 
Q 947 2416 947 1791 
Q 947 1169 1205 825 
Q 1463 481 1925 481 
Q 2391 481 2648 825 
Q 2906 1169 2906 1791 
z
M 3481 434 
Q 3481 -459 3084 -895 
Q 2688 -1331 1869 -1331 
Q 1566 -1331 1297 -1286 
Q 1028 -1241 775 -1147 
L 775 -588 
Q 1028 -725 1275 -790 
Q 1522 -856 1778 -856 
Q 2344 -856 2625 -561 
Q 2906 -266 2906 331 
L 2906 616 
Q 2728 306 2450 153 
Q 2172 0 1784 0 
Q 1141 0 747 490 
Q 353 981 353 1791 
Q 353 2603 747 3093 
Q 1141 3584 1784 3584 
Q 2172 3584 2450 3431 
Q 2728 3278 2906 2969 
L 2906 3500 
L 3481 3500 
L 3481 434 
z
" transform="scale(0.015625)"/>
       <path id="DejaVuSans-6c" d="M 603 4863 
L 1178 4863 
L 1178 0 
L 603 0 
L 603 4863 
z
" transform="scale(0.015625)"/>
       <path id="DejaVuSans-65" d="M 3597 1894 
L 3597 1613 
L 953 1613 
Q 991 1019 1311 708 
Q 1631 397 2203 397 
Q 2534 397 2845 478 
Q 3156 559 3463 722 
L 3463 178 
Q 3153 47 2828 -22 
Q 2503 -91 2169 -91 
Q 1331 -91 842 396 
Q 353 884 353 1716 
Q 353 2575 817 3079 
Q 1281 3584 2069 3584 
Q 2775 3584 3186 3129 
Q 3597 2675 3597 1894 
z
M 3022 2063 
Q 3016 2534 2758 2815 
Q 2500 3097 2075 3097 
Q 1594 3097 1305 2825 
Q 1016 2553 972 2059 
L 3022 2063 
z
" transform="scale(0.015625)"/>
       <path id="DejaVuSans-5b" d="M 550 4863 
L 1875 4863 
L 1875 4416 
L 1125 4416 
L 1125 -397 
L 1875 -397 
L 1875 -844 
L 550 -844 
L 550 4863 
z
" transform="scale(0.015625)"/>
       <path id="DejaVuSans-72" d="M 2631 2963 
Q 2534 3019 2420 3045 
Q 2306 3072 2169 3072 
Q 1681 3072 1420 2755 
Q 1159 2438 1159 1844 
L 1159 0 
L 581 0 
L 581 3500 
L 1159 3500 
L 1159 2956 
Q 1341 3275 1631 3429 
Q 1922 3584 2338 3584 
Q 2397 3584 2469 3576 
Q 2541 3569 2628 3553 
L 2631 2963 
z
" transform="scale(0.015625)"/>
       <path id="DejaVuSans-61" d="M 2194 1759 
Q 1497 1759 1228 1600 
Q 959 1441 959 1056 
Q 959 750 1161 570 
Q 1363 391 1709 391 
Q 2188 391 2477 730 
Q 2766 1069 2766 1631 
L 2766 1759 
L 2194 1759 
z
M 3341 1997 
L 3341 0 
L 2766 0 
L 2766 531 
Q 2569 213 2275 61 
Q 1981 -91 1556 -91 
Q 1019 -91 701 211 
Q 384 513 384 1019 
Q 384 1609 779 1909 
Q 1175 2209 1959 2209 
L 2766 2209 
L 2766 2266 
Q 2766 2663 2505 2880 
Q 2244 3097 1772 3097 
Q 1472 3097 1187 3025 
Q 903 2953 641 2809 
L 641 3341 
Q 956 3463 1253 3523 
Q 1550 3584 1831 3584 
Q 2591 3584 2966 3190 
Q 3341 2797 3341 1997 
z
" transform="scale(0.015625)"/>
       <path id="DejaVuSans-64" d="M 2906 2969 
L 2906 4863 
L 3481 4863 
L 3481 0 
L 2906 0 
L 2906 525 
Q 2725 213 2448 61 
Q 2172 -91 1784 -91 
Q 1150 -91 751 415 
Q 353 922 353 1747 
Q 353 2572 751 3078 
Q 1150 3584 1784 3584 
Q 2172 3584 2448 3432 
Q 2725 3281 2906 2969 
z
M 947 1747 
Q 947 1113 1208 752 
Q 1469 391 1925 391 
Q 2381 391 2643 752 
Q 2906 1113 2906 1747 
Q 2906 2381 2643 2742 
Q 2381 3103 1925 3103 
Q 1469 3103 1208 2742 
Q 947 2381 947 1747 
z
" transform="scale(0.015625)"/>
       <path id="DejaVuSans-5d" d="M 1947 4863 
L 1947 -844 
L 622 -844 
L 622 -397 
L 1369 -397 
L 1369 4416 
L 622 4416 
L 622 4863 
L 1947 4863 
z
" transform="scale(0.015625)"/>
      </defs>
      <use xlink:href="#DejaVuSans-41"/>
      <use xlink:href="#DejaVuSans-6e" x="68.408203"/>
      <use xlink:href="#DejaVuSans-67" x="131.787109"/>
      <use xlink:href="#DejaVuSans-6c" x="195.263672"/>
      <use xlink:href="#DejaVuSans-65" x="223.046875"/>
      <use xlink:href="#DejaVuSans-20" x="284.570312"/>
      <use xlink:href="#DejaVuSans-5b" x="316.357422"/>
      <use xlink:href="#DejaVuSans-72" x="355.371094"/>
      <use xlink:href="#DejaVuSans-61" x="396.484375"/>
      <use xlink:href="#DejaVuSans-64" x="457.763672"/>
      <use xlink:href="#DejaVuSans-5d" x="521.240234"/>
     </g>
    </g>
   </g>
   <g id="line2d_31">
    <path d="M 367.956818 53.614796 
L 369.551438 50.685619 
L 371.146058 47.756441 
L 372.740677 44.827264 
L 374.335297 41.898086 
L 375.929917 44.00895 
L 377.524536 46.119814 
L 379.119156 48.230677 
L 380.713776 50.341541 
L 382.308395 52.452405 
L 383.903015 49.299027 
L 385.497635 46.145648 
L 387.092254 42.99227 
L 388.686874 39.838892 
L 390.281494 36.685513 
L 391.876113 41.232403 
L 393.470733 45.779293 
L 395.065353 50.326182 
L 396.659972 54.873072 
L 398.254592 59.419962 
L 399.849212 54.048414 
L 401.443831 48.676865 
L 403.038451 43.305317 
L 404.633071 37.933769 
L 406.22769 32.56222 
L 407.82231 32.509881 
L 409.416929 32.457541 
L 411.011549 32.405201 
L 412.606169 32.352862 
L 414.200788 32.300522 
L 415.795408 34.506715 
L 417.390028 36.712909 
L 418.984647 38.919102 
L 420.579267 41.125296 
L 422.173887 43.331489 
L 423.768506 44.438197 
L 425.363126 45.544904 
L 426.957746 46.651612 
L 428.552365 47.758319 
L 430.146985 48.865026 
L 431.741605 45.872742 
L 433.336224 42.880458 
L 434.930844 39.888173 
L 436.525464 36.895889 
L 438.120083 33.903605 
L 439.714703 36.065572 
L 441.309323 38.227538 
L 442.903942 40.389505 
L 444.498562 42.551471 
L 446.093182 44.713438 
" clip-path="url(#pc346999244)" style="fill: none; stroke: #348abd; stroke-width: 4; stroke-linecap: square"/>
   </g>
   <g id="line2d_32">
    <path d="M 367.956818 97.510958 
L 369.551438 79.649233 
L 371.146058 62.225113 
L 372.740677 60.406814 
L 374.335297 55.233419 
L 375.929917 55.032557 
L 377.524536 54.988353 
L 379.119156 57.318609 
L 380.713776 57.446599 
L 382.308395 58.195669 
L 383.903015 51.609582 
L 385.497635 47.305109 
L 387.092254 43.225911 
L 388.686874 40.407372 
L 390.281494 35.435763 
L 391.876113 44.618443 
L 393.470733 50.229813 
L 395.065353 54.37171 
L 396.659972 59.739679 
L 398.254592 64.306235 
L 399.849212 57.863674 
L 401.443831 51.030486 
L 403.038451 46.895062 
L 404.633071 41.865192 
L 406.22769 38.342157 
L 407.82231 35.315357 
L 409.416929 35.454444 
L 411.011549 36.389764 
L 412.606169 39.847141 
L 414.200788 33.522212 
L 415.795408 37.438648 
L 417.390028 42.329246 
L 418.984647 44.225782 
L 420.579267 43.225356 
L 422.173887 46.960536 
L 423.768506 45.890013 
L 425.363126 52.378813 
L 426.957746 49.878212 
L 428.552365 51.815253 
L 430.146985 55.138352 
L 431.741605 50.941707 
L 433.336224 46.09032 
L 434.930844 43.638362 
L 436.525464 41.800273 
L 438.120083 37.390745 
L 439.714703 39.551582 
L 441.309323 43.373321 
L 442.903942 42.71155 
L 444.498562 44.689281 
L 446.093182 46.851413 
" clip-path="url(#pc346999244)" style="fill: none; stroke-dasharray: 7.4,3.2; stroke-dashoffset: 0; stroke: #a60628; stroke-width: 2"/>
   </g>
   <g id="patch_13">
    <path d="M 364.05 100.77148 
L 364.05 29.04 
" style="fill: none; stroke: #bcbcbc; stroke-width: 0.8; stroke-linejoin: miter; stroke-linecap: square"/>
   </g>
   <g id="patch_14">
    <path d="M 450 100.77148 
L 450 29.04 
" style="fill: none; stroke: #bcbcbc; stroke-width: 0.8; stroke-linejoin: miter; stroke-linecap: square"/>
   </g>
   <g id="patch_15">
    <path d="M 364.05 100.77148 
L 450 100.77148 
" style="fill: none; stroke: #bcbcbc; stroke-width: 0.8; stroke-linejoin: miter; stroke-linecap: square"/>
   </g>
   <g id="patch_16">
    <path d="M 364.05 29.04 
L 450 29.04 
" style="fill: none; stroke: #bcbcbc; stroke-width: 0.8; stroke-linejoin: miter; stroke-linecap: square"/>
   </g>
   <g id="text_13">
    <!-- Robot 1 $\theta$ -->
    <g transform="translate(373.257 23.04) scale(0.144 -0.144)">
     <defs>
      <path id="Cmmi10-b5" d="M 1031 -72 
Q 741 -72 566 140 
Q 391 353 323 653 
Q 256 953 256 1247 
L 256 1253 
Q 256 1572 317 1915 
Q 378 2259 493 2601 
Q 609 2944 744 3213 
Q 838 3400 986 3631 
Q 1134 3863 1317 4064 
Q 1500 4266 1711 4389 
Q 1922 4513 2138 4513 
L 2144 4513 
Q 2375 4513 2529 4384 
Q 2684 4256 2770 4056 
Q 2856 3856 2890 3628 
Q 2925 3400 2925 3194 
Q 2925 2709 2794 2204 
Q 2663 1700 2431 1228 
Q 2344 1050 2189 809 
Q 2034 569 1861 378 
Q 1688 188 1472 58 
Q 1256 -72 1038 -72 
L 1031 -72 
z
M 1044 97 
Q 1256 97 1451 323 
Q 1647 550 1794 873 
Q 1941 1197 2052 1536 
Q 2163 1875 2216 2113 
L 909 2113 
Q 809 1709 753 1417 
Q 697 1125 697 844 
Q 697 97 1044 97 
z
M 959 2338 
L 2272 2338 
Q 2341 2619 2381 2808 
Q 2422 2997 2450 3206 
Q 2478 3416 2478 3597 
Q 2478 4347 2138 4347 
Q 1731 4347 1436 3692 
Q 1141 3038 959 2338 
z
" transform="scale(0.015625)"/>
     </defs>
     <use xlink:href="#DejaVuSans-52" transform="translate(0 0.015625)"/>
     <use xlink:href="#DejaVuSans-6f" transform="translate(69.482422 0.015625)"/>
     <use xlink:href="#DejaVuSans-62" transform="translate(130.664062 0.015625)"/>
     <use xlink:href="#DejaVuSans-6f" transform="translate(194.140625 0.015625)"/>
     <use xlink:href="#DejaVuSans-74" transform="translate(255.322266 0.015625)"/>
     <use xlink:href="#DejaVuSans-20" transform="translate(294.53125 0.015625)"/>
     <use xlink:href="#DejaVuSans-31" transform="translate(326.318359 0.015625)"/>
     <use xlink:href="#DejaVuSans-20" transform="translate(389.941406 0.015625)"/>
     <use xlink:href="#Cmmi10-b5" transform="translate(421.728516 0.015625)"/>
    </g>
   </g>
  </g>
  <g id="axes_4">
   <g id="patch_17">
    <path d="M 59.79 203.59574 
L 145.74 203.59574 
L 145.74 131.86426 
L 59.79 131.86426 
z
" style="fill: #eeeeee"/>
   </g>
   <g id="matplotlib.axis_7">
    <g id="xtick_7">
     <g id="line2d_33">
      <path d="M 63.696818 203.59574 
L 63.696818 131.86426 
" clip-path="url(#p72ad15e3fa)" style="fill: none; stroke-dasharray: 1.85,0.8; stroke-dashoffset: 0; stroke: #b2b2b2; stroke-width: 0.5"/>
     </g>
     <g id="line2d_34">
      <g>
       <use xlink:href="#mbfcee3609f" x="63.696818" y="203.59574" style="stroke: #000000; stroke-width: 0.8"/>
      </g>
     </g>
    </g>
    <g id="xtick_8">
     <g id="line2d_35">
      <path d="M 143.427801 203.59574 
L 143.427801 131.86426 
" clip-path="url(#p72ad15e3fa)" style="fill: none; stroke-dasharray: 1.85,0.8; stroke-dashoffset: 0; stroke: #b2b2b2; stroke-width: 0.5"/>
     </g>
     <g id="line2d_36">
      <g>
       <use xlink:href="#mbfcee3609f" x="143.427801" y="203.59574" style="stroke: #000000; stroke-width: 0.8"/>
      </g>
     </g>
    </g>
   </g>
   <g id="matplotlib.axis_8">
    <g id="ytick_8">
     <g id="line2d_37">
      <path d="M 59.79 193.513427 
L 145.74 193.513427 
" clip-path="url(#p72ad15e3fa)" style="fill: none; stroke-dasharray: 1.85,0.8; stroke-dashoffset: 0; stroke: #b2b2b2; stroke-width: 0.5"/>
     </g>
     <g id="line2d_38">
      <g>
       <use xlink:href="#mf8234cb66f" x="59.79" y="193.513427" style="stroke: #000000; stroke-width: 0.8"/>
      </g>
     </g>
     <g id="text_14">
      <!-- −0.25 -->
      <g transform="translate(25.644688 197.312646) scale(0.1 -0.1)">
       <use xlink:href="#DejaVuSans-2212"/>
       <use xlink:href="#DejaVuSans-30" x="83.789062"/>
       <use xlink:href="#DejaVuSans-2e" x="147.412109"/>
       <use xlink:href="#DejaVuSans-32" x="179.199219"/>
       <use xlink:href="#DejaVuSans-35" x="242.822266"/>
      </g>
     </g>
    </g>
    <g id="ytick_9">
     <g id="line2d_39">
      <path d="M 59.79 165.559096 
L 145.74 165.559096 
" clip-path="url(#p72ad15e3fa)" style="fill: none; stroke-dasharray: 1.85,0.8; stroke-dashoffset: 0; stroke: #b2b2b2; stroke-width: 0.5"/>
     </g>
     <g id="line2d_40">
      <g>
       <use xlink:href="#mf8234cb66f" x="59.79" y="165.559096" style="stroke: #000000; stroke-width: 0.8"/>
      </g>
     </g>
     <g id="text_15">
      <!-- −0.20 -->
      <g transform="translate(25.644688 169.358315) scale(0.1 -0.1)">
       <use xlink:href="#DejaVuSans-2212"/>
       <use xlink:href="#DejaVuSans-30" x="83.789062"/>
       <use xlink:href="#DejaVuSans-2e" x="147.412109"/>
       <use xlink:href="#DejaVuSans-32" x="179.199219"/>
       <use xlink:href="#DejaVuSans-30" x="242.822266"/>
      </g>
     </g>
    </g>
    <g id="ytick_10">
     <g id="line2d_41">
      <path d="M 59.79 137.604765 
L 145.74 137.604765 
" clip-path="url(#p72ad15e3fa)" style="fill: none; stroke-dasharray: 1.85,0.8; stroke-dashoffset: 0; stroke: #b2b2b2; stroke-width: 0.5"/>
     </g>
     <g id="line2d_42">
      <g>
       <use xlink:href="#mf8234cb66f" x="59.79" y="137.604765" style="stroke: #000000; stroke-width: 0.8"/>
      </g>
     </g>
     <g id="text_16">
      <!-- −0.15 -->
      <g transform="translate(25.644688 141.403984) scale(0.1 -0.1)">
       <use xlink:href="#DejaVuSans-2212"/>
       <use xlink:href="#DejaVuSans-30" x="83.789062"/>
       <use xlink:href="#DejaVuSans-2e" x="147.412109"/>
       <use xlink:href="#DejaVuSans-31" x="179.199219"/>
       <use xlink:href="#DejaVuSans-35" x="242.822266"/>
      </g>
     </g>
    </g>
    <g id="text_17">
     <!-- Position -->
     <g transform="translate(19.149062 191.086875) rotate(-90) scale(0.12 -0.12)">
      <use xlink:href="#DejaVuSans-50"/>
      <use xlink:href="#DejaVuSans-6f" x="56.677734"/>
      <use xlink:href="#DejaVuSans-73" x="117.859375"/>
      <use xlink:href="#DejaVuSans-69" x="169.958984"/>
      <use xlink:href="#DejaVuSans-74" x="197.742188"/>
      <use xlink:href="#DejaVuSans-69" x="236.951172"/>
      <use xlink:href="#DejaVuSans-6f" x="264.734375"/>
      <use xlink:href="#DejaVuSans-6e" x="325.916016"/>
     </g>
    </g>
   </g>
   <g id="line2d_43">
    <path d="M 63.696818 140.109165 
L 65.291438 139.360791 
L 66.886058 140.092447 
L 68.480677 142.281337 
L 70.075297 145.830103 
L 71.669917 147.657764 
L 73.264536 149.882397 
L 74.859156 152.190324 
L 76.453776 154.369282 
L 78.048395 156.388451 
L 79.643015 163.211801 
L 81.237635 171.553837 
L 82.832254 180.694252 
L 84.426874 189.877293 
L 86.021494 198.386434 
L 87.616113 197.890277 
L 89.210733 197.229005 
L 90.805353 195.694439 
L 92.399972 192.637524 
L 93.994592 187.631298 
L 95.589212 181.992059 
L 97.183831 177.275841 
L 98.778451 173.840715 
L 100.373071 171.881225 
L 101.96769 171.445376 
L 103.56231 172.556653 
L 105.156929 173.287203 
L 106.751549 173.423884 
L 108.346169 172.719921 
L 109.940788 170.985531 
L 111.535408 167.424379 
L 113.130028 163.242571 
L 114.724647 158.571852 
L 116.319267 153.53863 
L 117.913887 148.2581 
L 119.508506 142.886832 
L 121.103126 138.860471 
L 122.697746 136.2846 
L 124.292365 135.124782 
L 125.886985 135.226597 
L 127.481605 137.847633 
L 129.076224 139.980402 
L 130.670844 141.647007 
L 132.265464 142.897865 
L 133.860083 143.807152 
L 135.454703 143.499121 
L 137.049323 142.974695 
L 138.643942 142.325291 
L 140.238562 141.607953 
L 141.833182 140.840158 
" clip-path="url(#p72ad15e3fa)" style="fill: none; stroke: #348abd; stroke-width: 4; stroke-linecap: square"/>
   </g>
   <g id="line2d_44">
    <path d="M 63.696818 142.351086 
L 65.291438 138.973529 
L 66.886058 138.105538 
L 68.480677 139.452449 
L 70.075297 144.167495 
L 71.669917 148.984655 
L 73.264536 150.798223 
L 74.859156 152.678215 
L 76.453776 154.288776 
L 78.048395 154.739628 
L 79.643015 162.402903 
L 81.237635 171.652139 
L 82.832254 181.830329 
L 84.426874 190.800482 
L 86.021494 200.335218 
L 87.616113 199.414567 
L 89.210733 198.949867 
L 90.805353 196.435295 
L 92.399972 192.721545 
L 93.994592 186.165481 
L 95.589212 181.666082 
L 97.183831 177.333105 
L 98.778451 173.744047 
L 100.373071 171.779542 
L 101.96769 170.612768 
L 103.56231 173.408358 
L 105.156929 174.107079 
L 106.751549 171.42084 
L 108.346169 171.051933 
L 109.940788 170.448882 
L 111.535408 167.607052 
L 113.130028 163.556304 
L 114.724647 157.013167 
L 116.319267 153.172961 
L 117.913887 148.332139 
L 119.508506 143.143193 
L 121.103126 138.033063 
L 122.697746 135.972672 
L 124.292365 135.459954 
L 125.886985 135.60556 
L 127.481605 139.00082 
L 129.076224 140.878048 
L 130.670844 142.141225 
L 132.265464 142.23933 
L 133.860083 143.390639 
L 135.454703 143.291373 
L 137.049323 142.954049 
L 138.643942 142.950814 
L 140.238562 142.074873 
L 141.833182 141.327883 
" clip-path="url(#p72ad15e3fa)" style="fill: none; stroke-dasharray: 7.4,3.2; stroke-dashoffset: 0; stroke: #a60628; stroke-width: 2"/>
   </g>
   <g id="patch_18">
    <path d="M 59.79 203.59574 
L 59.79 131.86426 
" style="fill: none; stroke: #bcbcbc; stroke-width: 0.8; stroke-linejoin: miter; stroke-linecap: square"/>
   </g>
   <g id="patch_19">
    <path d="M 145.74 203.59574 
L 145.74 131.86426 
" style="fill: none; stroke: #bcbcbc; stroke-width: 0.8; stroke-linejoin: miter; stroke-linecap: square"/>
   </g>
   <g id="patch_20">
    <path d="M 59.79 203.59574 
L 145.74 203.59574 
" style="fill: none; stroke: #bcbcbc; stroke-width: 0.8; stroke-linejoin: miter; stroke-linecap: square"/>
   </g>
   <g id="patch_21">
    <path d="M 59.79 131.86426 
L 145.74 131.86426 
" style="fill: none; stroke: #bcbcbc; stroke-width: 0.8; stroke-linejoin: miter; stroke-linecap: square"/>
   </g>
   <g id="text_18">
    <!-- Robot 2 $x$ -->
    <g transform="translate(68.277 125.86426) scale(0.144 -0.144)">
     <use xlink:href="#DejaVuSans-52" transform="translate(0 0.015625)"/>
     <use xlink:href="#DejaVuSans-6f" transform="translate(69.482422 0.015625)"/>
     <use xlink:href="#DejaVuSans-62" transform="translate(130.664062 0.015625)"/>
     <use xlink:href="#DejaVuSans-6f" transform="translate(194.140625 0.015625)"/>
     <use xlink:href="#DejaVuSans-74" transform="translate(255.322266 0.015625)"/>
     <use xlink:href="#DejaVuSans-20" transform="translate(294.53125 0.015625)"/>
     <use xlink:href="#DejaVuSans-32" transform="translate(326.318359 0.015625)"/>
     <use xlink:href="#DejaVuSans-20" transform="translate(389.941406 0.015625)"/>
     <use xlink:href="#Cmmi10-78" transform="translate(421.728516 0.015625)"/>
    </g>
   </g>
  </g>
  <g id="axes_5">
   <g id="patch_22">
    <path d="M 211.92 203.59574 
L 297.87 203.59574 
L 297.87 131.86426 
L 211.92 131.86426 
z
" style="fill: #eeeeee"/>
   </g>
   <g id="matplotlib.axis_9">
    <g id="xtick_9">
     <g id="line2d_45">
      <path d="M 215.826818 203.59574 
L 215.826818 131.86426 
" clip-path="url(#pad703fe7ce)" style="fill: none; stroke-dasharray: 1.85,0.8; stroke-dashoffset: 0; stroke: #b2b2b2; stroke-width: 0.5"/>
     </g>
     <g id="line2d_46">
      <g>
       <use xlink:href="#mbfcee3609f" x="215.826818" y="203.59574" style="stroke: #000000; stroke-width: 0.8"/>
      </g>
     </g>
    </g>
    <g id="xtick_10">
     <g id="line2d_47">
      <path d="M 295.557801 203.59574 
L 295.557801 131.86426 
" clip-path="url(#pad703fe7ce)" style="fill: none; stroke-dasharray: 1.85,0.8; stroke-dashoffset: 0; stroke: #b2b2b2; stroke-width: 0.5"/>
     </g>
     <g id="line2d_48">
      <g>
       <use xlink:href="#mbfcee3609f" x="295.557801" y="203.59574" style="stroke: #000000; stroke-width: 0.8"/>
      </g>
     </g>
    </g>
   </g>
   <g id="matplotlib.axis_10">
    <g id="ytick_11">
     <g id="line2d_49">
      <path d="M 211.92 176.591381 
L 297.87 176.591381 
" clip-path="url(#pad703fe7ce)" style="fill: none; stroke-dasharray: 1.85,0.8; stroke-dashoffset: 0; stroke: #b2b2b2; stroke-width: 0.5"/>
     </g>
     <g id="line2d_50">
      <g>
       <use xlink:href="#mf8234cb66f" x="211.92" y="176.591381" style="stroke: #000000; stroke-width: 0.8"/>
      </g>
     </g>
     <g id="text_19">
      <!-- −0.2 -->
      <g transform="translate(184.137188 180.3906) scale(0.1 -0.1)">
       <use xlink:href="#DejaVuSans-2212"/>
       <use xlink:href="#DejaVuSans-30" x="83.789062"/>
       <use xlink:href="#DejaVuSans-2e" x="147.412109"/>
       <use xlink:href="#DejaVuSans-32" x="179.199219"/>
      </g>
     </g>
    </g>
    <g id="ytick_12">
     <g id="line2d_51">
      <path d="M 211.92 148.506058 
L 297.87 148.506058 
" clip-path="url(#pad703fe7ce)" style="fill: none; stroke-dasharray: 1.85,0.8; stroke-dashoffset: 0; stroke: #b2b2b2; stroke-width: 0.5"/>
     </g>
     <g id="line2d_52">
      <g>
       <use xlink:href="#mf8234cb66f" x="211.92" y="148.506058" style="stroke: #000000; stroke-width: 0.8"/>
      </g>
     </g>
     <g id="text_20">
      <!-- −0.1 -->
      <g transform="translate(184.137188 152.305277) scale(0.1 -0.1)">
       <use xlink:href="#DejaVuSans-2212"/>
       <use xlink:href="#DejaVuSans-30" x="83.789062"/>
       <use xlink:href="#DejaVuSans-2e" x="147.412109"/>
       <use xlink:href="#DejaVuSans-31" x="179.199219"/>
      </g>
     </g>
    </g>
    <g id="text_21">
     <!-- Position -->
     <g transform="translate(177.641563 191.086875) rotate(-90) scale(0.12 -0.12)">
      <use xlink:href="#DejaVuSans-50"/>
      <use xlink:href="#DejaVuSans-6f" x="56.677734"/>
      <use xlink:href="#DejaVuSans-73" x="117.859375"/>
      <use xlink:href="#DejaVuSans-69" x="169.958984"/>
      <use xlink:href="#DejaVuSans-74" x="197.742188"/>
      <use xlink:href="#DejaVuSans-69" x="236.951172"/>
      <use xlink:href="#DejaVuSans-6f" x="264.734375"/>
      <use xlink:href="#DejaVuSans-6e" x="325.916016"/>
     </g>
    </g>
   </g>
   <g id="line2d_53">
    <path d="M 215.826818 138.551835 
L 217.421438 145.922616 
L 219.016058 152.93576 
L 220.610677 159.356894 
L 222.205297 165.016526 
L 223.799917 168.401445 
L 225.394536 171.437113 
L 226.989156 174.243203 
L 228.583776 176.963886 
L 230.178395 179.734588 
L 231.773015 186.122398 
L 233.367635 190.500109 
L 234.962254 192.624308 
L 236.556874 192.455767 
L 238.151494 190.125616 
L 239.746113 187.395837 
L 241.340733 185.674693 
L 242.935353 184.974398 
L 244.529972 185.168354 
L 246.124592 186.044891 
L 247.719212 188.025996 
L 249.313831 189.566566 
L 250.908451 190.690223 
L 252.503071 191.423455 
L 254.09769 191.795122 
L 255.69231 191.338725 
L 257.286929 191.058676 
L 258.881549 190.882647 
L 260.476169 190.806173 
L 262.070788 190.873011 
L 263.665408 191.750277 
L 265.260028 192.479609 
L 266.854647 193.139066 
L 268.449267 193.7956 
L 270.043887 194.501655 
L 271.638506 194.447301 
L 273.233126 194.4566 
L 274.827746 194.519435 
L 276.422365 194.621683 
L 278.016985 194.744516 
L 279.611605 196.224369 
L 281.206224 197.475629 
L 282.800844 198.520164 
L 284.395464 199.376903 
L 285.990083 200.062585 
L 287.584703 199.849216 
L 289.179323 199.780882 
L 290.773942 199.854056 
L 292.368562 200.049166 
L 293.963182 200.335218 
" clip-path="url(#pad703fe7ce)" style="fill: none; stroke: #348abd; stroke-width: 4; stroke-linecap: square"/>
   </g>
   <g id="line2d_54">
    <path d="M 215.826818 135.124782 
L 217.421438 144.635991 
L 219.016058 154.11762 
L 220.610677 162.292905 
L 222.205297 167.420492 
L 223.799917 169.582697 
L 225.394536 171.275402 
L 226.989156 173.634986 
L 228.583776 177.25276 
L 230.178395 180.426471 
L 231.773015 185.929417 
L 233.367635 190.994041 
L 234.962254 192.886337 
L 236.556874 191.8056 
L 238.151494 188.833675 
L 239.746113 185.903594 
L 241.340733 184.15857 
L 242.935353 184.273587 
L 244.529972 185.463772 
L 246.124592 186.436387 
L 247.719212 188.399265 
L 249.313831 189.815803 
L 250.908451 190.574255 
L 252.503071 191.161573 
L 254.09769 191.354766 
L 255.69231 191.13771 
L 257.286929 190.834257 
L 258.881549 191.33048 
L 260.476169 191.286123 
L 262.070788 191.309325 
L 263.665408 191.420043 
L 265.260028 192.61188 
L 266.854647 193.009562 
L 268.449267 194.021517 
L 270.043887 194.755533 
L 271.638506 194.257506 
L 273.233126 194.441942 
L 274.827746 194.827387 
L 276.422365 194.835103 
L 278.016985 194.945 
L 279.611605 196.148132 
L 281.206224 197.276282 
L 282.800844 198.239169 
L 284.395464 199.387045 
L 285.990083 200.043987 
L 287.584703 199.856679 
L 289.179323 200.084071 
L 290.773942 199.691125 
L 292.368562 199.851276 
L 293.963182 200.137729 
" clip-path="url(#pad703fe7ce)" style="fill: none; stroke-dasharray: 7.4,3.2; stroke-dashoffset: 0; stroke: #a60628; stroke-width: 2"/>
   </g>
   <g id="patch_23">
    <path d="M 211.92 203.59574 
L 211.92 131.86426 
" style="fill: none; stroke: #bcbcbc; stroke-width: 0.8; stroke-linejoin: miter; stroke-linecap: square"/>
   </g>
   <g id="patch_24">
    <path d="M 297.87 203.59574 
L 297.87 131.86426 
" style="fill: none; stroke: #bcbcbc; stroke-width: 0.8; stroke-linejoin: miter; stroke-linecap: square"/>
   </g>
   <g id="patch_25">
    <path d="M 211.92 203.59574 
L 297.87 203.59574 
" style="fill: none; stroke: #bcbcbc; stroke-width: 0.8; stroke-linejoin: miter; stroke-linecap: square"/>
   </g>
   <g id="patch_26">
    <path d="M 211.92 131.86426 
L 297.87 131.86426 
" style="fill: none; stroke: #bcbcbc; stroke-width: 0.8; stroke-linejoin: miter; stroke-linecap: square"/>
   </g>
   <g id="text_22">
    <!-- Robot 2 $y$ -->
    <g transform="translate(220.983 125.86426) scale(0.144 -0.144)">
     <use xlink:href="#DejaVuSans-52" transform="translate(0 0.015625)"/>
     <use xlink:href="#DejaVuSans-6f" transform="translate(69.482422 0.015625)"/>
     <use xlink:href="#DejaVuSans-62" transform="translate(130.664062 0.015625)"/>
     <use xlink:href="#DejaVuSans-6f" transform="translate(194.140625 0.015625)"/>
     <use xlink:href="#DejaVuSans-74" transform="translate(255.322266 0.015625)"/>
     <use xlink:href="#DejaVuSans-20" transform="translate(294.53125 0.015625)"/>
     <use xlink:href="#DejaVuSans-32" transform="translate(326.318359 0.015625)"/>
     <use xlink:href="#DejaVuSans-20" transform="translate(389.941406 0.015625)"/>
     <use xlink:href="#Cmmi10-79" transform="translate(421.728516 0.015625)"/>
    </g>
   </g>
  </g>
  <g id="axes_6">
   <g id="patch_27">
    <path d="M 364.05 203.59574 
L 450 203.59574 
L 450 131.86426 
L 364.05 131.86426 
z
" style="fill: #eeeeee"/>
   </g>
   <g id="matplotlib.axis_11">
    <g id="xtick_11">
     <g id="line2d_55">
      <path d="M 367.956818 203.59574 
L 367.956818 131.86426 
" clip-path="url(#p675d6749ef)" style="fill: none; stroke-dasharray: 1.85,0.8; stroke-dashoffset: 0; stroke: #b2b2b2; stroke-width: 0.5"/>
     </g>
     <g id="line2d_56">
      <g>
       <use xlink:href="#mbfcee3609f" x="367.956818" y="203.59574" style="stroke: #000000; stroke-width: 0.8"/>
      </g>
     </g>
    </g>
    <g id="xtick_12">
     <g id="line2d_57">
      <path d="M 447.687801 203.59574 
L 447.687801 131.86426 
" clip-path="url(#p675d6749ef)" style="fill: none; stroke-dasharray: 1.85,0.8; stroke-dashoffset: 0; stroke: #b2b2b2; stroke-width: 0.5"/>
     </g>
     <g id="line2d_58">
      <g>
       <use xlink:href="#mbfcee3609f" x="447.687801" y="203.59574" style="stroke: #000000; stroke-width: 0.8"/>
      </g>
     </g>
    </g>
   </g>
   <g id="matplotlib.axis_12">
    <g id="ytick_13">
     <g id="line2d_59">
      <path d="M 364.05 178.790701 
L 450 178.790701 
" clip-path="url(#p675d6749ef)" style="fill: none; stroke-dasharray: 1.85,0.8; stroke-dashoffset: 0; stroke: #b2b2b2; stroke-width: 0.5"/>
     </g>
     <g id="line2d_60">
      <g>
       <use xlink:href="#mf8234cb66f" x="364.05" y="178.790701" style="stroke: #000000; stroke-width: 0.8"/>
      </g>
     </g>
     <g id="text_23">
      <!-- 2 -->
      <g transform="translate(354.1875 182.589919) scale(0.1 -0.1)">
       <use xlink:href="#DejaVuSans-32"/>
      </g>
     </g>
    </g>
    <g id="ytick_14">
     <g id="line2d_61">
      <path d="M 364.05 152.796338 
L 450 152.796338 
" clip-path="url(#p675d6749ef)" style="fill: none; stroke-dasharray: 1.85,0.8; stroke-dashoffset: 0; stroke: #b2b2b2; stroke-width: 0.5"/>
     </g>
     <g id="line2d_62">
      <g>
       <use xlink:href="#mf8234cb66f" x="364.05" y="152.796338" style="stroke: #000000; stroke-width: 0.8"/>
      </g>
     </g>
     <g id="text_24">
      <!-- 4 -->
      <g transform="translate(354.1875 156.595557) scale(0.1 -0.1)">
       <use xlink:href="#DejaVuSans-34"/>
      </g>
     </g>
    </g>
    <g id="text_25">
     <!-- Angle [rad] -->
     <g transform="translate(347.691875 201.345937) rotate(-90) scale(0.12 -0.12)">
      <use xlink:href="#DejaVuSans-41"/>
      <use xlink:href="#DejaVuSans-6e" x="68.408203"/>
      <use xlink:href="#DejaVuSans-67" x="131.787109"/>
      <use xlink:href="#DejaVuSans-6c" x="195.263672"/>
      <use xlink:href="#DejaVuSans-65" x="223.046875"/>
      <use xlink:href="#DejaVuSans-20" x="284.570312"/>
      <use xlink:href="#DejaVuSans-5b" x="316.357422"/>
      <use xlink:href="#DejaVuSans-72" x="355.371094"/>
      <use xlink:href="#DejaVuSans-61" x="396.484375"/>
      <use xlink:href="#DejaVuSans-64" x="457.763672"/>
      <use xlink:href="#DejaVuSans-5d" x="521.240234"/>
     </g>
    </g>
   </g>
   <g id="line2d_63">
    <path d="M 367.956818 142.612598 
L 369.551438 144.560506 
L 371.146058 146.508413 
L 372.740677 148.456321 
L 374.335297 150.404228 
L 375.929917 150.980099 
L 377.524536 151.555969 
L 379.119156 152.131839 
L 380.713776 152.707709 
L 382.308395 153.28358 
L 383.903015 156.343018 
L 385.497635 159.402455 
L 387.092254 162.461893 
L 388.686874 165.521331 
L 390.281494 168.580769 
L 391.876113 163.848382 
L 393.470733 159.115994 
L 395.065353 154.383606 
L 396.659972 149.651218 
L 398.254592 144.91883 
L 399.849212 146.391137 
L 401.443831 147.863444 
L 403.038451 149.33575 
L 404.633071 150.808057 
L 406.22769 152.280363 
L 407.82231 150.118629 
L 409.416929 147.956894 
L 411.011549 145.795159 
L 412.606169 143.633424 
L 414.200788 141.471689 
L 415.795408 140.927185 
L 417.390028 140.382681 
L 418.984647 139.838177 
L 420.579267 139.293673 
L 422.173887 138.749169 
L 423.768506 141.308402 
L 425.363126 143.867636 
L 426.957746 146.426869 
L 428.552365 148.986103 
L 430.146985 151.545336 
L 431.741605 151.560815 
L 433.336224 151.576294 
L 434.930844 151.591773 
L 436.525464 151.607252 
L 438.120083 151.622731 
L 439.714703 149.584765 
L 441.309323 147.5468 
L 442.903942 145.508835 
L 444.498562 143.47087 
L 446.093182 141.432905 
" clip-path="url(#p675d6749ef)" style="fill: none; stroke: #348abd; stroke-width: 4; stroke-linecap: square"/>
   </g>
   <g id="line2d_64">
    <path d="M 367.956818 200.335218 
L 369.551438 135.124782 
L 371.146058 140.691995 
L 372.740677 146.023178 
L 374.335297 154.964589 
L 375.929917 161.206095 
L 377.524536 160.970587 
L 379.119156 159.162029 
L 380.713776 156.15864 
L 382.308395 155.446265 
L 383.903015 160.670612 
L 385.497635 161.561178 
L 387.092254 165.407044 
L 388.686874 169.245892 
L 390.281494 172.375873 
L 391.876113 167.140868 
L 393.470733 161.753407 
L 395.065353 154.322658 
L 396.659972 150.146924 
L 398.254592 144.752834 
L 399.849212 150.319657 
L 401.443831 151.40947 
L 403.038451 152.529437 
L 404.633071 153.791334 
L 406.22769 154.474465 
L 407.82231 154.665134 
L 409.416929 150.870087 
L 411.011549 143.771157 
L 412.606169 145.902954 
L 414.200788 145.339657 
L 415.795408 144.91023 
L 417.390028 143.835363 
L 418.984647 139.779073 
L 420.579267 143.71085 
L 422.173887 142.034213 
L 423.768506 144.095826 
L 425.363126 144.382154 
L 426.957746 150.035798 
L 428.552365 153.970825 
L 430.146985 155.529447 
L 431.741605 156.039846 
L 433.336224 154.787438 
L 434.930844 154.249874 
L 436.525464 152.282751 
L 438.120083 154.513847 
L 439.714703 152.476409 
L 441.309323 149.880742 
L 442.903942 149.786642 
L 444.498562 145.64639 
L 446.093182 143.607652 
" clip-path="url(#p675d6749ef)" style="fill: none; stroke-dasharray: 7.4,3.2; stroke-dashoffset: 0; stroke: #a60628; stroke-width: 2"/>
   </g>
   <g id="patch_28">
    <path d="M 364.05 203.59574 
L 364.05 131.86426 
" style="fill: none; stroke: #bcbcbc; stroke-width: 0.8; stroke-linejoin: miter; stroke-linecap: square"/>
   </g>
   <g id="patch_29">
    <path d="M 450 203.59574 
L 450 131.86426 
" style="fill: none; stroke: #bcbcbc; stroke-width: 0.8; stroke-linejoin: miter; stroke-linecap: square"/>
   </g>
   <g id="patch_30">
    <path d="M 364.05 203.59574 
L 450 203.59574 
" style="fill: none; stroke: #bcbcbc; stroke-width: 0.8; stroke-linejoin: miter; stroke-linecap: square"/>
   </g>
   <g id="patch_31">
    <path d="M 364.05 131.86426 
L 450 131.86426 
" style="fill: none; stroke: #bcbcbc; stroke-width: 0.8; stroke-linejoin: miter; stroke-linecap: square"/>
   </g>
   <g id="text_26">
    <!-- Robot 2 $\theta$ -->
    <g transform="translate(373.257 125.86426) scale(0.144 -0.144)">
     <use xlink:href="#DejaVuSans-52" transform="translate(0 0.015625)"/>
     <use xlink:href="#DejaVuSans-6f" transform="translate(69.482422 0.015625)"/>
     <use xlink:href="#DejaVuSans-62" transform="translate(130.664062 0.015625)"/>
     <use xlink:href="#DejaVuSans-6f" transform="translate(194.140625 0.015625)"/>
     <use xlink:href="#DejaVuSans-74" transform="translate(255.322266 0.015625)"/>
     <use xlink:href="#DejaVuSans-20" transform="translate(294.53125 0.015625)"/>
     <use xlink:href="#DejaVuSans-32" transform="translate(326.318359 0.015625)"/>
     <use xlink:href="#DejaVuSans-20" transform="translate(389.941406 0.015625)"/>
     <use xlink:href="#Cmmi10-b5" transform="translate(421.728516 0.015625)"/>
    </g>
   </g>
  </g>
  <g id="axes_7">
   <g id="patch_32">
    <path d="M 59.79 306.42 
L 145.74 306.42 
L 145.74 234.68852 
L 59.79 234.68852 
z
" style="fill: #eeeeee"/>
   </g>
   <g id="matplotlib.axis_13">
    <g id="xtick_13">
     <g id="line2d_65">
      <path d="M 63.696818 306.42 
L 63.696818 234.68852 
" clip-path="url(#p4a1bf52101)" style="fill: none; stroke-dasharray: 1.85,0.8; stroke-dashoffset: 0; stroke: #b2b2b2; stroke-width: 0.5"/>
     </g>
     <g id="line2d_66">
      <g>
       <use xlink:href="#mbfcee3609f" x="63.696818" y="306.42" style="stroke: #000000; stroke-width: 0.8"/>
      </g>
     </g>
     <g id="text_27">
      <!-- 0 -->
      <g transform="translate(60.515568 317.518438) scale(0.1 -0.1)">
       <use xlink:href="#DejaVuSans-30"/>
      </g>
     </g>
    </g>
    <g id="xtick_14">
     <g id="line2d_67">
      <path d="M 143.427801 306.42 
L 143.427801 234.68852 
" clip-path="url(#p4a1bf52101)" style="fill: none; stroke-dasharray: 1.85,0.8; stroke-dashoffset: 0; stroke: #b2b2b2; stroke-width: 0.5"/>
     </g>
     <g id="line2d_68">
      <g>
       <use xlink:href="#mbfcee3609f" x="143.427801" y="306.42" style="stroke: #000000; stroke-width: 0.8"/>
      </g>
     </g>
     <g id="text_28">
      <!-- 50 -->
      <g transform="translate(137.065301 317.518438) scale(0.1 -0.1)">
       <use xlink:href="#DejaVuSans-35"/>
       <use xlink:href="#DejaVuSans-30" x="63.623047"/>
      </g>
     </g>
    </g>
    <g id="text_29">
     <!-- Iteration -->
     <g transform="translate(77.314688 332.71625) scale(0.12 -0.12)">
      <defs>
       <path id="DejaVuSans-49" d="M 628 4666 
L 1259 4666 
L 1259 0 
L 628 0 
L 628 4666 
z
" transform="scale(0.015625)"/>
      </defs>
      <use xlink:href="#DejaVuSans-49"/>
      <use xlink:href="#DejaVuSans-74" x="29.492188"/>
      <use xlink:href="#DejaVuSans-65" x="68.701172"/>
      <use xlink:href="#DejaVuSans-72" x="130.224609"/>
      <use xlink:href="#DejaVuSans-61" x="171.337891"/>
      <use xlink:href="#DejaVuSans-74" x="232.617188"/>
      <use xlink:href="#DejaVuSans-69" x="271.826172"/>
      <use xlink:href="#DejaVuSans-6f" x="299.609375"/>
      <use xlink:href="#DejaVuSans-6e" x="360.791016"/>
     </g>
    </g>
   </g>
   <g id="matplotlib.axis_14">
    <g id="ytick_15">
     <g id="line2d_69">
      <path d="M 59.79 300.839526 
L 145.74 300.839526 
" clip-path="url(#p4a1bf52101)" style="fill: none; stroke-dasharray: 1.85,0.8; stroke-dashoffset: 0; stroke: #b2b2b2; stroke-width: 0.5"/>
     </g>
     <g id="line2d_70">
      <g>
       <use xlink:href="#mf8234cb66f" x="59.79" y="300.839526" style="stroke: #000000; stroke-width: 0.8"/>
      </g>
     </g>
     <g id="text_30">
      <!-- −0.2 -->
      <g transform="translate(32.007188 304.638744) scale(0.1 -0.1)">
       <use xlink:href="#DejaVuSans-2212"/>
       <use xlink:href="#DejaVuSans-30" x="83.789062"/>
       <use xlink:href="#DejaVuSans-2e" x="147.412109"/>
       <use xlink:href="#DejaVuSans-32" x="179.199219"/>
      </g>
     </g>
    </g>
    <g id="ytick_16">
     <g id="line2d_71">
      <path d="M 59.79 254.272394 
L 145.74 254.272394 
" clip-path="url(#p4a1bf52101)" style="fill: none; stroke-dasharray: 1.85,0.8; stroke-dashoffset: 0; stroke: #b2b2b2; stroke-width: 0.5"/>
     </g>
     <g id="line2d_72">
      <g>
       <use xlink:href="#mf8234cb66f" x="59.79" y="254.272394" style="stroke: #000000; stroke-width: 0.8"/>
      </g>
     </g>
     <g id="text_31">
      <!-- 0.0 -->
      <g transform="translate(40.386875 258.071613) scale(0.1 -0.1)">
       <use xlink:href="#DejaVuSans-30"/>
       <use xlink:href="#DejaVuSans-2e" x="63.623047"/>
       <use xlink:href="#DejaVuSans-30" x="95.410156"/>
      </g>
     </g>
    </g>
    <g id="text_32">
     <!-- Position -->
     <g transform="translate(25.511562 293.911135) rotate(-90) scale(0.12 -0.12)">
      <use xlink:href="#DejaVuSans-50"/>
      <use xlink:href="#DejaVuSans-6f" x="56.677734"/>
      <use xlink:href="#DejaVuSans-73" x="117.859375"/>
      <use xlink:href="#DejaVuSans-69" x="169.958984"/>
      <use xlink:href="#DejaVuSans-74" x="197.742188"/>
      <use xlink:href="#DejaVuSans-69" x="236.951172"/>
      <use xlink:href="#DejaVuSans-6f" x="264.734375"/>
      <use xlink:href="#DejaVuSans-6e" x="325.916016"/>
     </g>
    </g>
   </g>
   <g id="line2d_73">
    <path d="M 63.696818 252.890449 
L 65.291438 250.470626 
L 66.886058 247.854613 
L 68.480677 245.112259 
L 70.075297 242.303718 
L 71.669917 240.508246 
L 73.264536 239.424115 
L 74.859156 238.817396 
L 76.453776 238.524448 
L 78.048395 238.480725 
L 79.643015 239.960045 
L 81.237635 242.21257 
L 82.832254 245.046657 
L 84.426874 248.243945 
L 86.021494 251.585295 
L 87.616113 256.204349 
L 89.210733 260.24046 
L 90.805353 263.543373 
L 92.399972 266.008313 
L 93.994592 267.585793 
L 95.589212 267.195953 
L 97.183831 267.094101 
L 98.778451 267.349633 
L 100.373071 267.98997 
L 101.96769 269.00421 
L 103.56231 272.683201 
L 105.156929 276.991138 
L 106.751549 281.572977 
L 108.346169 286.080709 
L 109.940788 290.216449 
L 111.535408 292.156608 
L 113.130028 293.648431 
L 114.724647 294.702473 
L 116.319267 295.347087 
L 117.913887 295.62121 
L 119.508506 295.905817 
L 121.103126 296.383546 
L 122.697746 297.098253 
L 124.292365 298.059896 
L 125.886985 299.246232 
L 127.481605 299.889187 
L 129.076224 300.554675 
L 130.670844 301.220409 
L 132.265464 301.874716 
L 133.860083 302.516068 
L 135.454703 302.824316 
L 137.049323 302.830422 
L 138.643942 302.392835 
L 140.238562 301.476358 
L 141.833182 300.15297 
" clip-path="url(#p4a1bf52101)" style="fill: none; stroke: #348abd; stroke-width: 4; stroke-linecap: square"/>
   </g>
   <g id="line2d_74">
    <path d="M 63.696818 252.959948 
L 65.291438 251.830841 
L 66.886058 248.143633 
L 68.480677 246.26835 
L 70.075297 243.279828 
L 71.669917 240.809353 
L 73.264536 239.356251 
L 74.859156 238.204191 
L 76.453776 237.949042 
L 78.048395 238.76556 
L 79.643015 240.484178 
L 81.237635 242.464421 
L 82.832254 244.859913 
L 84.426874 247.881506 
L 86.021494 251.435319 
L 87.616113 256.231834 
L 89.210733 260.586832 
L 90.805353 264.112772 
L 92.399972 266.201813 
L 93.994592 267.804304 
L 95.589212 267.599691 
L 97.183831 267.211434 
L 98.778451 267.322112 
L 100.373071 267.945664 
L 101.96769 269.107231 
L 103.56231 272.587959 
L 105.156929 277.055988 
L 106.751549 282.012303 
L 108.346169 286.502165 
L 109.940788 290.559935 
L 111.535408 292.49529 
L 113.130028 293.312353 
L 114.724647 294.768315 
L 116.319267 295.301287 
L 117.913887 295.449788 
L 119.508506 295.482972 
L 121.103126 296.35337 
L 122.697746 296.867826 
L 124.292365 297.77826 
L 125.886985 299.303696 
L 127.481605 300.097633 
L 129.076224 300.704987 
L 130.670844 301.391358 
L 132.265464 301.888509 
L 133.860083 302.801668 
L 135.454703 303.159478 
L 137.049323 302.691526 
L 138.643942 302.175815 
L 140.238562 301.111369 
L 141.833182 299.675557 
" clip-path="url(#p4a1bf52101)" style="fill: none; stroke-dasharray: 7.4,3.2; stroke-dashoffset: 0; stroke: #a60628; stroke-width: 2"/>
   </g>
   <g id="patch_33">
    <path d="M 59.79 306.42 
L 59.79 234.68852 
" style="fill: none; stroke: #bcbcbc; stroke-width: 0.8; stroke-linejoin: miter; stroke-linecap: square"/>
   </g>
   <g id="patch_34">
    <path d="M 145.74 306.42 
L 145.74 234.68852 
" style="fill: none; stroke: #bcbcbc; stroke-width: 0.8; stroke-linejoin: miter; stroke-linecap: square"/>
   </g>
   <g id="patch_35">
    <path d="M 59.79 306.42 
L 145.74 306.42 
" style="fill: none; stroke: #bcbcbc; stroke-width: 0.8; stroke-linejoin: miter; stroke-linecap: square"/>
   </g>
   <g id="patch_36">
    <path d="M 59.79 234.68852 
L 145.74 234.68852 
" style="fill: none; stroke: #bcbcbc; stroke-width: 0.8; stroke-linejoin: miter; stroke-linecap: square"/>
   </g>
   <g id="text_33">
    <!-- Robot 3 $x$ -->
    <g transform="translate(68.277 228.68852) scale(0.144 -0.144)">
     <defs>
      <path id="DejaVuSans-33" d="M 2597 2516 
Q 3050 2419 3304 2112 
Q 3559 1806 3559 1356 
Q 3559 666 3084 287 
Q 2609 -91 1734 -91 
Q 1441 -91 1130 -33 
Q 819 25 488 141 
L 488 750 
Q 750 597 1062 519 
Q 1375 441 1716 441 
Q 2309 441 2620 675 
Q 2931 909 2931 1356 
Q 2931 1769 2642 2001 
Q 2353 2234 1838 2234 
L 1294 2234 
L 1294 2753 
L 1863 2753 
Q 2328 2753 2575 2939 
Q 2822 3125 2822 3475 
Q 2822 3834 2567 4026 
Q 2313 4219 1838 4219 
Q 1578 4219 1281 4162 
Q 984 4106 628 3988 
L 628 4550 
Q 988 4650 1302 4700 
Q 1616 4750 1894 4750 
Q 2613 4750 3031 4423 
Q 3450 4097 3450 3541 
Q 3450 3153 3228 2886 
Q 3006 2619 2597 2516 
z
" transform="scale(0.015625)"/>
     </defs>
     <use xlink:href="#DejaVuSans-52" transform="translate(0 0.015625)"/>
     <use xlink:href="#DejaVuSans-6f" transform="translate(69.482422 0.015625)"/>
     <use xlink:href="#DejaVuSans-62" transform="translate(130.664062 0.015625)"/>
     <use xlink:href="#DejaVuSans-6f" transform="translate(194.140625 0.015625)"/>
     <use xlink:href="#DejaVuSans-74" transform="translate(255.322266 0.015625)"/>
     <use xlink:href="#DejaVuSans-20" transform="translate(294.53125 0.015625)"/>
     <use xlink:href="#DejaVuSans-33" transform="translate(326.318359 0.015625)"/>
     <use xlink:href="#DejaVuSans-20" transform="translate(389.941406 0.015625)"/>
     <use xlink:href="#Cmmi10-78" transform="translate(421.728516 0.015625)"/>
    </g>
   </g>
  </g>
  <g id="axes_8">
   <g id="patch_37">
    <path d="M 211.92 306.42 
L 297.87 306.42 
L 297.87 234.68852 
L 211.92 234.68852 
z
" style="fill: #eeeeee"/>
   </g>
   <g id="matplotlib.axis_15">
    <g id="xtick_15">
     <g id="line2d_75">
      <path d="M 215.826818 306.42 
L 215.826818 234.68852 
" clip-path="url(#p166f48568c)" style="fill: none; stroke-dasharray: 1.85,0.8; stroke-dashoffset: 0; stroke: #b2b2b2; stroke-width: 0.5"/>
     </g>
     <g id="line2d_76">
      <g>
       <use xlink:href="#mbfcee3609f" x="215.826818" y="306.42" style="stroke: #000000; stroke-width: 0.8"/>
      </g>
     </g>
     <g id="text_34">
      <!-- 0 -->
      <g transform="translate(212.645568 317.518438) scale(0.1 -0.1)">
       <use xlink:href="#DejaVuSans-30"/>
      </g>
     </g>
    </g>
    <g id="xtick_16">
     <g id="line2d_77">
      <path d="M 295.557801 306.42 
L 295.557801 234.68852 
" clip-path="url(#p166f48568c)" style="fill: none; stroke-dasharray: 1.85,0.8; stroke-dashoffset: 0; stroke: #b2b2b2; stroke-width: 0.5"/>
     </g>
     <g id="line2d_78">
      <g>
       <use xlink:href="#mbfcee3609f" x="295.557801" y="306.42" style="stroke: #000000; stroke-width: 0.8"/>
      </g>
     </g>
     <g id="text_35">
      <!-- 50 -->
      <g transform="translate(289.195301 317.518438) scale(0.1 -0.1)">
       <use xlink:href="#DejaVuSans-35"/>
       <use xlink:href="#DejaVuSans-30" x="63.623047"/>
      </g>
     </g>
    </g>
    <g id="text_36">
     <!-- Iteration -->
     <g transform="translate(229.444688 332.71625) scale(0.12 -0.12)">
      <use xlink:href="#DejaVuSans-49"/>
      <use xlink:href="#DejaVuSans-74" x="29.492188"/>
      <use xlink:href="#DejaVuSans-65" x="68.701172"/>
      <use xlink:href="#DejaVuSans-72" x="130.224609"/>
      <use xlink:href="#DejaVuSans-61" x="171.337891"/>
      <use xlink:href="#DejaVuSans-74" x="232.617188"/>
      <use xlink:href="#DejaVuSans-69" x="271.826172"/>
      <use xlink:href="#DejaVuSans-6f" x="299.609375"/>
      <use xlink:href="#DejaVuSans-6e" x="360.791016"/>
     </g>
    </g>
   </g>
   <g id="matplotlib.axis_16">
    <g id="ytick_17">
     <g id="line2d_79">
      <path d="M 211.92 295.788328 
L 297.87 295.788328 
" clip-path="url(#p166f48568c)" style="fill: none; stroke-dasharray: 1.85,0.8; stroke-dashoffset: 0; stroke: #b2b2b2; stroke-width: 0.5"/>
     </g>
     <g id="line2d_80">
      <g>
       <use xlink:href="#mf8234cb66f" x="211.92" y="295.788328" style="stroke: #000000; stroke-width: 0.8"/>
      </g>
     </g>
     <g id="text_37">
      <!-- −0.1 -->
      <g transform="translate(184.137188 299.587547) scale(0.1 -0.1)">
       <use xlink:href="#DejaVuSans-2212"/>
       <use xlink:href="#DejaVuSans-30" x="83.789062"/>
       <use xlink:href="#DejaVuSans-2e" x="147.412109"/>
       <use xlink:href="#DejaVuSans-31" x="179.199219"/>
      </g>
     </g>
    </g>
    <g id="ytick_18">
     <g id="line2d_81">
      <path d="M 211.92 274.994964 
L 297.87 274.994964 
" clip-path="url(#p166f48568c)" style="fill: none; stroke-dasharray: 1.85,0.8; stroke-dashoffset: 0; stroke: #b2b2b2; stroke-width: 0.5"/>
     </g>
     <g id="line2d_82">
      <g>
       <use xlink:href="#mf8234cb66f" x="211.92" y="274.994964" style="stroke: #000000; stroke-width: 0.8"/>
      </g>
     </g>
     <g id="text_38">
      <!-- 0.0 -->
      <g transform="translate(192.516875 278.794183) scale(0.1 -0.1)">
       <use xlink:href="#DejaVuSans-30"/>
       <use xlink:href="#DejaVuSans-2e" x="63.623047"/>
       <use xlink:href="#DejaVuSans-30" x="95.410156"/>
      </g>
     </g>
    </g>
    <g id="ytick_19">
     <g id="line2d_83">
      <path d="M 211.92 254.2016 
L 297.87 254.2016 
" clip-path="url(#p166f48568c)" style="fill: none; stroke-dasharray: 1.85,0.8; stroke-dashoffset: 0; stroke: #b2b2b2; stroke-width: 0.5"/>
     </g>
     <g id="line2d_84">
      <g>
       <use xlink:href="#mf8234cb66f" x="211.92" y="254.2016" style="stroke: #000000; stroke-width: 0.8"/>
      </g>
     </g>
     <g id="text_39">
      <!-- 0.1 -->
      <g transform="translate(192.516875 258.000819) scale(0.1 -0.1)">
       <use xlink:href="#DejaVuSans-30"/>
       <use xlink:href="#DejaVuSans-2e" x="63.623047"/>
       <use xlink:href="#DejaVuSans-31" x="95.410156"/>
      </g>
     </g>
    </g>
    <g id="text_40">
     <!-- Position -->
     <g transform="translate(177.641563 293.911135) rotate(-90) scale(0.12 -0.12)">
      <use xlink:href="#DejaVuSans-50"/>
      <use xlink:href="#DejaVuSans-6f" x="56.677734"/>
      <use xlink:href="#DejaVuSans-73" x="117.859375"/>
      <use xlink:href="#DejaVuSans-69" x="169.958984"/>
      <use xlink:href="#DejaVuSans-74" x="197.742188"/>
      <use xlink:href="#DejaVuSans-69" x="236.951172"/>
      <use xlink:href="#DejaVuSans-6f" x="264.734375"/>
      <use xlink:href="#DejaVuSans-6e" x="325.916016"/>
     </g>
    </g>
   </g>
   <g id="line2d_85">
    <path d="M 215.826818 300.280393 
L 217.421438 293.25431 
L 219.016058 286.450325 
L 220.610677 280.011446 
L 222.205297 274.03231 
L 223.799917 271.136852 
L 225.394536 268.03962 
L 226.989156 264.86126 
L 228.583776 261.767244 
L 230.178395 258.952574 
L 231.773015 254.744288 
L 233.367635 251.57021 
L 234.962254 249.576537 
L 236.556874 248.802087 
L 238.151494 249.196385 
L 239.746113 251.350418 
L 241.340733 254.208783 
L 242.935353 257.541642 
L 244.529972 261.210658 
L 246.124592 265.16052 
L 247.719212 267.256103 
L 249.313831 269.13441 
L 250.908451 270.716651 
L 252.503071 271.943612 
L 254.09769 272.777835 
L 255.69231 274.29114 
L 257.286929 274.823487 
L 258.881549 274.334606 
L 260.476169 272.895132 
L 262.070788 270.665274 
L 263.665408 268.486682 
L 265.260028 266.201136 
L 266.854647 263.846869 
L 268.449267 261.452743 
L 270.043887 259.040358 
L 271.638506 255.581912 
L 273.233126 252.468539 
L 274.827746 249.700129 
L 276.422365 247.259503 
L 278.016985 245.120541 
L 279.611605 243.535431 
L 281.206224 242.249126 
L 282.800844 241.229466 
L 284.395464 240.436144 
L 285.990083 239.826347 
L 287.584703 239.927741 
L 289.179323 239.584049 
L 290.773942 238.987653 
L 292.368562 238.371411 
L 293.963182 237.963083 
" clip-path="url(#p166f48568c)" style="fill: none; stroke: #348abd; stroke-width: 4; stroke-linecap: square"/>
   </g>
   <g id="line2d_86">
    <path d="M 215.826818 303.159478 
L 217.421438 295.096677 
L 219.016058 288.584808 
L 220.610677 281.500878 
L 222.205297 274.6556 
L 223.799917 272.503643 
L 225.394536 268.543637 
L 226.989156 265.29803 
L 228.583776 261.760548 
L 230.178395 259.293394 
L 231.773015 255.133808 
L 233.367635 251.027374 
L 234.962254 250.042733 
L 236.556874 248.762754 
L 238.151494 249.303408 
L 239.746113 251.985163 
L 241.340733 254.491353 
L 242.935353 257.285401 
L 244.529972 260.899814 
L 246.124592 264.853633 
L 247.719212 267.021413 
L 249.313831 269.07194 
L 250.908451 270.559461 
L 252.503071 271.83074 
L 254.09769 272.70956 
L 255.69231 274.263818 
L 257.286929 274.876256 
L 258.881549 273.854292 
L 260.476169 273.066734 
L 262.070788 270.866582 
L 263.665408 268.888128 
L 265.260028 266.248589 
L 266.854647 264.040857 
L 268.449267 261.586201 
L 270.043887 258.931632 
L 271.638506 255.157631 
L 273.233126 252.38061 
L 274.827746 249.503318 
L 276.422365 247.25848 
L 278.016985 245.21108 
L 279.611605 243.651571 
L 281.206224 242.138677 
L 282.800844 241.109827 
L 284.395464 240.408001 
L 285.990083 239.869983 
L 287.584703 240.079704 
L 289.179323 239.588487 
L 290.773942 238.913153 
L 292.368562 238.307135 
L 293.963182 237.949042 
" clip-path="url(#p166f48568c)" style="fill: none; stroke-dasharray: 7.4,3.2; stroke-dashoffset: 0; stroke: #a60628; stroke-width: 2"/>
   </g>
   <g id="patch_38">
    <path d="M 211.92 306.42 
L 211.92 234.68852 
" style="fill: none; stroke: #bcbcbc; stroke-width: 0.8; stroke-linejoin: miter; stroke-linecap: square"/>
   </g>
   <g id="patch_39">
    <path d="M 297.87 306.42 
L 297.87 234.68852 
" style="fill: none; stroke: #bcbcbc; stroke-width: 0.8; stroke-linejoin: miter; stroke-linecap: square"/>
   </g>
   <g id="patch_40">
    <path d="M 211.92 306.42 
L 297.87 306.42 
" style="fill: none; stroke: #bcbcbc; stroke-width: 0.8; stroke-linejoin: miter; stroke-linecap: square"/>
   </g>
   <g id="patch_41">
    <path d="M 211.92 234.68852 
L 297.87 234.68852 
" style="fill: none; stroke: #bcbcbc; stroke-width: 0.8; stroke-linejoin: miter; stroke-linecap: square"/>
   </g>
   <g id="text_41">
    <!-- Robot 3 $y$ -->
    <g transform="translate(220.983 228.68852) scale(0.144 -0.144)">
     <use xlink:href="#DejaVuSans-52" transform="translate(0 0.015625)"/>
     <use xlink:href="#DejaVuSans-6f" transform="translate(69.482422 0.015625)"/>
     <use xlink:href="#DejaVuSans-62" transform="translate(130.664062 0.015625)"/>
     <use xlink:href="#DejaVuSans-6f" transform="translate(194.140625 0.015625)"/>
     <use xlink:href="#DejaVuSans-74" transform="translate(255.322266 0.015625)"/>
     <use xlink:href="#DejaVuSans-20" transform="translate(294.53125 0.015625)"/>
     <use xlink:href="#DejaVuSans-33" transform="translate(326.318359 0.015625)"/>
     <use xlink:href="#DejaVuSans-20" transform="translate(389.941406 0.015625)"/>
     <use xlink:href="#Cmmi10-79" transform="translate(421.728516 0.015625)"/>
    </g>
   </g>
  </g>
  <g id="axes_9">
   <g id="patch_42">
    <path d="M 364.05 306.42 
L 450 306.42 
L 450 234.68852 
L 364.05 234.68852 
z
" style="fill: #eeeeee"/>
   </g>
   <g id="matplotlib.axis_17">
    <g id="xtick_17">
     <g id="line2d_87">
      <path d="M 367.956818 306.42 
L 367.956818 234.68852 
" clip-path="url(#p2e00ec2038)" style="fill: none; stroke-dasharray: 1.85,0.8; stroke-dashoffset: 0; stroke: #b2b2b2; stroke-width: 0.5"/>
     </g>
     <g id="line2d_88">
      <g>
       <use xlink:href="#mbfcee3609f" x="367.956818" y="306.42" style="stroke: #000000; stroke-width: 0.8"/>
      </g>
     </g>
     <g id="text_42">
      <!-- 0 -->
      <g transform="translate(364.775568 317.518438) scale(0.1 -0.1)">
       <use xlink:href="#DejaVuSans-30"/>
      </g>
     </g>
    </g>
    <g id="xtick_18">
     <g id="line2d_89">
      <path d="M 447.687801 306.42 
L 447.687801 234.68852 
" clip-path="url(#p2e00ec2038)" style="fill: none; stroke-dasharray: 1.85,0.8; stroke-dashoffset: 0; stroke: #b2b2b2; stroke-width: 0.5"/>
     </g>
     <g id="line2d_90">
      <g>
       <use xlink:href="#mbfcee3609f" x="447.687801" y="306.42" style="stroke: #000000; stroke-width: 0.8"/>
      </g>
     </g>
     <g id="text_43">
      <!-- 50 -->
      <g transform="translate(441.325301 317.518438) scale(0.1 -0.1)">
       <use xlink:href="#DejaVuSans-35"/>
       <use xlink:href="#DejaVuSans-30" x="63.623047"/>
      </g>
     </g>
    </g>
    <g id="text_44">
     <!-- Iteration -->
     <g transform="translate(381.574688 332.71625) scale(0.12 -0.12)">
      <use xlink:href="#DejaVuSans-49"/>
      <use xlink:href="#DejaVuSans-74" x="29.492188"/>
      <use xlink:href="#DejaVuSans-65" x="68.701172"/>
      <use xlink:href="#DejaVuSans-72" x="130.224609"/>
      <use xlink:href="#DejaVuSans-61" x="171.337891"/>
      <use xlink:href="#DejaVuSans-74" x="232.617188"/>
      <use xlink:href="#DejaVuSans-69" x="271.826172"/>
      <use xlink:href="#DejaVuSans-6f" x="299.609375"/>
      <use xlink:href="#DejaVuSans-6e" x="360.791016"/>
     </g>
    </g>
   </g>
   <g id="matplotlib.axis_18">
    <g id="ytick_20">
     <g id="line2d_91">
      <path d="M 364.05 274.67912 
L 450 274.67912 
" clip-path="url(#p2e00ec2038)" style="fill: none; stroke-dasharray: 1.85,0.8; stroke-dashoffset: 0; stroke: #b2b2b2; stroke-width: 0.5"/>
     </g>
     <g id="line2d_92">
      <g>
       <use xlink:href="#mf8234cb66f" x="364.05" y="274.67912" style="stroke: #000000; stroke-width: 0.8"/>
      </g>
     </g>
     <g id="text_45">
      <!-- 2 -->
      <g transform="translate(354.1875 278.478338) scale(0.1 -0.1)">
       <use xlink:href="#DejaVuSans-32"/>
      </g>
     </g>
    </g>
    <g id="ytick_21">
     <g id="line2d_93">
      <path d="M 364.05 241.286155 
L 450 241.286155 
" clip-path="url(#p2e00ec2038)" style="fill: none; stroke-dasharray: 1.85,0.8; stroke-dashoffset: 0; stroke: #b2b2b2; stroke-width: 0.5"/>
     </g>
     <g id="line2d_94">
      <g>
       <use xlink:href="#mf8234cb66f" x="364.05" y="241.286155" style="stroke: #000000; stroke-width: 0.8"/>
      </g>
     </g>
     <g id="text_46">
      <!-- 4 -->
      <g transform="translate(354.1875 245.085374) scale(0.1 -0.1)">
       <use xlink:href="#DejaVuSans-34"/>
      </g>
     </g>
    </g>
    <g id="text_47">
     <!-- Angle [rad] -->
     <g transform="translate(347.691875 304.170198) rotate(-90) scale(0.12 -0.12)">
      <use xlink:href="#DejaVuSans-41"/>
      <use xlink:href="#DejaVuSans-6e" x="68.408203"/>
      <use xlink:href="#DejaVuSans-67" x="131.787109"/>
      <use xlink:href="#DejaVuSans-6c" x="195.263672"/>
      <use xlink:href="#DejaVuSans-65" x="223.046875"/>
      <use xlink:href="#DejaVuSans-20" x="284.570312"/>
      <use xlink:href="#DejaVuSans-5b" x="316.357422"/>
      <use xlink:href="#DejaVuSans-72" x="355.371094"/>
      <use xlink:href="#DejaVuSans-61" x="396.484375"/>
      <use xlink:href="#DejaVuSans-64" x="457.763672"/>
      <use xlink:href="#DejaVuSans-5d" x="521.240234"/>
     </g>
    </g>
   </g>
   <g id="line2d_95">
    <path d="M 367.956818 287.753549 
L 369.551438 288.382209 
L 371.146058 289.01087 
L 372.740677 289.63953 
L 374.335297 290.26819 
L 375.929917 286.284033 
L 377.524536 282.299875 
L 379.119156 278.315717 
L 380.713776 274.331559 
L 382.308395 270.347401 
L 383.903015 266.936259 
L 385.497635 263.525116 
L 387.092254 260.113973 
L 388.686874 256.70283 
L 390.281494 253.291688 
L 391.876113 250.223159 
L 393.470733 247.15463 
L 395.065353 244.0861 
L 396.659972 241.017571 
L 398.254592 237.949042 
L 399.849212 239.483972 
L 401.443831 241.018903 
L 403.038451 242.553833 
L 404.633071 244.088763 
L 406.22769 245.623693 
L 407.82231 249.229607 
L 409.416929 252.835521 
L 411.011549 256.441435 
L 412.606169 260.04735 
L 414.200788 263.653264 
L 415.795408 265.702214 
L 417.390028 267.751165 
L 418.984647 269.800116 
L 420.579267 271.849067 
L 422.173887 273.898018 
L 423.768506 273.242711 
L 425.363126 272.587405 
L 426.957746 271.932098 
L 428.552365 271.276791 
L 430.146985 270.621485 
L 431.741605 268.798941 
L 433.336224 266.976397 
L 434.930844 265.153854 
L 436.525464 263.33131 
L 438.120083 261.508767 
L 439.714703 268.760287 
L 441.309323 276.011808 
L 442.903942 283.263329 
L 444.498562 290.514849 
L 446.093182 297.76637 
" clip-path="url(#p2e00ec2038)" style="fill: none; stroke: #348abd; stroke-width: 4; stroke-linecap: square"/>
   </g>
   <g id="line2d_96">
    <path d="M 367.956818 300.48203 
L 369.551438 288.57243 
L 371.146058 297.28816 
L 372.740677 288.707337 
L 374.335297 291.696174 
L 375.929917 289.336795 
L 377.524536 285.709651 
L 379.119156 283.499871 
L 380.713776 278.842555 
L 382.308395 270.663616 
L 383.903015 269.340253 
L 385.497635 269.634278 
L 387.092254 261.620133 
L 388.686874 261.839358 
L 390.281494 256.839262 
L 391.876113 252.479644 
L 393.470733 251.617104 
L 395.065353 248.997092 
L 396.659972 244.166132 
L 398.254592 241.498034 
L 399.849212 243.777938 
L 401.443831 243.215267 
L 403.038451 245.711892 
L 404.633071 247.166656 
L 406.22769 249.208803 
L 407.82231 252.382971 
L 409.416929 256.064212 
L 411.011549 261.758046 
L 412.606169 261.695267 
L 414.200788 266.892548 
L 415.795408 267.794993 
L 417.390028 274.556234 
L 418.984647 271.888971 
L 420.579267 276.06643 
L 422.173887 279.118213 
L 423.768506 278.347671 
L 425.363126 273.870509 
L 426.957746 276.30135 
L 428.552365 274.925393 
L 430.146985 273.096794 
L 431.741605 271.977295 
L 433.336224 271.960432 
L 434.930844 268.917665 
L 436.525464 266.571976 
L 438.120083 264.044295 
L 439.714703 271.296245 
L 441.309323 283.769186 
L 442.903942 288.657081 
L 444.498562 295.907862 
L 446.093182 303.159478 
" clip-path="url(#p2e00ec2038)" style="fill: none; stroke-dasharray: 7.4,3.2; stroke-dashoffset: 0; stroke: #a60628; stroke-width: 2"/>
   </g>
   <g id="patch_43">
    <path d="M 364.05 306.42 
L 364.05 234.68852 
" style="fill: none; stroke: #bcbcbc; stroke-width: 0.8; stroke-linejoin: miter; stroke-linecap: square"/>
   </g>
   <g id="patch_44">
    <path d="M 450 306.42 
L 450 234.68852 
" style="fill: none; stroke: #bcbcbc; stroke-width: 0.8; stroke-linejoin: miter; stroke-linecap: square"/>
   </g>
   <g id="patch_45">
    <path d="M 364.05 306.42 
L 450 306.42 
" style="fill: none; stroke: #bcbcbc; stroke-width: 0.8; stroke-linejoin: miter; stroke-linecap: square"/>
   </g>
   <g id="patch_46">
    <path d="M 364.05 234.68852 
L 450 234.68852 
" style="fill: none; stroke: #bcbcbc; stroke-width: 0.8; stroke-linejoin: miter; stroke-linecap: square"/>
   </g>
   <g id="text_48">
    <!-- Robot 3 $\theta$ -->
    <g transform="translate(373.257 228.68852) scale(0.144 -0.144)">
     <use xlink:href="#DejaVuSans-52" transform="translate(0 0.015625)"/>
     <use xlink:href="#DejaVuSans-6f" transform="translate(69.482422 0.015625)"/>
     <use xlink:href="#DejaVuSans-62" transform="translate(130.664062 0.015625)"/>
     <use xlink:href="#DejaVuSans-6f" transform="translate(194.140625 0.015625)"/>
     <use xlink:href="#DejaVuSans-74" transform="translate(255.322266 0.015625)"/>
     <use xlink:href="#DejaVuSans-20" transform="translate(294.53125 0.015625)"/>
     <use xlink:href="#DejaVuSans-33" transform="translate(326.318359 0.015625)"/>
     <use xlink:href="#DejaVuSans-20" transform="translate(389.941406 0.015625)"/>
     <use xlink:href="#Cmmi10-b5" transform="translate(421.728516 0.015625)"/>
    </g>
   </g>
  </g>
 </g>
 <defs>
  <clipPath id="p9e460f0bb9">
   <rect x="59.79" y="29.04" width="85.95" height="71.73148"/>
  </clipPath>
  <clipPath id="p0ac4cc4f9d">
   <rect x="211.92" y="29.04" width="85.95" height="71.73148"/>
  </clipPath>
  <clipPath id="pc346999244">
   <rect x="364.05" y="29.04" width="85.95" height="71.73148"/>
  </clipPath>
  <clipPath id="p72ad15e3fa">
   <rect x="59.79" y="131.86426" width="85.95" height="71.73148"/>
  </clipPath>
  <clipPath id="pad703fe7ce">
   <rect x="211.92" y="131.86426" width="85.95" height="71.73148"/>
  </clipPath>
  <clipPath id="p675d6749ef">
   <rect x="364.05" y="131.86426" width="85.95" height="71.73148"/>
  </clipPath>
  <clipPath id="p4a1bf52101">
   <rect x="59.79" y="234.68852" width="85.95" height="71.73148"/>
  </clipPath>
  <clipPath id="p166f48568c">
   <rect x="211.92" y="234.68852" width="85.95" height="71.73148"/>
  </clipPath>
  <clipPath id="p2e00ec2038">
   <rect x="364.05" y="234.68852" width="85.95" height="71.73148"/>
  </clipPath>
 </defs>
</svg>
