<?xml version="1.0" encoding="utf-8" standalone="no"?>
<!DOCTYPE svg PUBLIC "-//W3C//DTD SVG 1.1//EN"
  "http://www.w3.org/Graphics/SVG/1.1/DTD/svg11.dtd">
<svg xmlns:xlink="http://www.w3.org/1999/xlink" width="460.8pt" height="345.6pt" viewBox="0 0 460.8 345.6" xmlns="http://www.w3.org/2000/svg" version="1.1">
 <metadata>
  <rdf:RDF xmlns:dc="http://purl.org/dc/elements/1.1/" xmlns:cc="http://creativecommons.org/ns#" xmlns:rdf="http://www.w3.org/1999/02/22-rdf-syntax-ns#">
   <cc:Work>
    <dc:type rdf:resource="http://purl.org/dc/dcmitype/StillImage"/>
    <dc:date>2024-06-07T19:16:19.324451</dc:date>
    <dc:format>image/svg+xml</dc:format>
    <dc:creator>
     <cc:Agent>
      <dc:title>Matplotlib v3.8.4, https://matplotlib.org/</dc:title>
     </cc:Agent>
    </dc:creator>
   </cc:Work>
  </rdf:RDF>
 </metadata>
 <defs>
  <style type="text/css">*{stroke-linejoin: round; stroke-linecap: butt}</style>
 </defs>
 <g id="figure_1">
  <g id="patch_1">
   <path d="M 0 345.6 
L 460.8 345.6 
L 460.8 0 
L 0 0 
z
" style="fill: #ffffff"/>
  </g>
  <g id="axes_1">
   <g id="patch_2">
    <path d="M 59.79 99.102683 
L 154.26 99.102683 
L 154.26 29.04 
L 59.79 29.04 
z
" style="fill: #eeeeee"/>
   </g>
   <g id="matplotlib.axis_1">
    <g id="xtick_1">
     <g id="line2d_1">
      <path d="M 64.084091 99.102683 
L 64.084091 29.04 
" clip-path="url(#p861105ae20)" style="fill: none; stroke-dasharray: 1.85,0.8; stroke-dashoffset: 0; stroke: #b2b2b2; stroke-width: 0.5"/>
     </g>
     <g id="line2d_2">
      <defs>
       <path id="m452cf511fd" d="M 0 0 
L 0 -3.5 
" style="stroke: #000000; stroke-width: 0.8"/>
      </defs>
      <g>
       <use xlink:href="#m452cf511fd" x="64.084091" y="99.102683" style="stroke: #000000; stroke-width: 0.8"/>
      </g>
     </g>
    </g>
    <g id="xtick_2">
     <g id="line2d_3">
      <path d="M 99.137894 99.102683 
L 99.137894 29.04 
" clip-path="url(#p861105ae20)" style="fill: none; stroke-dasharray: 1.85,0.8; stroke-dashoffset: 0; stroke: #b2b2b2; stroke-width: 0.5"/>
     </g>
     <g id="line2d_4">
      <g>
       <use xlink:href="#m452cf511fd" x="99.137894" y="99.102683" style="stroke: #000000; stroke-width: 0.8"/>
      </g>
     </g>
    </g>
    <g id="xtick_3">
     <g id="line2d_5">
      <path d="M 134.191698 99.102683 
L 134.191698 29.04 
" clip-path="url(#p861105ae20)" style="fill: none; stroke-dasharray: 1.85,0.8; stroke-dashoffset: 0; stroke: #b2b2b2; stroke-width: 0.5"/>
     </g>
     <g id="line2d_6">
      <g>
       <use xlink:href="#m452cf511fd" x="134.191698" y="99.102683" style="stroke: #000000; stroke-width: 0.8"/>
      </g>
     </g>
    </g>
   </g>
   <g id="matplotlib.axis_2">
    <g id="ytick_1">
     <g id="line2d_7">
      <path d="M 59.79 84.576179 
L 154.26 84.576179 
" clip-path="url(#p861105ae20)" style="fill: none; stroke-dasharray: 1.85,0.8; stroke-dashoffset: 0; stroke: #b2b2b2; stroke-width: 0.5"/>
     </g>
     <g id="line2d_8">
      <defs>
       <path id="mcddba35368" d="M 0 0 
L 3.5 0 
" style="stroke: #000000; stroke-width: 0.8"/>
      </defs>
      <g>
       <use xlink:href="#mcddba35368" x="59.79" y="84.576179" style="stroke: #000000; stroke-width: 0.8"/>
      </g>
     </g>
     <g id="text_1">
      <!-- −0.45 -->
      <g transform="translate(25.644688 88.375397) scale(0.1 -0.1)">
       <defs>
        <path id="DejaVuSans-2212" d="M 678 2272 
L 4684 2272 
L 4684 1741 
L 678 1741 
L 678 2272 
z
" transform="scale(0.015625)"/>
        <path id="DejaVuSans-30" d="M 2034 4250 
Q 1547 4250 1301 3770 
Q 1056 3291 1056 2328 
Q 1056 1369 1301 889 
Q 1547 409 2034 409 
Q 2525 409 2770 889 
Q 3016 1369 3016 2328 
Q 3016 3291 2770 3770 
Q 2525 4250 2034 4250 
z
M 2034 4750 
Q 2819 4750 3233 4129 
Q 3647 3509 3647 2328 
Q 3647 1150 3233 529 
Q 2819 -91 2034 -91 
Q 1250 -91 836 529 
Q 422 1150 422 2328 
Q 422 3509 836 4129 
Q 1250 4750 2034 4750 
z
" transform="scale(0.015625)"/>
        <path id="DejaVuSans-2e" d="M 684 794 
L 1344 794 
L 1344 0 
L 684 0 
L 684 794 
z
" transform="scale(0.015625)"/>
        <path id="DejaVuSans-34" d="M 2419 4116 
L 825 1625 
L 2419 1625 
L 2419 4116 
z
M 2253 4666 
L 3047 4666 
L 3047 1625 
L 3713 1625 
L 3713 1100 
L 3047 1100 
L 3047 0 
L 2419 0 
L 2419 1100 
L 313 1100 
L 313 1709 
L 2253 4666 
z
" transform="scale(0.015625)"/>
        <path id="DejaVuSans-35" d="M 691 4666 
L 3169 4666 
L 3169 4134 
L 1269 4134 
L 1269 2991 
Q 1406 3038 1543 3061 
Q 1681 3084 1819 3084 
Q 2600 3084 3056 2656 
Q 3513 2228 3513 1497 
Q 3513 744 3044 326 
Q 2575 -91 1722 -91 
Q 1428 -91 1123 -41 
Q 819 9 494 109 
L 494 744 
Q 775 591 1075 516 
Q 1375 441 1709 441 
Q 2250 441 2565 725 
Q 2881 1009 2881 1497 
Q 2881 1984 2565 2268 
Q 2250 2553 1709 2553 
Q 1456 2553 1204 2497 
Q 953 2441 691 2322 
L 691 4666 
z
" transform="scale(0.015625)"/>
       </defs>
       <use xlink:href="#DejaVuSans-2212"/>
       <use xlink:href="#DejaVuSans-30" x="83.789062"/>
       <use xlink:href="#DejaVuSans-2e" x="147.412109"/>
       <use xlink:href="#DejaVuSans-34" x="179.199219"/>
       <use xlink:href="#DejaVuSans-35" x="242.822266"/>
      </g>
     </g>
    </g>
    <g id="ytick_2">
     <g id="line2d_9">
      <path d="M 59.79 63.742972 
L 154.26 63.742972 
" clip-path="url(#p861105ae20)" style="fill: none; stroke-dasharray: 1.85,0.8; stroke-dashoffset: 0; stroke: #b2b2b2; stroke-width: 0.5"/>
     </g>
     <g id="line2d_10">
      <g>
       <use xlink:href="#mcddba35368" x="59.79" y="63.742972" style="stroke: #000000; stroke-width: 0.8"/>
      </g>
     </g>
     <g id="text_2">
      <!-- −0.40 -->
      <g transform="translate(25.644688 67.542191) scale(0.1 -0.1)">
       <use xlink:href="#DejaVuSans-2212"/>
       <use xlink:href="#DejaVuSans-30" x="83.789062"/>
       <use xlink:href="#DejaVuSans-2e" x="147.412109"/>
       <use xlink:href="#DejaVuSans-34" x="179.199219"/>
       <use xlink:href="#DejaVuSans-30" x="242.822266"/>
      </g>
     </g>
    </g>
    <g id="ytick_3">
     <g id="line2d_11">
      <path d="M 59.79 42.909766 
L 154.26 42.909766 
" clip-path="url(#p861105ae20)" style="fill: none; stroke-dasharray: 1.85,0.8; stroke-dashoffset: 0; stroke: #b2b2b2; stroke-width: 0.5"/>
     </g>
     <g id="line2d_12">
      <g>
       <use xlink:href="#mcddba35368" x="59.79" y="42.909766" style="stroke: #000000; stroke-width: 0.8"/>
      </g>
     </g>
     <g id="text_3">
      <!-- −0.35 -->
      <g transform="translate(25.644688 46.708985) scale(0.1 -0.1)">
       <defs>
        <path id="DejaVuSans-33" d="M 2597 2516 
Q 3050 2419 3304 2112 
Q 3559 1806 3559 1356 
Q 3559 666 3084 287 
Q 2609 -91 1734 -91 
Q 1441 -91 1130 -33 
Q 819 25 488 141 
L 488 750 
Q 750 597 1062 519 
Q 1375 441 1716 441 
Q 2309 441 2620 675 
Q 2931 909 2931 1356 
Q 2931 1769 2642 2001 
Q 2353 2234 1838 2234 
L 1294 2234 
L 1294 2753 
L 1863 2753 
Q 2328 2753 2575 2939 
Q 2822 3125 2822 3475 
Q 2822 3834 2567 4026 
Q 2313 4219 1838 4219 
Q 1578 4219 1281 4162 
Q 984 4106 628 3988 
L 628 4550 
Q 988 4650 1302 4700 
Q 1616 4750 1894 4750 
Q 2613 4750 3031 4423 
Q 3450 4097 3450 3541 
Q 3450 3153 3228 2886 
Q 3006 2619 2597 2516 
z
" transform="scale(0.015625)"/>
       </defs>
       <use xlink:href="#DejaVuSans-2212"/>
       <use xlink:href="#DejaVuSans-30" x="83.789062"/>
       <use xlink:href="#DejaVuSans-2e" x="147.412109"/>
       <use xlink:href="#DejaVuSans-33" x="179.199219"/>
       <use xlink:href="#DejaVuSans-35" x="242.822266"/>
      </g>
     </g>
    </g>
    <g id="text_4">
     <!-- Position -->
     <g transform="translate(19.149062 87.428217) rotate(-90) scale(0.12 -0.12)">
      <defs>
       <path id="DejaVuSans-50" d="M 1259 4147 
L 1259 2394 
L 2053 2394 
Q 2494 2394 2734 2622 
Q 2975 2850 2975 3272 
Q 2975 3691 2734 3919 
Q 2494 4147 2053 4147 
L 1259 4147 
z
M 628 4666 
L 2053 4666 
Q 2838 4666 3239 4311 
Q 3641 3956 3641 3272 
Q 3641 2581 3239 2228 
Q 2838 1875 2053 1875 
L 1259 1875 
L 1259 0 
L 628 0 
L 628 4666 
z
" transform="scale(0.015625)"/>
       <path id="DejaVuSans-6f" d="M 1959 3097 
Q 1497 3097 1228 2736 
Q 959 2375 959 1747 
Q 959 1119 1226 758 
Q 1494 397 1959 397 
Q 2419 397 2687 759 
Q 2956 1122 2956 1747 
Q 2956 2369 2687 2733 
Q 2419 3097 1959 3097 
z
M 1959 3584 
Q 2709 3584 3137 3096 
Q 3566 2609 3566 1747 
Q 3566 888 3137 398 
Q 2709 -91 1959 -91 
Q 1206 -91 779 398 
Q 353 888 353 1747 
Q 353 2609 779 3096 
Q 1206 3584 1959 3584 
z
" transform="scale(0.015625)"/>
       <path id="DejaVuSans-73" d="M 2834 3397 
L 2834 2853 
Q 2591 2978 2328 3040 
Q 2066 3103 1784 3103 
Q 1356 3103 1142 2972 
Q 928 2841 928 2578 
Q 928 2378 1081 2264 
Q 1234 2150 1697 2047 
L 1894 2003 
Q 2506 1872 2764 1633 
Q 3022 1394 3022 966 
Q 3022 478 2636 193 
Q 2250 -91 1575 -91 
Q 1294 -91 989 -36 
Q 684 19 347 128 
L 347 722 
Q 666 556 975 473 
Q 1284 391 1588 391 
Q 1994 391 2212 530 
Q 2431 669 2431 922 
Q 2431 1156 2273 1281 
Q 2116 1406 1581 1522 
L 1381 1569 
Q 847 1681 609 1914 
Q 372 2147 372 2553 
Q 372 3047 722 3315 
Q 1072 3584 1716 3584 
Q 2034 3584 2315 3537 
Q 2597 3491 2834 3397 
z
" transform="scale(0.015625)"/>
       <path id="DejaVuSans-69" d="M 603 3500 
L 1178 3500 
L 1178 0 
L 603 0 
L 603 3500 
z
M 603 4863 
L 1178 4863 
L 1178 4134 
L 603 4134 
L 603 4863 
z
" transform="scale(0.015625)"/>
       <path id="DejaVuSans-74" d="M 1172 4494 
L 1172 3500 
L 2356 3500 
L 2356 3053 
L 1172 3053 
L 1172 1153 
Q 1172 725 1289 603 
Q 1406 481 1766 481 
L 2356 481 
L 2356 0 
L 1766 0 
Q 1100 0 847 248 
Q 594 497 594 1153 
L 594 3053 
L 172 3053 
L 172 3500 
L 594 3500 
L 594 4494 
L 1172 4494 
z
" transform="scale(0.015625)"/>
       <path id="DejaVuSans-6e" d="M 3513 2113 
L 3513 0 
L 2938 0 
L 2938 2094 
Q 2938 2591 2744 2837 
Q 2550 3084 2163 3084 
Q 1697 3084 1428 2787 
Q 1159 2491 1159 1978 
L 1159 0 
L 581 0 
L 581 3500 
L 1159 3500 
L 1159 2956 
Q 1366 3272 1645 3428 
Q 1925 3584 2291 3584 
Q 2894 3584 3203 3211 
Q 3513 2838 3513 2113 
z
" transform="scale(0.015625)"/>
      </defs>
      <use xlink:href="#DejaVuSans-50"/>
      <use xlink:href="#DejaVuSans-6f" x="56.677734"/>
      <use xlink:href="#DejaVuSans-73" x="117.859375"/>
      <use xlink:href="#DejaVuSans-69" x="169.958984"/>
      <use xlink:href="#DejaVuSans-74" x="197.742188"/>
      <use xlink:href="#DejaVuSans-69" x="236.951172"/>
      <use xlink:href="#DejaVuSans-6f" x="264.734375"/>
      <use xlink:href="#DejaVuSans-6e" x="325.916016"/>
     </g>
    </g>
   </g>
   <g id="line2d_13">
    <path d="M 64.084091 67.617352 
L 65.836781 76.243234 
L 67.589471 81.953079 
L 69.342161 84.899001 
L 71.094852 85.488937 
L 72.847542 82.687885 
L 74.600232 78.614737 
L 76.352922 73.569938 
L 78.105612 67.920916 
L 79.858302 62.029289 
L 81.610993 60.206339 
L 83.363683 61.408053 
L 85.116373 64.618837 
L 86.869063 68.557517 
L 88.621753 71.990713 
L 90.374443 72.692354 
L 92.127134 72.632634 
L 93.879824 71.880222 
L 95.632514 70.515103 
L 97.385204 68.624377 
L 99.137894 66.587343 
L 100.890584 66.443579 
L 102.643275 67.681794 
L 104.395965 69.51209 
L 106.148655 71.101113 
L 107.901345 73.568195 
L 109.654035 76.325452 
L 111.406725 79.402935 
L 113.159416 82.819093 
L 114.912106 86.581186 
L 116.664796 90.823476 
L 118.417486 93.950892 
L 120.170176 95.70659 
L 121.922866 95.918016 
L 123.675557 94.534529 
L 125.428247 92.657038 
L 127.180937 89.407548 
L 128.933627 85.322631 
L 130.686317 80.948869 
L 132.439007 76.742851 
L 134.191698 72.724952 
L 135.944388 68.871657 
L 137.697078 65.240044 
L 139.449768 61.868542 
L 141.202458 58.777157 
L 142.955148 54.402369 
L 144.707839 49.361003 
L 146.460529 43.845239 
L 148.213219 38.067237 
L 149.965909 32.243701 
" clip-path="url(#p861105ae20)" style="fill: none; stroke: #348abd; stroke-width: 4; stroke-linecap: square"/>
   </g>
   <g id="line2d_14">
    <path d="M 64.084091 62.821608 
L 65.836781 74.935773 
L 67.589471 84.36322 
L 69.342161 87.942184 
L 71.094852 87.741033 
L 72.847542 83.306504 
L 74.600232 78.991661 
L 76.352922 73.771611 
L 78.105612 68.084864 
L 79.858302 62.198448 
L 81.610993 60.405087 
L 83.363683 61.504618 
L 85.116373 64.6591 
L 86.869063 68.539804 
L 88.621753 71.981148 
L 90.374443 72.712913 
L 92.127134 72.591257 
L 93.879824 71.872526 
L 95.632514 70.563159 
L 97.385204 68.675533 
L 99.137894 66.646947 
L 100.890584 66.458435 
L 102.643275 67.662115 
L 104.395965 69.521115 
L 106.148655 71.091505 
L 107.901345 73.556117 
L 109.654035 76.37624 
L 111.406725 79.452398 
L 113.159416 82.829165 
L 114.912106 86.565748 
L 116.664796 90.818669 
L 118.417486 94.011222 
L 120.170176 95.727625 
L 121.922866 95.876713 
L 123.675557 94.491872 
L 125.428247 92.655257 
L 127.180937 89.399862 
L 128.933627 85.327182 
L 130.686317 80.931542 
L 132.439007 76.715999 
L 134.191698 72.727195 
L 135.944388 68.874907 
L 137.697078 65.229904 
L 139.449768 61.863184 
L 141.202458 58.797204 
L 142.955148 54.46521 
L 144.707839 49.3905 
L 146.460529 43.818975 
L 148.213219 38.065489 
L 149.965909 32.224667 
" clip-path="url(#p861105ae20)" style="fill: none; stroke-dasharray: 7.4,3.2; stroke-dashoffset: 0; stroke: #a60628; stroke-width: 2"/>
   </g>
   <g id="patch_3">
    <path d="M 59.79 99.102683 
L 59.79 29.04 
" style="fill: none; stroke: #bcbcbc; stroke-width: 0.8; stroke-linejoin: miter; stroke-linecap: square"/>
   </g>
   <g id="patch_4">
    <path d="M 154.26 99.102683 
L 154.26 29.04 
" style="fill: none; stroke: #bcbcbc; stroke-width: 0.8; stroke-linejoin: miter; stroke-linecap: square"/>
   </g>
   <g id="patch_5">
    <path d="M 59.79 99.102683 
L 154.26 99.102683 
" style="fill: none; stroke: #bcbcbc; stroke-width: 0.8; stroke-linejoin: miter; stroke-linecap: square"/>
   </g>
   <g id="patch_6">
    <path d="M 59.79 29.04 
L 154.26 29.04 
" style="fill: none; stroke: #bcbcbc; stroke-width: 0.8; stroke-linejoin: miter; stroke-linecap: square"/>
   </g>
   <g id="text_5">
    <!-- Robot 1 $x$ -->
    <g transform="translate(72.537 23.04) scale(0.144 -0.144)">
     <defs>
      <path id="DejaVuSans-52" d="M 2841 2188 
Q 3044 2119 3236 1894 
Q 3428 1669 3622 1275 
L 4263 0 
L 3584 0 
L 2988 1197 
Q 2756 1666 2539 1819 
Q 2322 1972 1947 1972 
L 1259 1972 
L 1259 0 
L 628 0 
L 628 4666 
L 2053 4666 
Q 2853 4666 3247 4331 
Q 3641 3997 3641 3322 
Q 3641 2881 3436 2590 
Q 3231 2300 2841 2188 
z
M 1259 4147 
L 1259 2491 
L 2053 2491 
Q 2509 2491 2742 2702 
Q 2975 2913 2975 3322 
Q 2975 3731 2742 3939 
Q 2509 4147 2053 4147 
L 1259 4147 
z
" transform="scale(0.015625)"/>
      <path id="DejaVuSans-62" d="M 3116 1747 
Q 3116 2381 2855 2742 
Q 2594 3103 2138 3103 
Q 1681 3103 1420 2742 
Q 1159 2381 1159 1747 
Q 1159 1113 1420 752 
Q 1681 391 2138 391 
Q 2594 391 2855 752 
Q 3116 1113 3116 1747 
z
M 1159 2969 
Q 1341 3281 1617 3432 
Q 1894 3584 2278 3584 
Q 2916 3584 3314 3078 
Q 3713 2572 3713 1747 
Q 3713 922 3314 415 
Q 2916 -91 2278 -91 
Q 1894 -91 1617 61 
Q 1341 213 1159 525 
L 1159 0 
L 581 0 
L 581 4863 
L 1159 4863 
L 1159 2969 
z
" transform="scale(0.015625)"/>
      <path id="DejaVuSans-20" transform="scale(0.015625)"/>
      <path id="DejaVuSans-31" d="M 794 531 
L 1825 531 
L 1825 4091 
L 703 3866 
L 703 4441 
L 1819 4666 
L 2450 4666 
L 2450 531 
L 3481 531 
L 3481 0 
L 794 0 
L 794 531 
z
" transform="scale(0.015625)"/>
      <path id="Cmmi10-78" d="M 500 184 
Q 613 97 819 97 
Q 1019 97 1172 289 
Q 1325 481 1381 709 
L 1672 1844 
Q 1741 2153 1741 2266 
Q 1741 2425 1652 2544 
Q 1563 2663 1403 2663 
Q 1200 2663 1022 2536 
Q 844 2409 722 2214 
Q 600 2019 550 1819 
Q 538 1778 500 1778 
L 422 1778 
Q 372 1778 372 1838 
L 372 1856 
Q 434 2094 584 2320 
Q 734 2547 951 2687 
Q 1169 2828 1416 2828 
Q 1650 2828 1839 2703 
Q 2028 2578 2106 2363 
Q 2216 2559 2386 2693 
Q 2556 2828 2759 2828 
Q 2897 2828 3040 2779 
Q 3184 2731 3275 2631 
Q 3366 2531 3366 2381 
Q 3366 2219 3261 2101 
Q 3156 1984 2994 1984 
Q 2891 1984 2822 2050 
Q 2753 2116 2753 2216 
Q 2753 2350 2845 2451 
Q 2938 2553 3066 2572 
Q 2950 2663 2747 2663 
Q 2541 2663 2389 2472 
Q 2238 2281 2175 2047 
L 1894 916 
Q 1825 659 1825 494 
Q 1825 331 1917 214 
Q 2009 97 2163 97 
Q 2463 97 2698 361 
Q 2934 625 3009 941 
Q 3022 978 3059 978 
L 3138 978 
Q 3163 978 3178 961 
Q 3194 944 3194 922 
Q 3194 916 3188 903 
Q 3097 522 2806 225 
Q 2516 -72 2150 -72 
Q 1916 -72 1727 54 
Q 1538 181 1459 397 
Q 1359 209 1182 68 
Q 1006 -72 806 -72 
Q 669 -72 523 -23 
Q 378 25 287 125 
Q 197 225 197 378 
Q 197 528 301 651 
Q 406 775 563 775 
Q 669 775 741 711 
Q 813 647 813 544 
Q 813 409 723 309 
Q 634 209 500 184 
z
" transform="scale(0.015625)"/>
     </defs>
     <use xlink:href="#DejaVuSans-52" transform="translate(0 0.015625)"/>
     <use xlink:href="#DejaVuSans-6f" transform="translate(69.482422 0.015625)"/>
     <use xlink:href="#DejaVuSans-62" transform="translate(130.664062 0.015625)"/>
     <use xlink:href="#DejaVuSans-6f" transform="translate(194.140625 0.015625)"/>
     <use xlink:href="#DejaVuSans-74" transform="translate(255.322266 0.015625)"/>
     <use xlink:href="#DejaVuSans-20" transform="translate(294.53125 0.015625)"/>
     <use xlink:href="#DejaVuSans-31" transform="translate(326.318359 0.015625)"/>
     <use xlink:href="#DejaVuSans-20" transform="translate(389.941406 0.015625)"/>
     <use xlink:href="#Cmmi10-78" transform="translate(421.728516 0.015625)"/>
    </g>
   </g>
  </g>
  <g id="axes_2">
   <g id="patch_7">
    <path d="M 207.66 99.102683 
L 302.13 99.102683 
L 302.13 29.04 
L 207.66 29.04 
z
" style="fill: #eeeeee"/>
   </g>
   <g id="matplotlib.axis_3">
    <g id="xtick_4">
     <g id="line2d_15">
      <path d="M 211.954091 99.102683 
L 211.954091 29.04 
" clip-path="url(#pd9398ed4a5)" style="fill: none; stroke-dasharray: 1.85,0.8; stroke-dashoffset: 0; stroke: #b2b2b2; stroke-width: 0.5"/>
     </g>
     <g id="line2d_16">
      <g>
       <use xlink:href="#m452cf511fd" x="211.954091" y="99.102683" style="stroke: #000000; stroke-width: 0.8"/>
      </g>
     </g>
    </g>
    <g id="xtick_5">
     <g id="line2d_17">
      <path d="M 247.007894 99.102683 
L 247.007894 29.04 
" clip-path="url(#pd9398ed4a5)" style="fill: none; stroke-dasharray: 1.85,0.8; stroke-dashoffset: 0; stroke: #b2b2b2; stroke-width: 0.5"/>
     </g>
     <g id="line2d_18">
      <g>
       <use xlink:href="#m452cf511fd" x="247.007894" y="99.102683" style="stroke: #000000; stroke-width: 0.8"/>
      </g>
     </g>
    </g>
    <g id="xtick_6">
     <g id="line2d_19">
      <path d="M 282.061698 99.102683 
L 282.061698 29.04 
" clip-path="url(#pd9398ed4a5)" style="fill: none; stroke-dasharray: 1.85,0.8; stroke-dashoffset: 0; stroke: #b2b2b2; stroke-width: 0.5"/>
     </g>
     <g id="line2d_20">
      <g>
       <use xlink:href="#m452cf511fd" x="282.061698" y="99.102683" style="stroke: #000000; stroke-width: 0.8"/>
      </g>
     </g>
    </g>
   </g>
   <g id="matplotlib.axis_4">
    <g id="ytick_4">
     <g id="line2d_21">
      <path d="M 207.66 79.757965 
L 302.13 79.757965 
" clip-path="url(#pd9398ed4a5)" style="fill: none; stroke-dasharray: 1.85,0.8; stroke-dashoffset: 0; stroke: #b2b2b2; stroke-width: 0.5"/>
     </g>
     <g id="line2d_22">
      <g>
       <use xlink:href="#mcddba35368" x="207.66" y="79.757965" style="stroke: #000000; stroke-width: 0.8"/>
      </g>
     </g>
     <g id="text_6">
      <!-- −0.2 -->
      <g transform="translate(179.877187 83.557184) scale(0.1 -0.1)">
       <defs>
        <path id="DejaVuSans-32" d="M 1228 531 
L 3431 531 
L 3431 0 
L 469 0 
L 469 531 
Q 828 903 1448 1529 
Q 2069 2156 2228 2338 
Q 2531 2678 2651 2914 
Q 2772 3150 2772 3378 
Q 2772 3750 2511 3984 
Q 2250 4219 1831 4219 
Q 1534 4219 1204 4116 
Q 875 4013 500 3803 
L 500 4441 
Q 881 4594 1212 4672 
Q 1544 4750 1819 4750 
Q 2544 4750 2975 4387 
Q 3406 4025 3406 3419 
Q 3406 3131 3298 2873 
Q 3191 2616 2906 2266 
Q 2828 2175 2409 1742 
Q 1991 1309 1228 531 
z
" transform="scale(0.015625)"/>
       </defs>
       <use xlink:href="#DejaVuSans-2212"/>
       <use xlink:href="#DejaVuSans-30" x="83.789062"/>
       <use xlink:href="#DejaVuSans-2e" x="147.412109"/>
       <use xlink:href="#DejaVuSans-32" x="179.199219"/>
      </g>
     </g>
    </g>
    <g id="ytick_5">
     <g id="line2d_23">
      <path d="M 207.66 35.664619 
L 302.13 35.664619 
" clip-path="url(#pd9398ed4a5)" style="fill: none; stroke-dasharray: 1.85,0.8; stroke-dashoffset: 0; stroke: #b2b2b2; stroke-width: 0.5"/>
     </g>
     <g id="line2d_24">
      <g>
       <use xlink:href="#mcddba35368" x="207.66" y="35.664619" style="stroke: #000000; stroke-width: 0.8"/>
      </g>
     </g>
     <g id="text_7">
      <!-- −0.1 -->
      <g transform="translate(179.877187 39.463837) scale(0.1 -0.1)">
       <use xlink:href="#DejaVuSans-2212"/>
       <use xlink:href="#DejaVuSans-30" x="83.789062"/>
       <use xlink:href="#DejaVuSans-2e" x="147.412109"/>
       <use xlink:href="#DejaVuSans-31" x="179.199219"/>
      </g>
     </g>
    </g>
    <g id="text_8">
     <!-- Position -->
     <g transform="translate(173.381563 87.428217) rotate(-90) scale(0.12 -0.12)">
      <use xlink:href="#DejaVuSans-50"/>
      <use xlink:href="#DejaVuSans-6f" x="56.677734"/>
      <use xlink:href="#DejaVuSans-73" x="117.859375"/>
      <use xlink:href="#DejaVuSans-69" x="169.958984"/>
      <use xlink:href="#DejaVuSans-74" x="197.742188"/>
      <use xlink:href="#DejaVuSans-69" x="236.951172"/>
      <use xlink:href="#DejaVuSans-6f" x="264.734375"/>
      <use xlink:href="#DejaVuSans-6e" x="325.916016"/>
     </g>
    </g>
   </g>
   <g id="line2d_25">
    <path d="M 211.954091 53.210994 
L 213.706781 50.90738 
L 215.459471 50.731708 
L 217.212161 52.71748 
L 218.964852 56.650747 
L 220.717542 57.076094 
L 222.470232 57.380504 
L 224.222922 57.768816 
L 225.975612 58.449882 
L 227.728302 59.602342 
L 229.480993 66.843722 
L 231.233683 70.416508 
L 232.986373 69.927339 
L 234.739063 65.808037 
L 236.491753 59.036569 
L 238.244443 56.549125 
L 239.997134 53.914903 
L 241.749824 51.125045 
L 243.502514 48.162403 
L 245.255204 45.009066 
L 247.007894 40.118878 
L 248.760584 35.74048 
L 250.513275 32.925935 
L 252.265965 32.24152 
L 254.018655 33.649606 
L 255.771345 38.388855 
L 257.524035 43.070714 
L 259.276725 47.710605 
L 261.029416 52.316341 
L 262.782106 56.885519 
L 264.534796 61.360165 
L 266.287486 66.22366 
L 268.040176 71.347944 
L 269.792866 76.594918 
L 271.545557 81.803727 
L 273.298247 87.522998 
L 275.050937 91.96017 
L 276.803627 94.791896 
L 278.556317 95.918016 
L 280.309007 95.417263 
L 282.061698 92.622437 
L 283.814388 89.439887 
L 285.567078 85.941571 
L 287.319768 82.198405 
L 289.072458 78.27699 
L 290.825148 74.21861 
L 292.577839 71.091457 
L 294.330529 69.026404 
L 296.083219 68.100147 
L 297.835909 68.332797 
" clip-path="url(#pd9398ed4a5)" style="fill: none; stroke: #348abd; stroke-width: 4; stroke-linecap: square"/>
   </g>
   <g id="line2d_26">
    <path d="M 211.954091 53.302704 
L 213.706781 46.875078 
L 215.459471 48.56951 
L 217.212161 52.766368 
L 218.964852 57.125931 
L 220.717542 57.585428 
L 222.470232 58.659557 
L 224.222922 58.454162 
L 225.975612 58.584579 
L 227.728302 59.607666 
L 229.480993 66.89673 
L 231.233683 70.390586 
L 232.986373 69.956238 
L 234.739063 65.740034 
L 236.491753 59.004083 
L 238.244443 56.539541 
L 239.997134 53.864322 
L 241.749824 51.051102 
L 243.502514 48.131845 
L 245.255204 44.981166 
L 247.007894 40.055332 
L 248.760584 35.757301 
L 250.513275 32.94939 
L 252.265965 32.224667 
L 254.018655 33.658497 
L 255.771345 38.411688 
L 257.524035 43.027351 
L 259.276725 47.668816 
L 261.029416 52.342806 
L 262.782106 56.941673 
L 264.534796 61.387269 
L 266.287486 66.181255 
L 268.040176 71.335484 
L 269.792866 76.568215 
L 271.545557 81.763474 
L 273.298247 87.552845 
L 275.050937 91.994312 
L 276.803627 94.80554 
L 278.556317 95.906929 
L 280.309007 95.413273 
L 282.061698 92.654999 
L 283.814388 89.427887 
L 285.567078 85.934334 
L 287.319768 82.247575 
L 289.072458 78.290944 
L 290.825148 74.242805 
L 292.577839 71.074816 
L 294.330529 69.061386 
L 296.083219 68.1376 
L 297.835909 68.356994 
" clip-path="url(#pd9398ed4a5)" style="fill: none; stroke-dasharray: 7.4,3.2; stroke-dashoffset: 0; stroke: #a60628; stroke-width: 2"/>
   </g>
   <g id="patch_8">
    <path d="M 207.66 99.102683 
L 207.66 29.04 
" style="fill: none; stroke: #bcbcbc; stroke-width: 0.8; stroke-linejoin: miter; stroke-linecap: square"/>
   </g>
   <g id="patch_9">
    <path d="M 302.13 99.102683 
L 302.13 29.04 
" style="fill: none; stroke: #bcbcbc; stroke-width: 0.8; stroke-linejoin: miter; stroke-linecap: square"/>
   </g>
   <g id="patch_10">
    <path d="M 207.66 99.102683 
L 302.13 99.102683 
" style="fill: none; stroke: #bcbcbc; stroke-width: 0.8; stroke-linejoin: miter; stroke-linecap: square"/>
   </g>
   <g id="patch_11">
    <path d="M 207.66 29.04 
L 302.13 29.04 
" style="fill: none; stroke: #bcbcbc; stroke-width: 0.8; stroke-linejoin: miter; stroke-linecap: square"/>
   </g>
   <g id="text_9">
    <!-- Robot 1 $y$ -->
    <g transform="translate(220.983 23.04) scale(0.144 -0.144)">
     <defs>
      <path id="Cmmi10-79" d="M 538 -916 
Q 672 -1147 1006 -1147 
Q 1309 -1147 1531 -934 
Q 1753 -722 1889 -420 
Q 2025 -119 2100 197 
Q 1816 -72 1484 -72 
Q 1231 -72 1053 15 
Q 875 103 776 276 
Q 678 450 678 697 
Q 678 906 734 1126 
Q 791 1347 892 1617 
Q 994 1888 1069 2088 
Q 1153 2322 1153 2472 
Q 1153 2663 1013 2663 
Q 759 2663 595 2402 
Q 431 2141 353 1819 
Q 341 1778 300 1778 
L 225 1778 
Q 172 1778 172 1838 
L 172 1856 
Q 275 2238 487 2533 
Q 700 2828 1025 2828 
Q 1253 2828 1411 2678 
Q 1569 2528 1569 2297 
Q 1569 2178 1516 2047 
Q 1488 1969 1388 1706 
Q 1288 1444 1234 1272 
Q 1181 1100 1147 934 
Q 1113 769 1113 603 
Q 1113 391 1203 244 
Q 1294 97 1491 97 
Q 1888 97 2203 581 
L 2688 2553 
Q 2709 2638 2787 2698 
Q 2866 2759 2956 2759 
Q 3034 2759 3092 2709 
Q 3150 2659 3150 2578 
Q 3150 2541 3144 2528 
L 2509 -19 
Q 2425 -347 2200 -647 
Q 1975 -947 1658 -1130 
Q 1341 -1313 997 -1313 
Q 831 -1313 668 -1248 
Q 506 -1184 406 -1056 
Q 306 -928 306 -756 
Q 306 -581 409 -453 
Q 513 -325 684 -325 
Q 788 -325 858 -389 
Q 928 -453 928 -556 
Q 928 -703 818 -812 
Q 709 -922 563 -922 
Q 556 -919 550 -917 
Q 544 -916 538 -916 
z
" transform="scale(0.015625)"/>
     </defs>
     <use xlink:href="#DejaVuSans-52" transform="translate(0 0.015625)"/>
     <use xlink:href="#DejaVuSans-6f" transform="translate(69.482422 0.015625)"/>
     <use xlink:href="#DejaVuSans-62" transform="translate(130.664062 0.015625)"/>
     <use xlink:href="#DejaVuSans-6f" transform="translate(194.140625 0.015625)"/>
     <use xlink:href="#DejaVuSans-74" transform="translate(255.322266 0.015625)"/>
     <use xlink:href="#DejaVuSans-20" transform="translate(294.53125 0.015625)"/>
     <use xlink:href="#DejaVuSans-31" transform="translate(326.318359 0.015625)"/>
     <use xlink:href="#DejaVuSans-20" transform="translate(389.941406 0.015625)"/>
     <use xlink:href="#Cmmi10-79" transform="translate(421.728516 0.015625)"/>
    </g>
   </g>
  </g>
  <g id="axes_3">
   <g id="patch_12">
    <path d="M 355.53 99.102683 
L 450 99.102683 
L 450 29.04 
L 355.53 29.04 
z
" style="fill: #eeeeee"/>
   </g>
   <g id="matplotlib.axis_5">
    <g id="xtick_7">
     <g id="line2d_27">
      <path d="M 359.824091 99.102683 
L 359.824091 29.04 
" clip-path="url(#pbadb6d01c4)" style="fill: none; stroke-dasharray: 1.85,0.8; stroke-dashoffset: 0; stroke: #b2b2b2; stroke-width: 0.5"/>
     </g>
     <g id="line2d_28">
      <g>
       <use xlink:href="#m452cf511fd" x="359.824091" y="99.102683" style="stroke: #000000; stroke-width: 0.8"/>
      </g>
     </g>
    </g>
    <g id="xtick_8">
     <g id="line2d_29">
      <path d="M 394.877894 99.102683 
L 394.877894 29.04 
" clip-path="url(#pbadb6d01c4)" style="fill: none; stroke-dasharray: 1.85,0.8; stroke-dashoffset: 0; stroke: #b2b2b2; stroke-width: 0.5"/>
     </g>
     <g id="line2d_30">
      <g>
       <use xlink:href="#m452cf511fd" x="394.877894" y="99.102683" style="stroke: #000000; stroke-width: 0.8"/>
      </g>
     </g>
    </g>
    <g id="xtick_9">
     <g id="line2d_31">
      <path d="M 429.931698 99.102683 
L 429.931698 29.04 
" clip-path="url(#pbadb6d01c4)" style="fill: none; stroke-dasharray: 1.85,0.8; stroke-dashoffset: 0; stroke: #b2b2b2; stroke-width: 0.5"/>
     </g>
     <g id="line2d_32">
      <g>
       <use xlink:href="#m452cf511fd" x="429.931698" y="99.102683" style="stroke: #000000; stroke-width: 0.8"/>
      </g>
     </g>
    </g>
   </g>
   <g id="matplotlib.axis_6">
    <g id="ytick_6">
     <g id="line2d_33">
      <path d="M 355.53 96.349689 
L 450 96.349689 
" clip-path="url(#pbadb6d01c4)" style="fill: none; stroke-dasharray: 1.85,0.8; stroke-dashoffset: 0; stroke: #b2b2b2; stroke-width: 0.5"/>
     </g>
     <g id="line2d_34">
      <g>
       <use xlink:href="#mcddba35368" x="355.53" y="96.349689" style="stroke: #000000; stroke-width: 0.8"/>
      </g>
     </g>
     <g id="text_10">
      <!-- 0.0 -->
      <g transform="translate(336.126875 100.148908) scale(0.1 -0.1)">
       <use xlink:href="#DejaVuSans-30"/>
       <use xlink:href="#DejaVuSans-2e" x="63.623047"/>
       <use xlink:href="#DejaVuSans-30" x="95.410156"/>
      </g>
     </g>
    </g>
    <g id="ytick_7">
     <g id="line2d_35">
      <path d="M 355.53 70.681937 
L 450 70.681937 
" clip-path="url(#pbadb6d01c4)" style="fill: none; stroke-dasharray: 1.85,0.8; stroke-dashoffset: 0; stroke: #b2b2b2; stroke-width: 0.5"/>
     </g>
     <g id="line2d_36">
      <g>
       <use xlink:href="#mcddba35368" x="355.53" y="70.681937" style="stroke: #000000; stroke-width: 0.8"/>
      </g>
     </g>
     <g id="text_11">
      <!-- 2.5 -->
      <g transform="translate(336.126875 74.481155) scale(0.1 -0.1)">
       <use xlink:href="#DejaVuSans-32"/>
       <use xlink:href="#DejaVuSans-2e" x="63.623047"/>
       <use xlink:href="#DejaVuSans-35" x="95.410156"/>
      </g>
     </g>
    </g>
    <g id="ytick_8">
     <g id="line2d_37">
      <path d="M 355.53 45.014184 
L 450 45.014184 
" clip-path="url(#pbadb6d01c4)" style="fill: none; stroke-dasharray: 1.85,0.8; stroke-dashoffset: 0; stroke: #b2b2b2; stroke-width: 0.5"/>
     </g>
     <g id="line2d_38">
      <g>
       <use xlink:href="#mcddba35368" x="355.53" y="45.014184" style="stroke: #000000; stroke-width: 0.8"/>
      </g>
     </g>
     <g id="text_12">
      <!-- 5.0 -->
      <g transform="translate(336.126875 48.813403) scale(0.1 -0.1)">
       <use xlink:href="#DejaVuSans-35"/>
       <use xlink:href="#DejaVuSans-2e" x="63.623047"/>
       <use xlink:href="#DejaVuSans-30" x="95.410156"/>
      </g>
     </g>
    </g>
    <g id="text_13">
     <!-- Angle [rad] -->
     <g transform="translate(329.63125 97.687279) rotate(-90) scale(0.12 -0.12)">
      <defs>
       <path id="DejaVuSans-41" d="M 2188 4044 
L 1331 1722 
L 3047 1722 
L 2188 4044 
z
M 1831 4666 
L 2547 4666 
L 4325 0 
L 3669 0 
L 3244 1197 
L 1141 1197 
L 716 0 
L 50 0 
L 1831 4666 
z
" transform="scale(0.015625)"/>
       <path id="DejaVuSans-67" d="M 2906 1791 
Q 2906 2416 2648 2759 
Q 2391 3103 1925 3103 
Q 1463 3103 1205 2759 
Q 947 2416 947 1791 
Q 947 1169 1205 825 
Q 1463 481 1925 481 
Q 2391 481 2648 825 
Q 2906 1169 2906 1791 
z
M 3481 434 
Q 3481 -459 3084 -895 
Q 2688 -1331 1869 -1331 
Q 1566 -1331 1297 -1286 
Q 1028 -1241 775 -1147 
L 775 -588 
Q 1028 -725 1275 -790 
Q 1522 -856 1778 -856 
Q 2344 -856 2625 -561 
Q 2906 -266 2906 331 
L 2906 616 
Q 2728 306 2450 153 
Q 2172 0 1784 0 
Q 1141 0 747 490 
Q 353 981 353 1791 
Q 353 2603 747 3093 
Q 1141 3584 1784 3584 
Q 2172 3584 2450 3431 
Q 2728 3278 2906 2969 
L 2906 3500 
L 3481 3500 
L 3481 434 
z
" transform="scale(0.015625)"/>
       <path id="DejaVuSans-6c" d="M 603 4863 
L 1178 4863 
L 1178 0 
L 603 0 
L 603 4863 
z
" transform="scale(0.015625)"/>
       <path id="DejaVuSans-65" d="M 3597 1894 
L 3597 1613 
L 953 1613 
Q 991 1019 1311 708 
Q 1631 397 2203 397 
Q 2534 397 2845 478 
Q 3156 559 3463 722 
L 3463 178 
Q 3153 47 2828 -22 
Q 2503 -91 2169 -91 
Q 1331 -91 842 396 
Q 353 884 353 1716 
Q 353 2575 817 3079 
Q 1281 3584 2069 3584 
Q 2775 3584 3186 3129 
Q 3597 2675 3597 1894 
z
M 3022 2063 
Q 3016 2534 2758 2815 
Q 2500 3097 2075 3097 
Q 1594 3097 1305 2825 
Q 1016 2553 972 2059 
L 3022 2063 
z
" transform="scale(0.015625)"/>
       <path id="DejaVuSans-5b" d="M 550 4863 
L 1875 4863 
L 1875 4416 
L 1125 4416 
L 1125 -397 
L 1875 -397 
L 1875 -844 
L 550 -844 
L 550 4863 
z
" transform="scale(0.015625)"/>
       <path id="DejaVuSans-72" d="M 2631 2963 
Q 2534 3019 2420 3045 
Q 2306 3072 2169 3072 
Q 1681 3072 1420 2755 
Q 1159 2438 1159 1844 
L 1159 0 
L 581 0 
L 581 3500 
L 1159 3500 
L 1159 2956 
Q 1341 3275 1631 3429 
Q 1922 3584 2338 3584 
Q 2397 3584 2469 3576 
Q 2541 3569 2628 3553 
L 2631 2963 
z
" transform="scale(0.015625)"/>
       <path id="DejaVuSans-61" d="M 2194 1759 
Q 1497 1759 1228 1600 
Q 959 1441 959 1056 
Q 959 750 1161 570 
Q 1363 391 1709 391 
Q 2188 391 2477 730 
Q 2766 1069 2766 1631 
L 2766 1759 
L 2194 1759 
z
M 3341 1997 
L 3341 0 
L 2766 0 
L 2766 531 
Q 2569 213 2275 61 
Q 1981 -91 1556 -91 
Q 1019 -91 701 211 
Q 384 513 384 1019 
Q 384 1609 779 1909 
Q 1175 2209 1959 2209 
L 2766 2209 
L 2766 2266 
Q 2766 2663 2505 2880 
Q 2244 3097 1772 3097 
Q 1472 3097 1187 3025 
Q 903 2953 641 2809 
L 641 3341 
Q 956 3463 1253 3523 
Q 1550 3584 1831 3584 
Q 2591 3584 2966 3190 
Q 3341 2797 3341 1997 
z
" transform="scale(0.015625)"/>
       <path id="DejaVuSans-64" d="M 2906 2969 
L 2906 4863 
L 3481 4863 
L 3481 0 
L 2906 0 
L 2906 525 
Q 2725 213 2448 61 
Q 2172 -91 1784 -91 
Q 1150 -91 751 415 
Q 353 922 353 1747 
Q 353 2572 751 3078 
Q 1150 3584 1784 3584 
Q 2172 3584 2448 3432 
Q 2725 3281 2906 2969 
z
M 947 1747 
Q 947 1113 1208 752 
Q 1469 391 1925 391 
Q 2381 391 2643 752 
Q 2906 1113 2906 1747 
Q 2906 2381 2643 2742 
Q 2381 3103 1925 3103 
Q 1469 3103 1208 2742 
Q 947 2381 947 1747 
z
" transform="scale(0.015625)"/>
       <path id="DejaVuSans-5d" d="M 1947 4863 
L 1947 -844 
L 622 -844 
L 622 -397 
L 1369 -397 
L 1369 4416 
L 622 4416 
L 622 4863 
L 1947 4863 
z
" transform="scale(0.015625)"/>
      </defs>
      <use xlink:href="#DejaVuSans-41"/>
      <use xlink:href="#DejaVuSans-6e" x="68.408203"/>
      <use xlink:href="#DejaVuSans-67" x="131.787109"/>
      <use xlink:href="#DejaVuSans-6c" x="195.263672"/>
      <use xlink:href="#DejaVuSans-65" x="223.046875"/>
      <use xlink:href="#DejaVuSans-20" x="284.570312"/>
      <use xlink:href="#DejaVuSans-5b" x="316.357422"/>
      <use xlink:href="#DejaVuSans-72" x="355.371094"/>
      <use xlink:href="#DejaVuSans-61" x="396.484375"/>
      <use xlink:href="#DejaVuSans-64" x="457.763672"/>
      <use xlink:href="#DejaVuSans-5d" x="521.240234"/>
     </g>
    </g>
   </g>
   <g id="line2d_39">
    <path d="M 359.824091 64.511314 
L 361.576781 62.094059 
L 363.329471 59.676804 
L 365.082161 57.259548 
L 366.834852 54.842293 
L 368.587542 54.561495 
L 370.340232 54.280696 
L 372.092922 53.999898 
L 373.845612 53.7191 
L 375.598302 53.438301 
L 377.350993 58.169817 
L 379.103683 62.901332 
L 380.856373 67.632847 
L 382.609063 72.364363 
L 384.361753 77.095878 
L 386.114443 77.837181 
L 387.867134 78.578485 
L 389.619824 79.319789 
L 391.372514 80.061092 
L 393.125204 80.802396 
L 394.877894 75.251945 
L 396.630584 69.701493 
L 398.383275 64.151042 
L 400.135965 58.600591 
L 401.888655 53.050139 
L 403.641345 53.523784 
L 405.394035 53.99743 
L 407.146725 54.471075 
L 408.899416 54.94472 
L 410.652106 55.418366 
L 412.404796 53.152997 
L 414.157486 50.887627 
L 415.910176 48.622258 
L 417.662866 46.356889 
L 419.415557 44.09152 
L 421.168247 41.130606 
L 422.920937 38.169692 
L 424.673627 35.208779 
L 426.426317 32.247865 
L 428.179007 93.797049 
L 429.931698 93.347424 
L 431.684388 92.897799 
L 433.437078 92.448174 
L 435.189768 91.998549 
L 436.942458 91.548924 
L 438.695148 93.277538 
L 440.447839 95.006152 
L 442.200529 32.224667 
L 443.953219 33.953281 
L 445.705909 35.681894 
" clip-path="url(#pbadb6d01c4)" style="fill: none; stroke: #348abd; stroke-width: 4; stroke-linecap: square"/>
   </g>
   <g id="line2d_40">
    <path d="M 359.824091 86.612374 
L 361.576781 73.899239 
L 363.329471 63.136032 
L 365.082161 55.913845 
L 366.834852 50.709657 
L 368.587542 47.407347 
L 370.340232 51.239953 
L 372.092922 54.571832 
L 373.845612 54.697091 
L 375.598302 53.759807 
L 377.350993 57.816134 
L 379.103683 62.268359 
L 380.856373 66.707546 
L 382.609063 71.566451 
L 384.361753 76.274328 
L 386.114443 76.877417 
L 387.867134 77.917166 
L 389.619824 78.456805 
L 391.372514 79.185256 
L 393.125204 79.942866 
L 394.877894 74.457461 
L 396.630584 68.765175 
L 398.383275 63.224329 
L 400.135965 57.829584 
L 401.888655 52.153417 
L 403.641345 52.65979 
L 405.394035 53.296864 
L 407.146725 53.628799 
L 408.899416 53.97131 
L 410.652106 54.488977 
L 412.404796 52.336377 
L 414.157486 50.187883 
L 415.910176 47.716181 
L 417.662866 45.305568 
L 419.415557 43.200197 
L 421.168247 40.452207 
L 422.920937 37.343226 
L 424.673627 34.306731 
L 426.426317 95.860931 
L 428.179007 92.947435 
L 429.931698 92.533363 
L 431.684388 91.934278 
L 433.437078 91.559837 
L 435.189768 91.238168 
L 436.942458 90.610746 
L 438.695148 92.396092 
L 440.447839 94.089753 
L 442.200529 95.918016 
L 443.953219 33.094187 
L 445.705909 34.777991 
" clip-path="url(#pbadb6d01c4)" style="fill: none; stroke-dasharray: 7.4,3.2; stroke-dashoffset: 0; stroke: #a60628; stroke-width: 2"/>
   </g>
   <g id="patch_13">
    <path d="M 355.53 99.102683 
L 355.53 29.04 
" style="fill: none; stroke: #bcbcbc; stroke-width: 0.8; stroke-linejoin: miter; stroke-linecap: square"/>
   </g>
   <g id="patch_14">
    <path d="M 450 99.102683 
L 450 29.04 
" style="fill: none; stroke: #bcbcbc; stroke-width: 0.8; stroke-linejoin: miter; stroke-linecap: square"/>
   </g>
   <g id="patch_15">
    <path d="M 355.53 99.102683 
L 450 99.102683 
" style="fill: none; stroke: #bcbcbc; stroke-width: 0.8; stroke-linejoin: miter; stroke-linecap: square"/>
   </g>
   <g id="patch_16">
    <path d="M 355.53 29.04 
L 450 29.04 
" style="fill: none; stroke: #bcbcbc; stroke-width: 0.8; stroke-linejoin: miter; stroke-linecap: square"/>
   </g>
   <g id="text_14">
    <!-- Robot 1 $\theta$ -->
    <g transform="translate(368.997 23.04) scale(0.144 -0.144)">
     <defs>
      <path id="Cmmi10-b5" d="M 1031 -72 
Q 741 -72 566 140 
Q 391 353 323 653 
Q 256 953 256 1247 
L 256 1253 
Q 256 1572 317 1915 
Q 378 2259 493 2601 
Q 609 2944 744 3213 
Q 838 3400 986 3631 
Q 1134 3863 1317 4064 
Q 1500 4266 1711 4389 
Q 1922 4513 2138 4513 
L 2144 4513 
Q 2375 4513 2529 4384 
Q 2684 4256 2770 4056 
Q 2856 3856 2890 3628 
Q 2925 3400 2925 3194 
Q 2925 2709 2794 2204 
Q 2663 1700 2431 1228 
Q 2344 1050 2189 809 
Q 2034 569 1861 378 
Q 1688 188 1472 58 
Q 1256 -72 1038 -72 
L 1031 -72 
z
M 1044 97 
Q 1256 97 1451 323 
Q 1647 550 1794 873 
Q 1941 1197 2052 1536 
Q 2163 1875 2216 2113 
L 909 2113 
Q 809 1709 753 1417 
Q 697 1125 697 844 
Q 697 97 1044 97 
z
M 959 2338 
L 2272 2338 
Q 2341 2619 2381 2808 
Q 2422 2997 2450 3206 
Q 2478 3416 2478 3597 
Q 2478 4347 2138 4347 
Q 1731 4347 1436 3692 
Q 1141 3038 959 2338 
z
" transform="scale(0.015625)"/>
     </defs>
     <use xlink:href="#DejaVuSans-52" transform="translate(0 0.015625)"/>
     <use xlink:href="#DejaVuSans-6f" transform="translate(69.482422 0.015625)"/>
     <use xlink:href="#DejaVuSans-62" transform="translate(130.664062 0.015625)"/>
     <use xlink:href="#DejaVuSans-6f" transform="translate(194.140625 0.015625)"/>
     <use xlink:href="#DejaVuSans-74" transform="translate(255.322266 0.015625)"/>
     <use xlink:href="#DejaVuSans-20" transform="translate(294.53125 0.015625)"/>
     <use xlink:href="#DejaVuSans-31" transform="translate(326.318359 0.015625)"/>
     <use xlink:href="#DejaVuSans-20" transform="translate(389.941406 0.015625)"/>
     <use xlink:href="#Cmmi10-b5" transform="translate(421.728516 0.015625)"/>
    </g>
   </g>
  </g>
  <g id="axes_4">
   <g id="patch_17">
    <path d="M 59.79 202.761342 
L 154.26 202.761342 
L 154.26 132.698658 
L 59.79 132.698658 
z
" style="fill: #eeeeee"/>
   </g>
   <g id="matplotlib.axis_7">
    <g id="xtick_10">
     <g id="line2d_41">
      <path d="M 64.084091 202.761342 
L 64.084091 132.698658 
" clip-path="url(#p2990611b05)" style="fill: none; stroke-dasharray: 1.85,0.8; stroke-dashoffset: 0; stroke: #b2b2b2; stroke-width: 0.5"/>
     </g>
     <g id="line2d_42">
      <g>
       <use xlink:href="#m452cf511fd" x="64.084091" y="202.761342" style="stroke: #000000; stroke-width: 0.8"/>
      </g>
     </g>
    </g>
    <g id="xtick_11">
     <g id="line2d_43">
      <path d="M 99.137894 202.761342 
L 99.137894 132.698658 
" clip-path="url(#p2990611b05)" style="fill: none; stroke-dasharray: 1.85,0.8; stroke-dashoffset: 0; stroke: #b2b2b2; stroke-width: 0.5"/>
     </g>
     <g id="line2d_44">
      <g>
       <use xlink:href="#m452cf511fd" x="99.137894" y="202.761342" style="stroke: #000000; stroke-width: 0.8"/>
      </g>
     </g>
    </g>
    <g id="xtick_12">
     <g id="line2d_45">
      <path d="M 134.191698 202.761342 
L 134.191698 132.698658 
" clip-path="url(#p2990611b05)" style="fill: none; stroke-dasharray: 1.85,0.8; stroke-dashoffset: 0; stroke: #b2b2b2; stroke-width: 0.5"/>
     </g>
     <g id="line2d_46">
      <g>
       <use xlink:href="#m452cf511fd" x="134.191698" y="202.761342" style="stroke: #000000; stroke-width: 0.8"/>
      </g>
     </g>
    </g>
   </g>
   <g id="matplotlib.axis_8">
    <g id="ytick_9">
     <g id="line2d_47">
      <path d="M 59.79 187.047035 
L 154.26 187.047035 
" clip-path="url(#p2990611b05)" style="fill: none; stroke-dasharray: 1.85,0.8; stroke-dashoffset: 0; stroke: #b2b2b2; stroke-width: 0.5"/>
     </g>
     <g id="line2d_48">
      <g>
       <use xlink:href="#mcddba35368" x="59.79" y="187.047035" style="stroke: #000000; stroke-width: 0.8"/>
      </g>
     </g>
     <g id="text_15">
      <!-- −0.3 -->
      <g transform="translate(32.007188 190.846253) scale(0.1 -0.1)">
       <use xlink:href="#DejaVuSans-2212"/>
       <use xlink:href="#DejaVuSans-30" x="83.789062"/>
       <use xlink:href="#DejaVuSans-2e" x="147.412109"/>
       <use xlink:href="#DejaVuSans-33" x="179.199219"/>
      </g>
     </g>
    </g>
    <g id="ytick_10">
     <g id="line2d_49">
      <path d="M 59.79 152.913883 
L 154.26 152.913883 
" clip-path="url(#p2990611b05)" style="fill: none; stroke-dasharray: 1.85,0.8; stroke-dashoffset: 0; stroke: #b2b2b2; stroke-width: 0.5"/>
     </g>
     <g id="line2d_50">
      <g>
       <use xlink:href="#mcddba35368" x="59.79" y="152.913883" style="stroke: #000000; stroke-width: 0.8"/>
      </g>
     </g>
     <g id="text_16">
      <!-- −0.2 -->
      <g transform="translate(32.007188 156.713101) scale(0.1 -0.1)">
       <use xlink:href="#DejaVuSans-2212"/>
       <use xlink:href="#DejaVuSans-30" x="83.789062"/>
       <use xlink:href="#DejaVuSans-2e" x="147.412109"/>
       <use xlink:href="#DejaVuSans-32" x="179.199219"/>
      </g>
     </g>
    </g>
    <g id="text_17">
     <!-- Position -->
     <g transform="translate(25.511562 191.086875) rotate(-90) scale(0.12 -0.12)">
      <use xlink:href="#DejaVuSans-50"/>
      <use xlink:href="#DejaVuSans-6f" x="56.677734"/>
      <use xlink:href="#DejaVuSans-73" x="117.859375"/>
      <use xlink:href="#DejaVuSans-69" x="169.958984"/>
      <use xlink:href="#DejaVuSans-74" x="197.742188"/>
      <use xlink:href="#DejaVuSans-69" x="236.951172"/>
      <use xlink:href="#DejaVuSans-6f" x="264.734375"/>
      <use xlink:href="#DejaVuSans-6e" x="325.916016"/>
     </g>
    </g>
   </g>
   <g id="line2d_51">
    <path d="M 64.084091 136.459383 
L 65.836781 137.960674 
L 67.589471 142.40812 
L 69.342161 148.212565 
L 71.094852 153.525812 
L 72.847542 154.172904 
L 74.600232 154.599689 
L 76.352922 154.723389 
L 78.105612 154.523937 
L 79.858302 154.029253 
L 81.610993 156.438456 
L 83.363683 158.605855 
L 85.116373 160.934349 
L 86.869063 163.72081 
L 88.621753 167.109662 
L 90.374443 173.357384 
L 92.127134 179.313779 
L 93.879824 184.930915 
L 95.632514 190.194663 
L 97.385204 195.119568 
L 99.137894 197.635374 
L 100.890584 199.113992 
L 102.643275 199.570067 
L 104.395965 199.153295 
L 106.148655 198.087897 
L 107.901345 197.749616 
L 109.654035 197.381843 
L 111.406725 196.998413 
L 113.159416 196.601204 
L 114.912106 196.181468 
L 116.664796 194.113949 
L 118.417486 192.023406 
L 120.170176 189.803393 
L 121.922866 187.379526 
L 123.675557 184.730572 
L 125.428247 182.671604 
L 127.180937 180.83782 
L 128.933627 179.342441 
L 130.686317 178.242852 
L 132.439007 177.529842 
L 134.191698 176.843755 
L 135.944388 175.377467 
L 137.697078 173.261464 
L 139.449768 170.654192 
L 141.202458 167.730982 
L 142.955148 167.187658 
L 144.707839 166.692064 
L 146.460529 166.325256 
L 148.213219 166.161552 
L 149.965909 166.259462 
" clip-path="url(#p2990611b05)" style="fill: none; stroke: #348abd; stroke-width: 4; stroke-linecap: square"/>
   </g>
   <g id="line2d_52">
    <path d="M 64.084091 135.883326 
L 65.836781 136.309147 
L 67.589471 142.899039 
L 69.342161 149.703874 
L 71.094852 154.662023 
L 72.847542 154.215688 
L 74.600232 154.387886 
L 76.352922 154.255263 
L 78.105612 154.175648 
L 79.858302 153.790572 
L 81.610993 156.344483 
L 83.363683 158.580195 
L 85.116373 160.87671 
L 86.869063 163.719604 
L 88.621753 167.153692 
L 90.374443 173.324903 
L 92.127134 179.306497 
L 93.879824 184.947719 
L 95.632514 190.172177 
L 97.385204 195.120816 
L 99.137894 197.655697 
L 100.890584 199.127808 
L 102.643275 199.576674 
L 104.395965 199.160879 
L 106.148655 198.058969 
L 107.901345 197.762326 
L 109.654035 197.368696 
L 111.406725 196.979776 
L 113.159416 196.56547 
L 114.912106 196.179927 
L 116.664796 194.091181 
L 118.417486 191.986128 
L 120.170176 189.773248 
L 121.922866 187.360276 
L 123.675557 184.752451 
L 125.428247 182.645581 
L 127.180937 180.820067 
L 128.933627 179.321219 
L 130.686317 178.226474 
L 132.439007 177.535639 
L 134.191698 176.831317 
L 135.944388 175.378051 
L 137.697078 173.290118 
L 139.449768 170.690653 
L 141.202458 167.723095 
L 142.955148 167.173536 
L 144.707839 166.663487 
L 146.460529 166.303765 
L 148.213219 166.171455 
L 149.965909 166.220683 
" clip-path="url(#p2990611b05)" style="fill: none; stroke-dasharray: 7.4,3.2; stroke-dashoffset: 0; stroke: #a60628; stroke-width: 2"/>
   </g>
   <g id="patch_18">
    <path d="M 59.79 202.761342 
L 59.79 132.698658 
" style="fill: none; stroke: #bcbcbc; stroke-width: 0.8; stroke-linejoin: miter; stroke-linecap: square"/>
   </g>
   <g id="patch_19">
    <path d="M 154.26 202.761342 
L 154.26 132.698658 
" style="fill: none; stroke: #bcbcbc; stroke-width: 0.8; stroke-linejoin: miter; stroke-linecap: square"/>
   </g>
   <g id="patch_20">
    <path d="M 59.79 202.761342 
L 154.26 202.761342 
" style="fill: none; stroke: #bcbcbc; stroke-width: 0.8; stroke-linejoin: miter; stroke-linecap: square"/>
   </g>
   <g id="patch_21">
    <path d="M 59.79 132.698658 
L 154.26 132.698658 
" style="fill: none; stroke: #bcbcbc; stroke-width: 0.8; stroke-linejoin: miter; stroke-linecap: square"/>
   </g>
   <g id="text_18">
    <!-- Robot 2 $x$ -->
    <g transform="translate(72.537 126.698658) scale(0.144 -0.144)">
     <use xlink:href="#DejaVuSans-52" transform="translate(0 0.015625)"/>
     <use xlink:href="#DejaVuSans-6f" transform="translate(69.482422 0.015625)"/>
     <use xlink:href="#DejaVuSans-62" transform="translate(130.664062 0.015625)"/>
     <use xlink:href="#DejaVuSans-6f" transform="translate(194.140625 0.015625)"/>
     <use xlink:href="#DejaVuSans-74" transform="translate(255.322266 0.015625)"/>
     <use xlink:href="#DejaVuSans-20" transform="translate(294.53125 0.015625)"/>
     <use xlink:href="#DejaVuSans-32" transform="translate(326.318359 0.015625)"/>
     <use xlink:href="#DejaVuSans-20" transform="translate(389.941406 0.015625)"/>
     <use xlink:href="#Cmmi10-78" transform="translate(421.728516 0.015625)"/>
    </g>
   </g>
  </g>
  <g id="axes_5">
   <g id="patch_22">
    <path d="M 207.66 202.761342 
L 302.13 202.761342 
L 302.13 132.698658 
L 207.66 132.698658 
z
" style="fill: #eeeeee"/>
   </g>
   <g id="matplotlib.axis_9">
    <g id="xtick_13">
     <g id="line2d_53">
      <path d="M 211.954091 202.761342 
L 211.954091 132.698658 
" clip-path="url(#p562034447c)" style="fill: none; stroke-dasharray: 1.85,0.8; stroke-dashoffset: 0; stroke: #b2b2b2; stroke-width: 0.5"/>
     </g>
     <g id="line2d_54">
      <g>
       <use xlink:href="#m452cf511fd" x="211.954091" y="202.761342" style="stroke: #000000; stroke-width: 0.8"/>
      </g>
     </g>
    </g>
    <g id="xtick_14">
     <g id="line2d_55">
      <path d="M 247.007894 202.761342 
L 247.007894 132.698658 
" clip-path="url(#p562034447c)" style="fill: none; stroke-dasharray: 1.85,0.8; stroke-dashoffset: 0; stroke: #b2b2b2; stroke-width: 0.5"/>
     </g>
     <g id="line2d_56">
      <g>
       <use xlink:href="#m452cf511fd" x="247.007894" y="202.761342" style="stroke: #000000; stroke-width: 0.8"/>
      </g>
     </g>
    </g>
    <g id="xtick_15">
     <g id="line2d_57">
      <path d="M 282.061698 202.761342 
L 282.061698 132.698658 
" clip-path="url(#p562034447c)" style="fill: none; stroke-dasharray: 1.85,0.8; stroke-dashoffset: 0; stroke: #b2b2b2; stroke-width: 0.5"/>
     </g>
     <g id="line2d_58">
      <g>
       <use xlink:href="#m452cf511fd" x="282.061698" y="202.761342" style="stroke: #000000; stroke-width: 0.8"/>
      </g>
     </g>
    </g>
   </g>
   <g id="matplotlib.axis_10">
    <g id="ytick_11">
     <g id="line2d_59">
      <path d="M 207.66 179.40648 
L 302.13 179.40648 
" clip-path="url(#p562034447c)" style="fill: none; stroke-dasharray: 1.85,0.8; stroke-dashoffset: 0; stroke: #b2b2b2; stroke-width: 0.5"/>
     </g>
     <g id="line2d_60">
      <g>
       <use xlink:href="#mcddba35368" x="207.66" y="179.40648" style="stroke: #000000; stroke-width: 0.8"/>
      </g>
     </g>
     <g id="text_19">
      <!-- 0.0 -->
      <g transform="translate(188.256875 183.205699) scale(0.1 -0.1)">
       <use xlink:href="#DejaVuSans-30"/>
       <use xlink:href="#DejaVuSans-2e" x="63.623047"/>
       <use xlink:href="#DejaVuSans-30" x="95.410156"/>
      </g>
     </g>
    </g>
    <g id="ytick_12">
     <g id="line2d_61">
      <path d="M 207.66 143.906495 
L 302.13 143.906495 
" clip-path="url(#p562034447c)" style="fill: none; stroke-dasharray: 1.85,0.8; stroke-dashoffset: 0; stroke: #b2b2b2; stroke-width: 0.5"/>
     </g>
     <g id="line2d_62">
      <g>
       <use xlink:href="#mcddba35368" x="207.66" y="143.906495" style="stroke: #000000; stroke-width: 0.8"/>
      </g>
     </g>
     <g id="text_20">
      <!-- 0.2 -->
      <g transform="translate(188.256875 147.705713) scale(0.1 -0.1)">
       <use xlink:href="#DejaVuSans-30"/>
       <use xlink:href="#DejaVuSans-2e" x="63.623047"/>
       <use xlink:href="#DejaVuSans-32" x="95.410156"/>
      </g>
     </g>
    </g>
    <g id="text_21">
     <!-- Position -->
     <g transform="translate(181.76125 191.086875) rotate(-90) scale(0.12 -0.12)">
      <use xlink:href="#DejaVuSans-50"/>
      <use xlink:href="#DejaVuSans-6f" x="56.677734"/>
      <use xlink:href="#DejaVuSans-73" x="117.859375"/>
      <use xlink:href="#DejaVuSans-69" x="169.958984"/>
      <use xlink:href="#DejaVuSans-74" x="197.742188"/>
      <use xlink:href="#DejaVuSans-69" x="236.951172"/>
      <use xlink:href="#DejaVuSans-6f" x="264.734375"/>
      <use xlink:href="#DejaVuSans-6e" x="325.916016"/>
     </g>
    </g>
   </g>
   <g id="line2d_63">
    <path d="M 211.954091 191.470407 
L 213.706781 196.101355 
L 215.459471 198.94188 
L 217.212161 199.387456 
L 218.964852 197.416509 
L 220.717542 194.944698 
L 222.470232 192.851675 
L 224.222922 191.224902 
L 225.975612 190.114233 
L 227.728302 189.532867 
L 229.480993 189.3583 
L 231.233683 188.856435 
L 232.986373 188.149732 
L 234.739063 187.296227 
L 236.491753 186.280041 
L 238.244443 184.468158 
L 239.997134 182.819563 
L 241.749824 181.300309 
L 243.502514 179.873003 
L 245.255204 178.5017 
L 247.007894 177.661484 
L 248.760584 176.402844 
L 250.513275 174.835307 
L 252.265965 173.086117 
L 254.018655 171.290259 
L 255.771345 170.253489 
L 257.524035 169.305599 
L 259.276725 168.433426 
L 261.029416 167.619706 
L 262.782106 166.844322 
L 264.534796 164.66337 
L 266.287486 162.407984 
L 268.040176 160.139687 
L 269.792866 157.934237 
L 271.545557 155.86621 
L 273.298247 154.685031 
L 275.050937 153.480328 
L 276.803627 152.14817 
L 278.556317 150.596923 
L 280.309007 148.76861 
L 282.061698 146.437276 
L 283.814388 144.30197 
L 285.567078 142.448776 
L 287.319768 140.946965 
L 289.072458 139.847591 
L 290.825148 139.399746 
L 292.577839 138.736681 
L 294.330529 137.899515 
L 296.083219 136.935738 
L 297.835909 135.894415 
" clip-path="url(#p562034447c)" style="fill: none; stroke: #348abd; stroke-width: 4; stroke-linecap: square"/>
   </g>
   <g id="line2d_64">
    <path d="M 211.954091 188.284927 
L 213.706781 196.051441 
L 215.459471 199.576674 
L 217.212161 199.53632 
L 218.964852 196.884496 
L 220.717542 194.746047 
L 222.470232 192.981354 
L 224.222922 191.283352 
L 225.975612 190.103311 
L 227.728302 189.505474 
L 229.480993 189.299808 
L 231.233683 188.817296 
L 232.986373 188.116686 
L 234.739063 187.277946 
L 236.491753 186.286237 
L 238.244443 184.470541 
L 239.997134 182.861072 
L 241.749824 181.370104 
L 243.502514 179.875934 
L 245.255204 178.494863 
L 247.007894 177.646742 
L 248.760584 176.393153 
L 250.513275 174.827973 
L 252.265965 173.068182 
L 254.018655 171.280389 
L 255.771345 170.232782 
L 257.524035 169.300477 
L 259.276725 168.416715 
L 261.029416 167.63437 
L 262.782106 166.858268 
L 264.534796 164.680919 
L 266.287486 162.415334 
L 268.040176 160.156976 
L 269.792866 157.974871 
L 271.545557 155.854863 
L 273.298247 154.681741 
L 275.050937 153.46371 
L 276.803627 152.148417 
L 278.556317 150.574455 
L 280.309007 148.75611 
L 282.061698 146.422624 
L 283.814388 144.317156 
L 285.567078 142.441231 
L 287.319768 140.944102 
L 289.072458 139.840835 
L 290.825148 139.403596 
L 292.577839 138.74597 
L 294.330529 137.902527 
L 296.083219 136.93838 
L 297.835909 135.883326 
" clip-path="url(#p562034447c)" style="fill: none; stroke-dasharray: 7.4,3.2; stroke-dashoffset: 0; stroke: #a60628; stroke-width: 2"/>
   </g>
   <g id="patch_23">
    <path d="M 207.66 202.761342 
L 207.66 132.698658 
" style="fill: none; stroke: #bcbcbc; stroke-width: 0.8; stroke-linejoin: miter; stroke-linecap: square"/>
   </g>
   <g id="patch_24">
    <path d="M 302.13 202.761342 
L 302.13 132.698658 
" style="fill: none; stroke: #bcbcbc; stroke-width: 0.8; stroke-linejoin: miter; stroke-linecap: square"/>
   </g>
   <g id="patch_25">
    <path d="M 207.66 202.761342 
L 302.13 202.761342 
" style="fill: none; stroke: #bcbcbc; stroke-width: 0.8; stroke-linejoin: miter; stroke-linecap: square"/>
   </g>
   <g id="patch_26">
    <path d="M 207.66 132.698658 
L 302.13 132.698658 
" style="fill: none; stroke: #bcbcbc; stroke-width: 0.8; stroke-linejoin: miter; stroke-linecap: square"/>
   </g>
   <g id="text_22">
    <!-- Robot 2 $y$ -->
    <g transform="translate(220.983 126.698658) scale(0.144 -0.144)">
     <use xlink:href="#DejaVuSans-52" transform="translate(0 0.015625)"/>
     <use xlink:href="#DejaVuSans-6f" transform="translate(69.482422 0.015625)"/>
     <use xlink:href="#DejaVuSans-62" transform="translate(130.664062 0.015625)"/>
     <use xlink:href="#DejaVuSans-6f" transform="translate(194.140625 0.015625)"/>
     <use xlink:href="#DejaVuSans-74" transform="translate(255.322266 0.015625)"/>
     <use xlink:href="#DejaVuSans-20" transform="translate(294.53125 0.015625)"/>
     <use xlink:href="#DejaVuSans-32" transform="translate(326.318359 0.015625)"/>
     <use xlink:href="#DejaVuSans-20" transform="translate(389.941406 0.015625)"/>
     <use xlink:href="#Cmmi10-79" transform="translate(421.728516 0.015625)"/>
    </g>
   </g>
  </g>
  <g id="axes_6">
   <g id="patch_27">
    <path d="M 355.53 202.761342 
L 450 202.761342 
L 450 132.698658 
L 355.53 132.698658 
z
" style="fill: #eeeeee"/>
   </g>
   <g id="matplotlib.axis_11">
    <g id="xtick_16">
     <g id="line2d_65">
      <path d="M 359.824091 202.761342 
L 359.824091 132.698658 
" clip-path="url(#pd39d1adcc7)" style="fill: none; stroke-dasharray: 1.85,0.8; stroke-dashoffset: 0; stroke: #b2b2b2; stroke-width: 0.5"/>
     </g>
     <g id="line2d_66">
      <g>
       <use xlink:href="#m452cf511fd" x="359.824091" y="202.761342" style="stroke: #000000; stroke-width: 0.8"/>
      </g>
     </g>
    </g>
    <g id="xtick_17">
     <g id="line2d_67">
      <path d="M 394.877894 202.761342 
L 394.877894 132.698658 
" clip-path="url(#pd39d1adcc7)" style="fill: none; stroke-dasharray: 1.85,0.8; stroke-dashoffset: 0; stroke: #b2b2b2; stroke-width: 0.5"/>
     </g>
     <g id="line2d_68">
      <g>
       <use xlink:href="#m452cf511fd" x="394.877894" y="202.761342" style="stroke: #000000; stroke-width: 0.8"/>
      </g>
     </g>
    </g>
    <g id="xtick_18">
     <g id="line2d_69">
      <path d="M 429.931698 202.761342 
L 429.931698 132.698658 
" clip-path="url(#pd39d1adcc7)" style="fill: none; stroke-dasharray: 1.85,0.8; stroke-dashoffset: 0; stroke: #b2b2b2; stroke-width: 0.5"/>
     </g>
     <g id="line2d_70">
      <g>
       <use xlink:href="#m452cf511fd" x="429.931698" y="202.761342" style="stroke: #000000; stroke-width: 0.8"/>
      </g>
     </g>
    </g>
   </g>
   <g id="matplotlib.axis_12">
    <g id="ytick_13">
     <g id="line2d_71">
      <path d="M 355.53 202.65032 
L 450 202.65032 
" clip-path="url(#pd39d1adcc7)" style="fill: none; stroke-dasharray: 1.85,0.8; stroke-dashoffset: 0; stroke: #b2b2b2; stroke-width: 0.5"/>
     </g>
     <g id="line2d_72">
      <g>
       <use xlink:href="#mcddba35368" x="355.53" y="202.65032" style="stroke: #000000; stroke-width: 0.8"/>
      </g>
     </g>
     <g id="text_23">
      <!-- 0 -->
      <g transform="translate(345.6675 206.449538) scale(0.1 -0.1)">
       <use xlink:href="#DejaVuSans-30"/>
      </g>
     </g>
    </g>
    <g id="ytick_14">
     <g id="line2d_73">
      <path d="M 355.53 174.201698 
L 450 174.201698 
" clip-path="url(#pd39d1adcc7)" style="fill: none; stroke-dasharray: 1.85,0.8; stroke-dashoffset: 0; stroke: #b2b2b2; stroke-width: 0.5"/>
     </g>
     <g id="line2d_74">
      <g>
       <use xlink:href="#mcddba35368" x="355.53" y="174.201698" style="stroke: #000000; stroke-width: 0.8"/>
      </g>
     </g>
     <g id="text_24">
      <!-- 2 -->
      <g transform="translate(345.6675 178.000917) scale(0.1 -0.1)">
       <use xlink:href="#DejaVuSans-32"/>
      </g>
     </g>
    </g>
    <g id="ytick_15">
     <g id="line2d_75">
      <path d="M 355.53 145.753076 
L 450 145.753076 
" clip-path="url(#pd39d1adcc7)" style="fill: none; stroke-dasharray: 1.85,0.8; stroke-dashoffset: 0; stroke: #b2b2b2; stroke-width: 0.5"/>
     </g>
     <g id="line2d_76">
      <g>
       <use xlink:href="#mcddba35368" x="355.53" y="145.753076" style="stroke: #000000; stroke-width: 0.8"/>
      </g>
     </g>
     <g id="text_25">
      <!-- 4 -->
      <g transform="translate(345.6675 149.552295) scale(0.1 -0.1)">
       <use xlink:href="#DejaVuSans-34"/>
      </g>
     </g>
    </g>
    <g id="text_26">
     <!-- Angle [rad] -->
     <g transform="translate(339.171875 201.345937) rotate(-90) scale(0.12 -0.12)">
      <use xlink:href="#DejaVuSans-41"/>
      <use xlink:href="#DejaVuSans-6e" x="68.408203"/>
      <use xlink:href="#DejaVuSans-67" x="131.787109"/>
      <use xlink:href="#DejaVuSans-6c" x="195.263672"/>
      <use xlink:href="#DejaVuSans-65" x="223.046875"/>
      <use xlink:href="#DejaVuSans-20" x="284.570312"/>
      <use xlink:href="#DejaVuSans-5b" x="316.357422"/>
      <use xlink:href="#DejaVuSans-72" x="355.371094"/>
      <use xlink:href="#DejaVuSans-61" x="396.484375"/>
      <use xlink:href="#DejaVuSans-64" x="457.763672"/>
      <use xlink:href="#DejaVuSans-5d" x="521.240234"/>
     </g>
    </g>
   </g>
   <g id="line2d_77">
    <path d="M 359.824091 139.404146 
L 361.576781 146.332274 
L 363.329471 153.260402 
L 365.082161 160.18853 
L 366.834852 167.116658 
L 368.587542 165.170308 
L 370.340232 163.223958 
L 372.092922 161.277608 
L 373.845612 159.331258 
L 375.598302 157.384908 
L 377.350993 159.702776 
L 379.103683 162.020645 
L 380.856373 164.338513 
L 382.609063 166.656382 
L 384.361753 168.97425 
L 386.114443 168.473127 
L 387.867134 167.972003 
L 389.619824 167.470879 
L 391.372514 166.969755 
L 393.125204 166.468632 
L 394.877894 170.024198 
L 396.630584 173.579765 
L 398.383275 177.135331 
L 400.135965 180.690898 
L 401.888655 184.246465 
L 403.641345 185.001029 
L 405.394035 185.755593 
L 407.146725 186.510157 
L 408.899416 187.264722 
L 410.652106 188.019286 
L 412.404796 187.92336 
L 414.157486 187.827434 
L 415.910176 187.731508 
L 417.662866 187.635582 
L 419.415557 187.539655 
L 421.168247 186.775544 
L 422.920937 186.011432 
L 424.673627 185.24732 
L 426.426317 184.483209 
L 428.179007 183.719097 
L 429.931698 186.890612 
L 431.684388 190.062128 
L 433.437078 193.233643 
L 435.189768 196.405159 
L 436.942458 199.576674 
L 438.695148 196.171627 
L 440.447839 192.766581 
L 442.200529 189.361534 
L 443.953219 185.956487 
L 445.705909 182.551441 
" clip-path="url(#pd39d1adcc7)" style="fill: none; stroke: #348abd; stroke-width: 4; stroke-linecap: square"/>
   </g>
   <g id="line2d_78">
    <path d="M 359.824091 199.437053 
L 361.576781 135.883326 
L 363.329471 151.7477 
L 365.082161 164.716146 
L 366.834852 173.873046 
L 368.587542 171.294463 
L 370.340232 165.966605 
L 372.092922 163.905929 
L 373.845612 160.983687 
L 375.598302 158.158312 
L 377.350993 159.203657 
L 379.103683 160.929777 
L 380.856373 163.128428 
L 382.609063 165.307166 
L 384.361753 167.625444 
L 386.114443 167.35945 
L 387.867134 166.686498 
L 389.619824 166.153655 
L 391.372514 166.01511 
L 393.125204 165.308873 
L 394.877894 168.856985 
L 396.630584 172.393433 
L 398.383275 175.868432 
L 400.135965 179.442717 
L 401.888655 183.169487 
L 403.641345 183.622531 
L 405.394035 184.642841 
L 407.146725 185.327315 
L 408.899416 186.204528 
L 410.652106 186.681469 
L 412.404796 186.736233 
L 414.157486 186.610916 
L 415.910176 186.532256 
L 417.662866 186.507079 
L 419.415557 186.129423 
L 421.168247 185.657176 
L 422.920937 184.76901 
L 424.673627 184.069174 
L 426.426317 183.188689 
L 428.179007 182.435228 
L 429.931698 185.762294 
L 431.684388 188.953234 
L 433.437078 191.8567 
L 435.189768 195.252612 
L 436.942458 198.40287 
L 438.695148 195.032846 
L 440.447839 191.610619 
L 442.200529 188.100344 
L 443.953219 184.588788 
L 445.705909 181.525299 
" clip-path="url(#pd39d1adcc7)" style="fill: none; stroke-dasharray: 7.4,3.2; stroke-dashoffset: 0; stroke: #a60628; stroke-width: 2"/>
   </g>
   <g id="patch_28">
    <path d="M 355.53 202.761342 
L 355.53 132.698658 
" style="fill: none; stroke: #bcbcbc; stroke-width: 0.8; stroke-linejoin: miter; stroke-linecap: square"/>
   </g>
   <g id="patch_29">
    <path d="M 450 202.761342 
L 450 132.698658 
" style="fill: none; stroke: #bcbcbc; stroke-width: 0.8; stroke-linejoin: miter; stroke-linecap: square"/>
   </g>
   <g id="patch_30">
    <path d="M 355.53 202.761342 
L 450 202.761342 
" style="fill: none; stroke: #bcbcbc; stroke-width: 0.8; stroke-linejoin: miter; stroke-linecap: square"/>
   </g>
   <g id="patch_31">
    <path d="M 355.53 132.698658 
L 450 132.698658 
" style="fill: none; stroke: #bcbcbc; stroke-width: 0.8; stroke-linejoin: miter; stroke-linecap: square"/>
   </g>
   <g id="text_27">
    <!-- Robot 2 $\theta$ -->
    <g transform="translate(368.997 126.698658) scale(0.144 -0.144)">
     <use xlink:href="#DejaVuSans-52" transform="translate(0 0.015625)"/>
     <use xlink:href="#DejaVuSans-6f" transform="translate(69.482422 0.015625)"/>
     <use xlink:href="#DejaVuSans-62" transform="translate(130.664062 0.015625)"/>
     <use xlink:href="#DejaVuSans-6f" transform="translate(194.140625 0.015625)"/>
     <use xlink:href="#DejaVuSans-74" transform="translate(255.322266 0.015625)"/>
     <use xlink:href="#DejaVuSans-20" transform="translate(294.53125 0.015625)"/>
     <use xlink:href="#DejaVuSans-32" transform="translate(326.318359 0.015625)"/>
     <use xlink:href="#DejaVuSans-20" transform="translate(389.941406 0.015625)"/>
     <use xlink:href="#Cmmi10-b5" transform="translate(421.728516 0.015625)"/>
    </g>
   </g>
  </g>
  <g id="axes_7">
   <g id="patch_32">
    <path d="M 59.79 306.42 
L 154.26 306.42 
L 154.26 236.357317 
L 59.79 236.357317 
z
" style="fill: #eeeeee"/>
   </g>
   <g id="matplotlib.axis_13">
    <g id="xtick_19">
     <g id="line2d_79">
      <path d="M 64.084091 306.42 
L 64.084091 236.357317 
" clip-path="url(#p3cf08e0055)" style="fill: none; stroke-dasharray: 1.85,0.8; stroke-dashoffset: 0; stroke: #b2b2b2; stroke-width: 0.5"/>
     </g>
     <g id="line2d_80">
      <g>
       <use xlink:href="#m452cf511fd" x="64.084091" y="306.42" style="stroke: #000000; stroke-width: 0.8"/>
      </g>
     </g>
     <g id="text_28">
      <!-- 0 -->
      <g transform="translate(60.902841 317.518438) scale(0.1 -0.1)">
       <use xlink:href="#DejaVuSans-30"/>
      </g>
     </g>
    </g>
    <g id="xtick_20">
     <g id="line2d_81">
      <path d="M 99.137894 306.42 
L 99.137894 236.357317 
" clip-path="url(#p3cf08e0055)" style="fill: none; stroke-dasharray: 1.85,0.8; stroke-dashoffset: 0; stroke: #b2b2b2; stroke-width: 0.5"/>
     </g>
     <g id="line2d_82">
      <g>
       <use xlink:href="#m452cf511fd" x="99.137894" y="306.42" style="stroke: #000000; stroke-width: 0.8"/>
      </g>
     </g>
     <g id="text_29">
      <!-- 20 -->
      <g transform="translate(92.775394 317.518438) scale(0.1 -0.1)">
       <use xlink:href="#DejaVuSans-32"/>
       <use xlink:href="#DejaVuSans-30" x="63.623047"/>
      </g>
     </g>
    </g>
    <g id="xtick_21">
     <g id="line2d_83">
      <path d="M 134.191698 306.42 
L 134.191698 236.357317 
" clip-path="url(#p3cf08e0055)" style="fill: none; stroke-dasharray: 1.85,0.8; stroke-dashoffset: 0; stroke: #b2b2b2; stroke-width: 0.5"/>
     </g>
     <g id="line2d_84">
      <g>
       <use xlink:href="#m452cf511fd" x="134.191698" y="306.42" style="stroke: #000000; stroke-width: 0.8"/>
      </g>
     </g>
     <g id="text_30">
      <!-- 40 -->
      <g transform="translate(127.829198 317.518438) scale(0.1 -0.1)">
       <use xlink:href="#DejaVuSans-34"/>
       <use xlink:href="#DejaVuSans-30" x="63.623047"/>
      </g>
     </g>
    </g>
    <g id="text_31">
     <!-- Iteration -->
     <g transform="translate(81.574688 332.71625) scale(0.12 -0.12)">
      <defs>
       <path id="DejaVuSans-49" d="M 628 4666 
L 1259 4666 
L 1259 0 
L 628 0 
L 628 4666 
z
" transform="scale(0.015625)"/>
      </defs>
      <use xlink:href="#DejaVuSans-49"/>
      <use xlink:href="#DejaVuSans-74" x="29.492188"/>
      <use xlink:href="#DejaVuSans-65" x="68.701172"/>
      <use xlink:href="#DejaVuSans-72" x="130.224609"/>
      <use xlink:href="#DejaVuSans-61" x="171.337891"/>
      <use xlink:href="#DejaVuSans-74" x="232.617188"/>
      <use xlink:href="#DejaVuSans-69" x="271.826172"/>
      <use xlink:href="#DejaVuSans-6f" x="299.609375"/>
      <use xlink:href="#DejaVuSans-6e" x="360.791016"/>
     </g>
    </g>
   </g>
   <g id="matplotlib.axis_14">
    <g id="ytick_16">
     <g id="line2d_85">
      <path d="M 59.79 301.886208 
L 154.26 301.886208 
" clip-path="url(#p3cf08e0055)" style="fill: none; stroke-dasharray: 1.85,0.8; stroke-dashoffset: 0; stroke: #b2b2b2; stroke-width: 0.5"/>
     </g>
     <g id="line2d_86">
      <g>
       <use xlink:href="#mcddba35368" x="59.79" y="301.886208" style="stroke: #000000; stroke-width: 0.8"/>
      </g>
     </g>
     <g id="text_32">
      <!-- 0.0 -->
      <g transform="translate(40.386875 305.685427) scale(0.1 -0.1)">
       <use xlink:href="#DejaVuSans-30"/>
       <use xlink:href="#DejaVuSans-2e" x="63.623047"/>
       <use xlink:href="#DejaVuSans-30" x="95.410156"/>
      </g>
     </g>
    </g>
    <g id="ytick_17">
     <g id="line2d_87">
      <path d="M 59.79 261.570113 
L 154.26 261.570113 
" clip-path="url(#p3cf08e0055)" style="fill: none; stroke-dasharray: 1.85,0.8; stroke-dashoffset: 0; stroke: #b2b2b2; stroke-width: 0.5"/>
     </g>
     <g id="line2d_88">
      <g>
       <use xlink:href="#mcddba35368" x="59.79" y="261.570113" style="stroke: #000000; stroke-width: 0.8"/>
      </g>
     </g>
     <g id="text_33">
      <!-- 0.2 -->
      <g transform="translate(40.386875 265.369331) scale(0.1 -0.1)">
       <use xlink:href="#DejaVuSans-30"/>
       <use xlink:href="#DejaVuSans-2e" x="63.623047"/>
       <use xlink:href="#DejaVuSans-32" x="95.410156"/>
      </g>
     </g>
    </g>
    <g id="text_34">
     <!-- Position -->
     <g transform="translate(33.89125 294.745533) rotate(-90) scale(0.12 -0.12)">
      <use xlink:href="#DejaVuSans-50"/>
      <use xlink:href="#DejaVuSans-6f" x="56.677734"/>
      <use xlink:href="#DejaVuSans-73" x="117.859375"/>
      <use xlink:href="#DejaVuSans-69" x="169.958984"/>
      <use xlink:href="#DejaVuSans-74" x="197.742188"/>
      <use xlink:href="#DejaVuSans-69" x="236.951172"/>
      <use xlink:href="#DejaVuSans-6f" x="264.734375"/>
      <use xlink:href="#DejaVuSans-6e" x="325.916016"/>
     </g>
    </g>
   </g>
   <g id="line2d_89">
    <path d="M 64.084091 301.913156 
L 65.836781 300.559218 
L 67.589471 298.573498 
L 69.342161 296.110809 
L 71.094852 293.346988 
L 72.847542 288.962977 
L 74.600232 284.157824 
L 76.352922 279.460257 
L 78.105612 275.319646 
L 79.858302 272.055854 
L 81.610993 270.845559 
L 83.363683 270.07172 
L 85.116373 269.698301 
L 86.869063 269.640713 
L 88.621753 269.789796 
L 90.374443 270.309659 
L 92.127134 270.886906 
L 93.879824 271.440233 
L 95.632514 271.907646 
L 97.385204 272.24637 
L 99.137894 272.500426 
L 100.890584 272.517164 
L 102.643275 272.312609 
L 104.395965 271.937248 
L 106.148655 271.460169 
L 107.901345 271.440556 
L 109.654035 271.020271 
L 111.406725 270.282454 
L 113.159416 269.329113 
L 114.912106 268.272673 
L 116.664796 265.758712 
L 118.417486 263.216863 
L 120.170176 260.608725 
L 121.922866 257.931561 
L 123.675557 255.2183 
L 125.428247 252.781768 
L 127.180937 250.732114 
L 128.933627 248.953205 
L 130.686317 247.26367 
L 132.439007 245.467136 
L 134.191698 243.611395 
L 135.944388 242.00701 
L 137.697078 240.746082 
L 139.449768 239.90488 
L 141.202458 239.541984 
L 142.955148 239.913814 
L 144.707839 240.227164 
L 146.460529 240.46014 
L 148.213219 240.597402 
L 149.965909 240.628286 
" clip-path="url(#p3cf08e0055)" style="fill: none; stroke: #348abd; stroke-width: 4; stroke-linecap: square"/>
   </g>
   <g id="line2d_90">
    <path d="M 64.084091 303.235333 
L 65.836781 302.401901 
L 67.589471 299.472124 
L 69.342161 297.129843 
L 71.094852 294.043415 
L 72.847542 289.023037 
L 74.600232 284.194706 
L 76.352922 279.410306 
L 78.105612 275.222397 
L 79.858302 271.96644 
L 81.610993 270.783144 
L 83.363683 270.072492 
L 85.116373 269.696 
L 86.869063 269.636182 
L 88.621753 269.771222 
L 90.374443 270.287413 
L 92.127134 270.903559 
L 93.879824 271.42805 
L 95.632514 271.869008 
L 97.385204 272.222241 
L 99.137894 272.497069 
L 100.890584 272.496063 
L 102.643275 272.312409 
L 104.395965 271.947911 
L 106.148655 271.47828 
L 107.901345 271.482435 
L 109.654035 271.022786 
L 111.406725 270.268577 
L 113.159416 269.332472 
L 114.912106 268.289383 
L 116.664796 265.747971 
L 118.417486 263.236267 
L 120.170176 260.604139 
L 121.922866 257.942423 
L 123.675557 255.239838 
L 125.428247 252.802371 
L 127.180937 250.733858 
L 128.933627 248.958853 
L 130.686317 247.273973 
L 132.439007 245.472434 
L 134.191698 243.602125 
L 135.944388 242.001409 
L 137.697078 240.744186 
L 139.449768 239.903167 
L 141.202458 239.542478 
L 142.955148 239.899416 
L 144.707839 240.226457 
L 146.460529 240.477263 
L 148.213219 240.599714 
L 149.965909 240.619535 
" clip-path="url(#p3cf08e0055)" style="fill: none; stroke-dasharray: 7.4,3.2; stroke-dashoffset: 0; stroke: #a60628; stroke-width: 2"/>
   </g>
   <g id="patch_33">
    <path d="M 59.79 306.42 
L 59.79 236.357317 
" style="fill: none; stroke: #bcbcbc; stroke-width: 0.8; stroke-linejoin: miter; stroke-linecap: square"/>
   </g>
   <g id="patch_34">
    <path d="M 154.26 306.42 
L 154.26 236.357317 
" style="fill: none; stroke: #bcbcbc; stroke-width: 0.8; stroke-linejoin: miter; stroke-linecap: square"/>
   </g>
   <g id="patch_35">
    <path d="M 59.79 306.42 
L 154.26 306.42 
" style="fill: none; stroke: #bcbcbc; stroke-width: 0.8; stroke-linejoin: miter; stroke-linecap: square"/>
   </g>
   <g id="patch_36">
    <path d="M 59.79 236.357317 
L 154.26 236.357317 
" style="fill: none; stroke: #bcbcbc; stroke-width: 0.8; stroke-linejoin: miter; stroke-linecap: square"/>
   </g>
   <g id="text_35">
    <!-- Robot 3 $x$ -->
    <g transform="translate(72.537 230.357317) scale(0.144 -0.144)">
     <use xlink:href="#DejaVuSans-52" transform="translate(0 0.015625)"/>
     <use xlink:href="#DejaVuSans-6f" transform="translate(69.482422 0.015625)"/>
     <use xlink:href="#DejaVuSans-62" transform="translate(130.664062 0.015625)"/>
     <use xlink:href="#DejaVuSans-6f" transform="translate(194.140625 0.015625)"/>
     <use xlink:href="#DejaVuSans-74" transform="translate(255.322266 0.015625)"/>
     <use xlink:href="#DejaVuSans-20" transform="translate(294.53125 0.015625)"/>
     <use xlink:href="#DejaVuSans-33" transform="translate(326.318359 0.015625)"/>
     <use xlink:href="#DejaVuSans-20" transform="translate(389.941406 0.015625)"/>
     <use xlink:href="#Cmmi10-78" transform="translate(421.728516 0.015625)"/>
    </g>
   </g>
  </g>
  <g id="axes_8">
   <g id="patch_37">
    <path d="M 207.66 306.42 
L 302.13 306.42 
L 302.13 236.357317 
L 207.66 236.357317 
z
" style="fill: #eeeeee"/>
   </g>
   <g id="matplotlib.axis_15">
    <g id="xtick_22">
     <g id="line2d_91">
      <path d="M 211.954091 306.42 
L 211.954091 236.357317 
" clip-path="url(#p4acac93eea)" style="fill: none; stroke-dasharray: 1.85,0.8; stroke-dashoffset: 0; stroke: #b2b2b2; stroke-width: 0.5"/>
     </g>
     <g id="line2d_92">
      <g>
       <use xlink:href="#m452cf511fd" x="211.954091" y="306.42" style="stroke: #000000; stroke-width: 0.8"/>
      </g>
     </g>
     <g id="text_36">
      <!-- 0 -->
      <g transform="translate(208.772841 317.518438) scale(0.1 -0.1)">
       <use xlink:href="#DejaVuSans-30"/>
      </g>
     </g>
    </g>
    <g id="xtick_23">
     <g id="line2d_93">
      <path d="M 247.007894 306.42 
L 247.007894 236.357317 
" clip-path="url(#p4acac93eea)" style="fill: none; stroke-dasharray: 1.85,0.8; stroke-dashoffset: 0; stroke: #b2b2b2; stroke-width: 0.5"/>
     </g>
     <g id="line2d_94">
      <g>
       <use xlink:href="#m452cf511fd" x="247.007894" y="306.42" style="stroke: #000000; stroke-width: 0.8"/>
      </g>
     </g>
     <g id="text_37">
      <!-- 20 -->
      <g transform="translate(240.645394 317.518438) scale(0.1 -0.1)">
       <use xlink:href="#DejaVuSans-32"/>
       <use xlink:href="#DejaVuSans-30" x="63.623047"/>
      </g>
     </g>
    </g>
    <g id="xtick_24">
     <g id="line2d_95">
      <path d="M 282.061698 306.42 
L 282.061698 236.357317 
" clip-path="url(#p4acac93eea)" style="fill: none; stroke-dasharray: 1.85,0.8; stroke-dashoffset: 0; stroke: #b2b2b2; stroke-width: 0.5"/>
     </g>
     <g id="line2d_96">
      <g>
       <use xlink:href="#m452cf511fd" x="282.061698" y="306.42" style="stroke: #000000; stroke-width: 0.8"/>
      </g>
     </g>
     <g id="text_38">
      <!-- 40 -->
      <g transform="translate(275.699198 317.518438) scale(0.1 -0.1)">
       <use xlink:href="#DejaVuSans-34"/>
       <use xlink:href="#DejaVuSans-30" x="63.623047"/>
      </g>
     </g>
    </g>
    <g id="text_39">
     <!-- Iteration -->
     <g transform="translate(229.444687 332.71625) scale(0.12 -0.12)">
      <use xlink:href="#DejaVuSans-49"/>
      <use xlink:href="#DejaVuSans-74" x="29.492188"/>
      <use xlink:href="#DejaVuSans-65" x="68.701172"/>
      <use xlink:href="#DejaVuSans-72" x="130.224609"/>
      <use xlink:href="#DejaVuSans-61" x="171.337891"/>
      <use xlink:href="#DejaVuSans-74" x="232.617188"/>
      <use xlink:href="#DejaVuSans-69" x="271.826172"/>
      <use xlink:href="#DejaVuSans-6f" x="299.609375"/>
      <use xlink:href="#DejaVuSans-6e" x="360.791016"/>
     </g>
    </g>
   </g>
   <g id="matplotlib.axis_16">
    <g id="ytick_18">
     <g id="line2d_97">
      <path d="M 207.66 288.946956 
L 302.13 288.946956 
" clip-path="url(#p4acac93eea)" style="fill: none; stroke-dasharray: 1.85,0.8; stroke-dashoffset: 0; stroke: #b2b2b2; stroke-width: 0.5"/>
     </g>
     <g id="line2d_98">
      <g>
       <use xlink:href="#mcddba35368" x="207.66" y="288.946956" style="stroke: #000000; stroke-width: 0.8"/>
      </g>
     </g>
     <g id="text_40">
      <!-- −0.2 -->
      <g transform="translate(179.877187 292.746175) scale(0.1 -0.1)">
       <use xlink:href="#DejaVuSans-2212"/>
       <use xlink:href="#DejaVuSans-30" x="83.789062"/>
       <use xlink:href="#DejaVuSans-2e" x="147.412109"/>
       <use xlink:href="#DejaVuSans-32" x="179.199219"/>
      </g>
     </g>
    </g>
    <g id="ytick_19">
     <g id="line2d_99">
      <path d="M 207.66 260.335739 
L 302.13 260.335739 
" clip-path="url(#p4acac93eea)" style="fill: none; stroke-dasharray: 1.85,0.8; stroke-dashoffset: 0; stroke: #b2b2b2; stroke-width: 0.5"/>
     </g>
     <g id="line2d_100">
      <g>
       <use xlink:href="#mcddba35368" x="207.66" y="260.335739" style="stroke: #000000; stroke-width: 0.8"/>
      </g>
     </g>
     <g id="text_41">
      <!-- −0.1 -->
      <g transform="translate(179.877187 264.134958) scale(0.1 -0.1)">
       <use xlink:href="#DejaVuSans-2212"/>
       <use xlink:href="#DejaVuSans-30" x="83.789062"/>
       <use xlink:href="#DejaVuSans-2e" x="147.412109"/>
       <use xlink:href="#DejaVuSans-31" x="179.199219"/>
      </g>
     </g>
    </g>
    <g id="text_42">
     <!-- Position -->
     <g transform="translate(173.381563 294.745533) rotate(-90) scale(0.12 -0.12)">
      <use xlink:href="#DejaVuSans-50"/>
      <use xlink:href="#DejaVuSans-6f" x="56.677734"/>
      <use xlink:href="#DejaVuSans-73" x="117.859375"/>
      <use xlink:href="#DejaVuSans-69" x="169.958984"/>
      <use xlink:href="#DejaVuSans-74" x="197.742188"/>
      <use xlink:href="#DejaVuSans-69" x="236.951172"/>
      <use xlink:href="#DejaVuSans-6f" x="264.734375"/>
      <use xlink:href="#DejaVuSans-6e" x="325.916016"/>
     </g>
    </g>
   </g>
   <g id="line2d_101">
    <path d="M 211.954091 271.341878 
L 213.706781 265.923501 
L 215.459471 260.433893 
L 217.212161 255.24126 
L 218.964852 250.565402 
L 220.717542 244.416337 
L 222.470232 240.786659 
L 224.222922 239.844578 
L 225.975612 241.399553 
L 227.728302 245.001946 
L 229.480993 247.884729 
L 231.233683 250.856411 
L 232.986373 254.019195 
L 234.739063 257.428667 
L 236.491753 261.07438 
L 238.244443 266.57999 
L 239.997134 271.767193 
L 241.749824 276.579365 
L 243.502514 280.98065 
L 245.255204 284.95482 
L 247.007894 288.136787 
L 248.760584 290.975878 
L 250.513275 293.514737 
L 252.265965 295.833329 
L 254.018655 298.032682 
L 255.771345 300.128916 
L 257.524035 301.741727 
L 259.276725 302.784414 
L 261.029416 303.208162 
L 262.782106 303.002006 
L 264.534796 300.825164 
L 266.287486 298.704875 
L 268.040176 296.725934 
L 269.792866 294.978879 
L 271.545557 293.54597 
L 273.298247 293.4674 
L 275.050937 293.168856 
L 276.803627 292.638633 
L 278.556317 291.921511 
L 280.309007 291.099543 
L 282.061698 289.720683 
L 283.814388 289.112567 
L 285.567078 289.258133 
L 287.319768 290.099239 
L 289.072458 291.543658 
L 290.825148 292.671152 
L 292.577839 293.45206 
L 294.330529 293.890235 
L 296.083219 293.995217 
L 297.835909 293.779072 
" clip-path="url(#p4acac93eea)" style="fill: none; stroke: #348abd; stroke-width: 4; stroke-linecap: square"/>
   </g>
   <g id="line2d_102">
    <path d="M 211.954091 274.734369 
L 213.706781 268.331442 
L 215.459471 262.954897 
L 217.212161 256.372918 
L 218.964852 251.686002 
L 220.717542 244.792877 
L 222.470232 240.895528 
L 224.222922 239.541984 
L 225.975612 241.215667 
L 227.728302 244.953652 
L 229.480993 247.976933 
L 231.233683 250.978625 
L 232.986373 254.115605 
L 234.739063 257.490156 
L 236.491753 261.082228 
L 238.244443 266.575316 
L 239.997134 271.813651 
L 241.749824 276.542932 
L 243.502514 280.910617 
L 245.255204 284.911915 
L 247.007894 288.11955 
L 248.760584 290.953861 
L 250.513275 293.531209 
L 252.265965 295.870227 
L 254.018655 298.058031 
L 255.771345 300.170045 
L 257.524035 301.750618 
L 259.276725 302.782134 
L 261.029416 303.235333 
L 262.782106 303.015682 
L 264.534796 300.837952 
L 266.287486 298.672622 
L 268.040176 296.697678 
L 269.792866 294.992553 
L 271.545557 293.556429 
L 273.298247 293.475616 
L 275.050937 293.148189 
L 276.803627 292.622799 
L 278.556317 291.916311 
L 280.309007 291.084682 
L 282.061698 289.739752 
L 283.814388 289.128267 
L 285.567078 289.281414 
L 287.319768 290.083729 
L 289.072458 291.519864 
L 290.825148 292.66843 
L 292.577839 293.440727 
L 294.330529 293.903153 
L 296.083219 293.979747 
L 297.835909 293.772314 
" clip-path="url(#p4acac93eea)" style="fill: none; stroke-dasharray: 7.4,3.2; stroke-dashoffset: 0; stroke: #a60628; stroke-width: 2"/>
   </g>
   <g id="patch_38">
    <path d="M 207.66 306.42 
L 207.66 236.357317 
" style="fill: none; stroke: #bcbcbc; stroke-width: 0.8; stroke-linejoin: miter; stroke-linecap: square"/>
   </g>
   <g id="patch_39">
    <path d="M 302.13 306.42 
L 302.13 236.357317 
" style="fill: none; stroke: #bcbcbc; stroke-width: 0.8; stroke-linejoin: miter; stroke-linecap: square"/>
   </g>
   <g id="patch_40">
    <path d="M 207.66 306.42 
L 302.13 306.42 
" style="fill: none; stroke: #bcbcbc; stroke-width: 0.8; stroke-linejoin: miter; stroke-linecap: square"/>
   </g>
   <g id="patch_41">
    <path d="M 207.66 236.357317 
L 302.13 236.357317 
" style="fill: none; stroke: #bcbcbc; stroke-width: 0.8; stroke-linejoin: miter; stroke-linecap: square"/>
   </g>
   <g id="text_43">
    <!-- Robot 3 $y$ -->
    <g transform="translate(220.983 230.357317) scale(0.144 -0.144)">
     <use xlink:href="#DejaVuSans-52" transform="translate(0 0.015625)"/>
     <use xlink:href="#DejaVuSans-6f" transform="translate(69.482422 0.015625)"/>
     <use xlink:href="#DejaVuSans-62" transform="translate(130.664062 0.015625)"/>
     <use xlink:href="#DejaVuSans-6f" transform="translate(194.140625 0.015625)"/>
     <use xlink:href="#DejaVuSans-74" transform="translate(255.322266 0.015625)"/>
     <use xlink:href="#DejaVuSans-20" transform="translate(294.53125 0.015625)"/>
     <use xlink:href="#DejaVuSans-33" transform="translate(326.318359 0.015625)"/>
     <use xlink:href="#DejaVuSans-20" transform="translate(389.941406 0.015625)"/>
     <use xlink:href="#Cmmi10-79" transform="translate(421.728516 0.015625)"/>
    </g>
   </g>
  </g>
  <g id="axes_9">
   <g id="patch_42">
    <path d="M 355.53 306.42 
L 450 306.42 
L 450 236.357317 
L 355.53 236.357317 
z
" style="fill: #eeeeee"/>
   </g>
   <g id="matplotlib.axis_17">
    <g id="xtick_25">
     <g id="line2d_103">
      <path d="M 359.824091 306.42 
L 359.824091 236.357317 
" clip-path="url(#p7e4fbd18ff)" style="fill: none; stroke-dasharray: 1.85,0.8; stroke-dashoffset: 0; stroke: #b2b2b2; stroke-width: 0.5"/>
     </g>
     <g id="line2d_104">
      <g>
       <use xlink:href="#m452cf511fd" x="359.824091" y="306.42" style="stroke: #000000; stroke-width: 0.8"/>
      </g>
     </g>
     <g id="text_44">
      <!-- 0 -->
      <g transform="translate(356.642841 317.518438) scale(0.1 -0.1)">
       <use xlink:href="#DejaVuSans-30"/>
      </g>
     </g>
    </g>
    <g id="xtick_26">
     <g id="line2d_105">
      <path d="M 394.877894 306.42 
L 394.877894 236.357317 
" clip-path="url(#p7e4fbd18ff)" style="fill: none; stroke-dasharray: 1.85,0.8; stroke-dashoffset: 0; stroke: #b2b2b2; stroke-width: 0.5"/>
     </g>
     <g id="line2d_106">
      <g>
       <use xlink:href="#m452cf511fd" x="394.877894" y="306.42" style="stroke: #000000; stroke-width: 0.8"/>
      </g>
     </g>
     <g id="text_45">
      <!-- 20 -->
      <g transform="translate(388.515394 317.518438) scale(0.1 -0.1)">
       <use xlink:href="#DejaVuSans-32"/>
       <use xlink:href="#DejaVuSans-30" x="63.623047"/>
      </g>
     </g>
    </g>
    <g id="xtick_27">
     <g id="line2d_107">
      <path d="M 429.931698 306.42 
L 429.931698 236.357317 
" clip-path="url(#p7e4fbd18ff)" style="fill: none; stroke-dasharray: 1.85,0.8; stroke-dashoffset: 0; stroke: #b2b2b2; stroke-width: 0.5"/>
     </g>
     <g id="line2d_108">
      <g>
       <use xlink:href="#m452cf511fd" x="429.931698" y="306.42" style="stroke: #000000; stroke-width: 0.8"/>
      </g>
     </g>
     <g id="text_46">
      <!-- 40 -->
      <g transform="translate(423.569198 317.518438) scale(0.1 -0.1)">
       <use xlink:href="#DejaVuSans-34"/>
       <use xlink:href="#DejaVuSans-30" x="63.623047"/>
      </g>
     </g>
    </g>
    <g id="text_47">
     <!-- Iteration -->
     <g transform="translate(377.314687 332.71625) scale(0.12 -0.12)">
      <use xlink:href="#DejaVuSans-49"/>
      <use xlink:href="#DejaVuSans-74" x="29.492188"/>
      <use xlink:href="#DejaVuSans-65" x="68.701172"/>
      <use xlink:href="#DejaVuSans-72" x="130.224609"/>
      <use xlink:href="#DejaVuSans-61" x="171.337891"/>
      <use xlink:href="#DejaVuSans-74" x="232.617188"/>
      <use xlink:href="#DejaVuSans-69" x="271.826172"/>
      <use xlink:href="#DejaVuSans-6f" x="299.609375"/>
      <use xlink:href="#DejaVuSans-6e" x="360.791016"/>
     </g>
    </g>
   </g>
   <g id="matplotlib.axis_18">
    <g id="ytick_20">
     <g id="line2d_109">
      <path d="M 355.53 303.729806 
L 450 303.729806 
" clip-path="url(#p7e4fbd18ff)" style="fill: none; stroke-dasharray: 1.85,0.8; stroke-dashoffset: 0; stroke: #b2b2b2; stroke-width: 0.5"/>
     </g>
     <g id="line2d_110">
      <g>
       <use xlink:href="#mcddba35368" x="355.53" y="303.729806" style="stroke: #000000; stroke-width: 0.8"/>
      </g>
     </g>
     <g id="text_48">
      <!-- 0.0 -->
      <g transform="translate(336.126875 307.529025) scale(0.1 -0.1)">
       <use xlink:href="#DejaVuSans-30"/>
       <use xlink:href="#DejaVuSans-2e" x="63.623047"/>
       <use xlink:href="#DejaVuSans-30" x="95.410156"/>
      </g>
     </g>
    </g>
    <g id="ytick_21">
     <g id="line2d_111">
      <path d="M 355.53 278.141025 
L 450 278.141025 
" clip-path="url(#p7e4fbd18ff)" style="fill: none; stroke-dasharray: 1.85,0.8; stroke-dashoffset: 0; stroke: #b2b2b2; stroke-width: 0.5"/>
     </g>
     <g id="line2d_112">
      <g>
       <use xlink:href="#mcddba35368" x="355.53" y="278.141025" style="stroke: #000000; stroke-width: 0.8"/>
      </g>
     </g>
     <g id="text_49">
      <!-- 2.5 -->
      <g transform="translate(336.126875 281.940244) scale(0.1 -0.1)">
       <use xlink:href="#DejaVuSans-32"/>
       <use xlink:href="#DejaVuSans-2e" x="63.623047"/>
       <use xlink:href="#DejaVuSans-35" x="95.410156"/>
      </g>
     </g>
    </g>
    <g id="ytick_22">
     <g id="line2d_113">
      <path d="M 355.53 252.552243 
L 450 252.552243 
" clip-path="url(#p7e4fbd18ff)" style="fill: none; stroke-dasharray: 1.85,0.8; stroke-dashoffset: 0; stroke: #b2b2b2; stroke-width: 0.5"/>
     </g>
     <g id="line2d_114">
      <g>
       <use xlink:href="#mcddba35368" x="355.53" y="252.552243" style="stroke: #000000; stroke-width: 0.8"/>
      </g>
     </g>
     <g id="text_50">
      <!-- 5.0 -->
      <g transform="translate(336.126875 256.351462) scale(0.1 -0.1)">
       <use xlink:href="#DejaVuSans-35"/>
       <use xlink:href="#DejaVuSans-2e" x="63.623047"/>
       <use xlink:href="#DejaVuSans-30" x="95.410156"/>
      </g>
     </g>
    </g>
    <g id="text_51">
     <!-- Angle [rad] -->
     <g transform="translate(329.63125 305.004596) rotate(-90) scale(0.12 -0.12)">
      <use xlink:href="#DejaVuSans-41"/>
      <use xlink:href="#DejaVuSans-6e" x="68.408203"/>
      <use xlink:href="#DejaVuSans-67" x="131.787109"/>
      <use xlink:href="#DejaVuSans-6c" x="195.263672"/>
      <use xlink:href="#DejaVuSans-65" x="223.046875"/>
      <use xlink:href="#DejaVuSans-20" x="284.570312"/>
      <use xlink:href="#DejaVuSans-5b" x="316.357422"/>
      <use xlink:href="#DejaVuSans-72" x="355.371094"/>
      <use xlink:href="#DejaVuSans-61" x="396.484375"/>
      <use xlink:href="#DejaVuSans-64" x="457.763672"/>
      <use xlink:href="#DejaVuSans-5d" x="521.240234"/>
     </g>
    </g>
   </g>
   <g id="line2d_115">
    <path d="M 359.824091 292.110366 
L 361.576781 293.332271 
L 363.329471 294.554176 
L 365.082161 295.776081 
L 366.834852 296.997986 
L 368.587542 300.425796 
L 370.340232 239.541984 
L 372.092922 242.969795 
L 373.845612 246.397606 
L 375.598302 249.825416 
L 377.350993 250.048598 
L 379.103683 250.271781 
L 380.856373 250.494963 
L 382.609063 250.718145 
L 384.361753 250.941327 
L 386.114443 250.870957 
L 387.867134 250.800587 
L 389.619824 250.730218 
L 391.372514 250.659848 
L 393.125204 250.589478 
L 394.877894 250.260735 
L 396.630584 249.931992 
L 398.383275 249.603249 
L 400.135965 249.274506 
L 401.888655 248.945763 
L 403.641345 246.157338 
L 405.394035 243.368913 
L 407.146725 240.580489 
L 408.899416 302.103687 
L 410.652106 299.315262 
L 412.404796 299.799297 
L 414.157486 300.283332 
L 415.910176 300.767367 
L 417.662866 301.251402 
L 419.415557 301.735437 
L 421.168247 301.980311 
L 422.920937 302.225184 
L 424.673627 302.470058 
L 426.426317 302.714932 
L 428.179007 302.959805 
L 429.931698 240.906514 
L 431.684388 243.164846 
L 433.437078 245.423177 
L 435.189768 247.681509 
L 436.942458 249.93984 
L 438.695148 248.260083 
L 440.447839 246.580326 
L 442.200529 244.900569 
L 443.953219 243.220812 
L 445.705909 241.541055 
" clip-path="url(#p7e4fbd18ff)" style="fill: none; stroke: #348abd; stroke-width: 4; stroke-linecap: square"/>
   </g>
   <g id="line2d_116">
    <path d="M 359.824091 297.654112 
L 361.576781 290.421597 
L 363.329471 299.721788 
L 365.082161 291.155585 
L 366.834852 298.35504 
L 368.587542 296.905282 
L 370.340232 299.56539 
L 372.092922 303.235333 
L 373.845612 243.895917 
L 375.598302 248.509472 
L 377.350993 249.386553 
L 379.103683 249.721664 
L 380.856373 249.628623 
L 382.609063 249.732309 
L 384.361753 249.885535 
L 386.114443 249.896896 
L 387.867134 250.011124 
L 389.619824 249.687375 
L 391.372514 249.636607 
L 393.125204 249.730774 
L 394.877894 249.450935 
L 396.630584 249.018484 
L 398.383275 248.826875 
L 400.135965 248.476616 
L 401.888655 248.095241 
L 403.641345 245.404632 
L 405.394035 242.386282 
L 407.146725 239.632929 
L 408.899416 301.277791 
L 410.652106 298.380936 
L 412.404796 298.943684 
L 414.157486 299.31943 
L 415.910176 299.920152 
L 417.662866 300.42722 
L 419.415557 300.869394 
L 421.168247 301.122518 
L 422.920937 301.309009 
L 424.673627 301.600414 
L 426.426317 301.871962 
L 428.179007 302.065925 
L 429.931698 240.092708 
L 431.684388 242.320262 
L 433.437078 244.581901 
L 435.189768 246.767286 
L 436.942458 249.076827 
L 438.695148 247.388684 
L 440.447839 245.718248 
L 442.200529 244.133586 
L 443.953219 242.20931 
L 445.705909 240.645835 
" clip-path="url(#p7e4fbd18ff)" style="fill: none; stroke-dasharray: 7.4,3.2; stroke-dashoffset: 0; stroke: #a60628; stroke-width: 2"/>
   </g>
   <g id="patch_43">
    <path d="M 355.53 306.42 
L 355.53 236.357317 
" style="fill: none; stroke: #bcbcbc; stroke-width: 0.8; stroke-linejoin: miter; stroke-linecap: square"/>
   </g>
   <g id="patch_44">
    <path d="M 450 306.42 
L 450 236.357317 
" style="fill: none; stroke: #bcbcbc; stroke-width: 0.8; stroke-linejoin: miter; stroke-linecap: square"/>
   </g>
   <g id="patch_45">
    <path d="M 355.53 306.42 
L 450 306.42 
" style="fill: none; stroke: #bcbcbc; stroke-width: 0.8; stroke-linejoin: miter; stroke-linecap: square"/>
   </g>
   <g id="patch_46">
    <path d="M 355.53 236.357317 
L 450 236.357317 
" style="fill: none; stroke: #bcbcbc; stroke-width: 0.8; stroke-linejoin: miter; stroke-linecap: square"/>
   </g>
   <g id="text_52">
    <!-- Robot 3 $\theta$ -->
    <g transform="translate(368.997 230.357317) scale(0.144 -0.144)">
     <use xlink:href="#DejaVuSans-52" transform="translate(0 0.015625)"/>
     <use xlink:href="#DejaVuSans-6f" transform="translate(69.482422 0.015625)"/>
     <use xlink:href="#DejaVuSans-62" transform="translate(130.664062 0.015625)"/>
     <use xlink:href="#DejaVuSans-6f" transform="translate(194.140625 0.015625)"/>
     <use xlink:href="#DejaVuSans-74" transform="translate(255.322266 0.015625)"/>
     <use xlink:href="#DejaVuSans-20" transform="translate(294.53125 0.015625)"/>
     <use xlink:href="#DejaVuSans-33" transform="translate(326.318359 0.015625)"/>
     <use xlink:href="#DejaVuSans-20" transform="translate(389.941406 0.015625)"/>
     <use xlink:href="#Cmmi10-b5" transform="translate(421.728516 0.015625)"/>
    </g>
   </g>
  </g>
 </g>
 <defs>
  <clipPath id="p861105ae20">
   <rect x="59.79" y="29.04" width="94.47" height="70.062683"/>
  </clipPath>
  <clipPath id="pd9398ed4a5">
   <rect x="207.66" y="29.04" width="94.47" height="70.062683"/>
  </clipPath>
  <clipPath id="pbadb6d01c4">
   <rect x="355.53" y="29.04" width="94.47" height="70.062683"/>
  </clipPath>
  <clipPath id="p2990611b05">
   <rect x="59.79" y="132.698658" width="94.47" height="70.062683"/>
  </clipPath>
  <clipPath id="p562034447c">
   <rect x="207.66" y="132.698658" width="94.47" height="70.062683"/>
  </clipPath>
  <clipPath id="pd39d1adcc7">
   <rect x="355.53" y="132.698658" width="94.47" height="70.062683"/>
  </clipPath>
  <clipPath id="p3cf08e0055">
   <rect x="59.79" y="236.357317" width="94.47" height="70.062683"/>
  </clipPath>
  <clipPath id="p4acac93eea">
   <rect x="207.66" y="236.357317" width="94.47" height="70.062683"/>
  </clipPath>
  <clipPath id="p7e4fbd18ff">
   <rect x="355.53" y="236.357317" width="94.47" height="70.062683"/>
  </clipPath>
 </defs>
</svg>
