<?xml version="1.0" encoding="utf-8" standalone="no"?>
<!DOCTYPE svg PUBLIC "-//W3C//DTD SVG 1.1//EN"
  "http://www.w3.org/Graphics/SVG/1.1/DTD/svg11.dtd">
<svg xmlns:xlink="http://www.w3.org/1999/xlink" width="460.8pt" height="345.6pt" viewBox="0 0 460.8 345.6" xmlns="http://www.w3.org/2000/svg" version="1.1">
 <metadata>
  <rdf:RDF xmlns:dc="http://purl.org/dc/elements/1.1/" xmlns:cc="http://creativecommons.org/ns#" xmlns:rdf="http://www.w3.org/1999/02/22-rdf-syntax-ns#">
   <cc:Work>
    <dc:type rdf:resource="http://purl.org/dc/dcmitype/StillImage"/>
    <dc:date>2024-06-07T17:45:01.303124</dc:date>
    <dc:format>image/svg+xml</dc:format>
    <dc:creator>
     <cc:Agent>
      <dc:title>Matplotlib v3.8.4, https://matplotlib.org/</dc:title>
     </cc:Agent>
    </dc:creator>
   </cc:Work>
  </rdf:RDF>
 </metadata>
 <defs>
  <style type="text/css">*{stroke-linejoin: round; stroke-linecap: butt}</style>
 </defs>
 <g id="figure_1">
  <g id="patch_1">
   <path d="M 0 345.6 
L 460.8 345.6 
L 460.8 0 
L 0 0 
z
" style="fill: #ffffff"/>
  </g>
  <g id="axes_1">
   <g id="patch_2">
    <path d="M 59.79 100.209821 
L 154.26 100.209821 
L 154.26 29.04 
L 59.79 29.04 
z
" style="fill: #eeeeee"/>
   </g>
   <g id="matplotlib.axis_1">
    <g id="xtick_1">
     <g id="line2d_1">
      <path d="M 64.084091 100.209821 
L 64.084091 29.04 
" clip-path="url(#p452adc6334)" style="fill: none; stroke-dasharray: 1.85,0.8; stroke-dashoffset: 0; stroke: #b2b2b2; stroke-width: 0.5"/>
     </g>
     <g id="line2d_2">
      <defs>
       <path id="m9df4c29873" d="M 0 0 
L 0 -3.5 
" style="stroke: #000000; stroke-width: 0.8"/>
      </defs>
      <g>
       <use xlink:href="#m9df4c29873" x="64.084091" y="100.209821" style="stroke: #000000; stroke-width: 0.8"/>
      </g>
     </g>
    </g>
    <g id="xtick_2">
     <g id="line2d_3">
      <path d="M 99.137894 100.209821 
L 99.137894 29.04 
" clip-path="url(#p452adc6334)" style="fill: none; stroke-dasharray: 1.85,0.8; stroke-dashoffset: 0; stroke: #b2b2b2; stroke-width: 0.5"/>
     </g>
     <g id="line2d_4">
      <g>
       <use xlink:href="#m9df4c29873" x="99.137894" y="100.209821" style="stroke: #000000; stroke-width: 0.8"/>
      </g>
     </g>
    </g>
    <g id="xtick_3">
     <g id="line2d_5">
      <path d="M 134.191698 100.209821 
L 134.191698 29.04 
" clip-path="url(#p452adc6334)" style="fill: none; stroke-dasharray: 1.85,0.8; stroke-dashoffset: 0; stroke: #b2b2b2; stroke-width: 0.5"/>
     </g>
     <g id="line2d_6">
      <g>
       <use xlink:href="#m9df4c29873" x="134.191698" y="100.209821" style="stroke: #000000; stroke-width: 0.8"/>
      </g>
     </g>
    </g>
   </g>
   <g id="matplotlib.axis_2">
    <g id="ytick_1">
     <g id="line2d_7">
      <path d="M 59.79 92.367919 
L 154.26 92.367919 
" clip-path="url(#p452adc6334)" style="fill: none; stroke-dasharray: 1.85,0.8; stroke-dashoffset: 0; stroke: #b2b2b2; stroke-width: 0.5"/>
     </g>
     <g id="line2d_8">
      <defs>
       <path id="m8c8e93a302" d="M 0 0 
L 3.5 0 
" style="stroke: #000000; stroke-width: 0.8"/>
      </defs>
      <g>
       <use xlink:href="#m8c8e93a302" x="59.79" y="92.367919" style="stroke: #000000; stroke-width: 0.8"/>
      </g>
     </g>
     <g id="text_1">
      <!-- −0.40 -->
      <g transform="translate(25.644688 96.167138) scale(0.1 -0.1)">
       <defs>
        <path id="DejaVuSans-2212" d="M 678 2272 
L 4684 2272 
L 4684 1741 
L 678 1741 
L 678 2272 
z
" transform="scale(0.015625)"/>
        <path id="DejaVuSans-30" d="M 2034 4250 
Q 1547 4250 1301 3770 
Q 1056 3291 1056 2328 
Q 1056 1369 1301 889 
Q 1547 409 2034 409 
Q 2525 409 2770 889 
Q 3016 1369 3016 2328 
Q 3016 3291 2770 3770 
Q 2525 4250 2034 4250 
z
M 2034 4750 
Q 2819 4750 3233 4129 
Q 3647 3509 3647 2328 
Q 3647 1150 3233 529 
Q 2819 -91 2034 -91 
Q 1250 -91 836 529 
Q 422 1150 422 2328 
Q 422 3509 836 4129 
Q 1250 4750 2034 4750 
z
" transform="scale(0.015625)"/>
        <path id="DejaVuSans-2e" d="M 684 794 
L 1344 794 
L 1344 0 
L 684 0 
L 684 794 
z
" transform="scale(0.015625)"/>
        <path id="DejaVuSans-34" d="M 2419 4116 
L 825 1625 
L 2419 1625 
L 2419 4116 
z
M 2253 4666 
L 3047 4666 
L 3047 1625 
L 3713 1625 
L 3713 1100 
L 3047 1100 
L 3047 0 
L 2419 0 
L 2419 1100 
L 313 1100 
L 313 1709 
L 2253 4666 
z
" transform="scale(0.015625)"/>
       </defs>
       <use xlink:href="#DejaVuSans-2212"/>
       <use xlink:href="#DejaVuSans-30" x="83.789062"/>
       <use xlink:href="#DejaVuSans-2e" x="147.412109"/>
       <use xlink:href="#DejaVuSans-34" x="179.199219"/>
       <use xlink:href="#DejaVuSans-30" x="242.822266"/>
      </g>
     </g>
    </g>
    <g id="ytick_2">
     <g id="line2d_9">
      <path d="M 59.79 58.086042 
L 154.26 58.086042 
" clip-path="url(#p452adc6334)" style="fill: none; stroke-dasharray: 1.85,0.8; stroke-dashoffset: 0; stroke: #b2b2b2; stroke-width: 0.5"/>
     </g>
     <g id="line2d_10">
      <g>
       <use xlink:href="#m8c8e93a302" x="59.79" y="58.086042" style="stroke: #000000; stroke-width: 0.8"/>
      </g>
     </g>
     <g id="text_2">
      <!-- −0.35 -->
      <g transform="translate(25.644688 61.885261) scale(0.1 -0.1)">
       <defs>
        <path id="DejaVuSans-33" d="M 2597 2516 
Q 3050 2419 3304 2112 
Q 3559 1806 3559 1356 
Q 3559 666 3084 287 
Q 2609 -91 1734 -91 
Q 1441 -91 1130 -33 
Q 819 25 488 141 
L 488 750 
Q 750 597 1062 519 
Q 1375 441 1716 441 
Q 2309 441 2620 675 
Q 2931 909 2931 1356 
Q 2931 1769 2642 2001 
Q 2353 2234 1838 2234 
L 1294 2234 
L 1294 2753 
L 1863 2753 
Q 2328 2753 2575 2939 
Q 2822 3125 2822 3475 
Q 2822 3834 2567 4026 
Q 2313 4219 1838 4219 
Q 1578 4219 1281 4162 
Q 984 4106 628 3988 
L 628 4550 
Q 988 4650 1302 4700 
Q 1616 4750 1894 4750 
Q 2613 4750 3031 4423 
Q 3450 4097 3450 3541 
Q 3450 3153 3228 2886 
Q 3006 2619 2597 2516 
z
" transform="scale(0.015625)"/>
        <path id="DejaVuSans-35" d="M 691 4666 
L 3169 4666 
L 3169 4134 
L 1269 4134 
L 1269 2991 
Q 1406 3038 1543 3061 
Q 1681 3084 1819 3084 
Q 2600 3084 3056 2656 
Q 3513 2228 3513 1497 
Q 3513 744 3044 326 
Q 2575 -91 1722 -91 
Q 1428 -91 1123 -41 
Q 819 9 494 109 
L 494 744 
Q 775 591 1075 516 
Q 1375 441 1709 441 
Q 2250 441 2565 725 
Q 2881 1009 2881 1497 
Q 2881 1984 2565 2268 
Q 2250 2553 1709 2553 
Q 1456 2553 1204 2497 
Q 953 2441 691 2322 
L 691 4666 
z
" transform="scale(0.015625)"/>
       </defs>
       <use xlink:href="#DejaVuSans-2212"/>
       <use xlink:href="#DejaVuSans-30" x="83.789062"/>
       <use xlink:href="#DejaVuSans-2e" x="147.412109"/>
       <use xlink:href="#DejaVuSans-33" x="179.199219"/>
       <use xlink:href="#DejaVuSans-35" x="242.822266"/>
      </g>
     </g>
    </g>
    <g id="text_3">
     <!-- Position -->
     <g transform="translate(19.149062 87.981785) rotate(-90) scale(0.12 -0.12)">
      <defs>
       <path id="DejaVuSans-50" d="M 1259 4147 
L 1259 2394 
L 2053 2394 
Q 2494 2394 2734 2622 
Q 2975 2850 2975 3272 
Q 2975 3691 2734 3919 
Q 2494 4147 2053 4147 
L 1259 4147 
z
M 628 4666 
L 2053 4666 
Q 2838 4666 3239 4311 
Q 3641 3956 3641 3272 
Q 3641 2581 3239 2228 
Q 2838 1875 2053 1875 
L 1259 1875 
L 1259 0 
L 628 0 
L 628 4666 
z
" transform="scale(0.015625)"/>
       <path id="DejaVuSans-6f" d="M 1959 3097 
Q 1497 3097 1228 2736 
Q 959 2375 959 1747 
Q 959 1119 1226 758 
Q 1494 397 1959 397 
Q 2419 397 2687 759 
Q 2956 1122 2956 1747 
Q 2956 2369 2687 2733 
Q 2419 3097 1959 3097 
z
M 1959 3584 
Q 2709 3584 3137 3096 
Q 3566 2609 3566 1747 
Q 3566 888 3137 398 
Q 2709 -91 1959 -91 
Q 1206 -91 779 398 
Q 353 888 353 1747 
Q 353 2609 779 3096 
Q 1206 3584 1959 3584 
z
" transform="scale(0.015625)"/>
       <path id="DejaVuSans-73" d="M 2834 3397 
L 2834 2853 
Q 2591 2978 2328 3040 
Q 2066 3103 1784 3103 
Q 1356 3103 1142 2972 
Q 928 2841 928 2578 
Q 928 2378 1081 2264 
Q 1234 2150 1697 2047 
L 1894 2003 
Q 2506 1872 2764 1633 
Q 3022 1394 3022 966 
Q 3022 478 2636 193 
Q 2250 -91 1575 -91 
Q 1294 -91 989 -36 
Q 684 19 347 128 
L 347 722 
Q 666 556 975 473 
Q 1284 391 1588 391 
Q 1994 391 2212 530 
Q 2431 669 2431 922 
Q 2431 1156 2273 1281 
Q 2116 1406 1581 1522 
L 1381 1569 
Q 847 1681 609 1914 
Q 372 2147 372 2553 
Q 372 3047 722 3315 
Q 1072 3584 1716 3584 
Q 2034 3584 2315 3537 
Q 2597 3491 2834 3397 
z
" transform="scale(0.015625)"/>
       <path id="DejaVuSans-69" d="M 603 3500 
L 1178 3500 
L 1178 0 
L 603 0 
L 603 3500 
z
M 603 4863 
L 1178 4863 
L 1178 4134 
L 603 4134 
L 603 4863 
z
" transform="scale(0.015625)"/>
       <path id="DejaVuSans-74" d="M 1172 4494 
L 1172 3500 
L 2356 3500 
L 2356 3053 
L 1172 3053 
L 1172 1153 
Q 1172 725 1289 603 
Q 1406 481 1766 481 
L 2356 481 
L 2356 0 
L 1766 0 
Q 1100 0 847 248 
Q 594 497 594 1153 
L 594 3053 
L 172 3053 
L 172 3500 
L 594 3500 
L 594 4494 
L 1172 4494 
z
" transform="scale(0.015625)"/>
       <path id="DejaVuSans-6e" d="M 3513 2113 
L 3513 0 
L 2938 0 
L 2938 2094 
Q 2938 2591 2744 2837 
Q 2550 3084 2163 3084 
Q 1697 3084 1428 2787 
Q 1159 2491 1159 1978 
L 1159 0 
L 581 0 
L 581 3500 
L 1159 3500 
L 1159 2956 
Q 1366 3272 1645 3428 
Q 1925 3584 2291 3584 
Q 2894 3584 3203 3211 
Q 3513 2838 3513 2113 
z
" transform="scale(0.015625)"/>
      </defs>
      <use xlink:href="#DejaVuSans-50"/>
      <use xlink:href="#DejaVuSans-6f" x="56.677734"/>
      <use xlink:href="#DejaVuSans-73" x="117.859375"/>
      <use xlink:href="#DejaVuSans-69" x="169.958984"/>
      <use xlink:href="#DejaVuSans-74" x="197.742188"/>
      <use xlink:href="#DejaVuSans-69" x="236.951172"/>
      <use xlink:href="#DejaVuSans-6f" x="264.734375"/>
      <use xlink:href="#DejaVuSans-6e" x="325.916016"/>
     </g>
    </g>
   </g>
   <g id="line2d_11">
    <path d="M 64.084091 36.818201 
L 65.836781 46.974821 
L 67.589471 59.651004 
L 69.342161 73.44591 
L 71.094852 86.876733 
L 72.847542 92.430229 
L 74.600232 95.756498 
L 76.352922 96.651232 
L 78.105612 95.127853 
L 79.858302 91.335812 
L 81.610993 84.741203 
L 83.363683 78.525199 
L 85.116373 72.655277 
L 86.869063 67.029599 
L 88.621753 61.516758 
L 90.374443 57.921716 
L 92.127134 55.126536 
L 93.879824 53.211502 
L 95.632514 52.160832 
L 97.385204 51.873289 
L 99.137894 52.533469 
L 100.890584 53.553719 
L 102.643275 54.929746 
L 104.395965 56.623065 
L 106.148655 58.568804 
L 107.901345 61.097469 
L 109.654035 63.35338 
L 111.406725 65.31925 
L 113.159416 66.987124 
L 114.912106 68.357306 
L 116.664796 71.480105 
L 118.417486 73.120075 
L 120.170176 73.301932 
L 121.922866 72.146082 
L 123.675557 69.82625 
L 125.428247 66.495512 
L 127.180937 63.080556 
L 128.933627 59.538572 
L 130.686317 55.79728 
L 132.439007 51.789215 
L 134.191698 47.752231 
L 135.944388 44.105863 
L 137.697078 40.992089 
L 139.449768 38.5351 
L 141.202458 36.831567 
L 142.955148 36.087957 
L 144.707839 35.116586 
L 146.460529 34.219218 
L 148.213219 33.711635 
L 149.965909 33.874195 
" clip-path="url(#p452adc6334)" style="fill: none; stroke: #348abd; stroke-width: 4; stroke-linecap: square"/>
   </g>
   <g id="line2d_12">
    <path d="M 64.084091 32.936775 
L 65.836781 48.837783 
L 67.589471 63.805405 
L 69.342161 74.306283 
L 71.094852 83.787012 
L 72.847542 90.089604 
L 74.600232 93.200368 
L 76.352922 96.974829 
L 78.105612 96.508376 
L 79.858302 93.110703 
L 81.610993 86.747832 
L 83.363683 80.7897 
L 85.116373 75.334909 
L 86.869063 67.304381 
L 88.621753 61.270563 
L 90.374443 57.836449 
L 92.127134 55.067602 
L 93.879824 53.565725 
L 95.632514 51.529811 
L 97.385204 51.563413 
L 99.137894 51.115939 
L 100.890584 53.695482 
L 102.643275 56.745272 
L 104.395965 57.146504 
L 106.148655 58.345156 
L 107.901345 60.234723 
L 109.654035 62.475896 
L 111.406725 64.48466 
L 113.159416 65.935811 
L 114.912106 67.041878 
L 116.664796 69.289701 
L 118.417486 71.453529 
L 120.170176 73.117859 
L 121.922866 73.679818 
L 123.675557 72.008891 
L 125.428247 68.617106 
L 127.180937 65.251573 
L 128.933627 61.861836 
L 130.686317 57.887194 
L 132.439007 53.451647 
L 134.191698 48.794038 
L 135.944388 45.878418 
L 137.697078 43.468142 
L 139.449768 40.077607 
L 141.202458 39.035513 
L 142.955148 37.847845 
L 144.707839 36.752838 
L 146.460529 34.041571 
L 148.213219 32.274992 
L 149.965909 32.670593 
" clip-path="url(#p452adc6334)" style="fill: none; stroke-dasharray: 7.4,3.2; stroke-dashoffset: 0; stroke: #a60628; stroke-width: 2"/>
   </g>
   <g id="patch_3">
    <path d="M 59.79 100.209821 
L 59.79 29.04 
" style="fill: none; stroke: #bcbcbc; stroke-width: 0.8; stroke-linejoin: miter; stroke-linecap: square"/>
   </g>
   <g id="patch_4">
    <path d="M 154.26 100.209821 
L 154.26 29.04 
" style="fill: none; stroke: #bcbcbc; stroke-width: 0.8; stroke-linejoin: miter; stroke-linecap: square"/>
   </g>
   <g id="patch_5">
    <path d="M 59.79 100.209821 
L 154.26 100.209821 
" style="fill: none; stroke: #bcbcbc; stroke-width: 0.8; stroke-linejoin: miter; stroke-linecap: square"/>
   </g>
   <g id="patch_6">
    <path d="M 59.79 29.04 
L 154.26 29.04 
" style="fill: none; stroke: #bcbcbc; stroke-width: 0.8; stroke-linejoin: miter; stroke-linecap: square"/>
   </g>
   <g id="text_4">
    <!-- Robot 1 $x$ -->
    <g transform="translate(72.537 23.04) scale(0.144 -0.144)">
     <defs>
      <path id="DejaVuSans-52" d="M 2841 2188 
Q 3044 2119 3236 1894 
Q 3428 1669 3622 1275 
L 4263 0 
L 3584 0 
L 2988 1197 
Q 2756 1666 2539 1819 
Q 2322 1972 1947 1972 
L 1259 1972 
L 1259 0 
L 628 0 
L 628 4666 
L 2053 4666 
Q 2853 4666 3247 4331 
Q 3641 3997 3641 3322 
Q 3641 2881 3436 2590 
Q 3231 2300 2841 2188 
z
M 1259 4147 
L 1259 2491 
L 2053 2491 
Q 2509 2491 2742 2702 
Q 2975 2913 2975 3322 
Q 2975 3731 2742 3939 
Q 2509 4147 2053 4147 
L 1259 4147 
z
" transform="scale(0.015625)"/>
      <path id="DejaVuSans-62" d="M 3116 1747 
Q 3116 2381 2855 2742 
Q 2594 3103 2138 3103 
Q 1681 3103 1420 2742 
Q 1159 2381 1159 1747 
Q 1159 1113 1420 752 
Q 1681 391 2138 391 
Q 2594 391 2855 752 
Q 3116 1113 3116 1747 
z
M 1159 2969 
Q 1341 3281 1617 3432 
Q 1894 3584 2278 3584 
Q 2916 3584 3314 3078 
Q 3713 2572 3713 1747 
Q 3713 922 3314 415 
Q 2916 -91 2278 -91 
Q 1894 -91 1617 61 
Q 1341 213 1159 525 
L 1159 0 
L 581 0 
L 581 4863 
L 1159 4863 
L 1159 2969 
z
" transform="scale(0.015625)"/>
      <path id="DejaVuSans-20" transform="scale(0.015625)"/>
      <path id="DejaVuSans-31" d="M 794 531 
L 1825 531 
L 1825 4091 
L 703 3866 
L 703 4441 
L 1819 4666 
L 2450 4666 
L 2450 531 
L 3481 531 
L 3481 0 
L 794 0 
L 794 531 
z
" transform="scale(0.015625)"/>
      <path id="Cmmi10-78" d="M 500 184 
Q 613 97 819 97 
Q 1019 97 1172 289 
Q 1325 481 1381 709 
L 1672 1844 
Q 1741 2153 1741 2266 
Q 1741 2425 1652 2544 
Q 1563 2663 1403 2663 
Q 1200 2663 1022 2536 
Q 844 2409 722 2214 
Q 600 2019 550 1819 
Q 538 1778 500 1778 
L 422 1778 
Q 372 1778 372 1838 
L 372 1856 
Q 434 2094 584 2320 
Q 734 2547 951 2687 
Q 1169 2828 1416 2828 
Q 1650 2828 1839 2703 
Q 2028 2578 2106 2363 
Q 2216 2559 2386 2693 
Q 2556 2828 2759 2828 
Q 2897 2828 3040 2779 
Q 3184 2731 3275 2631 
Q 3366 2531 3366 2381 
Q 3366 2219 3261 2101 
Q 3156 1984 2994 1984 
Q 2891 1984 2822 2050 
Q 2753 2116 2753 2216 
Q 2753 2350 2845 2451 
Q 2938 2553 3066 2572 
Q 2950 2663 2747 2663 
Q 2541 2663 2389 2472 
Q 2238 2281 2175 2047 
L 1894 916 
Q 1825 659 1825 494 
Q 1825 331 1917 214 
Q 2009 97 2163 97 
Q 2463 97 2698 361 
Q 2934 625 3009 941 
Q 3022 978 3059 978 
L 3138 978 
Q 3163 978 3178 961 
Q 3194 944 3194 922 
Q 3194 916 3188 903 
Q 3097 522 2806 225 
Q 2516 -72 2150 -72 
Q 1916 -72 1727 54 
Q 1538 181 1459 397 
Q 1359 209 1182 68 
Q 1006 -72 806 -72 
Q 669 -72 523 -23 
Q 378 25 287 125 
Q 197 225 197 378 
Q 197 528 301 651 
Q 406 775 563 775 
Q 669 775 741 711 
Q 813 647 813 544 
Q 813 409 723 309 
Q 634 209 500 184 
z
" transform="scale(0.015625)"/>
     </defs>
     <use xlink:href="#DejaVuSans-52" transform="translate(0 0.015625)"/>
     <use xlink:href="#DejaVuSans-6f" transform="translate(69.482422 0.015625)"/>
     <use xlink:href="#DejaVuSans-62" transform="translate(130.664062 0.015625)"/>
     <use xlink:href="#DejaVuSans-6f" transform="translate(194.140625 0.015625)"/>
     <use xlink:href="#DejaVuSans-74" transform="translate(255.322266 0.015625)"/>
     <use xlink:href="#DejaVuSans-20" transform="translate(294.53125 0.015625)"/>
     <use xlink:href="#DejaVuSans-31" transform="translate(326.318359 0.015625)"/>
     <use xlink:href="#DejaVuSans-20" transform="translate(389.941406 0.015625)"/>
     <use xlink:href="#Cmmi10-78" transform="translate(421.728516 0.015625)"/>
    </g>
   </g>
  </g>
  <g id="axes_2">
   <g id="patch_7">
    <path d="M 207.66 100.209821 
L 302.13 100.209821 
L 302.13 29.04 
L 207.66 29.04 
z
" style="fill: #eeeeee"/>
   </g>
   <g id="matplotlib.axis_3">
    <g id="xtick_4">
     <g id="line2d_13">
      <path d="M 211.954091 100.209821 
L 211.954091 29.04 
" clip-path="url(#pb103f48c2d)" style="fill: none; stroke-dasharray: 1.85,0.8; stroke-dashoffset: 0; stroke: #b2b2b2; stroke-width: 0.5"/>
     </g>
     <g id="line2d_14">
      <g>
       <use xlink:href="#m9df4c29873" x="211.954091" y="100.209821" style="stroke: #000000; stroke-width: 0.8"/>
      </g>
     </g>
    </g>
    <g id="xtick_5">
     <g id="line2d_15">
      <path d="M 247.007894 100.209821 
L 247.007894 29.04 
" clip-path="url(#pb103f48c2d)" style="fill: none; stroke-dasharray: 1.85,0.8; stroke-dashoffset: 0; stroke: #b2b2b2; stroke-width: 0.5"/>
     </g>
     <g id="line2d_16">
      <g>
       <use xlink:href="#m9df4c29873" x="247.007894" y="100.209821" style="stroke: #000000; stroke-width: 0.8"/>
      </g>
     </g>
    </g>
    <g id="xtick_6">
     <g id="line2d_17">
      <path d="M 282.061698 100.209821 
L 282.061698 29.04 
" clip-path="url(#pb103f48c2d)" style="fill: none; stroke-dasharray: 1.85,0.8; stroke-dashoffset: 0; stroke: #b2b2b2; stroke-width: 0.5"/>
     </g>
     <g id="line2d_18">
      <g>
       <use xlink:href="#m9df4c29873" x="282.061698" y="100.209821" style="stroke: #000000; stroke-width: 0.8"/>
      </g>
     </g>
    </g>
   </g>
   <g id="matplotlib.axis_4">
    <g id="ytick_3">
     <g id="line2d_19">
      <path d="M 207.66 85.245281 
L 302.13 85.245281 
" clip-path="url(#pb103f48c2d)" style="fill: none; stroke-dasharray: 1.85,0.8; stroke-dashoffset: 0; stroke: #b2b2b2; stroke-width: 0.5"/>
     </g>
     <g id="line2d_20">
      <g>
       <use xlink:href="#m8c8e93a302" x="207.66" y="85.245281" style="stroke: #000000; stroke-width: 0.8"/>
      </g>
     </g>
     <g id="text_5">
      <!-- −0.3 -->
      <g transform="translate(179.877187 89.044499) scale(0.1 -0.1)">
       <use xlink:href="#DejaVuSans-2212"/>
       <use xlink:href="#DejaVuSans-30" x="83.789062"/>
       <use xlink:href="#DejaVuSans-2e" x="147.412109"/>
       <use xlink:href="#DejaVuSans-33" x="179.199219"/>
      </g>
     </g>
    </g>
    <g id="ytick_4">
     <g id="line2d_21">
      <path d="M 207.66 44.781707 
L 302.13 44.781707 
" clip-path="url(#pb103f48c2d)" style="fill: none; stroke-dasharray: 1.85,0.8; stroke-dashoffset: 0; stroke: #b2b2b2; stroke-width: 0.5"/>
     </g>
     <g id="line2d_22">
      <g>
       <use xlink:href="#m8c8e93a302" x="207.66" y="44.781707" style="stroke: #000000; stroke-width: 0.8"/>
      </g>
     </g>
     <g id="text_6">
      <!-- −0.2 -->
      <g transform="translate(179.877187 48.580926) scale(0.1 -0.1)">
       <defs>
        <path id="DejaVuSans-32" d="M 1228 531 
L 3431 531 
L 3431 0 
L 469 0 
L 469 531 
Q 828 903 1448 1529 
Q 2069 2156 2228 2338 
Q 2531 2678 2651 2914 
Q 2772 3150 2772 3378 
Q 2772 3750 2511 3984 
Q 2250 4219 1831 4219 
Q 1534 4219 1204 4116 
Q 875 4013 500 3803 
L 500 4441 
Q 881 4594 1212 4672 
Q 1544 4750 1819 4750 
Q 2544 4750 2975 4387 
Q 3406 4025 3406 3419 
Q 3406 3131 3298 2873 
Q 3191 2616 2906 2266 
Q 2828 2175 2409 1742 
Q 1991 1309 1228 531 
z
" transform="scale(0.015625)"/>
       </defs>
       <use xlink:href="#DejaVuSans-2212"/>
       <use xlink:href="#DejaVuSans-30" x="83.789062"/>
       <use xlink:href="#DejaVuSans-2e" x="147.412109"/>
       <use xlink:href="#DejaVuSans-32" x="179.199219"/>
      </g>
     </g>
    </g>
    <g id="text_7">
     <!-- Position -->
     <g transform="translate(173.381563 87.981785) rotate(-90) scale(0.12 -0.12)">
      <use xlink:href="#DejaVuSans-50"/>
      <use xlink:href="#DejaVuSans-6f" x="56.677734"/>
      <use xlink:href="#DejaVuSans-73" x="117.859375"/>
      <use xlink:href="#DejaVuSans-69" x="169.958984"/>
      <use xlink:href="#DejaVuSans-74" x="197.742188"/>
      <use xlink:href="#DejaVuSans-69" x="236.951172"/>
      <use xlink:href="#DejaVuSans-6f" x="264.734375"/>
      <use xlink:href="#DejaVuSans-6e" x="325.916016"/>
     </g>
    </g>
   </g>
   <g id="line2d_23">
    <path d="M 211.954091 39.266444 
L 213.706781 47.996298 
L 215.459471 53.391733 
L 217.212161 55.01176 
L 218.964852 52.827869 
L 220.717542 48.035425 
L 222.470232 44.261719 
L 224.222922 41.70024 
L 225.975612 40.357213 
L 227.728302 40.087852 
L 229.480993 40.272014 
L 231.233683 40.518784 
L 232.986373 40.934472 
L 234.739063 41.593952 
L 236.491753 42.538278 
L 238.244443 44.577767 
L 239.997134 46.767513 
L 241.749824 49.141309 
L 243.502514 51.694075 
L 245.255204 54.387474 
L 247.007894 55.992569 
L 248.760584 57.519382 
L 250.513275 59.036754 
L 252.265965 60.608499 
L 254.018655 62.287131 
L 255.771345 63.987766 
L 257.524035 65.088169 
L 259.276725 65.62334 
L 261.029416 65.642379 
L 262.782106 65.203044 
L 264.534796 65.489713 
L 266.287486 66.350426 
L 268.040176 67.725358 
L 269.792866 69.510007 
L 271.545557 71.566569 
L 273.298247 74.393182 
L 275.050937 76.829268 
L 276.803627 78.936364 
L 278.556317 80.75307 
L 280.309007 82.303872 
L 282.061698 84.003925 
L 283.814388 85.695075 
L 285.567078 87.466887 
L 287.319768 89.376593 
L 289.072458 91.442435 
L 290.825148 93.584923 
L 292.577839 94.953798 
L 294.330529 95.674208 
L 296.083219 95.919652 
L 297.835909 95.870788 
" clip-path="url(#pb103f48c2d)" style="fill: none; stroke: #348abd; stroke-width: 4; stroke-linecap: square"/>
   </g>
   <g id="line2d_24">
    <path d="M 211.954091 32.274992 
L 213.706781 40.245008 
L 215.459471 52.52834 
L 217.212161 58.711757 
L 218.964852 59.998232 
L 220.717542 50.205951 
L 222.470232 44.00585 
L 224.222922 41.428674 
L 225.975612 38.572058 
L 227.728302 36.845239 
L 229.480993 37.082136 
L 231.233683 38.253378 
L 232.986373 38.079825 
L 234.739063 40.809727 
L 236.491753 41.682424 
L 238.244443 44.392446 
L 239.997134 46.049496 
L 241.749824 47.777386 
L 243.502514 50.407713 
L 245.255204 52.835381 
L 247.007894 54.890021 
L 248.760584 56.083244 
L 250.513275 57.990655 
L 252.265965 60.209941 
L 254.018655 61.985802 
L 255.771345 63.961031 
L 257.524035 66.081351 
L 259.276725 66.740902 
L 261.029416 66.930702 
L 262.782106 66.538605 
L 264.534796 67.181645 
L 266.287486 67.668925 
L 268.040176 67.67752 
L 269.792866 68.328477 
L 271.545557 70.513176 
L 273.298247 74.169074 
L 275.050937 76.294005 
L 276.803627 78.595957 
L 278.556317 81.154379 
L 280.309007 82.864723 
L 282.061698 84.398961 
L 283.814388 85.807636 
L 285.567078 87.16239 
L 287.319768 88.609697 
L 289.072458 90.010922 
L 290.825148 91.926848 
L 292.577839 93.446666 
L 294.330529 94.62779 
L 296.083219 96.27777 
L 297.835909 96.974829 
" clip-path="url(#pb103f48c2d)" style="fill: none; stroke-dasharray: 7.4,3.2; stroke-dashoffset: 0; stroke: #a60628; stroke-width: 2"/>
   </g>
   <g id="patch_8">
    <path d="M 207.66 100.209821 
L 207.66 29.04 
" style="fill: none; stroke: #bcbcbc; stroke-width: 0.8; stroke-linejoin: miter; stroke-linecap: square"/>
   </g>
   <g id="patch_9">
    <path d="M 302.13 100.209821 
L 302.13 29.04 
" style="fill: none; stroke: #bcbcbc; stroke-width: 0.8; stroke-linejoin: miter; stroke-linecap: square"/>
   </g>
   <g id="patch_10">
    <path d="M 207.66 100.209821 
L 302.13 100.209821 
" style="fill: none; stroke: #bcbcbc; stroke-width: 0.8; stroke-linejoin: miter; stroke-linecap: square"/>
   </g>
   <g id="patch_11">
    <path d="M 207.66 29.04 
L 302.13 29.04 
" style="fill: none; stroke: #bcbcbc; stroke-width: 0.8; stroke-linejoin: miter; stroke-linecap: square"/>
   </g>
   <g id="text_8">
    <!-- Robot 1 $y$ -->
    <g transform="translate(220.983 23.04) scale(0.144 -0.144)">
     <defs>
      <path id="Cmmi10-79" d="M 538 -916 
Q 672 -1147 1006 -1147 
Q 1309 -1147 1531 -934 
Q 1753 -722 1889 -420 
Q 2025 -119 2100 197 
Q 1816 -72 1484 -72 
Q 1231 -72 1053 15 
Q 875 103 776 276 
Q 678 450 678 697 
Q 678 906 734 1126 
Q 791 1347 892 1617 
Q 994 1888 1069 2088 
Q 1153 2322 1153 2472 
Q 1153 2663 1013 2663 
Q 759 2663 595 2402 
Q 431 2141 353 1819 
Q 341 1778 300 1778 
L 225 1778 
Q 172 1778 172 1838 
L 172 1856 
Q 275 2238 487 2533 
Q 700 2828 1025 2828 
Q 1253 2828 1411 2678 
Q 1569 2528 1569 2297 
Q 1569 2178 1516 2047 
Q 1488 1969 1388 1706 
Q 1288 1444 1234 1272 
Q 1181 1100 1147 934 
Q 1113 769 1113 603 
Q 1113 391 1203 244 
Q 1294 97 1491 97 
Q 1888 97 2203 581 
L 2688 2553 
Q 2709 2638 2787 2698 
Q 2866 2759 2956 2759 
Q 3034 2759 3092 2709 
Q 3150 2659 3150 2578 
Q 3150 2541 3144 2528 
L 2509 -19 
Q 2425 -347 2200 -647 
Q 1975 -947 1658 -1130 
Q 1341 -1313 997 -1313 
Q 831 -1313 668 -1248 
Q 506 -1184 406 -1056 
Q 306 -928 306 -756 
Q 306 -581 409 -453 
Q 513 -325 684 -325 
Q 788 -325 858 -389 
Q 928 -453 928 -556 
Q 928 -703 818 -812 
Q 709 -922 563 -922 
Q 556 -919 550 -917 
Q 544 -916 538 -916 
z
" transform="scale(0.015625)"/>
     </defs>
     <use xlink:href="#DejaVuSans-52" transform="translate(0 0.015625)"/>
     <use xlink:href="#DejaVuSans-6f" transform="translate(69.482422 0.015625)"/>
     <use xlink:href="#DejaVuSans-62" transform="translate(130.664062 0.015625)"/>
     <use xlink:href="#DejaVuSans-6f" transform="translate(194.140625 0.015625)"/>
     <use xlink:href="#DejaVuSans-74" transform="translate(255.322266 0.015625)"/>
     <use xlink:href="#DejaVuSans-20" transform="translate(294.53125 0.015625)"/>
     <use xlink:href="#DejaVuSans-31" transform="translate(326.318359 0.015625)"/>
     <use xlink:href="#DejaVuSans-20" transform="translate(389.941406 0.015625)"/>
     <use xlink:href="#Cmmi10-79" transform="translate(421.728516 0.015625)"/>
    </g>
   </g>
  </g>
  <g id="axes_3">
   <g id="patch_12">
    <path d="M 355.53 100.209821 
L 450 100.209821 
L 450 29.04 
L 355.53 29.04 
z
" style="fill: #eeeeee"/>
   </g>
   <g id="matplotlib.axis_5">
    <g id="xtick_7">
     <g id="line2d_25">
      <path d="M 359.824091 100.209821 
L 359.824091 29.04 
" clip-path="url(#p8e06bccf10)" style="fill: none; stroke-dasharray: 1.85,0.8; stroke-dashoffset: 0; stroke: #b2b2b2; stroke-width: 0.5"/>
     </g>
     <g id="line2d_26">
      <g>
       <use xlink:href="#m9df4c29873" x="359.824091" y="100.209821" style="stroke: #000000; stroke-width: 0.8"/>
      </g>
     </g>
    </g>
    <g id="xtick_8">
     <g id="line2d_27">
      <path d="M 394.877894 100.209821 
L 394.877894 29.04 
" clip-path="url(#p8e06bccf10)" style="fill: none; stroke-dasharray: 1.85,0.8; stroke-dashoffset: 0; stroke: #b2b2b2; stroke-width: 0.5"/>
     </g>
     <g id="line2d_28">
      <g>
       <use xlink:href="#m9df4c29873" x="394.877894" y="100.209821" style="stroke: #000000; stroke-width: 0.8"/>
      </g>
     </g>
    </g>
    <g id="xtick_9">
     <g id="line2d_29">
      <path d="M 429.931698 100.209821 
L 429.931698 29.04 
" clip-path="url(#p8e06bccf10)" style="fill: none; stroke-dasharray: 1.85,0.8; stroke-dashoffset: 0; stroke: #b2b2b2; stroke-width: 0.5"/>
     </g>
     <g id="line2d_30">
      <g>
       <use xlink:href="#m9df4c29873" x="429.931698" y="100.209821" style="stroke: #000000; stroke-width: 0.8"/>
      </g>
     </g>
    </g>
   </g>
   <g id="matplotlib.axis_6">
    <g id="ytick_5">
     <g id="line2d_31">
      <path d="M 355.53 87.968234 
L 450 87.968234 
" clip-path="url(#p8e06bccf10)" style="fill: none; stroke-dasharray: 1.85,0.8; stroke-dashoffset: 0; stroke: #b2b2b2; stroke-width: 0.5"/>
     </g>
     <g id="line2d_32">
      <g>
       <use xlink:href="#m8c8e93a302" x="355.53" y="87.968234" style="stroke: #000000; stroke-width: 0.8"/>
      </g>
     </g>
     <g id="text_9">
      <!-- 2 -->
      <g transform="translate(345.6675 91.767453) scale(0.1 -0.1)">
       <use xlink:href="#DejaVuSans-32"/>
      </g>
     </g>
    </g>
    <g id="ytick_6">
     <g id="line2d_33">
      <path d="M 355.53 55.906153 
L 450 55.906153 
" clip-path="url(#p8e06bccf10)" style="fill: none; stroke-dasharray: 1.85,0.8; stroke-dashoffset: 0; stroke: #b2b2b2; stroke-width: 0.5"/>
     </g>
     <g id="line2d_34">
      <g>
       <use xlink:href="#m8c8e93a302" x="355.53" y="55.906153" style="stroke: #000000; stroke-width: 0.8"/>
      </g>
     </g>
     <g id="text_10">
      <!-- 4 -->
      <g transform="translate(345.6675 59.705372) scale(0.1 -0.1)">
       <use xlink:href="#DejaVuSans-34"/>
      </g>
     </g>
    </g>
    <g id="text_11">
     <!-- Angle [rad] -->
     <g transform="translate(339.171875 98.240848) rotate(-90) scale(0.12 -0.12)">
      <defs>
       <path id="DejaVuSans-41" d="M 2188 4044 
L 1331 1722 
L 3047 1722 
L 2188 4044 
z
M 1831 4666 
L 2547 4666 
L 4325 0 
L 3669 0 
L 3244 1197 
L 1141 1197 
L 716 0 
L 50 0 
L 1831 4666 
z
" transform="scale(0.015625)"/>
       <path id="DejaVuSans-67" d="M 2906 1791 
Q 2906 2416 2648 2759 
Q 2391 3103 1925 3103 
Q 1463 3103 1205 2759 
Q 947 2416 947 1791 
Q 947 1169 1205 825 
Q 1463 481 1925 481 
Q 2391 481 2648 825 
Q 2906 1169 2906 1791 
z
M 3481 434 
Q 3481 -459 3084 -895 
Q 2688 -1331 1869 -1331 
Q 1566 -1331 1297 -1286 
Q 1028 -1241 775 -1147 
L 775 -588 
Q 1028 -725 1275 -790 
Q 1522 -856 1778 -856 
Q 2344 -856 2625 -561 
Q 2906 -266 2906 331 
L 2906 616 
Q 2728 306 2450 153 
Q 2172 0 1784 0 
Q 1141 0 747 490 
Q 353 981 353 1791 
Q 353 2603 747 3093 
Q 1141 3584 1784 3584 
Q 2172 3584 2450 3431 
Q 2728 3278 2906 2969 
L 2906 3500 
L 3481 3500 
L 3481 434 
z
" transform="scale(0.015625)"/>
       <path id="DejaVuSans-6c" d="M 603 4863 
L 1178 4863 
L 1178 0 
L 603 0 
L 603 4863 
z
" transform="scale(0.015625)"/>
       <path id="DejaVuSans-65" d="M 3597 1894 
L 3597 1613 
L 953 1613 
Q 991 1019 1311 708 
Q 1631 397 2203 397 
Q 2534 397 2845 478 
Q 3156 559 3463 722 
L 3463 178 
Q 3153 47 2828 -22 
Q 2503 -91 2169 -91 
Q 1331 -91 842 396 
Q 353 884 353 1716 
Q 353 2575 817 3079 
Q 1281 3584 2069 3584 
Q 2775 3584 3186 3129 
Q 3597 2675 3597 1894 
z
M 3022 2063 
Q 3016 2534 2758 2815 
Q 2500 3097 2075 3097 
Q 1594 3097 1305 2825 
Q 1016 2553 972 2059 
L 3022 2063 
z
" transform="scale(0.015625)"/>
       <path id="DejaVuSans-5b" d="M 550 4863 
L 1875 4863 
L 1875 4416 
L 1125 4416 
L 1125 -397 
L 1875 -397 
L 1875 -844 
L 550 -844 
L 550 4863 
z
" transform="scale(0.015625)"/>
       <path id="DejaVuSans-72" d="M 2631 2963 
Q 2534 3019 2420 3045 
Q 2306 3072 2169 3072 
Q 1681 3072 1420 2755 
Q 1159 2438 1159 1844 
L 1159 0 
L 581 0 
L 581 3500 
L 1159 3500 
L 1159 2956 
Q 1341 3275 1631 3429 
Q 1922 3584 2338 3584 
Q 2397 3584 2469 3576 
Q 2541 3569 2628 3553 
L 2631 2963 
z
" transform="scale(0.015625)"/>
       <path id="DejaVuSans-61" d="M 2194 1759 
Q 1497 1759 1228 1600 
Q 959 1441 959 1056 
Q 959 750 1161 570 
Q 1363 391 1709 391 
Q 2188 391 2477 730 
Q 2766 1069 2766 1631 
L 2766 1759 
L 2194 1759 
z
M 3341 1997 
L 3341 0 
L 2766 0 
L 2766 531 
Q 2569 213 2275 61 
Q 1981 -91 1556 -91 
Q 1019 -91 701 211 
Q 384 513 384 1019 
Q 384 1609 779 1909 
Q 1175 2209 1959 2209 
L 2766 2209 
L 2766 2266 
Q 2766 2663 2505 2880 
Q 2244 3097 1772 3097 
Q 1472 3097 1187 3025 
Q 903 2953 641 2809 
L 641 3341 
Q 956 3463 1253 3523 
Q 1550 3584 1831 3584 
Q 2591 3584 2966 3190 
Q 3341 2797 3341 1997 
z
" transform="scale(0.015625)"/>
       <path id="DejaVuSans-64" d="M 2906 2969 
L 2906 4863 
L 3481 4863 
L 3481 0 
L 2906 0 
L 2906 525 
Q 2725 213 2448 61 
Q 2172 -91 1784 -91 
Q 1150 -91 751 415 
Q 353 922 353 1747 
Q 353 2572 751 3078 
Q 1150 3584 1784 3584 
Q 2172 3584 2448 3432 
Q 2725 3281 2906 2969 
z
M 947 1747 
Q 947 1113 1208 752 
Q 1469 391 1925 391 
Q 2381 391 2643 752 
Q 2906 1113 2906 1747 
Q 2906 2381 2643 2742 
Q 2381 3103 1925 3103 
Q 1469 3103 1208 2742 
Q 947 2381 947 1747 
z
" transform="scale(0.015625)"/>
       <path id="DejaVuSans-5d" d="M 1947 4863 
L 1947 -844 
L 622 -844 
L 622 -397 
L 1369 -397 
L 1369 4416 
L 622 4416 
L 622 4863 
L 1947 4863 
z
" transform="scale(0.015625)"/>
      </defs>
      <use xlink:href="#DejaVuSans-41"/>
      <use xlink:href="#DejaVuSans-6e" x="68.408203"/>
      <use xlink:href="#DejaVuSans-67" x="131.787109"/>
      <use xlink:href="#DejaVuSans-6c" x="195.263672"/>
      <use xlink:href="#DejaVuSans-65" x="223.046875"/>
      <use xlink:href="#DejaVuSans-20" x="284.570312"/>
      <use xlink:href="#DejaVuSans-5b" x="316.357422"/>
      <use xlink:href="#DejaVuSans-72" x="355.371094"/>
      <use xlink:href="#DejaVuSans-61" x="396.484375"/>
      <use xlink:href="#DejaVuSans-64" x="457.763672"/>
      <use xlink:href="#DejaVuSans-5d" x="521.240234"/>
     </g>
    </g>
   </g>
   <g id="line2d_35">
    <path d="M 359.824091 55.723721 
L 361.576781 60.337181 
L 363.329471 64.950641 
L 365.082161 69.564101 
L 366.834852 74.177561 
L 368.587542 69.904266 
L 370.340232 65.630972 
L 372.092922 61.357677 
L 373.845612 57.084383 
L 375.598302 52.811088 
L 377.350993 51.533423 
L 379.103683 50.255757 
L 380.856373 48.978092 
L 382.609063 47.700427 
L 384.361753 46.422761 
L 386.114443 46.678566 
L 387.867134 46.934372 
L 389.619824 47.190177 
L 391.372514 47.445982 
L 393.125204 47.701787 
L 394.877894 48.752263 
L 396.630584 49.802739 
L 398.383275 50.853215 
L 400.135965 51.903691 
L 401.888655 52.954167 
L 403.641345 54.713078 
L 405.394035 56.47199 
L 407.146725 58.230901 
L 408.899416 59.989812 
L 410.652106 61.748723 
L 412.404796 57.719235 
L 414.157486 53.689747 
L 415.910176 49.660258 
L 417.662866 45.63077 
L 419.415557 41.601282 
L 421.168247 41.692206 
L 422.920937 41.783131 
L 424.673627 41.874056 
L 426.426317 41.96498 
L 428.179007 42.055905 
L 429.931698 43.696453 
L 431.684388 45.337001 
L 433.437078 46.977549 
L 435.189768 48.618097 
L 436.942458 50.258645 
L 438.695148 52.732384 
L 440.447839 55.206124 
L 442.200529 57.679864 
L 443.953219 60.153603 
L 445.705909 62.627343 
" clip-path="url(#p8e06bccf10)" style="fill: none; stroke: #348abd; stroke-width: 4; stroke-linecap: square"/>
   </g>
   <g id="line2d_36">
    <path d="M 359.824091 94.235765 
L 361.576781 76.196837 
L 363.329471 55.512626 
L 365.082161 56.6869 
L 366.834852 61.52074 
L 368.587542 96.974829 
L 370.340232 81.26505 
L 372.092922 73.56951 
L 373.845612 74.851031 
L 375.598302 75.629819 
L 377.350993 69.382843 
L 379.103683 59.857519 
L 380.856373 56.422548 
L 382.609063 42.80466 
L 384.361753 44.877153 
L 386.114443 43.369434 
L 387.867134 44.354702 
L 389.619824 45.385177 
L 391.372514 42.237322 
L 393.125204 45.422529 
L 394.877894 38.196858 
L 396.630584 45.44337 
L 398.383275 43.530706 
L 400.135965 37.899482 
L 401.888655 39.106139 
L 403.641345 37.056891 
L 405.394035 41.091744 
L 407.146725 44.882604 
L 408.899416 46.075794 
L 410.652106 47.154042 
L 412.404796 56.154349 
L 414.157486 62.43467 
L 415.910176 66.65933 
L 417.662866 67.674415 
L 419.415557 65.88471 
L 421.168247 58.310845 
L 422.920937 56.885685 
L 424.673627 54.48664 
L 426.426317 49.795476 
L 428.179007 42.030521 
L 429.931698 32.274992 
L 431.684388 34.238313 
L 433.437078 34.60863 
L 435.189768 34.322797 
L 436.942458 38.811488 
L 438.695148 34.69103 
L 440.447839 38.157101 
L 442.200529 35.852319 
L 443.953219 40.169318 
L 445.705909 46.14601 
" clip-path="url(#p8e06bccf10)" style="fill: none; stroke-dasharray: 7.4,3.2; stroke-dashoffset: 0; stroke: #a60628; stroke-width: 2"/>
   </g>
   <g id="patch_13">
    <path d="M 355.53 100.209821 
L 355.53 29.04 
" style="fill: none; stroke: #bcbcbc; stroke-width: 0.8; stroke-linejoin: miter; stroke-linecap: square"/>
   </g>
   <g id="patch_14">
    <path d="M 450 100.209821 
L 450 29.04 
" style="fill: none; stroke: #bcbcbc; stroke-width: 0.8; stroke-linejoin: miter; stroke-linecap: square"/>
   </g>
   <g id="patch_15">
    <path d="M 355.53 100.209821 
L 450 100.209821 
" style="fill: none; stroke: #bcbcbc; stroke-width: 0.8; stroke-linejoin: miter; stroke-linecap: square"/>
   </g>
   <g id="patch_16">
    <path d="M 355.53 29.04 
L 450 29.04 
" style="fill: none; stroke: #bcbcbc; stroke-width: 0.8; stroke-linejoin: miter; stroke-linecap: square"/>
   </g>
   <g id="text_12">
    <!-- Robot 1 $\theta$ -->
    <g transform="translate(368.997 23.04) scale(0.144 -0.144)">
     <defs>
      <path id="Cmmi10-b5" d="M 1031 -72 
Q 741 -72 566 140 
Q 391 353 323 653 
Q 256 953 256 1247 
L 256 1253 
Q 256 1572 317 1915 
Q 378 2259 493 2601 
Q 609 2944 744 3213 
Q 838 3400 986 3631 
Q 1134 3863 1317 4064 
Q 1500 4266 1711 4389 
Q 1922 4513 2138 4513 
L 2144 4513 
Q 2375 4513 2529 4384 
Q 2684 4256 2770 4056 
Q 2856 3856 2890 3628 
Q 2925 3400 2925 3194 
Q 2925 2709 2794 2204 
Q 2663 1700 2431 1228 
Q 2344 1050 2189 809 
Q 2034 569 1861 378 
Q 1688 188 1472 58 
Q 1256 -72 1038 -72 
L 1031 -72 
z
M 1044 97 
Q 1256 97 1451 323 
Q 1647 550 1794 873 
Q 1941 1197 2052 1536 
Q 2163 1875 2216 2113 
L 909 2113 
Q 809 1709 753 1417 
Q 697 1125 697 844 
Q 697 97 1044 97 
z
M 959 2338 
L 2272 2338 
Q 2341 2619 2381 2808 
Q 2422 2997 2450 3206 
Q 2478 3416 2478 3597 
Q 2478 4347 2138 4347 
Q 1731 4347 1436 3692 
Q 1141 3038 959 2338 
z
" transform="scale(0.015625)"/>
     </defs>
     <use xlink:href="#DejaVuSans-52" transform="translate(0 0.015625)"/>
     <use xlink:href="#DejaVuSans-6f" transform="translate(69.482422 0.015625)"/>
     <use xlink:href="#DejaVuSans-62" transform="translate(130.664062 0.015625)"/>
     <use xlink:href="#DejaVuSans-6f" transform="translate(194.140625 0.015625)"/>
     <use xlink:href="#DejaVuSans-74" transform="translate(255.322266 0.015625)"/>
     <use xlink:href="#DejaVuSans-20" transform="translate(294.53125 0.015625)"/>
     <use xlink:href="#DejaVuSans-31" transform="translate(326.318359 0.015625)"/>
     <use xlink:href="#DejaVuSans-20" transform="translate(389.941406 0.015625)"/>
     <use xlink:href="#Cmmi10-b5" transform="translate(421.728516 0.015625)"/>
    </g>
   </g>
  </g>
  <g id="axes_4">
   <g id="patch_17">
    <path d="M 59.79 203.31491 
L 154.26 203.31491 
L 154.26 132.14509 
L 59.79 132.14509 
z
" style="fill: #eeeeee"/>
   </g>
   <g id="matplotlib.axis_7">
    <g id="xtick_10">
     <g id="line2d_37">
      <path d="M 64.084091 203.31491 
L 64.084091 132.14509 
" clip-path="url(#p10a3d94c6b)" style="fill: none; stroke-dasharray: 1.85,0.8; stroke-dashoffset: 0; stroke: #b2b2b2; stroke-width: 0.5"/>
     </g>
     <g id="line2d_38">
      <g>
       <use xlink:href="#m9df4c29873" x="64.084091" y="203.31491" style="stroke: #000000; stroke-width: 0.8"/>
      </g>
     </g>
    </g>
    <g id="xtick_11">
     <g id="line2d_39">
      <path d="M 99.137894 203.31491 
L 99.137894 132.14509 
" clip-path="url(#p10a3d94c6b)" style="fill: none; stroke-dasharray: 1.85,0.8; stroke-dashoffset: 0; stroke: #b2b2b2; stroke-width: 0.5"/>
     </g>
     <g id="line2d_40">
      <g>
       <use xlink:href="#m9df4c29873" x="99.137894" y="203.31491" style="stroke: #000000; stroke-width: 0.8"/>
      </g>
     </g>
    </g>
    <g id="xtick_12">
     <g id="line2d_41">
      <path d="M 134.191698 203.31491 
L 134.191698 132.14509 
" clip-path="url(#p10a3d94c6b)" style="fill: none; stroke-dasharray: 1.85,0.8; stroke-dashoffset: 0; stroke: #b2b2b2; stroke-width: 0.5"/>
     </g>
     <g id="line2d_42">
      <g>
       <use xlink:href="#m9df4c29873" x="134.191698" y="203.31491" style="stroke: #000000; stroke-width: 0.8"/>
      </g>
     </g>
    </g>
   </g>
   <g id="matplotlib.axis_8">
    <g id="ytick_7">
     <g id="line2d_43">
      <path d="M 59.79 182.839548 
L 154.26 182.839548 
" clip-path="url(#p10a3d94c6b)" style="fill: none; stroke-dasharray: 1.85,0.8; stroke-dashoffset: 0; stroke: #b2b2b2; stroke-width: 0.5"/>
     </g>
     <g id="line2d_44">
      <g>
       <use xlink:href="#m8c8e93a302" x="59.79" y="182.839548" style="stroke: #000000; stroke-width: 0.8"/>
      </g>
     </g>
     <g id="text_13">
      <!-- −0.2 -->
      <g transform="translate(32.007188 186.638767) scale(0.1 -0.1)">
       <use xlink:href="#DejaVuSans-2212"/>
       <use xlink:href="#DejaVuSans-30" x="83.789062"/>
       <use xlink:href="#DejaVuSans-2e" x="147.412109"/>
       <use xlink:href="#DejaVuSans-32" x="179.199219"/>
      </g>
     </g>
    </g>
    <g id="ytick_8">
     <g id="line2d_45">
      <path d="M 59.79 154.028612 
L 154.26 154.028612 
" clip-path="url(#p10a3d94c6b)" style="fill: none; stroke-dasharray: 1.85,0.8; stroke-dashoffset: 0; stroke: #b2b2b2; stroke-width: 0.5"/>
     </g>
     <g id="line2d_46">
      <g>
       <use xlink:href="#m8c8e93a302" x="59.79" y="154.028612" style="stroke: #000000; stroke-width: 0.8"/>
      </g>
     </g>
     <g id="text_14">
      <!-- −0.1 -->
      <g transform="translate(32.007188 157.827831) scale(0.1 -0.1)">
       <use xlink:href="#DejaVuSans-2212"/>
       <use xlink:href="#DejaVuSans-30" x="83.789062"/>
       <use xlink:href="#DejaVuSans-2e" x="147.412109"/>
       <use xlink:href="#DejaVuSans-31" x="179.199219"/>
      </g>
     </g>
    </g>
    <g id="text_15">
     <!-- Position -->
     <g transform="translate(25.511562 191.086875) rotate(-90) scale(0.12 -0.12)">
      <use xlink:href="#DejaVuSans-50"/>
      <use xlink:href="#DejaVuSans-6f" x="56.677734"/>
      <use xlink:href="#DejaVuSans-73" x="117.859375"/>
      <use xlink:href="#DejaVuSans-69" x="169.958984"/>
      <use xlink:href="#DejaVuSans-74" x="197.742188"/>
      <use xlink:href="#DejaVuSans-69" x="236.951172"/>
      <use xlink:href="#DejaVuSans-6f" x="264.734375"/>
      <use xlink:href="#DejaVuSans-6e" x="325.916016"/>
     </g>
    </g>
   </g>
   <g id="line2d_47">
    <path d="M 64.084091 164.868026 
L 65.836781 167.204419 
L 67.589471 169.322198 
L 69.342161 171.314791 
L 71.094852 173.267997 
L 72.847542 178.61383 
L 74.600232 183.161257 
L 76.352922 186.937815 
L 78.105612 190.036413 
L 79.858302 192.577763 
L 81.610993 194.639572 
L 83.363683 196.320933 
L 85.116373 197.616416 
L 86.869063 198.508071 
L 88.621753 198.972597 
L 90.374443 199.940347 
L 92.127134 199.742514 
L 93.879824 198.465375 
L 95.632514 196.245974 
L 97.385204 193.255916 
L 99.137894 189.859982 
L 100.890584 187.142651 
L 102.643275 185.166852 
L 104.395965 183.957384 
L 106.148655 183.508528 
L 107.901345 184.035746 
L 109.654035 184.262579 
L 111.406725 184.193034 
L 113.159416 183.837737 
L 114.912106 183.212839 
L 116.664796 182.529747 
L 118.417486 181.27315 
L 120.170176 179.561823 
L 121.922866 177.527195 
L 123.675557 175.299506 
L 125.428247 172.493297 
L 127.180937 169.687954 
L 128.933627 166.855429 
L 130.686317 163.962201 
L 132.439007 160.981957 
L 134.191698 159.014463 
L 135.944388 157.001398 
L 137.697078 154.987942 
L 139.449768 153.017712 
L 141.202458 151.130277 
L 142.955148 148.145222 
L 144.707839 145.002938 
L 146.460529 141.784949 
L 148.213219 138.560877 
L 149.965909 135.380081 
" clip-path="url(#p10a3d94c6b)" style="fill: none; stroke: #348abd; stroke-width: 4; stroke-linecap: square"/>
   </g>
   <g id="line2d_48">
    <path d="M 64.084091 164.359828 
L 65.836781 167.204844 
L 67.589471 169.515201 
L 69.342161 171.066716 
L 71.094852 172.925849 
L 72.847542 178.208685 
L 74.600232 183.537745 
L 76.352922 186.838653 
L 78.105612 189.604996 
L 79.858302 191.943741 
L 81.610993 194.101163 
L 83.363683 195.628753 
L 85.116373 197.147177 
L 86.869063 198.050761 
L 88.621753 198.762265 
L 90.374443 199.807707 
L 92.127134 200.079919 
L 93.879824 199.281678 
L 95.632514 197.57212 
L 97.385204 194.993203 
L 99.137894 190.431135 
L 100.890584 186.513969 
L 102.643275 184.200075 
L 104.395965 182.889434 
L 106.148655 182.793139 
L 107.901345 184.00467 
L 109.654035 184.372321 
L 111.406725 184.408652 
L 113.159416 184.039266 
L 114.912106 183.154411 
L 116.664796 182.337181 
L 118.417486 181.194627 
L 120.170176 179.935462 
L 121.922866 177.861789 
L 123.675557 175.745404 
L 125.428247 173.043843 
L 127.180937 170.43054 
L 128.933627 167.708183 
L 130.686317 164.751319 
L 132.439007 161.651339 
L 134.191698 159.498671 
L 135.944388 157.220539 
L 137.697078 155.238586 
L 139.449768 153.309083 
L 141.202458 151.248976 
L 142.955148 147.825608 
L 144.707839 144.965822 
L 146.460529 141.869803 
L 148.213219 138.735186 
L 149.965909 135.718705 
" clip-path="url(#p10a3d94c6b)" style="fill: none; stroke-dasharray: 7.4,3.2; stroke-dashoffset: 0; stroke: #a60628; stroke-width: 2"/>
   </g>
   <g id="patch_18">
    <path d="M 59.79 203.31491 
L 59.79 132.14509 
" style="fill: none; stroke: #bcbcbc; stroke-width: 0.8; stroke-linejoin: miter; stroke-linecap: square"/>
   </g>
   <g id="patch_19">
    <path d="M 154.26 203.31491 
L 154.26 132.14509 
" style="fill: none; stroke: #bcbcbc; stroke-width: 0.8; stroke-linejoin: miter; stroke-linecap: square"/>
   </g>
   <g id="patch_20">
    <path d="M 59.79 203.31491 
L 154.26 203.31491 
" style="fill: none; stroke: #bcbcbc; stroke-width: 0.8; stroke-linejoin: miter; stroke-linecap: square"/>
   </g>
   <g id="patch_21">
    <path d="M 59.79 132.14509 
L 154.26 132.14509 
" style="fill: none; stroke: #bcbcbc; stroke-width: 0.8; stroke-linejoin: miter; stroke-linecap: square"/>
   </g>
   <g id="text_16">
    <!-- Robot 2 $x$ -->
    <g transform="translate(72.537 126.14509) scale(0.144 -0.144)">
     <use xlink:href="#DejaVuSans-52" transform="translate(0 0.015625)"/>
     <use xlink:href="#DejaVuSans-6f" transform="translate(69.482422 0.015625)"/>
     <use xlink:href="#DejaVuSans-62" transform="translate(130.664062 0.015625)"/>
     <use xlink:href="#DejaVuSans-6f" transform="translate(194.140625 0.015625)"/>
     <use xlink:href="#DejaVuSans-74" transform="translate(255.322266 0.015625)"/>
     <use xlink:href="#DejaVuSans-20" transform="translate(294.53125 0.015625)"/>
     <use xlink:href="#DejaVuSans-32" transform="translate(326.318359 0.015625)"/>
     <use xlink:href="#DejaVuSans-20" transform="translate(389.941406 0.015625)"/>
     <use xlink:href="#Cmmi10-78" transform="translate(421.728516 0.015625)"/>
    </g>
   </g>
  </g>
  <g id="axes_5">
   <g id="patch_22">
    <path d="M 207.66 203.31491 
L 302.13 203.31491 
L 302.13 132.14509 
L 207.66 132.14509 
z
" style="fill: #eeeeee"/>
   </g>
   <g id="matplotlib.axis_9">
    <g id="xtick_13">
     <g id="line2d_49">
      <path d="M 211.954091 203.31491 
L 211.954091 132.14509 
" clip-path="url(#p7a67b6e1c3)" style="fill: none; stroke-dasharray: 1.85,0.8; stroke-dashoffset: 0; stroke: #b2b2b2; stroke-width: 0.5"/>
     </g>
     <g id="line2d_50">
      <g>
       <use xlink:href="#m9df4c29873" x="211.954091" y="203.31491" style="stroke: #000000; stroke-width: 0.8"/>
      </g>
     </g>
    </g>
    <g id="xtick_14">
     <g id="line2d_51">
      <path d="M 247.007894 203.31491 
L 247.007894 132.14509 
" clip-path="url(#p7a67b6e1c3)" style="fill: none; stroke-dasharray: 1.85,0.8; stroke-dashoffset: 0; stroke: #b2b2b2; stroke-width: 0.5"/>
     </g>
     <g id="line2d_52">
      <g>
       <use xlink:href="#m9df4c29873" x="247.007894" y="203.31491" style="stroke: #000000; stroke-width: 0.8"/>
      </g>
     </g>
    </g>
    <g id="xtick_15">
     <g id="line2d_53">
      <path d="M 282.061698 203.31491 
L 282.061698 132.14509 
" clip-path="url(#p7a67b6e1c3)" style="fill: none; stroke-dasharray: 1.85,0.8; stroke-dashoffset: 0; stroke: #b2b2b2; stroke-width: 0.5"/>
     </g>
     <g id="line2d_54">
      <g>
       <use xlink:href="#m9df4c29873" x="282.061698" y="203.31491" style="stroke: #000000; stroke-width: 0.8"/>
      </g>
     </g>
    </g>
   </g>
   <g id="matplotlib.axis_10">
    <g id="ytick_9">
     <g id="line2d_55">
      <path d="M 207.66 185.82886 
L 302.13 185.82886 
" clip-path="url(#p7a67b6e1c3)" style="fill: none; stroke-dasharray: 1.85,0.8; stroke-dashoffset: 0; stroke: #b2b2b2; stroke-width: 0.5"/>
     </g>
     <g id="line2d_56">
      <g>
       <use xlink:href="#m8c8e93a302" x="207.66" y="185.82886" style="stroke: #000000; stroke-width: 0.8"/>
      </g>
     </g>
     <g id="text_17">
      <!-- 0.0 -->
      <g transform="translate(188.256875 189.628079) scale(0.1 -0.1)">
       <use xlink:href="#DejaVuSans-30"/>
       <use xlink:href="#DejaVuSans-2e" x="63.623047"/>
       <use xlink:href="#DejaVuSans-30" x="95.410156"/>
      </g>
     </g>
    </g>
    <g id="ytick_10">
     <g id="line2d_57">
      <path d="M 207.66 146.108561 
L 302.13 146.108561 
" clip-path="url(#p7a67b6e1c3)" style="fill: none; stroke-dasharray: 1.85,0.8; stroke-dashoffset: 0; stroke: #b2b2b2; stroke-width: 0.5"/>
     </g>
     <g id="line2d_58">
      <g>
       <use xlink:href="#m8c8e93a302" x="207.66" y="146.108561" style="stroke: #000000; stroke-width: 0.8"/>
      </g>
     </g>
     <g id="text_18">
      <!-- 0.2 -->
      <g transform="translate(188.256875 149.90778) scale(0.1 -0.1)">
       <use xlink:href="#DejaVuSans-30"/>
       <use xlink:href="#DejaVuSans-2e" x="63.623047"/>
       <use xlink:href="#DejaVuSans-32" x="95.410156"/>
      </g>
     </g>
    </g>
    <g id="text_19">
     <!-- Position -->
     <g transform="translate(181.76125 191.086875) rotate(-90) scale(0.12 -0.12)">
      <use xlink:href="#DejaVuSans-50"/>
      <use xlink:href="#DejaVuSans-6f" x="56.677734"/>
      <use xlink:href="#DejaVuSans-73" x="117.859375"/>
      <use xlink:href="#DejaVuSans-69" x="169.958984"/>
      <use xlink:href="#DejaVuSans-74" x="197.742188"/>
      <use xlink:href="#DejaVuSans-69" x="236.951172"/>
      <use xlink:href="#DejaVuSans-6f" x="264.734375"/>
      <use xlink:href="#DejaVuSans-6e" x="325.916016"/>
     </g>
    </g>
   </g>
   <g id="line2d_59">
    <path d="M 211.954091 198.297536 
L 213.706781 197.122622 
L 215.459471 196.038158 
L 217.212161 195.079607 
L 218.964852 194.254869 
L 220.717542 192.652283 
L 222.470232 190.643093 
L 224.222922 188.348176 
L 225.975612 185.87834 
L 227.728302 183.321596 
L 229.480993 181.095286 
L 231.233683 178.655882 
L 232.986373 176.096133 
L 234.739063 173.497515 
L 236.491753 170.929412 
L 238.244443 167.892073 
L 239.997134 164.909659 
L 241.749824 162.188493 
L 243.502514 159.897688 
L 245.255204 158.167432 
L 247.007894 156.921754 
L 248.760584 155.24161 
L 250.513275 153.214218 
L 252.265965 150.939596 
L 254.018655 148.526486 
L 255.771345 146.12697 
L 257.524035 143.810249 
L 259.276725 141.580611 
L 261.029416 139.441731 
L 262.782106 137.397054 
L 264.534796 136.425231 
L 266.287486 135.800956 
L 268.040176 135.522781 
L 269.792866 135.567699 
L 271.545557 135.903883 
L 273.298247 136.124899 
L 275.050937 136.409536 
L 276.803627 136.741687 
L 278.556317 137.109064 
L 280.309007 137.50377 
L 282.061698 137.763718 
L 283.814388 138.043561 
L 285.567078 138.333803 
L 287.319768 138.617468 
L 289.072458 138.872003 
L 290.825148 138.514075 
L 292.577839 138.248535 
L 294.330529 138.003105 
L 296.083219 137.706724 
L 297.835909 137.29739 
" clip-path="url(#p7a67b6e1c3)" style="fill: none; stroke: #348abd; stroke-width: 4; stroke-linecap: square"/>
   </g>
   <g id="line2d_60">
    <path d="M 211.954091 200.079919 
L 213.706781 198.731142 
L 215.459471 197.100665 
L 217.212161 195.54727 
L 218.964852 194.295682 
L 220.717542 193.208685 
L 222.470232 191.322401 
L 224.222922 188.778068 
L 225.975612 186.04997 
L 227.728302 183.037224 
L 229.480993 181.078962 
L 231.233683 178.631811 
L 232.986373 176.544754 
L 234.739063 173.868799 
L 236.491753 171.179564 
L 238.244443 168.020993 
L 239.997134 164.687357 
L 241.749824 161.559893 
L 243.502514 159.194837 
L 245.255204 157.347927 
L 247.007894 155.671649 
L 248.760584 154.906507 
L 250.513275 153.283753 
L 252.265965 151.053711 
L 254.018655 148.287124 
L 255.771345 145.981781 
L 257.524035 143.750264 
L 259.276725 141.727531 
L 261.029416 139.505826 
L 262.782106 137.422051 
L 264.534796 136.331972 
L 266.287486 135.553583 
L 268.040176 135.380081 
L 269.792866 135.604247 
L 271.545557 136.184625 
L 273.298247 136.514172 
L 275.050937 136.854735 
L 276.803627 137.094976 
L 278.556317 137.397024 
L 280.309007 137.651759 
L 282.061698 137.764368 
L 283.814388 137.8871 
L 285.567078 138.181497 
L 287.319768 138.588306 
L 289.072458 138.998399 
L 290.825148 138.569701 
L 292.577839 138.100474 
L 294.330529 138.089525 
L 296.083219 137.910539 
L 297.835909 137.525701 
" clip-path="url(#p7a67b6e1c3)" style="fill: none; stroke-dasharray: 7.4,3.2; stroke-dashoffset: 0; stroke: #a60628; stroke-width: 2"/>
   </g>
   <g id="patch_23">
    <path d="M 207.66 203.31491 
L 207.66 132.14509 
" style="fill: none; stroke: #bcbcbc; stroke-width: 0.8; stroke-linejoin: miter; stroke-linecap: square"/>
   </g>
   <g id="patch_24">
    <path d="M 302.13 203.31491 
L 302.13 132.14509 
" style="fill: none; stroke: #bcbcbc; stroke-width: 0.8; stroke-linejoin: miter; stroke-linecap: square"/>
   </g>
   <g id="patch_25">
    <path d="M 207.66 203.31491 
L 302.13 203.31491 
" style="fill: none; stroke: #bcbcbc; stroke-width: 0.8; stroke-linejoin: miter; stroke-linecap: square"/>
   </g>
   <g id="patch_26">
    <path d="M 207.66 132.14509 
L 302.13 132.14509 
" style="fill: none; stroke: #bcbcbc; stroke-width: 0.8; stroke-linejoin: miter; stroke-linecap: square"/>
   </g>
   <g id="text_20">
    <!-- Robot 2 $y$ -->
    <g transform="translate(220.983 126.14509) scale(0.144 -0.144)">
     <use xlink:href="#DejaVuSans-52" transform="translate(0 0.015625)"/>
     <use xlink:href="#DejaVuSans-6f" transform="translate(69.482422 0.015625)"/>
     <use xlink:href="#DejaVuSans-62" transform="translate(130.664062 0.015625)"/>
     <use xlink:href="#DejaVuSans-6f" transform="translate(194.140625 0.015625)"/>
     <use xlink:href="#DejaVuSans-74" transform="translate(255.322266 0.015625)"/>
     <use xlink:href="#DejaVuSans-20" transform="translate(294.53125 0.015625)"/>
     <use xlink:href="#DejaVuSans-32" transform="translate(326.318359 0.015625)"/>
     <use xlink:href="#DejaVuSans-20" transform="translate(389.941406 0.015625)"/>
     <use xlink:href="#Cmmi10-79" transform="translate(421.728516 0.015625)"/>
    </g>
   </g>
  </g>
  <g id="axes_6">
   <g id="patch_27">
    <path d="M 355.53 203.31491 
L 450 203.31491 
L 450 132.14509 
L 355.53 132.14509 
z
" style="fill: #eeeeee"/>
   </g>
   <g id="matplotlib.axis_11">
    <g id="xtick_16">
     <g id="line2d_61">
      <path d="M 359.824091 203.31491 
L 359.824091 132.14509 
" clip-path="url(#p81f462ba3e)" style="fill: none; stroke-dasharray: 1.85,0.8; stroke-dashoffset: 0; stroke: #b2b2b2; stroke-width: 0.5"/>
     </g>
     <g id="line2d_62">
      <g>
       <use xlink:href="#m9df4c29873" x="359.824091" y="203.31491" style="stroke: #000000; stroke-width: 0.8"/>
      </g>
     </g>
    </g>
    <g id="xtick_17">
     <g id="line2d_63">
      <path d="M 394.877894 203.31491 
L 394.877894 132.14509 
" clip-path="url(#p81f462ba3e)" style="fill: none; stroke-dasharray: 1.85,0.8; stroke-dashoffset: 0; stroke: #b2b2b2; stroke-width: 0.5"/>
     </g>
     <g id="line2d_64">
      <g>
       <use xlink:href="#m9df4c29873" x="394.877894" y="203.31491" style="stroke: #000000; stroke-width: 0.8"/>
      </g>
     </g>
    </g>
    <g id="xtick_18">
     <g id="line2d_65">
      <path d="M 429.931698 203.31491 
L 429.931698 132.14509 
" clip-path="url(#p81f462ba3e)" style="fill: none; stroke-dasharray: 1.85,0.8; stroke-dashoffset: 0; stroke: #b2b2b2; stroke-width: 0.5"/>
     </g>
     <g id="line2d_66">
      <g>
       <use xlink:href="#m9df4c29873" x="429.931698" y="203.31491" style="stroke: #000000; stroke-width: 0.8"/>
      </g>
     </g>
    </g>
   </g>
   <g id="matplotlib.axis_12">
    <g id="ytick_11">
     <g id="line2d_67">
      <path d="M 355.53 201.692042 
L 450 201.692042 
" clip-path="url(#p81f462ba3e)" style="fill: none; stroke-dasharray: 1.85,0.8; stroke-dashoffset: 0; stroke: #b2b2b2; stroke-width: 0.5"/>
     </g>
     <g id="line2d_68">
      <g>
       <use xlink:href="#m8c8e93a302" x="355.53" y="201.692042" style="stroke: #000000; stroke-width: 0.8"/>
      </g>
     </g>
     <g id="text_21">
      <!-- 0 -->
      <g transform="translate(345.6675 205.491261) scale(0.1 -0.1)">
       <use xlink:href="#DejaVuSans-30"/>
      </g>
     </g>
    </g>
    <g id="ytick_12">
     <g id="line2d_69">
      <path d="M 355.53 156.595483 
L 450 156.595483 
" clip-path="url(#p81f462ba3e)" style="fill: none; stroke-dasharray: 1.85,0.8; stroke-dashoffset: 0; stroke: #b2b2b2; stroke-width: 0.5"/>
     </g>
     <g id="line2d_70">
      <g>
       <use xlink:href="#m8c8e93a302" x="355.53" y="156.595483" style="stroke: #000000; stroke-width: 0.8"/>
      </g>
     </g>
     <g id="text_22">
      <!-- 2 -->
      <g transform="translate(345.6675 160.394702) scale(0.1 -0.1)">
       <use xlink:href="#DejaVuSans-32"/>
      </g>
     </g>
    </g>
    <g id="text_23">
     <!-- Angle [rad] -->
     <g transform="translate(339.171875 201.345937) rotate(-90) scale(0.12 -0.12)">
      <use xlink:href="#DejaVuSans-41"/>
      <use xlink:href="#DejaVuSans-6e" x="68.408203"/>
      <use xlink:href="#DejaVuSans-67" x="131.787109"/>
      <use xlink:href="#DejaVuSans-6c" x="195.263672"/>
      <use xlink:href="#DejaVuSans-65" x="223.046875"/>
      <use xlink:href="#DejaVuSans-20" x="284.570312"/>
      <use xlink:href="#DejaVuSans-5b" x="316.357422"/>
      <use xlink:href="#DejaVuSans-72" x="355.371094"/>
      <use xlink:href="#DejaVuSans-61" x="396.484375"/>
      <use xlink:href="#DejaVuSans-64" x="457.763672"/>
      <use xlink:href="#DejaVuSans-5d" x="521.240234"/>
     </g>
    </g>
   </g>
   <g id="line2d_71">
    <path d="M 359.824091 138.564087 
L 361.576781 137.794745 
L 363.329471 137.025403 
L 365.082161 136.256061 
L 366.834852 135.486719 
L 368.587542 137.108435 
L 370.340232 138.730152 
L 372.092922 140.351868 
L 373.845612 141.973584 
L 375.598302 143.5953 
L 377.350993 146.245875 
L 379.103683 148.89645 
L 380.856373 151.547026 
L 382.609063 154.197601 
L 384.361753 156.848176 
L 386.114443 163.081224 
L 387.867134 169.314272 
L 389.619824 175.54732 
L 391.372514 181.780368 
L 393.125204 188.013416 
L 394.877894 183.687044 
L 396.630584 179.360673 
L 398.383275 175.034301 
L 400.135965 170.707929 
L 401.888655 166.381558 
L 403.641345 167.003995 
L 405.394035 167.626433 
L 407.146725 168.24887 
L 408.899416 168.871308 
L 410.652106 169.493745 
L 412.404796 174.387798 
L 414.157486 179.281851 
L 415.910176 184.175904 
L 417.662866 189.069957 
L 419.415557 193.96401 
L 421.168247 195.187192 
L 422.920937 196.410374 
L 424.673627 197.633555 
L 426.426317 198.856737 
L 428.179007 200.079919 
L 429.931698 197.603522 
L 431.684388 195.127125 
L 433.437078 192.650729 
L 435.189768 190.174332 
L 436.942458 187.697935 
L 438.695148 187.567873 
L 440.447839 187.43781 
L 442.200529 187.307748 
L 443.953219 187.177686 
L 445.705909 187.047623 
" clip-path="url(#p81f462ba3e)" style="fill: none; stroke: #348abd; stroke-width: 4; stroke-linecap: square"/>
   </g>
   <g id="line2d_72">
    <path d="M 359.824091 172.669299 
L 361.576781 154.103271 
L 363.329471 150.691942 
L 365.082161 147.36111 
L 366.834852 141.508027 
L 368.587542 135.380081 
L 370.340232 139.666284 
L 372.092922 142.790123 
L 373.845612 143.060702 
L 375.598302 145.854659 
L 377.350993 142.371176 
L 379.103683 143.939183 
L 380.856373 140.896969 
L 382.609063 144.330396 
L 384.361753 145.95297 
L 386.114443 145.237738 
L 387.867134 146.685789 
L 389.619824 148.462368 
L 391.372514 148.883119 
L 393.125204 150.235114 
L 394.877894 178.985974 
L 396.630584 192.882254 
L 398.383275 190.731148 
L 400.135965 181.342721 
L 401.888655 170.234987 
L 403.641345 161.870252 
L 405.394035 162.186829 
L 407.146725 161.301584 
L 408.899416 162.656285 
L 410.652106 164.826331 
L 412.404796 162.669137 
L 414.157486 165.067598 
L 415.910176 167.052523 
L 417.662866 177.08786 
L 419.415557 184.30128 
L 421.168247 190.133167 
L 422.920937 188.808231 
L 424.673627 189.51805 
L 426.426317 190.766549 
L 428.179007 191.418645 
L 429.931698 193.287672 
L 431.684388 195.572715 
L 433.437078 196.14995 
L 435.189768 194.004933 
L 436.942458 195.246892 
L 438.695148 187.79198 
L 440.447839 183.829796 
L 442.200529 188.513074 
L 443.953219 187.140334 
L 445.705909 184.630711 
" clip-path="url(#p81f462ba3e)" style="fill: none; stroke-dasharray: 7.4,3.2; stroke-dashoffset: 0; stroke: #a60628; stroke-width: 2"/>
   </g>
   <g id="patch_28">
    <path d="M 355.53 203.31491 
L 355.53 132.14509 
" style="fill: none; stroke: #bcbcbc; stroke-width: 0.8; stroke-linejoin: miter; stroke-linecap: square"/>
   </g>
   <g id="patch_29">
    <path d="M 450 203.31491 
L 450 132.14509 
" style="fill: none; stroke: #bcbcbc; stroke-width: 0.8; stroke-linejoin: miter; stroke-linecap: square"/>
   </g>
   <g id="patch_30">
    <path d="M 355.53 203.31491 
L 450 203.31491 
" style="fill: none; stroke: #bcbcbc; stroke-width: 0.8; stroke-linejoin: miter; stroke-linecap: square"/>
   </g>
   <g id="patch_31">
    <path d="M 355.53 132.14509 
L 450 132.14509 
" style="fill: none; stroke: #bcbcbc; stroke-width: 0.8; stroke-linejoin: miter; stroke-linecap: square"/>
   </g>
   <g id="text_24">
    <!-- Robot 2 $\theta$ -->
    <g transform="translate(368.997 126.14509) scale(0.144 -0.144)">
     <use xlink:href="#DejaVuSans-52" transform="translate(0 0.015625)"/>
     <use xlink:href="#DejaVuSans-6f" transform="translate(69.482422 0.015625)"/>
     <use xlink:href="#DejaVuSans-62" transform="translate(130.664062 0.015625)"/>
     <use xlink:href="#DejaVuSans-6f" transform="translate(194.140625 0.015625)"/>
     <use xlink:href="#DejaVuSans-74" transform="translate(255.322266 0.015625)"/>
     <use xlink:href="#DejaVuSans-20" transform="translate(294.53125 0.015625)"/>
     <use xlink:href="#DejaVuSans-32" transform="translate(326.318359 0.015625)"/>
     <use xlink:href="#DejaVuSans-20" transform="translate(389.941406 0.015625)"/>
     <use xlink:href="#Cmmi10-b5" transform="translate(421.728516 0.015625)"/>
    </g>
   </g>
  </g>
  <g id="axes_7">
   <g id="patch_32">
    <path d="M 59.79 306.42 
L 154.26 306.42 
L 154.26 235.250179 
L 59.79 235.250179 
z
" style="fill: #eeeeee"/>
   </g>
   <g id="matplotlib.axis_13">
    <g id="xtick_19">
     <g id="line2d_73">
      <path d="M 64.084091 306.42 
L 64.084091 235.250179 
" clip-path="url(#p89d7675810)" style="fill: none; stroke-dasharray: 1.85,0.8; stroke-dashoffset: 0; stroke: #b2b2b2; stroke-width: 0.5"/>
     </g>
     <g id="line2d_74">
      <g>
       <use xlink:href="#m9df4c29873" x="64.084091" y="306.42" style="stroke: #000000; stroke-width: 0.8"/>
      </g>
     </g>
     <g id="text_25">
      <!-- 0 -->
      <g transform="translate(60.902841 317.518438) scale(0.1 -0.1)">
       <use xlink:href="#DejaVuSans-30"/>
      </g>
     </g>
    </g>
    <g id="xtick_20">
     <g id="line2d_75">
      <path d="M 99.137894 306.42 
L 99.137894 235.250179 
" clip-path="url(#p89d7675810)" style="fill: none; stroke-dasharray: 1.85,0.8; stroke-dashoffset: 0; stroke: #b2b2b2; stroke-width: 0.5"/>
     </g>
     <g id="line2d_76">
      <g>
       <use xlink:href="#m9df4c29873" x="99.137894" y="306.42" style="stroke: #000000; stroke-width: 0.8"/>
      </g>
     </g>
     <g id="text_26">
      <!-- 20 -->
      <g transform="translate(92.775394 317.518438) scale(0.1 -0.1)">
       <use xlink:href="#DejaVuSans-32"/>
       <use xlink:href="#DejaVuSans-30" x="63.623047"/>
      </g>
     </g>
    </g>
    <g id="xtick_21">
     <g id="line2d_77">
      <path d="M 134.191698 306.42 
L 134.191698 235.250179 
" clip-path="url(#p89d7675810)" style="fill: none; stroke-dasharray: 1.85,0.8; stroke-dashoffset: 0; stroke: #b2b2b2; stroke-width: 0.5"/>
     </g>
     <g id="line2d_78">
      <g>
       <use xlink:href="#m9df4c29873" x="134.191698" y="306.42" style="stroke: #000000; stroke-width: 0.8"/>
      </g>
     </g>
     <g id="text_27">
      <!-- 40 -->
      <g transform="translate(127.829198 317.518438) scale(0.1 -0.1)">
       <use xlink:href="#DejaVuSans-34"/>
       <use xlink:href="#DejaVuSans-30" x="63.623047"/>
      </g>
     </g>
    </g>
    <g id="text_28">
     <!-- Iteration -->
     <g transform="translate(81.574688 332.71625) scale(0.12 -0.12)">
      <defs>
       <path id="DejaVuSans-49" d="M 628 4666 
L 1259 4666 
L 1259 0 
L 628 0 
L 628 4666 
z
" transform="scale(0.015625)"/>
      </defs>
      <use xlink:href="#DejaVuSans-49"/>
      <use xlink:href="#DejaVuSans-74" x="29.492188"/>
      <use xlink:href="#DejaVuSans-65" x="68.701172"/>
      <use xlink:href="#DejaVuSans-72" x="130.224609"/>
      <use xlink:href="#DejaVuSans-61" x="171.337891"/>
      <use xlink:href="#DejaVuSans-74" x="232.617188"/>
      <use xlink:href="#DejaVuSans-69" x="271.826172"/>
      <use xlink:href="#DejaVuSans-6f" x="299.609375"/>
      <use xlink:href="#DejaVuSans-6e" x="360.791016"/>
     </g>
    </g>
   </g>
   <g id="matplotlib.axis_14">
    <g id="ytick_13">
     <g id="line2d_79">
      <path d="M 59.79 303.174161 
L 154.26 303.174161 
" clip-path="url(#p89d7675810)" style="fill: none; stroke-dasharray: 1.85,0.8; stroke-dashoffset: 0; stroke: #b2b2b2; stroke-width: 0.5"/>
     </g>
     <g id="line2d_80">
      <g>
       <use xlink:href="#m8c8e93a302" x="59.79" y="303.174161" style="stroke: #000000; stroke-width: 0.8"/>
      </g>
     </g>
     <g id="text_29">
      <!-- 0.0 -->
      <g transform="translate(40.386875 306.973379) scale(0.1 -0.1)">
       <use xlink:href="#DejaVuSans-30"/>
       <use xlink:href="#DejaVuSans-2e" x="63.623047"/>
       <use xlink:href="#DejaVuSans-30" x="95.410156"/>
      </g>
     </g>
    </g>
    <g id="ytick_14">
     <g id="line2d_81">
      <path d="M 59.79 275.004295 
L 154.26 275.004295 
" clip-path="url(#p89d7675810)" style="fill: none; stroke-dasharray: 1.85,0.8; stroke-dashoffset: 0; stroke: #b2b2b2; stroke-width: 0.5"/>
     </g>
     <g id="line2d_82">
      <g>
       <use xlink:href="#m8c8e93a302" x="59.79" y="275.004295" style="stroke: #000000; stroke-width: 0.8"/>
      </g>
     </g>
     <g id="text_30">
      <!-- 0.1 -->
      <g transform="translate(40.386875 278.803514) scale(0.1 -0.1)">
       <use xlink:href="#DejaVuSans-30"/>
       <use xlink:href="#DejaVuSans-2e" x="63.623047"/>
       <use xlink:href="#DejaVuSans-31" x="95.410156"/>
      </g>
     </g>
    </g>
    <g id="ytick_15">
     <g id="line2d_83">
      <path d="M 59.79 246.83443 
L 154.26 246.83443 
" clip-path="url(#p89d7675810)" style="fill: none; stroke-dasharray: 1.85,0.8; stroke-dashoffset: 0; stroke: #b2b2b2; stroke-width: 0.5"/>
     </g>
     <g id="line2d_84">
      <g>
       <use xlink:href="#m8c8e93a302" x="59.79" y="246.83443" style="stroke: #000000; stroke-width: 0.8"/>
      </g>
     </g>
     <g id="text_31">
      <!-- 0.2 -->
      <g transform="translate(40.386875 250.633649) scale(0.1 -0.1)">
       <use xlink:href="#DejaVuSans-30"/>
       <use xlink:href="#DejaVuSans-2e" x="63.623047"/>
       <use xlink:href="#DejaVuSans-32" x="95.410156"/>
      </g>
     </g>
    </g>
    <g id="text_32">
     <!-- Position -->
     <g transform="translate(33.89125 294.191965) rotate(-90) scale(0.12 -0.12)">
      <use xlink:href="#DejaVuSans-50"/>
      <use xlink:href="#DejaVuSans-6f" x="56.677734"/>
      <use xlink:href="#DejaVuSans-73" x="117.859375"/>
      <use xlink:href="#DejaVuSans-69" x="169.958984"/>
      <use xlink:href="#DejaVuSans-74" x="197.742188"/>
      <use xlink:href="#DejaVuSans-69" x="236.951172"/>
      <use xlink:href="#DejaVuSans-6f" x="264.734375"/>
      <use xlink:href="#DejaVuSans-6e" x="325.916016"/>
     </g>
    </g>
   </g>
   <g id="line2d_85">
    <path d="M 64.084091 300.354853 
L 65.836781 296.727848 
L 67.589471 293.400377 
L 69.342161 290.519676 
L 71.094852 288.166204 
L 72.847542 286.650359 
L 74.600232 285.468547 
L 76.352922 284.609724 
L 78.105612 284.031668 
L 79.858302 283.67629 
L 81.610993 283.533936 
L 83.363683 282.948601 
L 85.116373 282.047498 
L 86.869063 280.965541 
L 88.621753 279.840115 
L 90.374443 276.972717 
L 92.127134 274.299798 
L 93.879824 271.911692 
L 95.632514 269.875353 
L 97.385204 268.239593 
L 99.137894 267.687637 
L 100.890584 266.623035 
L 102.643275 265.331017 
L 104.395965 264.102179 
L 106.148655 263.200751 
L 107.901345 263.354973 
L 109.654035 263.345537 
L 111.406725 263.153176 
L 113.159416 262.767362 
L 114.912106 262.186637 
L 116.664796 259.96984 
L 118.417486 257.844985 
L 120.170176 255.780341 
L 121.922866 253.738264 
L 123.675557 251.6871 
L 125.428247 250.01988 
L 127.180937 248.460449 
L 128.933627 246.936811 
L 130.686317 245.388678 
L 132.439007 243.774766 
L 134.191698 243.416403 
L 135.944388 243.057271 
L 137.697078 242.65294 
L 139.449768 242.172934 
L 141.202458 241.601499 
L 142.955148 241.103357 
L 144.707839 240.596785 
L 146.460529 240.028435 
L 148.213219 239.341715 
L 149.965909 238.485171 
" clip-path="url(#p89d7675810)" style="fill: none; stroke: #348abd; stroke-width: 4; stroke-linecap: square"/>
   </g>
   <g id="line2d_86">
    <path d="M 64.084091 303.185008 
L 65.836781 298.728006 
L 67.589471 294.277068 
L 69.342161 290.994361 
L 71.094852 288.016002 
L 72.847542 286.569476 
L 74.600232 285.684472 
L 76.352922 284.61775 
L 78.105612 284.472487 
L 79.858302 283.887948 
L 81.610993 283.273095 
L 83.363683 282.415139 
L 85.116373 282.103325 
L 86.869063 281.029802 
L 88.621753 279.96621 
L 90.374443 276.339023 
L 92.127134 274.022951 
L 93.879824 271.510133 
L 95.632514 269.260673 
L 97.385204 267.733974 
L 99.137894 267.527321 
L 100.890584 266.584886 
L 102.643275 265.230371 
L 104.395965 264.330333 
L 106.148655 263.18872 
L 107.901345 262.651292 
L 109.654035 263.4167 
L 111.406725 263.517875 
L 113.159416 263.066251 
L 114.912106 262.2637 
L 116.664796 259.987849 
L 118.417486 258.008786 
L 120.170176 255.991534 
L 121.922866 253.51238 
L 123.675557 251.759621 
L 125.428247 250.086841 
L 127.180937 248.536065 
L 128.933627 247.062311 
L 130.686317 245.388585 
L 132.439007 243.771755 
L 134.191698 243.653375 
L 135.944388 243.530318 
L 137.697078 243.293298 
L 139.449768 242.60907 
L 141.202458 242.060001 
L 142.955148 241.492275 
L 144.707839 241.135285 
L 146.460529 240.475203 
L 148.213219 239.854412 
L 149.965909 239.158439 
" clip-path="url(#p89d7675810)" style="fill: none; stroke-dasharray: 7.4,3.2; stroke-dashoffset: 0; stroke: #a60628; stroke-width: 2"/>
   </g>
   <g id="patch_33">
    <path d="M 59.79 306.42 
L 59.79 235.250179 
" style="fill: none; stroke: #bcbcbc; stroke-width: 0.8; stroke-linejoin: miter; stroke-linecap: square"/>
   </g>
   <g id="patch_34">
    <path d="M 154.26 306.42 
L 154.26 235.250179 
" style="fill: none; stroke: #bcbcbc; stroke-width: 0.8; stroke-linejoin: miter; stroke-linecap: square"/>
   </g>
   <g id="patch_35">
    <path d="M 59.79 306.42 
L 154.26 306.42 
" style="fill: none; stroke: #bcbcbc; stroke-width: 0.8; stroke-linejoin: miter; stroke-linecap: square"/>
   </g>
   <g id="patch_36">
    <path d="M 59.79 235.250179 
L 154.26 235.250179 
" style="fill: none; stroke: #bcbcbc; stroke-width: 0.8; stroke-linejoin: miter; stroke-linecap: square"/>
   </g>
   <g id="text_33">
    <!-- Robot 3 $x$ -->
    <g transform="translate(72.537 229.250179) scale(0.144 -0.144)">
     <use xlink:href="#DejaVuSans-52" transform="translate(0 0.015625)"/>
     <use xlink:href="#DejaVuSans-6f" transform="translate(69.482422 0.015625)"/>
     <use xlink:href="#DejaVuSans-62" transform="translate(130.664062 0.015625)"/>
     <use xlink:href="#DejaVuSans-6f" transform="translate(194.140625 0.015625)"/>
     <use xlink:href="#DejaVuSans-74" transform="translate(255.322266 0.015625)"/>
     <use xlink:href="#DejaVuSans-20" transform="translate(294.53125 0.015625)"/>
     <use xlink:href="#DejaVuSans-33" transform="translate(326.318359 0.015625)"/>
     <use xlink:href="#DejaVuSans-20" transform="translate(389.941406 0.015625)"/>
     <use xlink:href="#Cmmi10-78" transform="translate(421.728516 0.015625)"/>
    </g>
   </g>
  </g>
  <g id="axes_8">
   <g id="patch_37">
    <path d="M 207.66 306.42 
L 302.13 306.42 
L 302.13 235.250179 
L 207.66 235.250179 
z
" style="fill: #eeeeee"/>
   </g>
   <g id="matplotlib.axis_15">
    <g id="xtick_22">
     <g id="line2d_87">
      <path d="M 211.954091 306.42 
L 211.954091 235.250179 
" clip-path="url(#p0fa72b17d6)" style="fill: none; stroke-dasharray: 1.85,0.8; stroke-dashoffset: 0; stroke: #b2b2b2; stroke-width: 0.5"/>
     </g>
     <g id="line2d_88">
      <g>
       <use xlink:href="#m9df4c29873" x="211.954091" y="306.42" style="stroke: #000000; stroke-width: 0.8"/>
      </g>
     </g>
     <g id="text_34">
      <!-- 0 -->
      <g transform="translate(208.772841 317.518438) scale(0.1 -0.1)">
       <use xlink:href="#DejaVuSans-30"/>
      </g>
     </g>
    </g>
    <g id="xtick_23">
     <g id="line2d_89">
      <path d="M 247.007894 306.42 
L 247.007894 235.250179 
" clip-path="url(#p0fa72b17d6)" style="fill: none; stroke-dasharray: 1.85,0.8; stroke-dashoffset: 0; stroke: #b2b2b2; stroke-width: 0.5"/>
     </g>
     <g id="line2d_90">
      <g>
       <use xlink:href="#m9df4c29873" x="247.007894" y="306.42" style="stroke: #000000; stroke-width: 0.8"/>
      </g>
     </g>
     <g id="text_35">
      <!-- 20 -->
      <g transform="translate(240.645394 317.518438) scale(0.1 -0.1)">
       <use xlink:href="#DejaVuSans-32"/>
       <use xlink:href="#DejaVuSans-30" x="63.623047"/>
      </g>
     </g>
    </g>
    <g id="xtick_24">
     <g id="line2d_91">
      <path d="M 282.061698 306.42 
L 282.061698 235.250179 
" clip-path="url(#p0fa72b17d6)" style="fill: none; stroke-dasharray: 1.85,0.8; stroke-dashoffset: 0; stroke: #b2b2b2; stroke-width: 0.5"/>
     </g>
     <g id="line2d_92">
      <g>
       <use xlink:href="#m9df4c29873" x="282.061698" y="306.42" style="stroke: #000000; stroke-width: 0.8"/>
      </g>
     </g>
     <g id="text_36">
      <!-- 40 -->
      <g transform="translate(275.699198 317.518438) scale(0.1 -0.1)">
       <use xlink:href="#DejaVuSans-34"/>
       <use xlink:href="#DejaVuSans-30" x="63.623047"/>
      </g>
     </g>
    </g>
    <g id="text_37">
     <!-- Iteration -->
     <g transform="translate(229.444687 332.71625) scale(0.12 -0.12)">
      <use xlink:href="#DejaVuSans-49"/>
      <use xlink:href="#DejaVuSans-74" x="29.492188"/>
      <use xlink:href="#DejaVuSans-65" x="68.701172"/>
      <use xlink:href="#DejaVuSans-72" x="130.224609"/>
      <use xlink:href="#DejaVuSans-61" x="171.337891"/>
      <use xlink:href="#DejaVuSans-74" x="232.617188"/>
      <use xlink:href="#DejaVuSans-69" x="271.826172"/>
      <use xlink:href="#DejaVuSans-6f" x="299.609375"/>
      <use xlink:href="#DejaVuSans-6e" x="360.791016"/>
     </g>
    </g>
   </g>
   <g id="matplotlib.axis_16">
    <g id="ytick_16">
     <g id="line2d_93">
      <path d="M 207.66 281.780877 
L 302.13 281.780877 
" clip-path="url(#p0fa72b17d6)" style="fill: none; stroke-dasharray: 1.85,0.8; stroke-dashoffset: 0; stroke: #b2b2b2; stroke-width: 0.5"/>
     </g>
     <g id="line2d_94">
      <g>
       <use xlink:href="#m8c8e93a302" x="207.66" y="281.780877" style="stroke: #000000; stroke-width: 0.8"/>
      </g>
     </g>
     <g id="text_38">
      <!-- −0.1 -->
      <g transform="translate(179.877187 285.580095) scale(0.1 -0.1)">
       <use xlink:href="#DejaVuSans-2212"/>
       <use xlink:href="#DejaVuSans-30" x="83.789062"/>
       <use xlink:href="#DejaVuSans-2e" x="147.412109"/>
       <use xlink:href="#DejaVuSans-31" x="179.199219"/>
      </g>
     </g>
    </g>
    <g id="ytick_17">
     <g id="line2d_95">
      <path d="M 207.66 246.474869 
L 302.13 246.474869 
" clip-path="url(#p0fa72b17d6)" style="fill: none; stroke-dasharray: 1.85,0.8; stroke-dashoffset: 0; stroke: #b2b2b2; stroke-width: 0.5"/>
     </g>
     <g id="line2d_96">
      <g>
       <use xlink:href="#m8c8e93a302" x="207.66" y="246.474869" style="stroke: #000000; stroke-width: 0.8"/>
      </g>
     </g>
     <g id="text_39">
      <!-- 0.0 -->
      <g transform="translate(188.256875 250.274088) scale(0.1 -0.1)">
       <use xlink:href="#DejaVuSans-30"/>
       <use xlink:href="#DejaVuSans-2e" x="63.623047"/>
       <use xlink:href="#DejaVuSans-30" x="95.410156"/>
      </g>
     </g>
    </g>
    <g id="text_40">
     <!-- Position -->
     <g transform="translate(173.381563 294.191965) rotate(-90) scale(0.12 -0.12)">
      <use xlink:href="#DejaVuSans-50"/>
      <use xlink:href="#DejaVuSans-6f" x="56.677734"/>
      <use xlink:href="#DejaVuSans-73" x="117.859375"/>
      <use xlink:href="#DejaVuSans-69" x="169.958984"/>
      <use xlink:href="#DejaVuSans-74" x="197.742188"/>
      <use xlink:href="#DejaVuSans-69" x="236.951172"/>
      <use xlink:href="#DejaVuSans-6f" x="264.734375"/>
      <use xlink:href="#DejaVuSans-6e" x="325.916016"/>
     </g>
    </g>
   </g>
   <g id="line2d_97">
    <path d="M 211.954091 300.217511 
L 213.706781 295.723298 
L 215.459471 290.981064 
L 217.212161 286.141156 
L 218.964852 281.312047 
L 220.717542 276.814519 
L 222.470232 272.038864 
L 224.222922 267.211155 
L 225.975612 262.513624 
L 227.728302 258.070716 
L 229.480993 253.747535 
L 231.233683 250.261468 
L 232.986373 247.73903 
L 234.739063 246.246033 
L 236.491753 245.788883 
L 238.244443 246.948091 
L 239.997134 247.185607 
L 241.749824 246.534976 
L 243.502514 245.036993 
L 245.255204 242.739225 
L 247.007894 240.508104 
L 248.760584 239.496652 
L 250.513275 239.806182 
L 252.265965 241.400672 
L 254.018655 244.117726 
L 255.771345 247.723738 
L 257.524035 250.916248 
L 259.276725 253.675527 
L 261.029416 255.999789 
L 262.782106 257.901591 
L 264.534796 260.727725 
L 266.287486 262.967233 
L 268.040176 264.623461 
L 269.792866 265.711163 
L 271.545557 266.249347 
L 273.298247 265.790265 
L 275.050937 265.37195 
L 276.803627 265.005919 
L 278.556317 264.692878 
L 280.309007 264.429108 
L 282.061698 263.681713 
L 283.814388 262.932902 
L 285.567078 262.242524 
L 287.319768 261.641735 
L 289.072458 261.132698 
L 290.825148 261.102387 
L 292.577839 261.053525 
L 294.330529 260.999661 
L 296.083219 260.96771 
L 297.835909 260.990807 
" clip-path="url(#p0fa72b17d6)" style="fill: none; stroke: #348abd; stroke-width: 4; stroke-linecap: square"/>
   </g>
   <g id="line2d_98">
    <path d="M 211.954091 303.185008 
L 213.706781 300.061958 
L 215.459471 292.944185 
L 217.212161 286.980842 
L 218.964852 281.881358 
L 220.717542 277.395659 
L 222.470232 272.704756 
L 224.222922 267.503749 
L 225.975612 261.829245 
L 227.728302 257.784045 
L 229.480993 253.91347 
L 231.233683 250.436495 
L 232.986373 247.338756 
L 234.739063 245.490435 
L 236.491753 244.36134 
L 238.244443 245.466107 
L 239.997134 247.429271 
L 241.749824 247.51545 
L 243.502514 245.668132 
L 245.255204 243.179785 
L 247.007894 240.833941 
L 248.760584 239.196178 
L 250.513275 238.485171 
L 252.265965 239.524049 
L 254.018655 241.893108 
L 255.771345 246.96498 
L 257.524035 250.797589 
L 259.276725 253.830857 
L 261.029416 255.935158 
L 262.782106 257.862696 
L 264.534796 260.652386 
L 266.287486 263.30565 
L 268.040176 264.772878 
L 269.792866 265.717334 
L 271.545557 266.203371 
L 273.298247 265.739119 
L 275.050937 265.086403 
L 276.803627 265.188285 
L 278.556317 265.003224 
L 280.309007 264.557426 
L 282.061698 263.800592 
L 283.814388 263.187039 
L 285.567078 262.357389 
L 287.319768 262.0676 
L 289.072458 261.310297 
L 290.825148 261.449018 
L 292.577839 260.974455 
L 294.330529 260.899521 
L 296.083219 261.179488 
L 297.835909 260.970277 
" clip-path="url(#p0fa72b17d6)" style="fill: none; stroke-dasharray: 7.4,3.2; stroke-dashoffset: 0; stroke: #a60628; stroke-width: 2"/>
   </g>
   <g id="patch_38">
    <path d="M 207.66 306.42 
L 207.66 235.250179 
" style="fill: none; stroke: #bcbcbc; stroke-width: 0.8; stroke-linejoin: miter; stroke-linecap: square"/>
   </g>
   <g id="patch_39">
    <path d="M 302.13 306.42 
L 302.13 235.250179 
" style="fill: none; stroke: #bcbcbc; stroke-width: 0.8; stroke-linejoin: miter; stroke-linecap: square"/>
   </g>
   <g id="patch_40">
    <path d="M 207.66 306.42 
L 302.13 306.42 
" style="fill: none; stroke: #bcbcbc; stroke-width: 0.8; stroke-linejoin: miter; stroke-linecap: square"/>
   </g>
   <g id="patch_41">
    <path d="M 207.66 235.250179 
L 302.13 235.250179 
" style="fill: none; stroke: #bcbcbc; stroke-width: 0.8; stroke-linejoin: miter; stroke-linecap: square"/>
   </g>
   <g id="text_41">
    <!-- Robot 3 $y$ -->
    <g transform="translate(220.983 229.250179) scale(0.144 -0.144)">
     <use xlink:href="#DejaVuSans-52" transform="translate(0 0.015625)"/>
     <use xlink:href="#DejaVuSans-6f" transform="translate(69.482422 0.015625)"/>
     <use xlink:href="#DejaVuSans-62" transform="translate(130.664062 0.015625)"/>
     <use xlink:href="#DejaVuSans-6f" transform="translate(194.140625 0.015625)"/>
     <use xlink:href="#DejaVuSans-74" transform="translate(255.322266 0.015625)"/>
     <use xlink:href="#DejaVuSans-20" transform="translate(294.53125 0.015625)"/>
     <use xlink:href="#DejaVuSans-33" transform="translate(326.318359 0.015625)"/>
     <use xlink:href="#DejaVuSans-20" transform="translate(389.941406 0.015625)"/>
     <use xlink:href="#Cmmi10-79" transform="translate(421.728516 0.015625)"/>
    </g>
   </g>
  </g>
  <g id="axes_9">
   <g id="patch_42">
    <path d="M 355.53 306.42 
L 450 306.42 
L 450 235.250179 
L 355.53 235.250179 
z
" style="fill: #eeeeee"/>
   </g>
   <g id="matplotlib.axis_17">
    <g id="xtick_25">
     <g id="line2d_99">
      <path d="M 359.824091 306.42 
L 359.824091 235.250179 
" clip-path="url(#pa781b68985)" style="fill: none; stroke-dasharray: 1.85,0.8; stroke-dashoffset: 0; stroke: #b2b2b2; stroke-width: 0.5"/>
     </g>
     <g id="line2d_100">
      <g>
       <use xlink:href="#m9df4c29873" x="359.824091" y="306.42" style="stroke: #000000; stroke-width: 0.8"/>
      </g>
     </g>
     <g id="text_42">
      <!-- 0 -->
      <g transform="translate(356.642841 317.518438) scale(0.1 -0.1)">
       <use xlink:href="#DejaVuSans-30"/>
      </g>
     </g>
    </g>
    <g id="xtick_26">
     <g id="line2d_101">
      <path d="M 394.877894 306.42 
L 394.877894 235.250179 
" clip-path="url(#pa781b68985)" style="fill: none; stroke-dasharray: 1.85,0.8; stroke-dashoffset: 0; stroke: #b2b2b2; stroke-width: 0.5"/>
     </g>
     <g id="line2d_102">
      <g>
       <use xlink:href="#m9df4c29873" x="394.877894" y="306.42" style="stroke: #000000; stroke-width: 0.8"/>
      </g>
     </g>
     <g id="text_43">
      <!-- 20 -->
      <g transform="translate(388.515394 317.518438) scale(0.1 -0.1)">
       <use xlink:href="#DejaVuSans-32"/>
       <use xlink:href="#DejaVuSans-30" x="63.623047"/>
      </g>
     </g>
    </g>
    <g id="xtick_27">
     <g id="line2d_103">
      <path d="M 429.931698 306.42 
L 429.931698 235.250179 
" clip-path="url(#pa781b68985)" style="fill: none; stroke-dasharray: 1.85,0.8; stroke-dashoffset: 0; stroke: #b2b2b2; stroke-width: 0.5"/>
     </g>
     <g id="line2d_104">
      <g>
       <use xlink:href="#m9df4c29873" x="429.931698" y="306.42" style="stroke: #000000; stroke-width: 0.8"/>
      </g>
     </g>
     <g id="text_44">
      <!-- 40 -->
      <g transform="translate(423.569198 317.518438) scale(0.1 -0.1)">
       <use xlink:href="#DejaVuSans-34"/>
       <use xlink:href="#DejaVuSans-30" x="63.623047"/>
      </g>
     </g>
    </g>
    <g id="text_45">
     <!-- Iteration -->
     <g transform="translate(377.314687 332.71625) scale(0.12 -0.12)">
      <use xlink:href="#DejaVuSans-49"/>
      <use xlink:href="#DejaVuSans-74" x="29.492188"/>
      <use xlink:href="#DejaVuSans-65" x="68.701172"/>
      <use xlink:href="#DejaVuSans-72" x="130.224609"/>
      <use xlink:href="#DejaVuSans-61" x="171.337891"/>
      <use xlink:href="#DejaVuSans-74" x="232.617188"/>
      <use xlink:href="#DejaVuSans-69" x="271.826172"/>
      <use xlink:href="#DejaVuSans-6f" x="299.609375"/>
      <use xlink:href="#DejaVuSans-6e" x="360.791016"/>
     </g>
    </g>
   </g>
   <g id="matplotlib.axis_18">
    <g id="ytick_18">
     <g id="line2d_105">
      <path d="M 355.53 303.269004 
L 450 303.269004 
" clip-path="url(#pa781b68985)" style="fill: none; stroke-dasharray: 1.85,0.8; stroke-dashoffset: 0; stroke: #b2b2b2; stroke-width: 0.5"/>
     </g>
     <g id="line2d_106">
      <g>
       <use xlink:href="#m8c8e93a302" x="355.53" y="303.269004" style="stroke: #000000; stroke-width: 0.8"/>
      </g>
     </g>
     <g id="text_46">
      <!-- 0.0 -->
      <g transform="translate(336.126875 307.068223) scale(0.1 -0.1)">
       <use xlink:href="#DejaVuSans-30"/>
       <use xlink:href="#DejaVuSans-2e" x="63.623047"/>
       <use xlink:href="#DejaVuSans-30" x="95.410156"/>
      </g>
     </g>
    </g>
    <g id="ytick_19">
     <g id="line2d_107">
      <path d="M 355.53 277.479514 
L 450 277.479514 
" clip-path="url(#pa781b68985)" style="fill: none; stroke-dasharray: 1.85,0.8; stroke-dashoffset: 0; stroke: #b2b2b2; stroke-width: 0.5"/>
     </g>
     <g id="line2d_108">
      <g>
       <use xlink:href="#m8c8e93a302" x="355.53" y="277.479514" style="stroke: #000000; stroke-width: 0.8"/>
      </g>
     </g>
     <g id="text_47">
      <!-- 2.5 -->
      <g transform="translate(336.126875 281.278733) scale(0.1 -0.1)">
       <use xlink:href="#DejaVuSans-32"/>
       <use xlink:href="#DejaVuSans-2e" x="63.623047"/>
       <use xlink:href="#DejaVuSans-35" x="95.410156"/>
      </g>
     </g>
    </g>
    <g id="ytick_20">
     <g id="line2d_109">
      <path d="M 355.53 251.690024 
L 450 251.690024 
" clip-path="url(#pa781b68985)" style="fill: none; stroke-dasharray: 1.85,0.8; stroke-dashoffset: 0; stroke: #b2b2b2; stroke-width: 0.5"/>
     </g>
     <g id="line2d_110">
      <g>
       <use xlink:href="#m8c8e93a302" x="355.53" y="251.690024" style="stroke: #000000; stroke-width: 0.8"/>
      </g>
     </g>
     <g id="text_48">
      <!-- 5.0 -->
      <g transform="translate(336.126875 255.489243) scale(0.1 -0.1)">
       <use xlink:href="#DejaVuSans-35"/>
       <use xlink:href="#DejaVuSans-2e" x="63.623047"/>
       <use xlink:href="#DejaVuSans-30" x="95.410156"/>
      </g>
     </g>
    </g>
    <g id="text_49">
     <!-- Angle [rad] -->
     <g transform="translate(329.63125 304.451027) rotate(-90) scale(0.12 -0.12)">
      <use xlink:href="#DejaVuSans-41"/>
      <use xlink:href="#DejaVuSans-6e" x="68.408203"/>
      <use xlink:href="#DejaVuSans-67" x="131.787109"/>
      <use xlink:href="#DejaVuSans-6c" x="195.263672"/>
      <use xlink:href="#DejaVuSans-65" x="223.046875"/>
      <use xlink:href="#DejaVuSans-20" x="284.570312"/>
      <use xlink:href="#DejaVuSans-5b" x="316.357422"/>
      <use xlink:href="#DejaVuSans-72" x="355.371094"/>
      <use xlink:href="#DejaVuSans-61" x="396.484375"/>
      <use xlink:href="#DejaVuSans-64" x="457.763672"/>
      <use xlink:href="#DejaVuSans-5d" x="521.240234"/>
     </g>
    </g>
   </g>
   <g id="line2d_111">
    <path d="M 359.824091 294.964917 
L 361.576781 294.570866 
L 363.329471 294.176816 
L 365.082161 293.782765 
L 366.834852 293.388715 
L 368.587542 293.300931 
L 370.340232 293.213147 
L 372.092922 293.125363 
L 373.845612 293.037579 
L 375.598302 292.949795 
L 377.350993 295.584152 
L 379.103683 298.218509 
L 380.856373 300.852866 
L 382.609063 238.671165 
L 384.361753 241.305521 
L 386.114443 239.348597 
L 387.867134 302.207731 
L 389.619824 300.250807 
L 391.372514 298.293883 
L 393.125204 296.336959 
L 394.877894 299.861342 
L 396.630584 238.569668 
L 398.383275 242.094052 
L 400.135965 245.618436 
L 401.888655 249.14282 
L 403.641345 248.190596 
L 405.394035 247.238373 
L 407.146725 246.286149 
L 408.899416 245.333926 
L 410.652106 244.381702 
L 412.404796 243.111682 
L 414.157486 241.841661 
L 415.910176 240.57164 
L 417.662866 239.301619 
L 419.415557 302.847656 
L 421.168247 238.485171 
L 422.920937 238.938744 
L 424.673627 239.392316 
L 426.426317 239.845889 
L 428.179007 240.299461 
L 429.931698 239.570294 
L 431.684388 238.841127 
L 433.437078 302.928018 
L 435.189768 302.198851 
L 436.942458 301.469684 
L 438.695148 302.041459 
L 440.447839 302.613234 
L 442.200529 303.185008 
L 443.953219 238.940725 
L 445.705909 239.512499 
" clip-path="url(#pa781b68985)" style="fill: none; stroke: #348abd; stroke-width: 4; stroke-linecap: square"/>
   </g>
   <g id="line2d_112">
    <path d="M 359.824091 290.033242 
L 361.576781 294.608091 
L 363.329471 286.880013 
L 365.082161 290.171577 
L 366.834852 290.426067 
L 368.587542 287.256642 
L 370.340232 287.655348 
L 372.092922 290.698611 
L 373.845612 289.340433 
L 375.598302 292.003868 
L 377.350993 290.800428 
L 379.103683 290.536343 
L 380.856373 288.901393 
L 382.609063 290.53067 
L 384.361753 291.909995 
L 386.114443 238.672489 
L 387.867134 242.768892 
L 389.619824 241.214817 
L 391.372514 302.419625 
L 393.125204 299.68336 
L 394.877894 289.164961 
L 396.630584 288.925016 
L 398.383275 290.457531 
L 400.135965 292.007376 
L 401.888655 295.490814 
L 403.641345 245.92697 
L 405.394035 248.360363 
L 407.146725 246.30721 
L 408.899416 243.547219 
L 410.652106 241.848414 
L 412.404796 242.208022 
L 414.157486 243.760446 
L 415.910176 242.907433 
L 417.662866 241.457548 
L 419.415557 242.166965 
L 421.168247 240.642188 
L 422.920937 239.892745 
L 424.673627 240.85067 
L 426.426317 239.102246 
L 428.179007 301.767047 
L 429.931698 299.888438 
L 431.684388 299.857697 
L 433.437078 298.043148 
L 435.189768 300.431564 
L 436.942458 297.164449 
L 438.695148 298.335188 
L 440.447839 296.323711 
L 442.200529 301.597971 
L 443.953219 302.065174 
L 445.705909 299.639105 
" clip-path="url(#pa781b68985)" style="fill: none; stroke-dasharray: 7.4,3.2; stroke-dashoffset: 0; stroke: #a60628; stroke-width: 2"/>
   </g>
   <g id="patch_43">
    <path d="M 355.53 306.42 
L 355.53 235.250179 
" style="fill: none; stroke: #bcbcbc; stroke-width: 0.8; stroke-linejoin: miter; stroke-linecap: square"/>
   </g>
   <g id="patch_44">
    <path d="M 450 306.42 
L 450 235.250179 
" style="fill: none; stroke: #bcbcbc; stroke-width: 0.8; stroke-linejoin: miter; stroke-linecap: square"/>
   </g>
   <g id="patch_45">
    <path d="M 355.53 306.42 
L 450 306.42 
" style="fill: none; stroke: #bcbcbc; stroke-width: 0.8; stroke-linejoin: miter; stroke-linecap: square"/>
   </g>
   <g id="patch_46">
    <path d="M 355.53 235.250179 
L 450 235.250179 
" style="fill: none; stroke: #bcbcbc; stroke-width: 0.8; stroke-linejoin: miter; stroke-linecap: square"/>
   </g>
   <g id="text_50">
    <!-- Robot 3 $\theta$ -->
    <g transform="translate(368.997 229.250179) scale(0.144 -0.144)">
     <use xlink:href="#DejaVuSans-52" transform="translate(0 0.015625)"/>
     <use xlink:href="#DejaVuSans-6f" transform="translate(69.482422 0.015625)"/>
     <use xlink:href="#DejaVuSans-62" transform="translate(130.664062 0.015625)"/>
     <use xlink:href="#DejaVuSans-6f" transform="translate(194.140625 0.015625)"/>
     <use xlink:href="#DejaVuSans-74" transform="translate(255.322266 0.015625)"/>
     <use xlink:href="#DejaVuSans-20" transform="translate(294.53125 0.015625)"/>
     <use xlink:href="#DejaVuSans-33" transform="translate(326.318359 0.015625)"/>
     <use xlink:href="#DejaVuSans-20" transform="translate(389.941406 0.015625)"/>
     <use xlink:href="#Cmmi10-b5" transform="translate(421.728516 0.015625)"/>
    </g>
   </g>
  </g>
 </g>
 <defs>
  <clipPath id="p452adc6334">
   <rect x="59.79" y="29.04" width="94.47" height="71.169821"/>
  </clipPath>
  <clipPath id="pb103f48c2d">
   <rect x="207.66" y="29.04" width="94.47" height="71.169821"/>
  </clipPath>
  <clipPath id="p8e06bccf10">
   <rect x="355.53" y="29.04" width="94.47" height="71.169821"/>
  </clipPath>
  <clipPath id="p10a3d94c6b">
   <rect x="59.79" y="132.14509" width="94.47" height="71.169821"/>
  </clipPath>
  <clipPath id="p7a67b6e1c3">
   <rect x="207.66" y="132.14509" width="94.47" height="71.169821"/>
  </clipPath>
  <clipPath id="p81f462ba3e">
   <rect x="355.53" y="132.14509" width="94.47" height="71.169821"/>
  </clipPath>
  <clipPath id="p89d7675810">
   <rect x="59.79" y="235.250179" width="94.47" height="71.169821"/>
  </clipPath>
  <clipPath id="p0fa72b17d6">
   <rect x="207.66" y="235.250179" width="94.47" height="71.169821"/>
  </clipPath>
  <clipPath id="pa781b68985">
   <rect x="355.53" y="235.250179" width="94.47" height="71.169821"/>
  </clipPath>
 </defs>
</svg>
