<?xml version="1.0" encoding="utf-8" standalone="no"?>
<!DOCTYPE svg PUBLIC "-//W3C//DTD SVG 1.1//EN"
  "http://www.w3.org/Graphics/SVG/1.1/DTD/svg11.dtd">
<svg xmlns:xlink="http://www.w3.org/1999/xlink" width="460.8pt" height="345.6pt" viewBox="0 0 460.8 345.6" xmlns="http://www.w3.org/2000/svg" version="1.1">
 <metadata>
  <rdf:RDF xmlns:dc="http://purl.org/dc/elements/1.1/" xmlns:cc="http://creativecommons.org/ns#" xmlns:rdf="http://www.w3.org/1999/02/22-rdf-syntax-ns#">
   <cc:Work>
    <dc:type rdf:resource="http://purl.org/dc/dcmitype/StillImage"/>
    <dc:date>2024-06-07T17:48:58.323120</dc:date>
    <dc:format>image/svg+xml</dc:format>
    <dc:creator>
     <cc:Agent>
      <dc:title>Matplotlib v3.8.4, https://matplotlib.org/</dc:title>
     </cc:Agent>
    </dc:creator>
   </cc:Work>
  </rdf:RDF>
 </metadata>
 <defs>
  <style type="text/css">*{stroke-linejoin: round; stroke-linecap: butt}</style>
 </defs>
 <g id="figure_1">
  <g id="patch_1">
   <path d="M 0 345.6 
L 460.8 345.6 
L 460.8 0 
L 0 0 
z
" style="fill: #ffffff"/>
  </g>
  <g id="axes_1">
   <g id="patch_2">
    <path d="M 59.79 100.556522 
L 154.26 100.556522 
L 154.26 29.04 
L 59.79 29.04 
z
" style="fill: #eeeeee"/>
   </g>
   <g id="matplotlib.axis_1">
    <g id="xtick_1">
     <g id="line2d_1">
      <path d="M 64.084091 100.556522 
L 64.084091 29.04 
" clip-path="url(#pf29a6b899c)" style="fill: none; stroke-dasharray: 1.85,0.8; stroke-dashoffset: 0; stroke: #b2b2b2; stroke-width: 0.5"/>
     </g>
     <g id="line2d_2">
      <defs>
       <path id="m35b254980b" d="M 0 0 
L 0 -3.5 
" style="stroke: #000000; stroke-width: 0.8"/>
      </defs>
      <g>
       <use xlink:href="#m35b254980b" x="64.084091" y="100.556522" style="stroke: #000000; stroke-width: 0.8"/>
      </g>
     </g>
    </g>
    <g id="xtick_2">
     <g id="line2d_3">
      <path d="M 99.137894 100.556522 
L 99.137894 29.04 
" clip-path="url(#pf29a6b899c)" style="fill: none; stroke-dasharray: 1.85,0.8; stroke-dashoffset: 0; stroke: #b2b2b2; stroke-width: 0.5"/>
     </g>
     <g id="line2d_4">
      <g>
       <use xlink:href="#m35b254980b" x="99.137894" y="100.556522" style="stroke: #000000; stroke-width: 0.8"/>
      </g>
     </g>
    </g>
    <g id="xtick_3">
     <g id="line2d_5">
      <path d="M 134.191698 100.556522 
L 134.191698 29.04 
" clip-path="url(#pf29a6b899c)" style="fill: none; stroke-dasharray: 1.85,0.8; stroke-dashoffset: 0; stroke: #b2b2b2; stroke-width: 0.5"/>
     </g>
     <g id="line2d_6">
      <g>
       <use xlink:href="#m35b254980b" x="134.191698" y="100.556522" style="stroke: #000000; stroke-width: 0.8"/>
      </g>
     </g>
    </g>
   </g>
   <g id="matplotlib.axis_2">
    <g id="ytick_1">
     <g id="line2d_7">
      <path d="M 59.79 85.202487 
L 154.26 85.202487 
" clip-path="url(#pf29a6b899c)" style="fill: none; stroke-dasharray: 1.85,0.8; stroke-dashoffset: 0; stroke: #b2b2b2; stroke-width: 0.5"/>
     </g>
     <g id="line2d_8">
      <defs>
       <path id="m74579b87e8" d="M 0 0 
L 3.5 0 
" style="stroke: #000000; stroke-width: 0.8"/>
      </defs>
      <g>
       <use xlink:href="#m74579b87e8" x="59.79" y="85.202487" style="stroke: #000000; stroke-width: 0.8"/>
      </g>
     </g>
     <g id="text_1">
      <!-- −0.40 -->
      <g transform="translate(25.644688 89.001706) scale(0.1 -0.1)">
       <defs>
        <path id="DejaVuSans-2212" d="M 678 2272 
L 4684 2272 
L 4684 1741 
L 678 1741 
L 678 2272 
z
" transform="scale(0.015625)"/>
        <path id="DejaVuSans-30" d="M 2034 4250 
Q 1547 4250 1301 3770 
Q 1056 3291 1056 2328 
Q 1056 1369 1301 889 
Q 1547 409 2034 409 
Q 2525 409 2770 889 
Q 3016 1369 3016 2328 
Q 3016 3291 2770 3770 
Q 2525 4250 2034 4250 
z
M 2034 4750 
Q 2819 4750 3233 4129 
Q 3647 3509 3647 2328 
Q 3647 1150 3233 529 
Q 2819 -91 2034 -91 
Q 1250 -91 836 529 
Q 422 1150 422 2328 
Q 422 3509 836 4129 
Q 1250 4750 2034 4750 
z
" transform="scale(0.015625)"/>
        <path id="DejaVuSans-2e" d="M 684 794 
L 1344 794 
L 1344 0 
L 684 0 
L 684 794 
z
" transform="scale(0.015625)"/>
        <path id="DejaVuSans-34" d="M 2419 4116 
L 825 1625 
L 2419 1625 
L 2419 4116 
z
M 2253 4666 
L 3047 4666 
L 3047 1625 
L 3713 1625 
L 3713 1100 
L 3047 1100 
L 3047 0 
L 2419 0 
L 2419 1100 
L 313 1100 
L 313 1709 
L 2253 4666 
z
" transform="scale(0.015625)"/>
       </defs>
       <use xlink:href="#DejaVuSans-2212"/>
       <use xlink:href="#DejaVuSans-30" x="83.789062"/>
       <use xlink:href="#DejaVuSans-2e" x="147.412109"/>
       <use xlink:href="#DejaVuSans-34" x="179.199219"/>
       <use xlink:href="#DejaVuSans-30" x="242.822266"/>
      </g>
     </g>
    </g>
    <g id="ytick_2">
     <g id="line2d_9">
      <path d="M 59.79 61.01931 
L 154.26 61.01931 
" clip-path="url(#pf29a6b899c)" style="fill: none; stroke-dasharray: 1.85,0.8; stroke-dashoffset: 0; stroke: #b2b2b2; stroke-width: 0.5"/>
     </g>
     <g id="line2d_10">
      <g>
       <use xlink:href="#m74579b87e8" x="59.79" y="61.01931" style="stroke: #000000; stroke-width: 0.8"/>
      </g>
     </g>
     <g id="text_2">
      <!-- −0.35 -->
      <g transform="translate(25.644688 64.818529) scale(0.1 -0.1)">
       <defs>
        <path id="DejaVuSans-33" d="M 2597 2516 
Q 3050 2419 3304 2112 
Q 3559 1806 3559 1356 
Q 3559 666 3084 287 
Q 2609 -91 1734 -91 
Q 1441 -91 1130 -33 
Q 819 25 488 141 
L 488 750 
Q 750 597 1062 519 
Q 1375 441 1716 441 
Q 2309 441 2620 675 
Q 2931 909 2931 1356 
Q 2931 1769 2642 2001 
Q 2353 2234 1838 2234 
L 1294 2234 
L 1294 2753 
L 1863 2753 
Q 2328 2753 2575 2939 
Q 2822 3125 2822 3475 
Q 2822 3834 2567 4026 
Q 2313 4219 1838 4219 
Q 1578 4219 1281 4162 
Q 984 4106 628 3988 
L 628 4550 
Q 988 4650 1302 4700 
Q 1616 4750 1894 4750 
Q 2613 4750 3031 4423 
Q 3450 4097 3450 3541 
Q 3450 3153 3228 2886 
Q 3006 2619 2597 2516 
z
" transform="scale(0.015625)"/>
        <path id="DejaVuSans-35" d="M 691 4666 
L 3169 4666 
L 3169 4134 
L 1269 4134 
L 1269 2991 
Q 1406 3038 1543 3061 
Q 1681 3084 1819 3084 
Q 2600 3084 3056 2656 
Q 3513 2228 3513 1497 
Q 3513 744 3044 326 
Q 2575 -91 1722 -91 
Q 1428 -91 1123 -41 
Q 819 9 494 109 
L 494 744 
Q 775 591 1075 516 
Q 1375 441 1709 441 
Q 2250 441 2565 725 
Q 2881 1009 2881 1497 
Q 2881 1984 2565 2268 
Q 2250 2553 1709 2553 
Q 1456 2553 1204 2497 
Q 953 2441 691 2322 
L 691 4666 
z
" transform="scale(0.015625)"/>
       </defs>
       <use xlink:href="#DejaVuSans-2212"/>
       <use xlink:href="#DejaVuSans-30" x="83.789062"/>
       <use xlink:href="#DejaVuSans-2e" x="147.412109"/>
       <use xlink:href="#DejaVuSans-33" x="179.199219"/>
       <use xlink:href="#DejaVuSans-35" x="242.822266"/>
      </g>
     </g>
    </g>
    <g id="ytick_3">
     <g id="line2d_11">
      <path d="M 59.79 36.836132 
L 154.26 36.836132 
" clip-path="url(#pf29a6b899c)" style="fill: none; stroke-dasharray: 1.85,0.8; stroke-dashoffset: 0; stroke: #b2b2b2; stroke-width: 0.5"/>
     </g>
     <g id="line2d_12">
      <g>
       <use xlink:href="#m74579b87e8" x="59.79" y="36.836132" style="stroke: #000000; stroke-width: 0.8"/>
      </g>
     </g>
     <g id="text_3">
      <!-- −0.30 -->
      <g transform="translate(25.644688 40.635351) scale(0.1 -0.1)">
       <use xlink:href="#DejaVuSans-2212"/>
       <use xlink:href="#DejaVuSans-30" x="83.789062"/>
       <use xlink:href="#DejaVuSans-2e" x="147.412109"/>
       <use xlink:href="#DejaVuSans-33" x="179.199219"/>
       <use xlink:href="#DejaVuSans-30" x="242.822266"/>
      </g>
     </g>
    </g>
    <g id="text_4">
     <!-- Position -->
     <g transform="translate(19.149062 88.155136) rotate(-90) scale(0.12 -0.12)">
      <defs>
       <path id="DejaVuSans-50" d="M 1259 4147 
L 1259 2394 
L 2053 2394 
Q 2494 2394 2734 2622 
Q 2975 2850 2975 3272 
Q 2975 3691 2734 3919 
Q 2494 4147 2053 4147 
L 1259 4147 
z
M 628 4666 
L 2053 4666 
Q 2838 4666 3239 4311 
Q 3641 3956 3641 3272 
Q 3641 2581 3239 2228 
Q 2838 1875 2053 1875 
L 1259 1875 
L 1259 0 
L 628 0 
L 628 4666 
z
" transform="scale(0.015625)"/>
       <path id="DejaVuSans-6f" d="M 1959 3097 
Q 1497 3097 1228 2736 
Q 959 2375 959 1747 
Q 959 1119 1226 758 
Q 1494 397 1959 397 
Q 2419 397 2687 759 
Q 2956 1122 2956 1747 
Q 2956 2369 2687 2733 
Q 2419 3097 1959 3097 
z
M 1959 3584 
Q 2709 3584 3137 3096 
Q 3566 2609 3566 1747 
Q 3566 888 3137 398 
Q 2709 -91 1959 -91 
Q 1206 -91 779 398 
Q 353 888 353 1747 
Q 353 2609 779 3096 
Q 1206 3584 1959 3584 
z
" transform="scale(0.015625)"/>
       <path id="DejaVuSans-73" d="M 2834 3397 
L 2834 2853 
Q 2591 2978 2328 3040 
Q 2066 3103 1784 3103 
Q 1356 3103 1142 2972 
Q 928 2841 928 2578 
Q 928 2378 1081 2264 
Q 1234 2150 1697 2047 
L 1894 2003 
Q 2506 1872 2764 1633 
Q 3022 1394 3022 966 
Q 3022 478 2636 193 
Q 2250 -91 1575 -91 
Q 1294 -91 989 -36 
Q 684 19 347 128 
L 347 722 
Q 666 556 975 473 
Q 1284 391 1588 391 
Q 1994 391 2212 530 
Q 2431 669 2431 922 
Q 2431 1156 2273 1281 
Q 2116 1406 1581 1522 
L 1381 1569 
Q 847 1681 609 1914 
Q 372 2147 372 2553 
Q 372 3047 722 3315 
Q 1072 3584 1716 3584 
Q 2034 3584 2315 3537 
Q 2597 3491 2834 3397 
z
" transform="scale(0.015625)"/>
       <path id="DejaVuSans-69" d="M 603 3500 
L 1178 3500 
L 1178 0 
L 603 0 
L 603 3500 
z
M 603 4863 
L 1178 4863 
L 1178 4134 
L 603 4134 
L 603 4863 
z
" transform="scale(0.015625)"/>
       <path id="DejaVuSans-74" d="M 1172 4494 
L 1172 3500 
L 2356 3500 
L 2356 3053 
L 1172 3053 
L 1172 1153 
Q 1172 725 1289 603 
Q 1406 481 1766 481 
L 2356 481 
L 2356 0 
L 1766 0 
Q 1100 0 847 248 
Q 594 497 594 1153 
L 594 3053 
L 172 3053 
L 172 3500 
L 594 3500 
L 594 4494 
L 1172 4494 
z
" transform="scale(0.015625)"/>
       <path id="DejaVuSans-6e" d="M 3513 2113 
L 3513 0 
L 2938 0 
L 2938 2094 
Q 2938 2591 2744 2837 
Q 2550 3084 2163 3084 
Q 1697 3084 1428 2787 
Q 1159 2491 1159 1978 
L 1159 0 
L 581 0 
L 581 3500 
L 1159 3500 
L 1159 2956 
Q 1366 3272 1645 3428 
Q 1925 3584 2291 3584 
Q 2894 3584 3203 3211 
Q 3513 2838 3513 2113 
z
" transform="scale(0.015625)"/>
      </defs>
      <use xlink:href="#DejaVuSans-50"/>
      <use xlink:href="#DejaVuSans-6f" x="56.677734"/>
      <use xlink:href="#DejaVuSans-73" x="117.859375"/>
      <use xlink:href="#DejaVuSans-69" x="169.958984"/>
      <use xlink:href="#DejaVuSans-74" x="197.742188"/>
      <use xlink:href="#DejaVuSans-69" x="236.951172"/>
      <use xlink:href="#DejaVuSans-6f" x="264.734375"/>
      <use xlink:href="#DejaVuSans-6e" x="325.916016"/>
     </g>
    </g>
   </g>
   <g id="line2d_13">
    <path d="M 64.084091 86.698689 
L 65.836781 93.491643 
L 67.589471 96.483505 
L 69.342161 95.595013 
L 71.094852 91.239241 
L 72.847542 83.967988 
L 74.600232 76.655859 
L 76.352922 69.671952 
L 78.105612 63.255152 
L 79.858302 57.477926 
L 81.610993 54.575086 
L 83.363683 52.204099 
L 85.116373 50.406246 
L 86.869063 49.173098 
L 88.621753 48.463337 
L 90.374443 52.402779 
L 92.127134 55.989705 
L 93.879824 59.325105 
L 95.632514 62.477957 
L 97.385204 65.479765 
L 99.137894 67.675554 
L 100.890584 69.406173 
L 102.643275 70.867547 
L 104.395965 72.214458 
L 106.148655 73.560753 
L 107.901345 73.279232 
L 109.654035 73.051537 
L 111.406725 72.869114 
L 113.159416 72.719874 
L 114.912106 72.589211 
L 116.664796 73.509255 
L 118.417486 73.491099 
L 120.170176 72.572174 
L 121.922866 70.847684 
L 123.675557 68.440881 
L 125.428247 65.902574 
L 127.180937 63.541727 
L 128.933627 61.358389 
L 130.686317 59.334167 
L 132.439007 57.440371 
L 134.191698 54.396878 
L 135.944388 50.952706 
L 137.697078 47.226137 
L 139.449768 43.326284 
L 141.202458 39.346225 
L 142.955148 36.342246 
L 144.707839 34.103087 
L 146.460529 32.771784 
L 148.213219 32.421855 
L 149.965909 33.057027 
" clip-path="url(#pf29a6b899c)" style="fill: none; stroke: #348abd; stroke-width: 4; stroke-linecap: square"/>
   </g>
   <g id="line2d_14">
    <path d="M 64.084091 84.740153 
L 65.836781 92.967049 
L 67.589471 97.152164 
L 69.342161 97.305771 
L 71.094852 92.458328 
L 72.847542 83.95372 
L 74.600232 76.489231 
L 76.352922 69.72354 
L 78.105612 62.814784 
L 79.858302 57.138692 
L 81.610993 54.450798 
L 83.363683 52.298953 
L 85.116373 50.187315 
L 86.869063 49.142184 
L 88.621753 48.436942 
L 90.374443 52.354435 
L 92.127134 55.805552 
L 93.879824 59.31138 
L 95.632514 62.468656 
L 97.385204 65.482429 
L 99.137894 67.681832 
L 100.890584 69.392563 
L 102.643275 70.965699 
L 104.395965 72.23974 
L 106.148655 73.656766 
L 107.901345 73.327545 
L 109.654035 73.021584 
L 111.406725 72.91212 
L 113.159416 72.729106 
L 114.912106 72.574842 
L 116.664796 73.556378 
L 118.417486 73.433955 
L 120.170176 72.576308 
L 121.922866 70.831325 
L 123.675557 68.403256 
L 125.428247 66.005829 
L 127.180937 63.553256 
L 128.933627 61.207953 
L 130.686317 59.232961 
L 132.439007 57.473597 
L 134.191698 54.353897 
L 135.944388 51.004543 
L 137.697078 47.190139 
L 139.449768 43.325602 
L 141.202458 39.364535 
L 142.955148 36.357035 
L 144.707839 34.081079 
L 146.460529 32.824289 
L 148.213219 32.290751 
L 149.965909 33.052262 
" clip-path="url(#pf29a6b899c)" style="fill: none; stroke-dasharray: 7.4,3.2; stroke-dashoffset: 0; stroke: #a60628; stroke-width: 2"/>
   </g>
   <g id="patch_3">
    <path d="M 59.79 100.556522 
L 59.79 29.04 
" style="fill: none; stroke: #bcbcbc; stroke-width: 0.8; stroke-linejoin: miter; stroke-linecap: square"/>
   </g>
   <g id="patch_4">
    <path d="M 154.26 100.556522 
L 154.26 29.04 
" style="fill: none; stroke: #bcbcbc; stroke-width: 0.8; stroke-linejoin: miter; stroke-linecap: square"/>
   </g>
   <g id="patch_5">
    <path d="M 59.79 100.556522 
L 154.26 100.556522 
" style="fill: none; stroke: #bcbcbc; stroke-width: 0.8; stroke-linejoin: miter; stroke-linecap: square"/>
   </g>
   <g id="patch_6">
    <path d="M 59.79 29.04 
L 154.26 29.04 
" style="fill: none; stroke: #bcbcbc; stroke-width: 0.8; stroke-linejoin: miter; stroke-linecap: square"/>
   </g>
   <g id="text_5">
    <!-- Robot 1 $x$ -->
    <g transform="translate(72.537 23.04) scale(0.144 -0.144)">
     <defs>
      <path id="DejaVuSans-52" d="M 2841 2188 
Q 3044 2119 3236 1894 
Q 3428 1669 3622 1275 
L 4263 0 
L 3584 0 
L 2988 1197 
Q 2756 1666 2539 1819 
Q 2322 1972 1947 1972 
L 1259 1972 
L 1259 0 
L 628 0 
L 628 4666 
L 2053 4666 
Q 2853 4666 3247 4331 
Q 3641 3997 3641 3322 
Q 3641 2881 3436 2590 
Q 3231 2300 2841 2188 
z
M 1259 4147 
L 1259 2491 
L 2053 2491 
Q 2509 2491 2742 2702 
Q 2975 2913 2975 3322 
Q 2975 3731 2742 3939 
Q 2509 4147 2053 4147 
L 1259 4147 
z
" transform="scale(0.015625)"/>
      <path id="DejaVuSans-62" d="M 3116 1747 
Q 3116 2381 2855 2742 
Q 2594 3103 2138 3103 
Q 1681 3103 1420 2742 
Q 1159 2381 1159 1747 
Q 1159 1113 1420 752 
Q 1681 391 2138 391 
Q 2594 391 2855 752 
Q 3116 1113 3116 1747 
z
M 1159 2969 
Q 1341 3281 1617 3432 
Q 1894 3584 2278 3584 
Q 2916 3584 3314 3078 
Q 3713 2572 3713 1747 
Q 3713 922 3314 415 
Q 2916 -91 2278 -91 
Q 1894 -91 1617 61 
Q 1341 213 1159 525 
L 1159 0 
L 581 0 
L 581 4863 
L 1159 4863 
L 1159 2969 
z
" transform="scale(0.015625)"/>
      <path id="DejaVuSans-20" transform="scale(0.015625)"/>
      <path id="DejaVuSans-31" d="M 794 531 
L 1825 531 
L 1825 4091 
L 703 3866 
L 703 4441 
L 1819 4666 
L 2450 4666 
L 2450 531 
L 3481 531 
L 3481 0 
L 794 0 
L 794 531 
z
" transform="scale(0.015625)"/>
      <path id="Cmmi10-78" d="M 500 184 
Q 613 97 819 97 
Q 1019 97 1172 289 
Q 1325 481 1381 709 
L 1672 1844 
Q 1741 2153 1741 2266 
Q 1741 2425 1652 2544 
Q 1563 2663 1403 2663 
Q 1200 2663 1022 2536 
Q 844 2409 722 2214 
Q 600 2019 550 1819 
Q 538 1778 500 1778 
L 422 1778 
Q 372 1778 372 1838 
L 372 1856 
Q 434 2094 584 2320 
Q 734 2547 951 2687 
Q 1169 2828 1416 2828 
Q 1650 2828 1839 2703 
Q 2028 2578 2106 2363 
Q 2216 2559 2386 2693 
Q 2556 2828 2759 2828 
Q 2897 2828 3040 2779 
Q 3184 2731 3275 2631 
Q 3366 2531 3366 2381 
Q 3366 2219 3261 2101 
Q 3156 1984 2994 1984 
Q 2891 1984 2822 2050 
Q 2753 2116 2753 2216 
Q 2753 2350 2845 2451 
Q 2938 2553 3066 2572 
Q 2950 2663 2747 2663 
Q 2541 2663 2389 2472 
Q 2238 2281 2175 2047 
L 1894 916 
Q 1825 659 1825 494 
Q 1825 331 1917 214 
Q 2009 97 2163 97 
Q 2463 97 2698 361 
Q 2934 625 3009 941 
Q 3022 978 3059 978 
L 3138 978 
Q 3163 978 3178 961 
Q 3194 944 3194 922 
Q 3194 916 3188 903 
Q 3097 522 2806 225 
Q 2516 -72 2150 -72 
Q 1916 -72 1727 54 
Q 1538 181 1459 397 
Q 1359 209 1182 68 
Q 1006 -72 806 -72 
Q 669 -72 523 -23 
Q 378 25 287 125 
Q 197 225 197 378 
Q 197 528 301 651 
Q 406 775 563 775 
Q 669 775 741 711 
Q 813 647 813 544 
Q 813 409 723 309 
Q 634 209 500 184 
z
" transform="scale(0.015625)"/>
     </defs>
     <use xlink:href="#DejaVuSans-52" transform="translate(0 0.015625)"/>
     <use xlink:href="#DejaVuSans-6f" transform="translate(69.482422 0.015625)"/>
     <use xlink:href="#DejaVuSans-62" transform="translate(130.664062 0.015625)"/>
     <use xlink:href="#DejaVuSans-6f" transform="translate(194.140625 0.015625)"/>
     <use xlink:href="#DejaVuSans-74" transform="translate(255.322266 0.015625)"/>
     <use xlink:href="#DejaVuSans-20" transform="translate(294.53125 0.015625)"/>
     <use xlink:href="#DejaVuSans-31" transform="translate(326.318359 0.015625)"/>
     <use xlink:href="#DejaVuSans-20" transform="translate(389.941406 0.015625)"/>
     <use xlink:href="#Cmmi10-78" transform="translate(421.728516 0.015625)"/>
    </g>
   </g>
  </g>
  <g id="axes_2">
   <g id="patch_7">
    <path d="M 207.66 100.556522 
L 302.13 100.556522 
L 302.13 29.04 
L 207.66 29.04 
z
" style="fill: #eeeeee"/>
   </g>
   <g id="matplotlib.axis_3">
    <g id="xtick_4">
     <g id="line2d_15">
      <path d="M 211.954091 100.556522 
L 211.954091 29.04 
" clip-path="url(#p94bc232067)" style="fill: none; stroke-dasharray: 1.85,0.8; stroke-dashoffset: 0; stroke: #b2b2b2; stroke-width: 0.5"/>
     </g>
     <g id="line2d_16">
      <g>
       <use xlink:href="#m35b254980b" x="211.954091" y="100.556522" style="stroke: #000000; stroke-width: 0.8"/>
      </g>
     </g>
    </g>
    <g id="xtick_5">
     <g id="line2d_17">
      <path d="M 247.007894 100.556522 
L 247.007894 29.04 
" clip-path="url(#p94bc232067)" style="fill: none; stroke-dasharray: 1.85,0.8; stroke-dashoffset: 0; stroke: #b2b2b2; stroke-width: 0.5"/>
     </g>
     <g id="line2d_18">
      <g>
       <use xlink:href="#m35b254980b" x="247.007894" y="100.556522" style="stroke: #000000; stroke-width: 0.8"/>
      </g>
     </g>
    </g>
    <g id="xtick_6">
     <g id="line2d_19">
      <path d="M 282.061698 100.556522 
L 282.061698 29.04 
" clip-path="url(#p94bc232067)" style="fill: none; stroke-dasharray: 1.85,0.8; stroke-dashoffset: 0; stroke: #b2b2b2; stroke-width: 0.5"/>
     </g>
     <g id="line2d_20">
      <g>
       <use xlink:href="#m35b254980b" x="282.061698" y="100.556522" style="stroke: #000000; stroke-width: 0.8"/>
      </g>
     </g>
    </g>
   </g>
   <g id="matplotlib.axis_4">
    <g id="ytick_4">
     <g id="line2d_21">
      <path d="M 207.66 81.852548 
L 302.13 81.852548 
" clip-path="url(#p94bc232067)" style="fill: none; stroke-dasharray: 1.85,0.8; stroke-dashoffset: 0; stroke: #b2b2b2; stroke-width: 0.5"/>
     </g>
     <g id="line2d_22">
      <g>
       <use xlink:href="#m74579b87e8" x="207.66" y="81.852548" style="stroke: #000000; stroke-width: 0.8"/>
      </g>
     </g>
     <g id="text_6">
      <!-- −0.1 -->
      <g transform="translate(179.877187 85.651767) scale(0.1 -0.1)">
       <use xlink:href="#DejaVuSans-2212"/>
       <use xlink:href="#DejaVuSans-30" x="83.789062"/>
       <use xlink:href="#DejaVuSans-2e" x="147.412109"/>
       <use xlink:href="#DejaVuSans-31" x="179.199219"/>
      </g>
     </g>
    </g>
    <g id="ytick_5">
     <g id="line2d_23">
      <path d="M 207.66 47.369061 
L 302.13 47.369061 
" clip-path="url(#p94bc232067)" style="fill: none; stroke-dasharray: 1.85,0.8; stroke-dashoffset: 0; stroke: #b2b2b2; stroke-width: 0.5"/>
     </g>
     <g id="line2d_24">
      <g>
       <use xlink:href="#m74579b87e8" x="207.66" y="47.369061" style="stroke: #000000; stroke-width: 0.8"/>
      </g>
     </g>
     <g id="text_7">
      <!-- 0.0 -->
      <g transform="translate(188.256875 51.16828) scale(0.1 -0.1)">
       <use xlink:href="#DejaVuSans-30"/>
       <use xlink:href="#DejaVuSans-2e" x="63.623047"/>
       <use xlink:href="#DejaVuSans-30" x="95.410156"/>
      </g>
     </g>
    </g>
    <g id="text_8">
     <!-- Position -->
     <g transform="translate(173.381563 88.155136) rotate(-90) scale(0.12 -0.12)">
      <use xlink:href="#DejaVuSans-50"/>
      <use xlink:href="#DejaVuSans-6f" x="56.677734"/>
      <use xlink:href="#DejaVuSans-73" x="117.859375"/>
      <use xlink:href="#DejaVuSans-69" x="169.958984"/>
      <use xlink:href="#DejaVuSans-74" x="197.742188"/>
      <use xlink:href="#DejaVuSans-69" x="236.951172"/>
      <use xlink:href="#DejaVuSans-6f" x="264.734375"/>
      <use xlink:href="#DejaVuSans-6e" x="325.916016"/>
     </g>
    </g>
   </g>
   <g id="line2d_25">
    <path d="M 211.954091 97.305771 
L 213.706781 94.343685 
L 215.459471 90.268922 
L 217.212161 85.563259 
L 218.964852 80.749173 
L 220.717542 76.546261 
L 222.470232 72.714806 
L 224.222922 69.020087 
L 225.975612 65.266538 
L 227.728302 61.40983 
L 229.480993 56.187802 
L 231.233683 51.687453 
L 232.986373 47.873612 
L 234.739063 44.695389 
L 236.491753 42.097049 
L 238.244443 38.407822 
L 239.997134 35.697624 
L 241.749824 33.865487 
L 243.502514 32.803672 
L 245.255204 32.410844 
L 247.007894 33.216781 
L 248.760584 34.009565 
L 250.513275 34.763785 
L 252.265965 35.471291 
L 254.018655 36.136292 
L 255.771345 36.177981 
L 257.524035 36.496081 
L 259.276725 37.065174 
L 261.029416 37.861324 
L 262.782106 38.861687 
L 264.534796 40.082341 
L 266.287486 41.931367 
L 268.040176 44.282481 
L 269.792866 46.969745 
L 271.545557 49.785563 
L 273.298247 50.951266 
L 275.050937 52.058626 
L 276.803627 53.097326 
L 278.556317 54.065461 
L 280.309007 54.968478 
L 282.061698 58.585347 
L 283.814388 62.135334 
L 285.567078 65.613745 
L 287.319768 69.017072 
L 289.072458 72.34172 
L 290.825148 75.014795 
L 292.577839 77.756758 
L 294.330529 80.41434 
L 296.083219 82.844026 
L 297.835909 84.920034 
" clip-path="url(#p94bc232067)" style="fill: none; stroke: #348abd; stroke-width: 4; stroke-linecap: square"/>
   </g>
   <g id="line2d_26">
    <path d="M 211.954091 95.240146 
L 213.706781 94.275792 
L 215.459471 92.516651 
L 217.212161 87.852279 
L 218.964852 81.027382 
L 220.717542 76.574483 
L 222.470232 73.123958 
L 224.222922 69.169813 
L 225.975612 65.082846 
L 227.728302 61.249193 
L 229.480993 56.079187 
L 231.233683 51.5488 
L 232.986373 47.883478 
L 234.739063 44.710601 
L 236.491753 42.150298 
L 238.244443 38.35092 
L 239.997134 35.741044 
L 241.749824 33.782474 
L 243.502514 32.778422 
L 245.255204 32.290751 
L 247.007894 32.929459 
L 248.760584 34.010766 
L 250.513275 34.814392 
L 252.265965 35.463472 
L 254.018655 36.233054 
L 255.771345 36.350457 
L 257.524035 36.603774 
L 259.276725 37.152785 
L 261.029416 37.834385 
L 262.782106 38.87004 
L 264.534796 40.125854 
L 266.287486 42.031217 
L 268.040176 44.273415 
L 269.792866 46.936559 
L 271.545557 49.791405 
L 273.298247 50.941062 
L 275.050937 52.069247 
L 276.803627 53.181844 
L 278.556317 54.111348 
L 280.309007 55.026361 
L 282.061698 58.543378 
L 283.814388 62.179291 
L 285.567078 65.579963 
L 287.319768 68.992143 
L 289.072458 72.311041 
L 290.825148 74.975013 
L 292.577839 77.712864 
L 294.330529 80.422196 
L 296.083219 82.912976 
L 297.835909 84.924711 
" clip-path="url(#p94bc232067)" style="fill: none; stroke-dasharray: 7.4,3.2; stroke-dashoffset: 0; stroke: #a60628; stroke-width: 2"/>
   </g>
   <g id="patch_8">
    <path d="M 207.66 100.556522 
L 207.66 29.04 
" style="fill: none; stroke: #bcbcbc; stroke-width: 0.8; stroke-linejoin: miter; stroke-linecap: square"/>
   </g>
   <g id="patch_9">
    <path d="M 302.13 100.556522 
L 302.13 29.04 
" style="fill: none; stroke: #bcbcbc; stroke-width: 0.8; stroke-linejoin: miter; stroke-linecap: square"/>
   </g>
   <g id="patch_10">
    <path d="M 207.66 100.556522 
L 302.13 100.556522 
" style="fill: none; stroke: #bcbcbc; stroke-width: 0.8; stroke-linejoin: miter; stroke-linecap: square"/>
   </g>
   <g id="patch_11">
    <path d="M 207.66 29.04 
L 302.13 29.04 
" style="fill: none; stroke: #bcbcbc; stroke-width: 0.8; stroke-linejoin: miter; stroke-linecap: square"/>
   </g>
   <g id="text_9">
    <!-- Robot 1 $y$ -->
    <g transform="translate(220.983 23.04) scale(0.144 -0.144)">
     <defs>
      <path id="Cmmi10-79" d="M 538 -916 
Q 672 -1147 1006 -1147 
Q 1309 -1147 1531 -934 
Q 1753 -722 1889 -420 
Q 2025 -119 2100 197 
Q 1816 -72 1484 -72 
Q 1231 -72 1053 15 
Q 875 103 776 276 
Q 678 450 678 697 
Q 678 906 734 1126 
Q 791 1347 892 1617 
Q 994 1888 1069 2088 
Q 1153 2322 1153 2472 
Q 1153 2663 1013 2663 
Q 759 2663 595 2402 
Q 431 2141 353 1819 
Q 341 1778 300 1778 
L 225 1778 
Q 172 1778 172 1838 
L 172 1856 
Q 275 2238 487 2533 
Q 700 2828 1025 2828 
Q 1253 2828 1411 2678 
Q 1569 2528 1569 2297 
Q 1569 2178 1516 2047 
Q 1488 1969 1388 1706 
Q 1288 1444 1234 1272 
Q 1181 1100 1147 934 
Q 1113 769 1113 603 
Q 1113 391 1203 244 
Q 1294 97 1491 97 
Q 1888 97 2203 581 
L 2688 2553 
Q 2709 2638 2787 2698 
Q 2866 2759 2956 2759 
Q 3034 2759 3092 2709 
Q 3150 2659 3150 2578 
Q 3150 2541 3144 2528 
L 2509 -19 
Q 2425 -347 2200 -647 
Q 1975 -947 1658 -1130 
Q 1341 -1313 997 -1313 
Q 831 -1313 668 -1248 
Q 506 -1184 406 -1056 
Q 306 -928 306 -756 
Q 306 -581 409 -453 
Q 513 -325 684 -325 
Q 788 -325 858 -389 
Q 928 -453 928 -556 
Q 928 -703 818 -812 
Q 709 -922 563 -922 
Q 556 -919 550 -917 
Q 544 -916 538 -916 
z
" transform="scale(0.015625)"/>
     </defs>
     <use xlink:href="#DejaVuSans-52" transform="translate(0 0.015625)"/>
     <use xlink:href="#DejaVuSans-6f" transform="translate(69.482422 0.015625)"/>
     <use xlink:href="#DejaVuSans-62" transform="translate(130.664062 0.015625)"/>
     <use xlink:href="#DejaVuSans-6f" transform="translate(194.140625 0.015625)"/>
     <use xlink:href="#DejaVuSans-74" transform="translate(255.322266 0.015625)"/>
     <use xlink:href="#DejaVuSans-20" transform="translate(294.53125 0.015625)"/>
     <use xlink:href="#DejaVuSans-31" transform="translate(326.318359 0.015625)"/>
     <use xlink:href="#DejaVuSans-20" transform="translate(389.941406 0.015625)"/>
     <use xlink:href="#Cmmi10-79" transform="translate(421.728516 0.015625)"/>
    </g>
   </g>
  </g>
  <g id="axes_3">
   <g id="patch_12">
    <path d="M 355.53 100.556522 
L 450 100.556522 
L 450 29.04 
L 355.53 29.04 
z
" style="fill: #eeeeee"/>
   </g>
   <g id="matplotlib.axis_5">
    <g id="xtick_7">
     <g id="line2d_27">
      <path d="M 359.824091 100.556522 
L 359.824091 29.04 
" clip-path="url(#pd8d0404029)" style="fill: none; stroke-dasharray: 1.85,0.8; stroke-dashoffset: 0; stroke: #b2b2b2; stroke-width: 0.5"/>
     </g>
     <g id="line2d_28">
      <g>
       <use xlink:href="#m35b254980b" x="359.824091" y="100.556522" style="stroke: #000000; stroke-width: 0.8"/>
      </g>
     </g>
    </g>
    <g id="xtick_8">
     <g id="line2d_29">
      <path d="M 394.877894 100.556522 
L 394.877894 29.04 
" clip-path="url(#pd8d0404029)" style="fill: none; stroke-dasharray: 1.85,0.8; stroke-dashoffset: 0; stroke: #b2b2b2; stroke-width: 0.5"/>
     </g>
     <g id="line2d_30">
      <g>
       <use xlink:href="#m35b254980b" x="394.877894" y="100.556522" style="stroke: #000000; stroke-width: 0.8"/>
      </g>
     </g>
    </g>
    <g id="xtick_9">
     <g id="line2d_31">
      <path d="M 429.931698 100.556522 
L 429.931698 29.04 
" clip-path="url(#pd8d0404029)" style="fill: none; stroke-dasharray: 1.85,0.8; stroke-dashoffset: 0; stroke: #b2b2b2; stroke-width: 0.5"/>
     </g>
     <g id="line2d_32">
      <g>
       <use xlink:href="#m35b254980b" x="429.931698" y="100.556522" style="stroke: #000000; stroke-width: 0.8"/>
      </g>
     </g>
    </g>
   </g>
   <g id="matplotlib.axis_6">
    <g id="ytick_6">
     <g id="line2d_33">
      <path d="M 355.53 87.930855 
L 450 87.930855 
" clip-path="url(#pd8d0404029)" style="fill: none; stroke-dasharray: 1.85,0.8; stroke-dashoffset: 0; stroke: #b2b2b2; stroke-width: 0.5"/>
     </g>
     <g id="line2d_34">
      <g>
       <use xlink:href="#m74579b87e8" x="355.53" y="87.930855" style="stroke: #000000; stroke-width: 0.8"/>
      </g>
     </g>
     <g id="text_10">
      <!-- 2 -->
      <g transform="translate(345.6675 91.730073) scale(0.1 -0.1)">
       <defs>
        <path id="DejaVuSans-32" d="M 1228 531 
L 3431 531 
L 3431 0 
L 469 0 
L 469 531 
Q 828 903 1448 1529 
Q 2069 2156 2228 2338 
Q 2531 2678 2651 2914 
Q 2772 3150 2772 3378 
Q 2772 3750 2511 3984 
Q 2250 4219 1831 4219 
Q 1534 4219 1204 4116 
Q 875 4013 500 3803 
L 500 4441 
Q 881 4594 1212 4672 
Q 1544 4750 1819 4750 
Q 2544 4750 2975 4387 
Q 3406 4025 3406 3419 
Q 3406 3131 3298 2873 
Q 3191 2616 2906 2266 
Q 2828 2175 2409 1742 
Q 1991 1309 1228 531 
z
" transform="scale(0.015625)"/>
       </defs>
       <use xlink:href="#DejaVuSans-32"/>
      </g>
     </g>
    </g>
    <g id="ytick_7">
     <g id="line2d_35">
      <path d="M 355.53 53.558085 
L 450 53.558085 
" clip-path="url(#pd8d0404029)" style="fill: none; stroke-dasharray: 1.85,0.8; stroke-dashoffset: 0; stroke: #b2b2b2; stroke-width: 0.5"/>
     </g>
     <g id="line2d_36">
      <g>
       <use xlink:href="#m74579b87e8" x="355.53" y="53.558085" style="stroke: #000000; stroke-width: 0.8"/>
      </g>
     </g>
     <g id="text_11">
      <!-- 4 -->
      <g transform="translate(345.6675 57.357304) scale(0.1 -0.1)">
       <use xlink:href="#DejaVuSans-34"/>
      </g>
     </g>
    </g>
    <g id="text_12">
     <!-- Angle [rad] -->
     <g transform="translate(339.171875 98.414198) rotate(-90) scale(0.12 -0.12)">
      <defs>
       <path id="DejaVuSans-41" d="M 2188 4044 
L 1331 1722 
L 3047 1722 
L 2188 4044 
z
M 1831 4666 
L 2547 4666 
L 4325 0 
L 3669 0 
L 3244 1197 
L 1141 1197 
L 716 0 
L 50 0 
L 1831 4666 
z
" transform="scale(0.015625)"/>
       <path id="DejaVuSans-67" d="M 2906 1791 
Q 2906 2416 2648 2759 
Q 2391 3103 1925 3103 
Q 1463 3103 1205 2759 
Q 947 2416 947 1791 
Q 947 1169 1205 825 
Q 1463 481 1925 481 
Q 2391 481 2648 825 
Q 2906 1169 2906 1791 
z
M 3481 434 
Q 3481 -459 3084 -895 
Q 2688 -1331 1869 -1331 
Q 1566 -1331 1297 -1286 
Q 1028 -1241 775 -1147 
L 775 -588 
Q 1028 -725 1275 -790 
Q 1522 -856 1778 -856 
Q 2344 -856 2625 -561 
Q 2906 -266 2906 331 
L 2906 616 
Q 2728 306 2450 153 
Q 2172 0 1784 0 
Q 1141 0 747 490 
Q 353 981 353 1791 
Q 353 2603 747 3093 
Q 1141 3584 1784 3584 
Q 2172 3584 2450 3431 
Q 2728 3278 2906 2969 
L 2906 3500 
L 3481 3500 
L 3481 434 
z
" transform="scale(0.015625)"/>
       <path id="DejaVuSans-6c" d="M 603 4863 
L 1178 4863 
L 1178 0 
L 603 0 
L 603 4863 
z
" transform="scale(0.015625)"/>
       <path id="DejaVuSans-65" d="M 3597 1894 
L 3597 1613 
L 953 1613 
Q 991 1019 1311 708 
Q 1631 397 2203 397 
Q 2534 397 2845 478 
Q 3156 559 3463 722 
L 3463 178 
Q 3153 47 2828 -22 
Q 2503 -91 2169 -91 
Q 1331 -91 842 396 
Q 353 884 353 1716 
Q 353 2575 817 3079 
Q 1281 3584 2069 3584 
Q 2775 3584 3186 3129 
Q 3597 2675 3597 1894 
z
M 3022 2063 
Q 3016 2534 2758 2815 
Q 2500 3097 2075 3097 
Q 1594 3097 1305 2825 
Q 1016 2553 972 2059 
L 3022 2063 
z
" transform="scale(0.015625)"/>
       <path id="DejaVuSans-5b" d="M 550 4863 
L 1875 4863 
L 1875 4416 
L 1125 4416 
L 1125 -397 
L 1875 -397 
L 1875 -844 
L 550 -844 
L 550 4863 
z
" transform="scale(0.015625)"/>
       <path id="DejaVuSans-72" d="M 2631 2963 
Q 2534 3019 2420 3045 
Q 2306 3072 2169 3072 
Q 1681 3072 1420 2755 
Q 1159 2438 1159 1844 
L 1159 0 
L 581 0 
L 581 3500 
L 1159 3500 
L 1159 2956 
Q 1341 3275 1631 3429 
Q 1922 3584 2338 3584 
Q 2397 3584 2469 3576 
Q 2541 3569 2628 3553 
L 2631 2963 
z
" transform="scale(0.015625)"/>
       <path id="DejaVuSans-61" d="M 2194 1759 
Q 1497 1759 1228 1600 
Q 959 1441 959 1056 
Q 959 750 1161 570 
Q 1363 391 1709 391 
Q 2188 391 2477 730 
Q 2766 1069 2766 1631 
L 2766 1759 
L 2194 1759 
z
M 3341 1997 
L 3341 0 
L 2766 0 
L 2766 531 
Q 2569 213 2275 61 
Q 1981 -91 1556 -91 
Q 1019 -91 701 211 
Q 384 513 384 1019 
Q 384 1609 779 1909 
Q 1175 2209 1959 2209 
L 2766 2209 
L 2766 2266 
Q 2766 2663 2505 2880 
Q 2244 3097 1772 3097 
Q 1472 3097 1187 3025 
Q 903 2953 641 2809 
L 641 3341 
Q 956 3463 1253 3523 
Q 1550 3584 1831 3584 
Q 2591 3584 2966 3190 
Q 3341 2797 3341 1997 
z
" transform="scale(0.015625)"/>
       <path id="DejaVuSans-64" d="M 2906 2969 
L 2906 4863 
L 3481 4863 
L 3481 0 
L 2906 0 
L 2906 525 
Q 2725 213 2448 61 
Q 2172 -91 1784 -91 
Q 1150 -91 751 415 
Q 353 922 353 1747 
Q 353 2572 751 3078 
Q 1150 3584 1784 3584 
Q 2172 3584 2448 3432 
Q 2725 3281 2906 2969 
z
M 947 1747 
Q 947 1113 1208 752 
Q 1469 391 1925 391 
Q 2381 391 2643 752 
Q 2906 1113 2906 1747 
Q 2906 2381 2643 2742 
Q 2381 3103 1925 3103 
Q 1469 3103 1208 2742 
Q 947 2381 947 1747 
z
" transform="scale(0.015625)"/>
       <path id="DejaVuSans-5d" d="M 1947 4863 
L 1947 -844 
L 622 -844 
L 622 -397 
L 1369 -397 
L 1369 4416 
L 622 4416 
L 622 4863 
L 1947 4863 
z
" transform="scale(0.015625)"/>
      </defs>
      <use xlink:href="#DejaVuSans-41"/>
      <use xlink:href="#DejaVuSans-6e" x="68.408203"/>
      <use xlink:href="#DejaVuSans-67" x="131.787109"/>
      <use xlink:href="#DejaVuSans-6c" x="195.263672"/>
      <use xlink:href="#DejaVuSans-65" x="223.046875"/>
      <use xlink:href="#DejaVuSans-20" x="284.570312"/>
      <use xlink:href="#DejaVuSans-5b" x="316.357422"/>
      <use xlink:href="#DejaVuSans-72" x="355.371094"/>
      <use xlink:href="#DejaVuSans-61" x="396.484375"/>
      <use xlink:href="#DejaVuSans-64" x="457.763672"/>
      <use xlink:href="#DejaVuSans-5d" x="521.240234"/>
     </g>
    </g>
   </g>
   <g id="line2d_37">
    <path d="M 359.824091 77.746755 
L 361.576781 82.438713 
L 363.329471 87.130671 
L 365.082161 91.822629 
L 366.834852 96.514587 
L 368.587542 94.103355 
L 370.340232 91.692123 
L 372.092922 89.280892 
L 373.845612 86.86966 
L 375.598302 84.458428 
L 377.350993 82.674924 
L 379.103683 80.89142 
L 380.856373 79.107916 
L 382.609063 77.324412 
L 384.361753 75.540908 
L 386.114443 73.836689 
L 387.867134 72.13247 
L 389.619824 70.428251 
L 391.372514 68.724031 
L 393.125204 67.019812 
L 394.877894 67.014247 
L 396.630584 67.008682 
L 398.383275 67.003117 
L 400.135965 66.997552 
L 401.888655 66.991987 
L 403.641345 65.566298 
L 405.394035 64.140608 
L 407.146725 62.714919 
L 408.899416 61.28923 
L 410.652106 59.86354 
L 412.404796 54.348982 
L 414.157486 48.834425 
L 415.910176 43.319867 
L 417.662866 37.805309 
L 419.415557 32.290751 
L 421.168247 33.270699 
L 422.920937 34.250647 
L 424.673627 35.230595 
L 426.426317 36.210543 
L 428.179007 37.190491 
L 429.931698 36.713929 
L 431.684388 36.237367 
L 433.437078 35.760805 
L 435.189768 35.284243 
L 436.942458 34.807681 
L 438.695148 38.540998 
L 440.447839 42.274315 
L 442.200529 46.007632 
L 443.953219 49.740949 
L 445.705909 53.474266 
" clip-path="url(#pd8d0404029)" style="fill: none; stroke: #348abd; stroke-width: 4; stroke-linecap: square"/>
   </g>
   <g id="line2d_38">
    <path d="M 359.824091 33.974286 
L 361.576781 44.961714 
L 363.329471 56.513199 
L 365.082161 74.049499 
L 366.834852 96.490792 
L 368.587542 97.305771 
L 370.340232 93.736159 
L 372.092922 90.274133 
L 373.845612 89.473076 
L 375.598302 85.810829 
L 377.350993 83.256932 
L 379.103683 81.465252 
L 380.856373 79.767581 
L 382.609063 77.713464 
L 384.361753 76.030229 
L 386.114443 74.675427 
L 387.867134 72.639356 
L 389.619824 71.317035 
L 391.372514 69.235248 
L 393.125204 67.943004 
L 394.877894 68.177083 
L 396.630584 66.837576 
L 398.383275 67.358495 
L 400.135965 67.708238 
L 401.888655 67.285969 
L 403.641345 65.897137 
L 405.394035 65.119797 
L 407.146725 63.70742 
L 408.899416 62.569337 
L 410.652106 60.500956 
L 412.404796 55.133648 
L 414.157486 48.959267 
L 415.910176 44.275977 
L 417.662866 38.287553 
L 419.415557 32.89945 
L 421.168247 34.469426 
L 422.920937 34.566701 
L 424.673627 34.998767 
L 426.426317 36.653128 
L 428.179007 38.562879 
L 429.931698 37.36052 
L 431.684388 37.235403 
L 433.437078 36.144067 
L 435.189768 36.068275 
L 436.942458 35.475173 
L 438.695148 39.192932 
L 440.447839 42.757388 
L 442.200529 46.829015 
L 443.953219 49.69347 
L 445.705909 54.579043 
" clip-path="url(#pd8d0404029)" style="fill: none; stroke-dasharray: 7.4,3.2; stroke-dashoffset: 0; stroke: #a60628; stroke-width: 2"/>
   </g>
   <g id="patch_13">
    <path d="M 355.53 100.556522 
L 355.53 29.04 
" style="fill: none; stroke: #bcbcbc; stroke-width: 0.8; stroke-linejoin: miter; stroke-linecap: square"/>
   </g>
   <g id="patch_14">
    <path d="M 450 100.556522 
L 450 29.04 
" style="fill: none; stroke: #bcbcbc; stroke-width: 0.8; stroke-linejoin: miter; stroke-linecap: square"/>
   </g>
   <g id="patch_15">
    <path d="M 355.53 100.556522 
L 450 100.556522 
" style="fill: none; stroke: #bcbcbc; stroke-width: 0.8; stroke-linejoin: miter; stroke-linecap: square"/>
   </g>
   <g id="patch_16">
    <path d="M 355.53 29.04 
L 450 29.04 
" style="fill: none; stroke: #bcbcbc; stroke-width: 0.8; stroke-linejoin: miter; stroke-linecap: square"/>
   </g>
   <g id="text_13">
    <!-- Robot 1 $\theta$ -->
    <g transform="translate(368.997 23.04) scale(0.144 -0.144)">
     <defs>
      <path id="Cmmi10-b5" d="M 1031 -72 
Q 741 -72 566 140 
Q 391 353 323 653 
Q 256 953 256 1247 
L 256 1253 
Q 256 1572 317 1915 
Q 378 2259 493 2601 
Q 609 2944 744 3213 
Q 838 3400 986 3631 
Q 1134 3863 1317 4064 
Q 1500 4266 1711 4389 
Q 1922 4513 2138 4513 
L 2144 4513 
Q 2375 4513 2529 4384 
Q 2684 4256 2770 4056 
Q 2856 3856 2890 3628 
Q 2925 3400 2925 3194 
Q 2925 2709 2794 2204 
Q 2663 1700 2431 1228 
Q 2344 1050 2189 809 
Q 2034 569 1861 378 
Q 1688 188 1472 58 
Q 1256 -72 1038 -72 
L 1031 -72 
z
M 1044 97 
Q 1256 97 1451 323 
Q 1647 550 1794 873 
Q 1941 1197 2052 1536 
Q 2163 1875 2216 2113 
L 909 2113 
Q 809 1709 753 1417 
Q 697 1125 697 844 
Q 697 97 1044 97 
z
M 959 2338 
L 2272 2338 
Q 2341 2619 2381 2808 
Q 2422 2997 2450 3206 
Q 2478 3416 2478 3597 
Q 2478 4347 2138 4347 
Q 1731 4347 1436 3692 
Q 1141 3038 959 2338 
z
" transform="scale(0.015625)"/>
     </defs>
     <use xlink:href="#DejaVuSans-52" transform="translate(0 0.015625)"/>
     <use xlink:href="#DejaVuSans-6f" transform="translate(69.482422 0.015625)"/>
     <use xlink:href="#DejaVuSans-62" transform="translate(130.664062 0.015625)"/>
     <use xlink:href="#DejaVuSans-6f" transform="translate(194.140625 0.015625)"/>
     <use xlink:href="#DejaVuSans-74" transform="translate(255.322266 0.015625)"/>
     <use xlink:href="#DejaVuSans-20" transform="translate(294.53125 0.015625)"/>
     <use xlink:href="#DejaVuSans-31" transform="translate(326.318359 0.015625)"/>
     <use xlink:href="#DejaVuSans-20" transform="translate(389.941406 0.015625)"/>
     <use xlink:href="#Cmmi10-b5" transform="translate(421.728516 0.015625)"/>
    </g>
   </g>
  </g>
  <g id="axes_4">
   <g id="patch_17">
    <path d="M 59.79 203.488261 
L 154.26 203.488261 
L 154.26 131.971739 
L 59.79 131.971739 
z
" style="fill: #eeeeee"/>
   </g>
   <g id="matplotlib.axis_7">
    <g id="xtick_10">
     <g id="line2d_39">
      <path d="M 64.084091 203.488261 
L 64.084091 131.971739 
" clip-path="url(#p6148bb10bf)" style="fill: none; stroke-dasharray: 1.85,0.8; stroke-dashoffset: 0; stroke: #b2b2b2; stroke-width: 0.5"/>
     </g>
     <g id="line2d_40">
      <g>
       <use xlink:href="#m35b254980b" x="64.084091" y="203.488261" style="stroke: #000000; stroke-width: 0.8"/>
      </g>
     </g>
    </g>
    <g id="xtick_11">
     <g id="line2d_41">
      <path d="M 99.137894 203.488261 
L 99.137894 131.971739 
" clip-path="url(#p6148bb10bf)" style="fill: none; stroke-dasharray: 1.85,0.8; stroke-dashoffset: 0; stroke: #b2b2b2; stroke-width: 0.5"/>
     </g>
     <g id="line2d_42">
      <g>
       <use xlink:href="#m35b254980b" x="99.137894" y="203.488261" style="stroke: #000000; stroke-width: 0.8"/>
      </g>
     </g>
    </g>
    <g id="xtick_12">
     <g id="line2d_43">
      <path d="M 134.191698 203.488261 
L 134.191698 131.971739 
" clip-path="url(#p6148bb10bf)" style="fill: none; stroke-dasharray: 1.85,0.8; stroke-dashoffset: 0; stroke: #b2b2b2; stroke-width: 0.5"/>
     </g>
     <g id="line2d_44">
      <g>
       <use xlink:href="#m35b254980b" x="134.191698" y="203.488261" style="stroke: #000000; stroke-width: 0.8"/>
      </g>
     </g>
    </g>
   </g>
   <g id="matplotlib.axis_8">
    <g id="ytick_8">
     <g id="line2d_45">
      <path d="M 59.79 179.130454 
L 154.26 179.130454 
" clip-path="url(#p6148bb10bf)" style="fill: none; stroke-dasharray: 1.85,0.8; stroke-dashoffset: 0; stroke: #b2b2b2; stroke-width: 0.5"/>
     </g>
     <g id="line2d_46">
      <g>
       <use xlink:href="#m74579b87e8" x="59.79" y="179.130454" style="stroke: #000000; stroke-width: 0.8"/>
      </g>
     </g>
     <g id="text_14">
      <!-- −0.15 -->
      <g transform="translate(25.644688 182.929673) scale(0.1 -0.1)">
       <use xlink:href="#DejaVuSans-2212"/>
       <use xlink:href="#DejaVuSans-30" x="83.789062"/>
       <use xlink:href="#DejaVuSans-2e" x="147.412109"/>
       <use xlink:href="#DejaVuSans-31" x="179.199219"/>
       <use xlink:href="#DejaVuSans-35" x="242.822266"/>
      </g>
     </g>
    </g>
    <g id="ytick_9">
     <g id="line2d_47">
      <path d="M 59.79 153.3524 
L 154.26 153.3524 
" clip-path="url(#p6148bb10bf)" style="fill: none; stroke-dasharray: 1.85,0.8; stroke-dashoffset: 0; stroke: #b2b2b2; stroke-width: 0.5"/>
     </g>
     <g id="line2d_48">
      <g>
       <use xlink:href="#m74579b87e8" x="59.79" y="153.3524" style="stroke: #000000; stroke-width: 0.8"/>
      </g>
     </g>
     <g id="text_15">
      <!-- −0.10 -->
      <g transform="translate(25.644688 157.151619) scale(0.1 -0.1)">
       <use xlink:href="#DejaVuSans-2212"/>
       <use xlink:href="#DejaVuSans-30" x="83.789062"/>
       <use xlink:href="#DejaVuSans-2e" x="147.412109"/>
       <use xlink:href="#DejaVuSans-31" x="179.199219"/>
       <use xlink:href="#DejaVuSans-30" x="242.822266"/>
      </g>
     </g>
    </g>
    <g id="text_16">
     <!-- Position -->
     <g transform="translate(19.149062 191.086875) rotate(-90) scale(0.12 -0.12)">
      <use xlink:href="#DejaVuSans-50"/>
      <use xlink:href="#DejaVuSans-6f" x="56.677734"/>
      <use xlink:href="#DejaVuSans-73" x="117.859375"/>
      <use xlink:href="#DejaVuSans-69" x="169.958984"/>
      <use xlink:href="#DejaVuSans-74" x="197.742188"/>
      <use xlink:href="#DejaVuSans-69" x="236.951172"/>
      <use xlink:href="#DejaVuSans-6f" x="264.734375"/>
      <use xlink:href="#DejaVuSans-6e" x="325.916016"/>
     </g>
    </g>
   </g>
   <g id="line2d_49">
    <path d="M 64.084091 182.066402 
L 65.836781 181.24224 
L 67.589471 181.055972 
L 69.342161 181.654126 
L 71.094852 183.202979 
L 72.847542 187.789377 
L 74.600232 191.524228 
L 76.352922 194.562149 
L 78.105612 196.882157 
L 79.858302 198.362857 
L 81.610993 196.75594 
L 83.363683 193.942273 
L 85.116373 190.092288 
L 86.869063 185.380087 
L 88.621753 179.977841 
L 90.374443 171.245481 
L 92.127134 163.422578 
L 93.879824 156.522264 
L 95.632514 150.507394 
L 97.385204 145.306467 
L 99.137894 143.309822 
L 100.890584 141.566542 
L 102.643275 140.043294 
L 104.395965 138.70143 
L 106.148655 137.50442 
L 107.901345 136.202915 
L 109.654035 135.456302 
L 111.406725 135.22249 
L 113.159416 135.462981 
L 114.912106 136.142692 
L 116.664796 136.603112 
L 118.417486 137.359608 
L 120.170176 138.515556 
L 121.922866 140.161956 
L 123.675557 142.358546 
L 125.428247 147.199179 
L 127.180937 151.714282 
L 128.933627 155.885861 
L 130.686317 159.693641 
L 132.439007 163.117877 
L 134.191698 165.993458 
L 135.944388 169.751186 
L 137.697078 174.016243 
L 139.449768 178.379105 
L 141.202458 182.431967 
L 142.955148 185.895218 
L 144.707839 189.626328 
L 146.460529 193.402249 
L 148.213219 196.997269 
L 149.965909 200.196652 
" clip-path="url(#p6148bb10bf)" style="fill: none; stroke: #348abd; stroke-width: 4; stroke-linecap: square"/>
   </g>
   <g id="line2d_50">
    <path d="M 64.084091 184.985385 
L 65.836781 184.613768 
L 67.589471 180.742874 
L 69.342161 181.134178 
L 71.094852 182.635158 
L 72.847542 187.686906 
L 74.600232 191.230146 
L 76.352922 194.566173 
L 78.105612 196.809112 
L 79.858302 198.334589 
L 81.610993 196.974046 
L 83.363683 193.671182 
L 85.116373 189.7749 
L 86.869063 185.136803 
L 88.621753 179.81179 
L 90.374443 171.422396 
L 92.127134 163.434741 
L 93.879824 156.225796 
L 95.632514 150.548174 
L 97.385204 145.44535 
L 99.137894 143.321233 
L 100.890584 141.491592 
L 102.643275 140.15844 
L 104.395965 138.690781 
L 106.148655 137.516317 
L 107.901345 136.075792 
L 109.654035 135.459715 
L 111.406725 135.252815 
L 113.159416 135.656101 
L 114.912106 136.130165 
L 116.664796 136.523154 
L 118.417486 137.4142 
L 120.170176 138.201163 
L 121.922866 140.062462 
L 123.675557 142.27956 
L 125.428247 147.254945 
L 127.180937 151.63387 
L 128.933627 155.915931 
L 130.686317 159.780589 
L 132.439007 163.179408 
L 134.191698 166.032265 
L 135.944388 169.800732 
L 137.697078 173.961338 
L 139.449768 178.310555 
L 141.202458 182.376481 
L 142.955148 185.807732 
L 144.707839 189.564787 
L 146.460529 193.320169 
L 148.213219 196.960084 
L 149.965909 200.23751 
" clip-path="url(#p6148bb10bf)" style="fill: none; stroke-dasharray: 7.4,3.2; stroke-dashoffset: 0; stroke: #a60628; stroke-width: 2"/>
   </g>
   <g id="patch_18">
    <path d="M 59.79 203.488261 
L 59.79 131.971739 
" style="fill: none; stroke: #bcbcbc; stroke-width: 0.8; stroke-linejoin: miter; stroke-linecap: square"/>
   </g>
   <g id="patch_19">
    <path d="M 154.26 203.488261 
L 154.26 131.971739 
" style="fill: none; stroke: #bcbcbc; stroke-width: 0.8; stroke-linejoin: miter; stroke-linecap: square"/>
   </g>
   <g id="patch_20">
    <path d="M 59.79 203.488261 
L 154.26 203.488261 
" style="fill: none; stroke: #bcbcbc; stroke-width: 0.8; stroke-linejoin: miter; stroke-linecap: square"/>
   </g>
   <g id="patch_21">
    <path d="M 59.79 131.971739 
L 154.26 131.971739 
" style="fill: none; stroke: #bcbcbc; stroke-width: 0.8; stroke-linejoin: miter; stroke-linecap: square"/>
   </g>
   <g id="text_17">
    <!-- Robot 2 $x$ -->
    <g transform="translate(72.537 125.971739) scale(0.144 -0.144)">
     <use xlink:href="#DejaVuSans-52" transform="translate(0 0.015625)"/>
     <use xlink:href="#DejaVuSans-6f" transform="translate(69.482422 0.015625)"/>
     <use xlink:href="#DejaVuSans-62" transform="translate(130.664062 0.015625)"/>
     <use xlink:href="#DejaVuSans-6f" transform="translate(194.140625 0.015625)"/>
     <use xlink:href="#DejaVuSans-74" transform="translate(255.322266 0.015625)"/>
     <use xlink:href="#DejaVuSans-20" transform="translate(294.53125 0.015625)"/>
     <use xlink:href="#DejaVuSans-32" transform="translate(326.318359 0.015625)"/>
     <use xlink:href="#DejaVuSans-20" transform="translate(389.941406 0.015625)"/>
     <use xlink:href="#Cmmi10-78" transform="translate(421.728516 0.015625)"/>
    </g>
   </g>
  </g>
  <g id="axes_5">
   <g id="patch_22">
    <path d="M 207.66 203.488261 
L 302.13 203.488261 
L 302.13 131.971739 
L 207.66 131.971739 
z
" style="fill: #eeeeee"/>
   </g>
   <g id="matplotlib.axis_9">
    <g id="xtick_13">
     <g id="line2d_51">
      <path d="M 211.954091 203.488261 
L 211.954091 131.971739 
" clip-path="url(#pb5f80aa46e)" style="fill: none; stroke-dasharray: 1.85,0.8; stroke-dashoffset: 0; stroke: #b2b2b2; stroke-width: 0.5"/>
     </g>
     <g id="line2d_52">
      <g>
       <use xlink:href="#m35b254980b" x="211.954091" y="203.488261" style="stroke: #000000; stroke-width: 0.8"/>
      </g>
     </g>
    </g>
    <g id="xtick_14">
     <g id="line2d_53">
      <path d="M 247.007894 203.488261 
L 247.007894 131.971739 
" clip-path="url(#pb5f80aa46e)" style="fill: none; stroke-dasharray: 1.85,0.8; stroke-dashoffset: 0; stroke: #b2b2b2; stroke-width: 0.5"/>
     </g>
     <g id="line2d_54">
      <g>
       <use xlink:href="#m35b254980b" x="247.007894" y="203.488261" style="stroke: #000000; stroke-width: 0.8"/>
      </g>
     </g>
    </g>
    <g id="xtick_15">
     <g id="line2d_55">
      <path d="M 282.061698 203.488261 
L 282.061698 131.971739 
" clip-path="url(#pb5f80aa46e)" style="fill: none; stroke-dasharray: 1.85,0.8; stroke-dashoffset: 0; stroke: #b2b2b2; stroke-width: 0.5"/>
     </g>
     <g id="line2d_56">
      <g>
       <use xlink:href="#m35b254980b" x="282.061698" y="203.488261" style="stroke: #000000; stroke-width: 0.8"/>
      </g>
     </g>
    </g>
   </g>
   <g id="matplotlib.axis_10">
    <g id="ytick_10">
     <g id="line2d_57">
      <path d="M 207.66 200.066517 
L 302.13 200.066517 
" clip-path="url(#pb5f80aa46e)" style="fill: none; stroke-dasharray: 1.85,0.8; stroke-dashoffset: 0; stroke: #b2b2b2; stroke-width: 0.5"/>
     </g>
     <g id="line2d_58">
      <g>
       <use xlink:href="#m74579b87e8" x="207.66" y="200.066517" style="stroke: #000000; stroke-width: 0.8"/>
      </g>
     </g>
     <g id="text_18">
      <!-- −0.3 -->
      <g transform="translate(179.877187 203.865736) scale(0.1 -0.1)">
       <use xlink:href="#DejaVuSans-2212"/>
       <use xlink:href="#DejaVuSans-30" x="83.789062"/>
       <use xlink:href="#DejaVuSans-2e" x="147.412109"/>
       <use xlink:href="#DejaVuSans-33" x="179.199219"/>
      </g>
     </g>
    </g>
    <g id="ytick_11">
     <g id="line2d_59">
      <path d="M 207.66 174.684772 
L 302.13 174.684772 
" clip-path="url(#pb5f80aa46e)" style="fill: none; stroke-dasharray: 1.85,0.8; stroke-dashoffset: 0; stroke: #b2b2b2; stroke-width: 0.5"/>
     </g>
     <g id="line2d_60">
      <g>
       <use xlink:href="#m74579b87e8" x="207.66" y="174.684772" style="stroke: #000000; stroke-width: 0.8"/>
      </g>
     </g>
     <g id="text_19">
      <!-- −0.2 -->
      <g transform="translate(179.877187 178.483991) scale(0.1 -0.1)">
       <use xlink:href="#DejaVuSans-2212"/>
       <use xlink:href="#DejaVuSans-30" x="83.789062"/>
       <use xlink:href="#DejaVuSans-2e" x="147.412109"/>
       <use xlink:href="#DejaVuSans-32" x="179.199219"/>
      </g>
     </g>
    </g>
    <g id="ytick_12">
     <g id="line2d_61">
      <path d="M 207.66 149.303028 
L 302.13 149.303028 
" clip-path="url(#pb5f80aa46e)" style="fill: none; stroke-dasharray: 1.85,0.8; stroke-dashoffset: 0; stroke: #b2b2b2; stroke-width: 0.5"/>
     </g>
     <g id="line2d_62">
      <g>
       <use xlink:href="#m74579b87e8" x="207.66" y="149.303028" style="stroke: #000000; stroke-width: 0.8"/>
      </g>
     </g>
     <g id="text_20">
      <!-- −0.1 -->
      <g transform="translate(179.877187 153.102246) scale(0.1 -0.1)">
       <use xlink:href="#DejaVuSans-2212"/>
       <use xlink:href="#DejaVuSans-30" x="83.789062"/>
       <use xlink:href="#DejaVuSans-2e" x="147.412109"/>
       <use xlink:href="#DejaVuSans-31" x="179.199219"/>
      </g>
     </g>
    </g>
    <g id="text_21">
     <!-- Position -->
     <g transform="translate(173.381563 191.086875) rotate(-90) scale(0.12 -0.12)">
      <use xlink:href="#DejaVuSans-50"/>
      <use xlink:href="#DejaVuSans-6f" x="56.677734"/>
      <use xlink:href="#DejaVuSans-73" x="117.859375"/>
      <use xlink:href="#DejaVuSans-69" x="169.958984"/>
      <use xlink:href="#DejaVuSans-74" x="197.742188"/>
      <use xlink:href="#DejaVuSans-69" x="236.951172"/>
      <use xlink:href="#DejaVuSans-6f" x="264.734375"/>
      <use xlink:href="#DejaVuSans-6e" x="325.916016"/>
     </g>
    </g>
   </g>
   <g id="line2d_63">
    <path d="M 211.954091 139.00113 
L 213.706781 144.799009 
L 215.459471 150.687201 
L 217.212161 156.384798 
L 218.964852 161.656522 
L 220.717542 167.662461 
L 222.470232 173.203111 
L 224.222922 177.834779 
L 225.975612 181.311134 
L 227.728302 183.674402 
L 229.480993 183.674065 
L 231.233683 183.724587 
L 232.986373 183.74248 
L 234.739063 183.648837 
L 236.491753 183.374251 
L 238.244443 185.296489 
L 239.997134 187.108273 
L 241.749824 188.853882 
L 243.502514 190.567035 
L 245.255204 192.27168 
L 247.007894 191.920476 
L 248.760584 191.510685 
L 250.513275 191.12292 
L 252.265965 190.820767 
L 254.018655 190.650183 
L 255.771345 191.495164 
L 257.524035 192.355929 
L 259.276725 193.224705 
L 261.029416 194.091829 
L 262.782106 194.945952 
L 264.534796 195.079292 
L 266.287486 195.025677 
L 268.040176 194.976047 
L 269.792866 195.088317 
L 271.545557 195.460691 
L 273.298247 196.075566 
L 275.050937 196.728201 
L 276.803627 197.41399 
L 278.556317 198.127197 
L 280.309007 198.86165 
L 282.061698 199.808833 
L 283.814388 200.182429 
L 285.567078 199.89512 
L 287.319768 198.916806 
L 289.072458 197.273024 
L 290.825148 195.394102 
L 292.577839 193.976164 
L 294.330529 193.078091 
L 296.083219 192.711253 
L 297.835909 192.844426 
" clip-path="url(#pb5f80aa46e)" style="fill: none; stroke: #348abd; stroke-width: 4; stroke-linecap: square"/>
   </g>
   <g id="line2d_64">
    <path d="M 211.954091 135.22249 
L 213.706781 140.893404 
L 215.459471 147.901602 
L 217.212161 154.830559 
L 218.964852 161.122194 
L 220.717542 167.418768 
L 222.470232 173.244064 
L 224.222922 177.792446 
L 225.975612 181.580173 
L 227.728302 183.815338 
L 229.480993 183.770931 
L 231.233683 183.813096 
L 232.986373 183.688015 
L 234.739063 183.659968 
L 236.491753 183.476325 
L 238.244443 185.411482 
L 239.997134 187.164062 
L 241.749824 188.824512 
L 243.502514 190.637154 
L 245.255204 192.342782 
L 247.007894 192.055228 
L 248.760584 191.594046 
L 250.513275 191.048973 
L 252.265965 190.807988 
L 254.018655 190.678245 
L 255.771345 191.510954 
L 257.524035 192.308464 
L 259.276725 193.230819 
L 261.029416 194.073617 
L 262.782106 194.951461 
L 264.534796 195.04825 
L 266.287486 195.026794 
L 268.040176 195.013158 
L 269.792866 195.083711 
L 271.545557 195.420442 
L 273.298247 195.994219 
L 275.050937 196.703705 
L 276.803627 197.34475 
L 278.556317 198.127831 
L 280.309007 198.866912 
L 282.061698 199.793701 
L 283.814388 200.23751 
L 285.567078 199.949813 
L 287.319768 199.001138 
L 289.072458 197.369079 
L 290.825148 195.43435 
L 292.577839 193.987308 
L 294.330529 193.106424 
L 296.083219 192.736915 
L 297.835909 192.815686 
" clip-path="url(#pb5f80aa46e)" style="fill: none; stroke-dasharray: 7.4,3.2; stroke-dashoffset: 0; stroke: #a60628; stroke-width: 2"/>
   </g>
   <g id="patch_23">
    <path d="M 207.66 203.488261 
L 207.66 131.971739 
" style="fill: none; stroke: #bcbcbc; stroke-width: 0.8; stroke-linejoin: miter; stroke-linecap: square"/>
   </g>
   <g id="patch_24">
    <path d="M 302.13 203.488261 
L 302.13 131.971739 
" style="fill: none; stroke: #bcbcbc; stroke-width: 0.8; stroke-linejoin: miter; stroke-linecap: square"/>
   </g>
   <g id="patch_25">
    <path d="M 207.66 203.488261 
L 302.13 203.488261 
" style="fill: none; stroke: #bcbcbc; stroke-width: 0.8; stroke-linejoin: miter; stroke-linecap: square"/>
   </g>
   <g id="patch_26">
    <path d="M 207.66 131.971739 
L 302.13 131.971739 
" style="fill: none; stroke: #bcbcbc; stroke-width: 0.8; stroke-linejoin: miter; stroke-linecap: square"/>
   </g>
   <g id="text_22">
    <!-- Robot 2 $y$ -->
    <g transform="translate(220.983 125.971739) scale(0.144 -0.144)">
     <use xlink:href="#DejaVuSans-52" transform="translate(0 0.015625)"/>
     <use xlink:href="#DejaVuSans-6f" transform="translate(69.482422 0.015625)"/>
     <use xlink:href="#DejaVuSans-62" transform="translate(130.664062 0.015625)"/>
     <use xlink:href="#DejaVuSans-6f" transform="translate(194.140625 0.015625)"/>
     <use xlink:href="#DejaVuSans-74" transform="translate(255.322266 0.015625)"/>
     <use xlink:href="#DejaVuSans-20" transform="translate(294.53125 0.015625)"/>
     <use xlink:href="#DejaVuSans-32" transform="translate(326.318359 0.015625)"/>
     <use xlink:href="#DejaVuSans-20" transform="translate(389.941406 0.015625)"/>
     <use xlink:href="#Cmmi10-79" transform="translate(421.728516 0.015625)"/>
    </g>
   </g>
  </g>
  <g id="axes_6">
   <g id="patch_27">
    <path d="M 355.53 203.488261 
L 450 203.488261 
L 450 131.971739 
L 355.53 131.971739 
z
" style="fill: #eeeeee"/>
   </g>
   <g id="matplotlib.axis_11">
    <g id="xtick_16">
     <g id="line2d_65">
      <path d="M 359.824091 203.488261 
L 359.824091 131.971739 
" clip-path="url(#p6d3b912e51)" style="fill: none; stroke-dasharray: 1.85,0.8; stroke-dashoffset: 0; stroke: #b2b2b2; stroke-width: 0.5"/>
     </g>
     <g id="line2d_66">
      <g>
       <use xlink:href="#m35b254980b" x="359.824091" y="203.488261" style="stroke: #000000; stroke-width: 0.8"/>
      </g>
     </g>
    </g>
    <g id="xtick_17">
     <g id="line2d_67">
      <path d="M 394.877894 203.488261 
L 394.877894 131.971739 
" clip-path="url(#p6d3b912e51)" style="fill: none; stroke-dasharray: 1.85,0.8; stroke-dashoffset: 0; stroke: #b2b2b2; stroke-width: 0.5"/>
     </g>
     <g id="line2d_68">
      <g>
       <use xlink:href="#m35b254980b" x="394.877894" y="203.488261" style="stroke: #000000; stroke-width: 0.8"/>
      </g>
     </g>
    </g>
    <g id="xtick_18">
     <g id="line2d_69">
      <path d="M 429.931698 203.488261 
L 429.931698 131.971739 
" clip-path="url(#p6d3b912e51)" style="fill: none; stroke-dasharray: 1.85,0.8; stroke-dashoffset: 0; stroke: #b2b2b2; stroke-width: 0.5"/>
     </g>
     <g id="line2d_70">
      <g>
       <use xlink:href="#m35b254980b" x="429.931698" y="203.488261" style="stroke: #000000; stroke-width: 0.8"/>
      </g>
     </g>
    </g>
   </g>
   <g id="matplotlib.axis_12">
    <g id="ytick_13">
     <g id="line2d_71">
      <path d="M 355.53 190.404038 
L 450 190.404038 
" clip-path="url(#p6d3b912e51)" style="fill: none; stroke-dasharray: 1.85,0.8; stroke-dashoffset: 0; stroke: #b2b2b2; stroke-width: 0.5"/>
     </g>
     <g id="line2d_72">
      <g>
       <use xlink:href="#m74579b87e8" x="355.53" y="190.404038" style="stroke: #000000; stroke-width: 0.8"/>
      </g>
     </g>
     <g id="text_23">
      <!-- 3 -->
      <g transform="translate(345.6675 194.203257) scale(0.1 -0.1)">
       <use xlink:href="#DejaVuSans-33"/>
      </g>
     </g>
    </g>
    <g id="ytick_14">
     <g id="line2d_73">
      <path d="M 355.53 166.061657 
L 450 166.061657 
" clip-path="url(#p6d3b912e51)" style="fill: none; stroke-dasharray: 1.85,0.8; stroke-dashoffset: 0; stroke: #b2b2b2; stroke-width: 0.5"/>
     </g>
     <g id="line2d_74">
      <g>
       <use xlink:href="#m74579b87e8" x="355.53" y="166.061657" style="stroke: #000000; stroke-width: 0.8"/>
      </g>
     </g>
     <g id="text_24">
      <!-- 4 -->
      <g transform="translate(345.6675 169.860876) scale(0.1 -0.1)">
       <use xlink:href="#DejaVuSans-34"/>
      </g>
     </g>
    </g>
    <g id="ytick_15">
     <g id="line2d_75">
      <path d="M 355.53 141.719276 
L 450 141.719276 
" clip-path="url(#p6d3b912e51)" style="fill: none; stroke-dasharray: 1.85,0.8; stroke-dashoffset: 0; stroke: #b2b2b2; stroke-width: 0.5"/>
     </g>
     <g id="line2d_76">
      <g>
       <use xlink:href="#m74579b87e8" x="355.53" y="141.719276" style="stroke: #000000; stroke-width: 0.8"/>
      </g>
     </g>
     <g id="text_25">
      <!-- 5 -->
      <g transform="translate(345.6675 145.518494) scale(0.1 -0.1)">
       <use xlink:href="#DejaVuSans-35"/>
      </g>
     </g>
    </g>
    <g id="text_26">
     <!-- Angle [rad] -->
     <g transform="translate(339.171875 201.345937) rotate(-90) scale(0.12 -0.12)">
      <use xlink:href="#DejaVuSans-41"/>
      <use xlink:href="#DejaVuSans-6e" x="68.408203"/>
      <use xlink:href="#DejaVuSans-67" x="131.787109"/>
      <use xlink:href="#DejaVuSans-6c" x="195.263672"/>
      <use xlink:href="#DejaVuSans-65" x="223.046875"/>
      <use xlink:href="#DejaVuSans-20" x="284.570312"/>
      <use xlink:href="#DejaVuSans-5b" x="316.357422"/>
      <use xlink:href="#DejaVuSans-72" x="355.371094"/>
      <use xlink:href="#DejaVuSans-61" x="396.484375"/>
      <use xlink:href="#DejaVuSans-64" x="457.763672"/>
      <use xlink:href="#DejaVuSans-5d" x="521.240234"/>
     </g>
    </g>
   </g>
   <g id="line2d_77">
    <path d="M 359.824091 147.567438 
L 361.576781 151.794546 
L 363.329471 156.021654 
L 365.082161 160.248762 
L 366.834852 164.47587 
L 368.587542 163.999668 
L 370.340232 163.523467 
L 372.092922 163.047265 
L 373.845612 162.571063 
L 375.598302 162.094862 
L 377.350993 156.720387 
L 379.103683 151.345913 
L 380.856373 145.971439 
L 382.609063 140.596964 
L 384.361753 135.22249 
L 386.114443 136.470187 
L 387.867134 137.717884 
L 389.619824 138.965581 
L 391.372514 140.213279 
L 393.125204 141.460976 
L 394.877894 142.60953 
L 396.630584 143.758084 
L 398.383275 144.906638 
L 400.135965 146.055192 
L 401.888655 147.203746 
L 403.641345 149.184657 
L 405.394035 151.165568 
L 407.146725 153.146479 
L 408.899416 155.12739 
L 410.652106 157.108302 
L 412.404796 159.711752 
L 414.157486 162.315202 
L 415.910176 164.918652 
L 417.662866 167.522102 
L 419.415557 170.125552 
L 421.168247 168.689491 
L 422.920937 167.253429 
L 424.673627 165.817368 
L 426.426317 164.381306 
L 428.179007 162.945245 
L 429.931698 170.234608 
L 431.684388 177.523971 
L 433.437078 184.813335 
L 435.189768 192.102698 
L 436.942458 199.392061 
L 438.695148 193.155837 
L 440.447839 186.919614 
L 442.200529 180.68339 
L 443.953219 174.447166 
L 445.705909 168.210942 
" clip-path="url(#p6d3b912e51)" style="fill: none; stroke: #348abd; stroke-width: 4; stroke-linecap: square"/>
   </g>
   <g id="line2d_78">
    <path d="M 359.824091 135.905221 
L 361.576781 143.859337 
L 363.329471 139.967478 
L 365.082161 156.947019 
L 366.834852 161.02948 
L 368.587542 163.501205 
L 370.340232 162.928672 
L 372.092922 164.140436 
L 373.845612 162.542845 
L 375.598302 163.027989 
L 377.350993 158.6079 
L 379.103683 151.014294 
L 380.856373 146.315727 
L 382.609063 142.03804 
L 384.361753 136.981154 
L 386.114443 138.185128 
L 387.867134 138.345058 
L 389.619824 139.003519 
L 391.372514 141.814334 
L 393.125204 142.776345 
L 394.877894 143.258324 
L 396.630584 144.311862 
L 398.383275 146.257062 
L 400.135965 146.51071 
L 401.888655 148.294033 
L 403.641345 149.779891 
L 405.394035 152.703168 
L 407.146725 154.245258 
L 408.899416 156.785385 
L 410.652106 157.393215 
L 412.404796 160.344242 
L 414.157486 163.736839 
L 415.910176 164.031869 
L 417.662866 169.274488 
L 419.415557 171.494513 
L 421.168247 170.225544 
L 422.920937 167.551047 
L 424.673627 167.34438 
L 426.426317 165.388713 
L 428.179007 163.825689 
L 429.931698 171.150798 
L 431.684388 177.937698 
L 433.437078 185.634515 
L 435.189768 192.701839 
L 436.942458 200.23751 
L 438.695148 194.604683 
L 440.447839 188.292947 
L 442.200529 181.498745 
L 443.953219 175.499808 
L 445.705909 169.792493 
" clip-path="url(#p6d3b912e51)" style="fill: none; stroke-dasharray: 7.4,3.2; stroke-dashoffset: 0; stroke: #a60628; stroke-width: 2"/>
   </g>
   <g id="patch_28">
    <path d="M 355.53 203.488261 
L 355.53 131.971739 
" style="fill: none; stroke: #bcbcbc; stroke-width: 0.8; stroke-linejoin: miter; stroke-linecap: square"/>
   </g>
   <g id="patch_29">
    <path d="M 450 203.488261 
L 450 131.971739 
" style="fill: none; stroke: #bcbcbc; stroke-width: 0.8; stroke-linejoin: miter; stroke-linecap: square"/>
   </g>
   <g id="patch_30">
    <path d="M 355.53 203.488261 
L 450 203.488261 
" style="fill: none; stroke: #bcbcbc; stroke-width: 0.8; stroke-linejoin: miter; stroke-linecap: square"/>
   </g>
   <g id="patch_31">
    <path d="M 355.53 131.971739 
L 450 131.971739 
" style="fill: none; stroke: #bcbcbc; stroke-width: 0.8; stroke-linejoin: miter; stroke-linecap: square"/>
   </g>
   <g id="text_27">
    <!-- Robot 2 $\theta$ -->
    <g transform="translate(368.997 125.971739) scale(0.144 -0.144)">
     <use xlink:href="#DejaVuSans-52" transform="translate(0 0.015625)"/>
     <use xlink:href="#DejaVuSans-6f" transform="translate(69.482422 0.015625)"/>
     <use xlink:href="#DejaVuSans-62" transform="translate(130.664062 0.015625)"/>
     <use xlink:href="#DejaVuSans-6f" transform="translate(194.140625 0.015625)"/>
     <use xlink:href="#DejaVuSans-74" transform="translate(255.322266 0.015625)"/>
     <use xlink:href="#DejaVuSans-20" transform="translate(294.53125 0.015625)"/>
     <use xlink:href="#DejaVuSans-32" transform="translate(326.318359 0.015625)"/>
     <use xlink:href="#DejaVuSans-20" transform="translate(389.941406 0.015625)"/>
     <use xlink:href="#Cmmi10-b5" transform="translate(421.728516 0.015625)"/>
    </g>
   </g>
  </g>
  <g id="axes_7">
   <g id="patch_32">
    <path d="M 59.79 306.42 
L 154.26 306.42 
L 154.26 234.903478 
L 59.79 234.903478 
z
" style="fill: #eeeeee"/>
   </g>
   <g id="matplotlib.axis_13">
    <g id="xtick_19">
     <g id="line2d_79">
      <path d="M 64.084091 306.42 
L 64.084091 234.903478 
" clip-path="url(#p438fb67fd6)" style="fill: none; stroke-dasharray: 1.85,0.8; stroke-dashoffset: 0; stroke: #b2b2b2; stroke-width: 0.5"/>
     </g>
     <g id="line2d_80">
      <g>
       <use xlink:href="#m35b254980b" x="64.084091" y="306.42" style="stroke: #000000; stroke-width: 0.8"/>
      </g>
     </g>
     <g id="text_28">
      <!-- 0 -->
      <g transform="translate(60.902841 317.518438) scale(0.1 -0.1)">
       <use xlink:href="#DejaVuSans-30"/>
      </g>
     </g>
    </g>
    <g id="xtick_20">
     <g id="line2d_81">
      <path d="M 99.137894 306.42 
L 99.137894 234.903478 
" clip-path="url(#p438fb67fd6)" style="fill: none; stroke-dasharray: 1.85,0.8; stroke-dashoffset: 0; stroke: #b2b2b2; stroke-width: 0.5"/>
     </g>
     <g id="line2d_82">
      <g>
       <use xlink:href="#m35b254980b" x="99.137894" y="306.42" style="stroke: #000000; stroke-width: 0.8"/>
      </g>
     </g>
     <g id="text_29">
      <!-- 20 -->
      <g transform="translate(92.775394 317.518438) scale(0.1 -0.1)">
       <use xlink:href="#DejaVuSans-32"/>
       <use xlink:href="#DejaVuSans-30" x="63.623047"/>
      </g>
     </g>
    </g>
    <g id="xtick_21">
     <g id="line2d_83">
      <path d="M 134.191698 306.42 
L 134.191698 234.903478 
" clip-path="url(#p438fb67fd6)" style="fill: none; stroke-dasharray: 1.85,0.8; stroke-dashoffset: 0; stroke: #b2b2b2; stroke-width: 0.5"/>
     </g>
     <g id="line2d_84">
      <g>
       <use xlink:href="#m35b254980b" x="134.191698" y="306.42" style="stroke: #000000; stroke-width: 0.8"/>
      </g>
     </g>
     <g id="text_30">
      <!-- 40 -->
      <g transform="translate(127.829198 317.518438) scale(0.1 -0.1)">
       <use xlink:href="#DejaVuSans-34"/>
       <use xlink:href="#DejaVuSans-30" x="63.623047"/>
      </g>
     </g>
    </g>
    <g id="text_31">
     <!-- Iteration -->
     <g transform="translate(81.574688 332.71625) scale(0.12 -0.12)">
      <defs>
       <path id="DejaVuSans-49" d="M 628 4666 
L 1259 4666 
L 1259 0 
L 628 0 
L 628 4666 
z
" transform="scale(0.015625)"/>
      </defs>
      <use xlink:href="#DejaVuSans-49"/>
      <use xlink:href="#DejaVuSans-74" x="29.492188"/>
      <use xlink:href="#DejaVuSans-65" x="68.701172"/>
      <use xlink:href="#DejaVuSans-72" x="130.224609"/>
      <use xlink:href="#DejaVuSans-61" x="171.337891"/>
      <use xlink:href="#DejaVuSans-74" x="232.617188"/>
      <use xlink:href="#DejaVuSans-69" x="271.826172"/>
      <use xlink:href="#DejaVuSans-6f" x="299.609375"/>
      <use xlink:href="#DejaVuSans-6e" x="360.791016"/>
     </g>
    </g>
   </g>
   <g id="matplotlib.axis_14">
    <g id="ytick_16">
     <g id="line2d_85">
      <path d="M 59.79 302.889453 
L 154.26 302.889453 
" clip-path="url(#p438fb67fd6)" style="fill: none; stroke-dasharray: 1.85,0.8; stroke-dashoffset: 0; stroke: #b2b2b2; stroke-width: 0.5"/>
     </g>
     <g id="line2d_86">
      <g>
       <use xlink:href="#m74579b87e8" x="59.79" y="302.889453" style="stroke: #000000; stroke-width: 0.8"/>
      </g>
     </g>
     <g id="text_32">
      <!-- 0.0 -->
      <g transform="translate(40.386875 306.688672) scale(0.1 -0.1)">
       <use xlink:href="#DejaVuSans-30"/>
       <use xlink:href="#DejaVuSans-2e" x="63.623047"/>
       <use xlink:href="#DejaVuSans-30" x="95.410156"/>
      </g>
     </g>
    </g>
    <g id="ytick_17">
     <g id="line2d_87">
      <path d="M 59.79 271.06205 
L 154.26 271.06205 
" clip-path="url(#p438fb67fd6)" style="fill: none; stroke-dasharray: 1.85,0.8; stroke-dashoffset: 0; stroke: #b2b2b2; stroke-width: 0.5"/>
     </g>
     <g id="line2d_88">
      <g>
       <use xlink:href="#m74579b87e8" x="59.79" y="271.06205" style="stroke: #000000; stroke-width: 0.8"/>
      </g>
     </g>
     <g id="text_33">
      <!-- 0.1 -->
      <g transform="translate(40.386875 274.861268) scale(0.1 -0.1)">
       <use xlink:href="#DejaVuSans-30"/>
       <use xlink:href="#DejaVuSans-2e" x="63.623047"/>
       <use xlink:href="#DejaVuSans-31" x="95.410156"/>
      </g>
     </g>
    </g>
    <g id="ytick_18">
     <g id="line2d_89">
      <path d="M 59.79 239.234646 
L 154.26 239.234646 
" clip-path="url(#p438fb67fd6)" style="fill: none; stroke-dasharray: 1.85,0.8; stroke-dashoffset: 0; stroke: #b2b2b2; stroke-width: 0.5"/>
     </g>
     <g id="line2d_90">
      <g>
       <use xlink:href="#m74579b87e8" x="59.79" y="239.234646" style="stroke: #000000; stroke-width: 0.8"/>
      </g>
     </g>
     <g id="text_34">
      <!-- 0.2 -->
      <g transform="translate(40.386875 243.033865) scale(0.1 -0.1)">
       <use xlink:href="#DejaVuSans-30"/>
       <use xlink:href="#DejaVuSans-2e" x="63.623047"/>
       <use xlink:href="#DejaVuSans-32" x="95.410156"/>
      </g>
     </g>
    </g>
    <g id="text_35">
     <!-- Position -->
     <g transform="translate(33.89125 294.018614) rotate(-90) scale(0.12 -0.12)">
      <use xlink:href="#DejaVuSans-50"/>
      <use xlink:href="#DejaVuSans-6f" x="56.677734"/>
      <use xlink:href="#DejaVuSans-73" x="117.859375"/>
      <use xlink:href="#DejaVuSans-69" x="169.958984"/>
      <use xlink:href="#DejaVuSans-74" x="197.742188"/>
      <use xlink:href="#DejaVuSans-69" x="236.951172"/>
      <use xlink:href="#DejaVuSans-6f" x="264.734375"/>
      <use xlink:href="#DejaVuSans-6e" x="325.916016"/>
     </g>
    </g>
   </g>
   <g id="line2d_91">
    <path d="M 64.084091 301.585688 
L 65.836781 297.641953 
L 67.589471 292.355109 
L 69.342161 286.070164 
L 71.094852 279.16632 
L 72.847542 269.936469 
L 74.600232 262.926134 
L 76.352922 258.41819 
L 78.105612 256.19444 
L 79.858302 255.685213 
L 81.610993 256.682665 
L 83.363683 256.929125 
L 85.116373 256.57128 
L 86.869063 255.774847 
L 88.621753 254.708075 
L 90.374443 252.834648 
L 92.127134 251.165435 
L 93.879824 249.708245 
L 95.632514 248.460054 
L 97.385204 247.411029 
L 99.137894 247.519763 
L 100.890584 247.9926 
L 102.643275 248.717117 
L 104.395965 249.60397 
L 106.148655 250.589634 
L 107.901345 251.187382 
L 109.654035 252.065356 
L 111.406725 253.197972 
L 113.159416 254.56458 
L 114.912106 256.148533 
L 116.664796 257.338067 
L 118.417486 257.913407 
L 120.170176 257.901937 
L 121.922866 257.359001 
L 123.675557 256.355038 
L 125.428247 255.004099 
L 127.180937 253.830141 
L 128.933627 252.814339 
L 130.686317 251.942635 
L 132.439007 251.207633 
L 134.191698 250.584287 
L 135.944388 249.302335 
L 137.697078 247.478155 
L 139.449768 245.253591 
L 141.202458 242.785109 
L 142.955148 241.538481 
L 144.707839 240.450296 
L 146.460529 239.528121 
L 148.213219 238.771388 
L 149.965909 238.171405 
" clip-path="url(#p438fb67fd6)" style="fill: none; stroke: #348abd; stroke-width: 4; stroke-linecap: square"/>
   </g>
   <g id="line2d_92">
    <path d="M 64.084091 303.169249 
L 65.836781 296.496227 
L 67.589471 290.618906 
L 69.342161 285.055182 
L 71.094852 278.525372 
L 72.847542 269.767852 
L 74.600232 262.813952 
L 76.352922 258.500847 
L 78.105612 256.176731 
L 79.858302 255.484149 
L 81.610993 256.530405 
L 83.363683 257.033482 
L 85.116373 256.673311 
L 86.869063 255.827195 
L 88.621753 254.766621 
L 90.374443 252.725711 
L 92.127134 251.145259 
L 93.879824 249.739291 
L 95.632514 248.459259 
L 97.385204 247.432042 
L 99.137894 247.463825 
L 100.890584 248.031143 
L 102.643275 248.670584 
L 104.395965 249.592684 
L 106.148655 250.597481 
L 107.901345 251.312321 
L 109.654035 252.079604 
L 111.406725 253.172554 
L 113.159416 254.557158 
L 114.912106 256.204875 
L 116.664796 257.328497 
L 118.417486 258.006048 
L 120.170176 257.952133 
L 121.922866 257.414927 
L 123.675557 256.320389 
L 125.428247 255.053652 
L 127.180937 253.747535 
L 128.933627 252.858741 
L 130.686317 251.927269 
L 132.439007 251.216086 
L 134.191698 250.585768 
L 135.944388 249.248469 
L 137.697078 247.486033 
L 139.449768 245.226025 
L 141.202458 242.734251 
L 142.955148 241.541943 
L 144.707839 240.425409 
L 146.460529 239.489411 
L 148.213219 238.778603 
L 149.965909 238.154229 
" clip-path="url(#p438fb67fd6)" style="fill: none; stroke-dasharray: 7.4,3.2; stroke-dashoffset: 0; stroke: #a60628; stroke-width: 2"/>
   </g>
   <g id="patch_33">
    <path d="M 59.79 306.42 
L 59.79 234.903478 
" style="fill: none; stroke: #bcbcbc; stroke-width: 0.8; stroke-linejoin: miter; stroke-linecap: square"/>
   </g>
   <g id="patch_34">
    <path d="M 154.26 306.42 
L 154.26 234.903478 
" style="fill: none; stroke: #bcbcbc; stroke-width: 0.8; stroke-linejoin: miter; stroke-linecap: square"/>
   </g>
   <g id="patch_35">
    <path d="M 59.79 306.42 
L 154.26 306.42 
" style="fill: none; stroke: #bcbcbc; stroke-width: 0.8; stroke-linejoin: miter; stroke-linecap: square"/>
   </g>
   <g id="patch_36">
    <path d="M 59.79 234.903478 
L 154.26 234.903478 
" style="fill: none; stroke: #bcbcbc; stroke-width: 0.8; stroke-linejoin: miter; stroke-linecap: square"/>
   </g>
   <g id="text_36">
    <!-- Robot 3 $x$ -->
    <g transform="translate(72.537 228.903478) scale(0.144 -0.144)">
     <use xlink:href="#DejaVuSans-52" transform="translate(0 0.015625)"/>
     <use xlink:href="#DejaVuSans-6f" transform="translate(69.482422 0.015625)"/>
     <use xlink:href="#DejaVuSans-62" transform="translate(130.664062 0.015625)"/>
     <use xlink:href="#DejaVuSans-6f" transform="translate(194.140625 0.015625)"/>
     <use xlink:href="#DejaVuSans-74" transform="translate(255.322266 0.015625)"/>
     <use xlink:href="#DejaVuSans-20" transform="translate(294.53125 0.015625)"/>
     <use xlink:href="#DejaVuSans-33" transform="translate(326.318359 0.015625)"/>
     <use xlink:href="#DejaVuSans-20" transform="translate(389.941406 0.015625)"/>
     <use xlink:href="#Cmmi10-78" transform="translate(421.728516 0.015625)"/>
    </g>
   </g>
  </g>
  <g id="axes_8">
   <g id="patch_37">
    <path d="M 207.66 306.42 
L 302.13 306.42 
L 302.13 234.903478 
L 207.66 234.903478 
z
" style="fill: #eeeeee"/>
   </g>
   <g id="matplotlib.axis_15">
    <g id="xtick_22">
     <g id="line2d_93">
      <path d="M 211.954091 306.42 
L 211.954091 234.903478 
" clip-path="url(#pf3095841ae)" style="fill: none; stroke-dasharray: 1.85,0.8; stroke-dashoffset: 0; stroke: #b2b2b2; stroke-width: 0.5"/>
     </g>
     <g id="line2d_94">
      <g>
       <use xlink:href="#m35b254980b" x="211.954091" y="306.42" style="stroke: #000000; stroke-width: 0.8"/>
      </g>
     </g>
     <g id="text_37">
      <!-- 0 -->
      <g transform="translate(208.772841 317.518438) scale(0.1 -0.1)">
       <use xlink:href="#DejaVuSans-30"/>
      </g>
     </g>
    </g>
    <g id="xtick_23">
     <g id="line2d_95">
      <path d="M 247.007894 306.42 
L 247.007894 234.903478 
" clip-path="url(#pf3095841ae)" style="fill: none; stroke-dasharray: 1.85,0.8; stroke-dashoffset: 0; stroke: #b2b2b2; stroke-width: 0.5"/>
     </g>
     <g id="line2d_96">
      <g>
       <use xlink:href="#m35b254980b" x="247.007894" y="306.42" style="stroke: #000000; stroke-width: 0.8"/>
      </g>
     </g>
     <g id="text_38">
      <!-- 20 -->
      <g transform="translate(240.645394 317.518438) scale(0.1 -0.1)">
       <use xlink:href="#DejaVuSans-32"/>
       <use xlink:href="#DejaVuSans-30" x="63.623047"/>
      </g>
     </g>
    </g>
    <g id="xtick_24">
     <g id="line2d_97">
      <path d="M 282.061698 306.42 
L 282.061698 234.903478 
" clip-path="url(#pf3095841ae)" style="fill: none; stroke-dasharray: 1.85,0.8; stroke-dashoffset: 0; stroke: #b2b2b2; stroke-width: 0.5"/>
     </g>
     <g id="line2d_98">
      <g>
       <use xlink:href="#m35b254980b" x="282.061698" y="306.42" style="stroke: #000000; stroke-width: 0.8"/>
      </g>
     </g>
     <g id="text_39">
      <!-- 40 -->
      <g transform="translate(275.699198 317.518438) scale(0.1 -0.1)">
       <use xlink:href="#DejaVuSans-34"/>
       <use xlink:href="#DejaVuSans-30" x="63.623047"/>
      </g>
     </g>
    </g>
    <g id="text_40">
     <!-- Iteration -->
     <g transform="translate(229.444687 332.71625) scale(0.12 -0.12)">
      <use xlink:href="#DejaVuSans-49"/>
      <use xlink:href="#DejaVuSans-74" x="29.492188"/>
      <use xlink:href="#DejaVuSans-65" x="68.701172"/>
      <use xlink:href="#DejaVuSans-72" x="130.224609"/>
      <use xlink:href="#DejaVuSans-61" x="171.337891"/>
      <use xlink:href="#DejaVuSans-74" x="232.617188"/>
      <use xlink:href="#DejaVuSans-69" x="271.826172"/>
      <use xlink:href="#DejaVuSans-6f" x="299.609375"/>
      <use xlink:href="#DejaVuSans-6e" x="360.791016"/>
     </g>
    </g>
   </g>
   <g id="matplotlib.axis_16">
    <g id="ytick_19">
     <g id="line2d_99">
      <path d="M 207.66 279.755053 
L 302.13 279.755053 
" clip-path="url(#pf3095841ae)" style="fill: none; stroke-dasharray: 1.85,0.8; stroke-dashoffset: 0; stroke: #b2b2b2; stroke-width: 0.5"/>
     </g>
     <g id="line2d_100">
      <g>
       <use xlink:href="#m74579b87e8" x="207.66" y="279.755053" style="stroke: #000000; stroke-width: 0.8"/>
      </g>
     </g>
     <g id="text_41">
      <!-- 0.0 -->
      <g transform="translate(188.256875 283.554272) scale(0.1 -0.1)">
       <use xlink:href="#DejaVuSans-30"/>
       <use xlink:href="#DejaVuSans-2e" x="63.623047"/>
       <use xlink:href="#DejaVuSans-30" x="95.410156"/>
      </g>
     </g>
    </g>
    <g id="ytick_20">
     <g id="line2d_101">
      <path d="M 207.66 246.853153 
L 302.13 246.853153 
" clip-path="url(#pf3095841ae)" style="fill: none; stroke-dasharray: 1.85,0.8; stroke-dashoffset: 0; stroke: #b2b2b2; stroke-width: 0.5"/>
     </g>
     <g id="line2d_102">
      <g>
       <use xlink:href="#m74579b87e8" x="207.66" y="246.853153" style="stroke: #000000; stroke-width: 0.8"/>
      </g>
     </g>
     <g id="text_42">
      <!-- 0.2 -->
      <g transform="translate(188.256875 250.652372) scale(0.1 -0.1)">
       <use xlink:href="#DejaVuSans-30"/>
       <use xlink:href="#DejaVuSans-2e" x="63.623047"/>
       <use xlink:href="#DejaVuSans-32" x="95.410156"/>
      </g>
     </g>
    </g>
    <g id="text_43">
     <!-- Position -->
     <g transform="translate(181.76125 294.018614) rotate(-90) scale(0.12 -0.12)">
      <use xlink:href="#DejaVuSans-50"/>
      <use xlink:href="#DejaVuSans-6f" x="56.677734"/>
      <use xlink:href="#DejaVuSans-73" x="117.859375"/>
      <use xlink:href="#DejaVuSans-69" x="169.958984"/>
      <use xlink:href="#DejaVuSans-74" x="197.742188"/>
      <use xlink:href="#DejaVuSans-69" x="236.951172"/>
      <use xlink:href="#DejaVuSans-6f" x="264.734375"/>
      <use xlink:href="#DejaVuSans-6e" x="325.916016"/>
     </g>
    </g>
   </g>
   <g id="line2d_103">
    <path d="M 211.954091 300.834 
L 213.706781 296.693468 
L 215.459471 293.089133 
L 217.212161 290.14213 
L 218.964852 287.91377 
L 220.717542 285.673465 
L 222.470232 283.100774 
L 224.222922 280.187179 
L 225.975612 276.944975 
L 227.728302 273.440348 
L 229.480993 272.080926 
L 231.233683 270.981791 
L 232.986373 270.192163 
L 234.739063 269.734221 
L 236.491753 269.607089 
L 238.244443 269.535028 
L 239.997134 269.221499 
L 241.749824 268.685552 
L 243.502514 267.946198 
L 245.255204 267.023078 
L 247.007894 266.389279 
L 248.760584 265.684947 
L 250.513275 264.918875 
L 252.265965 264.103956 
L 254.018655 263.256116 
L 255.771345 260.869708 
L 257.524035 258.57669 
L 259.276725 256.37646 
L 261.029416 254.268002 
L 262.782106 252.250152 
L 264.534796 251.089593 
L 266.287486 249.85174 
L 268.040176 248.624169 
L 269.792866 247.490018 
L 271.545557 246.518935 
L 273.298247 245.476599 
L 275.050937 244.365384 
L 276.803627 243.183523 
L 278.556317 241.936555 
L 280.309007 240.636807 
L 282.061698 239.503538 
L 283.814388 238.700455 
L 285.567078 238.250124 
L 287.319768 238.154229 
L 289.072458 238.396265 
L 290.825148 238.882543 
L 292.577839 239.466643 
L 294.330529 240.118123 
L 296.083219 240.808552 
L 297.835909 241.51406 
" clip-path="url(#pf3095841ae)" style="fill: none; stroke: #348abd; stroke-width: 4; stroke-linecap: square"/>
   </g>
   <g id="line2d_104">
    <path d="M 211.954091 303.169249 
L 213.706781 298.743454 
L 215.459471 293.393236 
L 217.212161 290.12314 
L 218.964852 288.155705 
L 220.717542 285.920159 
L 222.470232 283.164406 
L 224.222922 280.094233 
L 225.975612 276.793416 
L 227.728302 273.351337 
L 229.480993 272.016052 
L 231.233683 270.930473 
L 232.986373 270.139721 
L 234.739063 269.700457 
L 236.491753 269.610294 
L 238.244443 269.558392 
L 239.997134 269.283122 
L 241.749824 268.720292 
L 243.502514 268.063031 
L 245.255204 267.083857 
L 247.007894 266.383618 
L 248.760584 265.661881 
L 250.513275 264.924545 
L 252.265965 264.051496 
L 254.018655 263.233877 
L 255.771345 260.814033 
L 257.524035 258.551407 
L 259.276725 256.41872 
L 261.029416 254.236362 
L 262.782106 252.246837 
L 264.534796 251.082488 
L 266.287486 249.818471 
L 268.040176 248.628711 
L 269.792866 247.492909 
L 271.545557 246.494541 
L 273.298247 245.507292 
L 275.050937 244.419238 
L 276.803627 243.201807 
L 278.556317 241.926818 
L 280.309007 240.660188 
L 282.061698 239.547167 
L 283.814388 238.737105 
L 285.567078 238.242947 
L 287.319768 238.182243 
L 289.072458 238.379304 
L 290.825148 238.839168 
L 292.577839 239.513146 
L 294.330529 240.132164 
L 296.083219 240.801717 
L 297.835909 241.458516 
" clip-path="url(#pf3095841ae)" style="fill: none; stroke-dasharray: 7.4,3.2; stroke-dashoffset: 0; stroke: #a60628; stroke-width: 2"/>
   </g>
   <g id="patch_38">
    <path d="M 207.66 306.42 
L 207.66 234.903478 
" style="fill: none; stroke: #bcbcbc; stroke-width: 0.8; stroke-linejoin: miter; stroke-linecap: square"/>
   </g>
   <g id="patch_39">
    <path d="M 302.13 306.42 
L 302.13 234.903478 
" style="fill: none; stroke: #bcbcbc; stroke-width: 0.8; stroke-linejoin: miter; stroke-linecap: square"/>
   </g>
   <g id="patch_40">
    <path d="M 207.66 306.42 
L 302.13 306.42 
" style="fill: none; stroke: #bcbcbc; stroke-width: 0.8; stroke-linejoin: miter; stroke-linecap: square"/>
   </g>
   <g id="patch_41">
    <path d="M 207.66 234.903478 
L 302.13 234.903478 
" style="fill: none; stroke: #bcbcbc; stroke-width: 0.8; stroke-linejoin: miter; stroke-linecap: square"/>
   </g>
   <g id="text_44">
    <!-- Robot 3 $y$ -->
    <g transform="translate(220.983 228.903478) scale(0.144 -0.144)">
     <use xlink:href="#DejaVuSans-52" transform="translate(0 0.015625)"/>
     <use xlink:href="#DejaVuSans-6f" transform="translate(69.482422 0.015625)"/>
     <use xlink:href="#DejaVuSans-62" transform="translate(130.664062 0.015625)"/>
     <use xlink:href="#DejaVuSans-6f" transform="translate(194.140625 0.015625)"/>
     <use xlink:href="#DejaVuSans-74" transform="translate(255.322266 0.015625)"/>
     <use xlink:href="#DejaVuSans-20" transform="translate(294.53125 0.015625)"/>
     <use xlink:href="#DejaVuSans-33" transform="translate(326.318359 0.015625)"/>
     <use xlink:href="#DejaVuSans-20" transform="translate(389.941406 0.015625)"/>
     <use xlink:href="#Cmmi10-79" transform="translate(421.728516 0.015625)"/>
    </g>
   </g>
  </g>
  <g id="axes_9">
   <g id="patch_42">
    <path d="M 355.53 306.42 
L 450 306.42 
L 450 234.903478 
L 355.53 234.903478 
z
" style="fill: #eeeeee"/>
   </g>
   <g id="matplotlib.axis_17">
    <g id="xtick_25">
     <g id="line2d_105">
      <path d="M 359.824091 306.42 
L 359.824091 234.903478 
" clip-path="url(#pb4ec2dafa8)" style="fill: none; stroke-dasharray: 1.85,0.8; stroke-dashoffset: 0; stroke: #b2b2b2; stroke-width: 0.5"/>
     </g>
     <g id="line2d_106">
      <g>
       <use xlink:href="#m35b254980b" x="359.824091" y="306.42" style="stroke: #000000; stroke-width: 0.8"/>
      </g>
     </g>
     <g id="text_45">
      <!-- 0 -->
      <g transform="translate(356.642841 317.518438) scale(0.1 -0.1)">
       <use xlink:href="#DejaVuSans-30"/>
      </g>
     </g>
    </g>
    <g id="xtick_26">
     <g id="line2d_107">
      <path d="M 394.877894 306.42 
L 394.877894 234.903478 
" clip-path="url(#pb4ec2dafa8)" style="fill: none; stroke-dasharray: 1.85,0.8; stroke-dashoffset: 0; stroke: #b2b2b2; stroke-width: 0.5"/>
     </g>
     <g id="line2d_108">
      <g>
       <use xlink:href="#m35b254980b" x="394.877894" y="306.42" style="stroke: #000000; stroke-width: 0.8"/>
      </g>
     </g>
     <g id="text_46">
      <!-- 20 -->
      <g transform="translate(388.515394 317.518438) scale(0.1 -0.1)">
       <use xlink:href="#DejaVuSans-32"/>
       <use xlink:href="#DejaVuSans-30" x="63.623047"/>
      </g>
     </g>
    </g>
    <g id="xtick_27">
     <g id="line2d_109">
      <path d="M 429.931698 306.42 
L 429.931698 234.903478 
" clip-path="url(#pb4ec2dafa8)" style="fill: none; stroke-dasharray: 1.85,0.8; stroke-dashoffset: 0; stroke: #b2b2b2; stroke-width: 0.5"/>
     </g>
     <g id="line2d_110">
      <g>
       <use xlink:href="#m35b254980b" x="429.931698" y="306.42" style="stroke: #000000; stroke-width: 0.8"/>
      </g>
     </g>
     <g id="text_47">
      <!-- 40 -->
      <g transform="translate(423.569198 317.518438) scale(0.1 -0.1)">
       <use xlink:href="#DejaVuSans-34"/>
       <use xlink:href="#DejaVuSans-30" x="63.623047"/>
      </g>
     </g>
    </g>
    <g id="text_48">
     <!-- Iteration -->
     <g transform="translate(377.314687 332.71625) scale(0.12 -0.12)">
      <use xlink:href="#DejaVuSans-49"/>
      <use xlink:href="#DejaVuSans-74" x="29.492188"/>
      <use xlink:href="#DejaVuSans-65" x="68.701172"/>
      <use xlink:href="#DejaVuSans-72" x="130.224609"/>
      <use xlink:href="#DejaVuSans-61" x="171.337891"/>
      <use xlink:href="#DejaVuSans-74" x="232.617188"/>
      <use xlink:href="#DejaVuSans-69" x="271.826172"/>
      <use xlink:href="#DejaVuSans-6f" x="299.609375"/>
      <use xlink:href="#DejaVuSans-6e" x="360.791016"/>
     </g>
    </g>
   </g>
   <g id="matplotlib.axis_18">
    <g id="ytick_21">
     <g id="line2d_111">
      <path d="M 355.53 303.372183 
L 450 303.372183 
" clip-path="url(#pb4ec2dafa8)" style="fill: none; stroke-dasharray: 1.85,0.8; stroke-dashoffset: 0; stroke: #b2b2b2; stroke-width: 0.5"/>
     </g>
     <g id="line2d_112">
      <g>
       <use xlink:href="#m74579b87e8" x="355.53" y="303.372183" style="stroke: #000000; stroke-width: 0.8"/>
      </g>
     </g>
     <g id="text_49">
      <!-- 0.0 -->
      <g transform="translate(336.126875 307.171402) scale(0.1 -0.1)">
       <use xlink:href="#DejaVuSans-30"/>
       <use xlink:href="#DejaVuSans-2e" x="63.623047"/>
       <use xlink:href="#DejaVuSans-30" x="95.410156"/>
      </g>
     </g>
    </g>
    <g id="ytick_22">
     <g id="line2d_113">
      <path d="M 355.53 277.327818 
L 450 277.327818 
" clip-path="url(#pb4ec2dafa8)" style="fill: none; stroke-dasharray: 1.85,0.8; stroke-dashoffset: 0; stroke: #b2b2b2; stroke-width: 0.5"/>
     </g>
     <g id="line2d_114">
      <g>
       <use xlink:href="#m74579b87e8" x="355.53" y="277.327818" style="stroke: #000000; stroke-width: 0.8"/>
      </g>
     </g>
     <g id="text_50">
      <!-- 2.5 -->
      <g transform="translate(336.126875 281.127037) scale(0.1 -0.1)">
       <use xlink:href="#DejaVuSans-32"/>
       <use xlink:href="#DejaVuSans-2e" x="63.623047"/>
       <use xlink:href="#DejaVuSans-35" x="95.410156"/>
      </g>
     </g>
    </g>
    <g id="ytick_23">
     <g id="line2d_115">
      <path d="M 355.53 251.283453 
L 450 251.283453 
" clip-path="url(#pb4ec2dafa8)" style="fill: none; stroke-dasharray: 1.85,0.8; stroke-dashoffset: 0; stroke: #b2b2b2; stroke-width: 0.5"/>
     </g>
     <g id="line2d_116">
      <g>
       <use xlink:href="#m74579b87e8" x="355.53" y="251.283453" style="stroke: #000000; stroke-width: 0.8"/>
      </g>
     </g>
     <g id="text_51">
      <!-- 5.0 -->
      <g transform="translate(336.126875 255.082672) scale(0.1 -0.1)">
       <use xlink:href="#DejaVuSans-35"/>
       <use xlink:href="#DejaVuSans-2e" x="63.623047"/>
       <use xlink:href="#DejaVuSans-30" x="95.410156"/>
      </g>
     </g>
    </g>
    <g id="text_52">
     <!-- Angle [rad] -->
     <g transform="translate(329.63125 304.277677) rotate(-90) scale(0.12 -0.12)">
      <use xlink:href="#DejaVuSans-41"/>
      <use xlink:href="#DejaVuSans-6e" x="68.408203"/>
      <use xlink:href="#DejaVuSans-67" x="131.787109"/>
      <use xlink:href="#DejaVuSans-6c" x="195.263672"/>
      <use xlink:href="#DejaVuSans-65" x="223.046875"/>
      <use xlink:href="#DejaVuSans-20" x="284.570312"/>
      <use xlink:href="#DejaVuSans-5b" x="316.357422"/>
      <use xlink:href="#DejaVuSans-72" x="355.371094"/>
      <use xlink:href="#DejaVuSans-61" x="396.484375"/>
      <use xlink:href="#DejaVuSans-64" x="457.763672"/>
      <use xlink:href="#DejaVuSans-5d" x="521.240234"/>
     </g>
    </g>
   </g>
   <g id="line2d_117">
    <path d="M 359.824091 291.68865 
L 361.576781 293.075091 
L 363.329471 294.461531 
L 365.082161 295.847971 
L 366.834852 297.234411 
L 368.587542 295.730289 
L 370.340232 294.226168 
L 372.092922 292.722047 
L 373.845612 291.217925 
L 375.598302 289.713804 
L 377.350993 292.359908 
L 379.103683 295.006013 
L 380.856373 297.652117 
L 382.609063 300.298222 
L 384.361753 302.944326 
L 386.114443 301.550765 
L 387.867134 300.157204 
L 389.619824 298.763642 
L 391.372514 297.370081 
L 393.125204 295.97652 
L 394.877894 294.57649 
L 396.630584 293.176461 
L 398.383275 291.776431 
L 400.135965 290.376401 
L 401.888655 288.976372 
L 403.641345 288.175868 
L 405.394035 287.375364 
L 407.146725 286.57486 
L 408.899416 285.774356 
L 410.652106 284.973852 
L 412.404796 287.045793 
L 414.157486 289.117734 
L 415.910176 291.189674 
L 417.662866 293.261615 
L 419.415557 295.333556 
L 421.168247 294.81361 
L 422.920937 294.293664 
L 424.673627 293.773718 
L 426.426317 293.253772 
L 428.179007 292.733826 
L 429.931698 295.198782 
L 431.684388 297.663738 
L 433.437078 300.128693 
L 435.189768 302.593649 
L 436.942458 239.601977 
L 438.695148 240.128621 
L 440.447839 240.655266 
L 442.200529 241.181911 
L 443.953219 241.708556 
L 445.705909 242.2352 
" clip-path="url(#pb4ec2dafa8)" style="fill: none; stroke: #348abd; stroke-width: 4; stroke-linecap: square"/>
   </g>
   <g id="line2d_118">
    <path d="M 359.824091 248.372579 
L 361.576781 238.433321 
L 363.329471 297.53304 
L 365.082161 298.235717 
L 366.834852 299.367397 
L 368.587542 296.679202 
L 370.340232 294.749418 
L 372.092922 293.033928 
L 373.845612 291.781298 
L 375.598302 290.442097 
L 377.350993 292.949961 
L 379.103683 295.148835 
L 380.856373 297.98017 
L 382.609063 300.84057 
L 384.361753 238.154229 
L 386.114443 302.152998 
L 387.867134 300.670865 
L 389.619824 298.999546 
L 391.372514 298.131227 
L 393.125204 296.242281 
L 394.877894 294.920165 
L 396.630584 293.323958 
L 398.383275 292.450847 
L 400.135965 290.644097 
L 401.888655 289.267913 
L 403.641345 288.319898 
L 405.394035 287.988093 
L 407.146725 287.063726 
L 408.899416 286.176343 
L 410.652106 285.216556 
L 412.404796 287.643995 
L 414.157486 289.168528 
L 415.910176 291.776819 
L 417.662866 293.702435 
L 419.415557 295.881411 
L 421.168247 295.286662 
L 422.920937 295.109352 
L 424.673627 293.918812 
L 426.426317 293.683683 
L 428.179007 293.128417 
L 429.931698 295.584713 
L 431.684388 298.096849 
L 433.437078 300.269678 
L 435.189768 303.169249 
L 436.942458 239.775022 
L 438.695148 240.267261 
L 440.447839 241.797523 
L 442.200529 241.467802 
L 443.953219 241.972125 
L 445.705909 242.11266 
" clip-path="url(#pb4ec2dafa8)" style="fill: none; stroke-dasharray: 7.4,3.2; stroke-dashoffset: 0; stroke: #a60628; stroke-width: 2"/>
   </g>
   <g id="patch_43">
    <path d="M 355.53 306.42 
L 355.53 234.903478 
" style="fill: none; stroke: #bcbcbc; stroke-width: 0.8; stroke-linejoin: miter; stroke-linecap: square"/>
   </g>
   <g id="patch_44">
    <path d="M 450 306.42 
L 450 234.903478 
" style="fill: none; stroke: #bcbcbc; stroke-width: 0.8; stroke-linejoin: miter; stroke-linecap: square"/>
   </g>
   <g id="patch_45">
    <path d="M 355.53 306.42 
L 450 306.42 
" style="fill: none; stroke: #bcbcbc; stroke-width: 0.8; stroke-linejoin: miter; stroke-linecap: square"/>
   </g>
   <g id="patch_46">
    <path d="M 355.53 234.903478 
L 450 234.903478 
" style="fill: none; stroke: #bcbcbc; stroke-width: 0.8; stroke-linejoin: miter; stroke-linecap: square"/>
   </g>
   <g id="text_53">
    <!-- Robot 3 $\theta$ -->
    <g transform="translate(368.997 228.903478) scale(0.144 -0.144)">
     <use xlink:href="#DejaVuSans-52" transform="translate(0 0.015625)"/>
     <use xlink:href="#DejaVuSans-6f" transform="translate(69.482422 0.015625)"/>
     <use xlink:href="#DejaVuSans-62" transform="translate(130.664062 0.015625)"/>
     <use xlink:href="#DejaVuSans-6f" transform="translate(194.140625 0.015625)"/>
     <use xlink:href="#DejaVuSans-74" transform="translate(255.322266 0.015625)"/>
     <use xlink:href="#DejaVuSans-20" transform="translate(294.53125 0.015625)"/>
     <use xlink:href="#DejaVuSans-33" transform="translate(326.318359 0.015625)"/>
     <use xlink:href="#DejaVuSans-20" transform="translate(389.941406 0.015625)"/>
     <use xlink:href="#Cmmi10-b5" transform="translate(421.728516 0.015625)"/>
    </g>
   </g>
  </g>
 </g>
 <defs>
  <clipPath id="pf29a6b899c">
   <rect x="59.79" y="29.04" width="94.47" height="71.516522"/>
  </clipPath>
  <clipPath id="p94bc232067">
   <rect x="207.66" y="29.04" width="94.47" height="71.516522"/>
  </clipPath>
  <clipPath id="pd8d0404029">
   <rect x="355.53" y="29.04" width="94.47" height="71.516522"/>
  </clipPath>
  <clipPath id="p6148bb10bf">
   <rect x="59.79" y="131.971739" width="94.47" height="71.516522"/>
  </clipPath>
  <clipPath id="pb5f80aa46e">
   <rect x="207.66" y="131.971739" width="94.47" height="71.516522"/>
  </clipPath>
  <clipPath id="p6d3b912e51">
   <rect x="355.53" y="131.971739" width="94.47" height="71.516522"/>
  </clipPath>
  <clipPath id="p438fb67fd6">
   <rect x="59.79" y="234.903478" width="94.47" height="71.516522"/>
  </clipPath>
  <clipPath id="pf3095841ae">
   <rect x="207.66" y="234.903478" width="94.47" height="71.516522"/>
  </clipPath>
  <clipPath id="pb4ec2dafa8">
   <rect x="355.53" y="234.903478" width="94.47" height="71.516522"/>
  </clipPath>
 </defs>
</svg>
